<?xml version="1.0" encoding="UTF-8" standalone="no"?>
<svg
   xmlns:dc="http://purl.org/dc/elements/1.1/"
   xmlns:cc="http://creativecommons.org/ns#"
   xmlns:rdf="http://www.w3.org/1999/02/22-rdf-syntax-ns#"
   xmlns:svg="http://www.w3.org/2000/svg"
   xmlns="http://www.w3.org/2000/svg"
   xmlns:sodipodi="http://sodipodi.sourceforge.net/DTD/sodipodi-0.dtd"
   xmlns:inkscape="http://www.inkscape.org/namespaces/inkscape"
   width="297mm"
   height="210mm"
   viewBox="0 0 297 210"
   version="1.1"
   id="svg234"
   sodipodi:docname="dyslexiaOnlineHero2V2.svg"
   inkscape:version="1.0.1 (3bc2e813f5, 2020-09-07)">
  <defs
     id="defs228" />
  <sodipodi:namedview
     id="base"
     pagecolor="#ffffff"
     bordercolor="#666666"
     borderopacity="1.0"
     inkscape:pageopacity="0.0"
     inkscape:pageshadow="2"
     inkscape:zoom="1.5801597"
     inkscape:cx="290.71007"
     inkscape:cy="394.65391"
     inkscape:document-units="mm"
     inkscape:current-layer="layer1"
     inkscape:document-rotation="0"
     showgrid="false"
     inkscape:window-width="3136"
     inkscape:window-height="1725"
     inkscape:window-x="64"
     inkscape:window-y="35"
     inkscape:window-maximized="1" />
  <metadata
     id="metadata231">
    <rdf:RDF>
      <cc:Work
         rdf:about="">
        <dc:format>image/svg+xml</dc:format>
        <dc:type
           rdf:resource="http://purl.org/dc/dcmitype/StillImage" />
        <dc:title></dc:title>
      </cc:Work>
    </rdf:RDF>
  </metadata>
  <g
     inkscape:label="Layer 1"
     inkscape:groupmode="layer"
     id="layer1">
    <g
       id="g85">
      <path
         style="fill:none;stroke:#000000;stroke-width:0.264583px;stroke-linecap:butt;stroke-linejoin:miter;stroke-opacity:1"
         d="M 116.17311,222.83754 Z"
         id="path256" />
      <path
         style="fill:#000000;stroke:#000000;stroke-width:0.264583px;stroke-linecap:butt;stroke-linejoin:miter;stroke-opacity:1"
         d="M 100.6065,216.28419 Z"
         id="path258" />
      <path
         style="fill:none;stroke:#000000;stroke-width:0.264583px;stroke-linecap:butt;stroke-linejoin:miter;stroke-opacity:1"
         d="M -1.8244045,113.23786 110.35339,216.69304 Z"
         id="path262" />
      <path
         style="fill:none;stroke:#000000;stroke-width:0.264583px;stroke-linecap:butt;stroke-linejoin:miter;stroke-opacity:1"
         d="M 37.132508,148.98796 45.446309,0.11830418 Z"
         id="path264" />
      <path
         style="fill:#000080;stroke:#000080;stroke-width:0.264583px;stroke-linecap:butt;stroke-linejoin:miter;stroke-opacity:1"
         d="M 41.822846,65.159797 Z"
         id="path274" />
      <path
         style="fill:none;stroke:#000000;stroke-width:0.264583px;stroke-linecap:butt;stroke-linejoin:miter;stroke-opacity:1"
         d="M -2.0325916,28.892677 41.822846,65.159797 Z"
         id="path1099" />
      <path
         style="fill:none;stroke:#000000;stroke-width:0.264583px;stroke-linecap:butt;stroke-linejoin:miter;stroke-opacity:1"
         d="M 166.79509,-4.6179149 Z"
         id="path1101" />
      <path
         style="fill:none;stroke:#000000;stroke-width:0.264583px;stroke-linecap:butt;stroke-linejoin:miter;stroke-opacity:1"
         d="M 37.132508,148.98796 154.67114,-4.3649243 Z"
         id="path1103" />
      <path
         style="fill:none;stroke:#000000;stroke-width:0.264583px;stroke-linecap:butt;stroke-linejoin:miter;stroke-opacity:1"
         d="M 103.45573,210.12602 204.61897,126.21155 95.52592,72.01782 l 60.28043,94.53723 z"
         id="path1105" />
      <path
         style="fill:none;stroke:#000000;stroke-width:0.264583px;stroke-linecap:butt;stroke-linejoin:miter;stroke-opacity:1"
         d="M 177.99401,212.70862 221.43073,71.727424 Z"
         id="path1107" />
      <path
         style="fill:#000080;stroke:#000000;stroke-width:0.264583px;stroke-linecap:butt;stroke-linejoin:miter;stroke-opacity:1"
         d="M 299.15381,214.11774 Z"
         id="path1109" />
      <path
         style="fill:none;stroke:#000000;stroke-width:0.264583px;stroke-linecap:butt;stroke-linejoin:miter;stroke-opacity:1"
         d="M 299.15381,214.11774 Z"
         id="path1111" />
      <path
         style="fill:none;stroke:#000000;stroke-width:0.264583px;stroke-linecap:butt;stroke-linejoin:miter;stroke-opacity:1"
         d="M 221.43073,71.727424 299.15381,214.11774 Z"
         id="path1113" />
      <path
         style="fill:none;stroke:#000000;stroke-width:0.264583px;stroke-linecap:butt;stroke-linejoin:miter;stroke-opacity:1"
         d="M 221.43073,71.727424 297.15155,-0.32218368 299.15381,214.11774"
         id="path1115" />
      <path
         style="fill:none;stroke:#000000;stroke-width:0.264583px;stroke-linecap:butt;stroke-linejoin:miter;stroke-opacity:1"
         d="M 41.822846,65.159797 95.52592,72.01782 Z"
         id="path1117" />
      <path
         style="fill:none;stroke:#000000;stroke-width:0.264583px;stroke-linecap:butt;stroke-linejoin:miter;stroke-opacity:1"
         d="M 135.26267,22.037505 Z"
         id="path1119" />
      <path
         style="fill:none;stroke:#000000;stroke-width:0.278268px;stroke-linecap:butt;stroke-linejoin:miter;stroke-opacity:1"
         d="M 221.42709,71.721199 131.72174,18.925333 Z"
         id="path1121" />
      <path
         style="fill:none;stroke:#000000;stroke-width:0.264583px;stroke-linecap:butt;stroke-linejoin:miter;stroke-opacity:1"
         d="M -0.44298658,-0.09193714 297.15155,-0.32218368 296.79116,209.99422 -0.08533516,209.77918 Z"
         id="path1123" />
      <path
         style="fill:#e4c1f9;stroke:none;stroke-width:0.632847;fill-opacity:1"
         d="M 78.141258,178.9976 -0.80645767,113.7046 V 57.265847 0.82708726 L 84.786156,0.51617356 C 131.86209,0.3451711 170.50321,0.31249061 170.6553,0.4435504 170.93383,0.68355905 158.30858,230.26489 157.51494,239.39193 l -0.42597,4.89866 z"
         id="path1143"
         transform="scale(0.26458333)" />
      <path
         style="fill:#e4c1f9;stroke:none;stroke-width:0.632847;fill-opacity:1"
         d="M 265.62231,678.13385 C 197.57539,615.34861 141.90064,563.65807 141.90064,563.26601 c 0,-0.39206 49.52457,-65.32878 110.05461,-144.30381 l 110.05462,-143.59097 1.69172,2.65995 c 0.93046,1.46298 51.56908,80.87772 112.53028,176.47722 60.9612,95.59948 110.91838,174.0916 111.01595,174.42692 0.2858,0.9822 -195.20041,163.40077 -196.63815,163.37565 -0.78661,-0.0137 -48.09548,-43.23083 -124.98736,-114.17712 z"
         id="path1145"
         transform="scale(0.26458333)" />
      <path
         style="fill:#d0f4de;stroke:none;stroke-width:0.632847;fill-opacity:1"
         d="M 359.28373,271.06737 C 350.49322,270.04778 159.05237,245.51766 158.97152,245.40053 158.78103,245.12457 172.58306,0.45587896 172.80143,0.23750452 172.92034,0.11859856 262.4629,0.09295571 371.78489,0.18052034 L 570.55215,0.3397288 466.76197,135.76908 c -57.0846,74.48614 -104.12162,135.45767 -104.52673,135.49228 -0.4051,0.0346 -1.73328,-0.0527 -2.95151,-0.19399 z"
         id="path1147"
         transform="scale(0.26458333)" />
      <path
         style="fill:#d0f4de;stroke:none;stroke-width:0.632847;fill-opacity:1"
         d="M 979.97841,531.32529 C 902.46296,389.29971 838.86923,272.63555 838.65903,272.0716 838.37651,271.31365 873.73025,237.32339 974.21701,141.74168 1048.9841,70.624175 1112.8882,9.7778982 1116.2261,6.5277362 l 6.0689,-5.90938603 -0.2761,140.98565983 c -0.1519,77.54212 -0.4623,255.05256 -0.6898,394.46764 l -0.4135,253.48197 z"
         id="path1149"
         transform="scale(0.26458333)" />
      <path
         style="fill:#fcf6bd;stroke:none;stroke-width:0.632847;fill-opacity:1"
         d="m 141.60689,557.87831 c -0.0661,-3.41537 17.16069,-310.08625 17.43402,-310.35958 0.38855,-0.38855 201.11594,25.28704 201.60603,25.78798 0.29729,0.30387 -203.0748,266.40483 -217.29268,284.31526 l -1.71061,2.15488 z"
         id="path1151"
         transform="scale(0.26458333)" />
      <path
         style="fill:#fcf6bd;stroke:none;stroke-width:0.632847;fill-opacity:1"
         d="m 396.41496,790.85813 c 72.11582,-60.07278 374.47898,-310.45519 374.67303,-310.26114 0.15324,0.15324 -21.31191,70.35997 -47.70034,156.01495 L 675.40869,792.34828 H 535.01738 394.62607 Z"
         id="path1153"
         transform="scale(0.26458333)" />
      <path
         style="fill:#a9def9;stroke:none;stroke-width:0.632847;fill-opacity:1"
         d="M 569.07265,374.55738 C 456.99537,318.88629 365.07434,273.11869 364.8037,272.85159 364.10087,272.15796 511.24606,80.366062 512.07561,80.894519 c 0.37049,0.236016 72.75314,42.866161 160.85033,94.733671 88.09719,51.86749 160.78557,94.73171 161.52973,95.25381 1.3516,0.94829 1.32082,1.05371 -29.65781,101.57201 -17.05596,55.34251 -31.22177,101.23042 -31.47959,101.97313 -0.43859,1.26347 -13.58385,-5.16416 -204.24562,-99.86976 z"
         id="path1155"
         transform="scale(0.26458333)" />
      <path
         style="fill:#ff99c8;stroke:none;stroke-width:0.632847;fill-opacity:1"
         d="M 674.53721,174.47506 C 585.65882,122.15214 512.98443,79.080909 513.03855,78.761219 513.09268,78.441524 526.57683,60.64408 543.00334,39.211337 L 572.86973,0.24271254 846.54518,-0.1617405 C 997.06667,-0.3841896 1120.3197,-0.46714678 1120.4407,-0.34608965 1120.7559,-0.03093208 837.67435,269.2686 836.83326,269.45377 c -0.38445,0.0846 -73.41768,-42.65578 -162.29605,-94.97871 z"
         id="path1157"
         transform="scale(0.26458333)" />
      <path
         style="fill:#ff99c8;stroke:none;stroke-width:0.632847;fill-opacity:1"
         d="m 748.6431,792.50651 c -48.51117,-0.11178 -71.03712,-0.37174 -71.03712,-0.81981 0,-1.09006 158.92686,-516.65289 159.42583,-517.18153 0.30998,-0.3284 268.95959,490.72772 283.39089,518.00132 0.2264,0.42773 -186.16589,0.42774 -371.7796,2e-5 z"
         id="path1159"
         transform="scale(0.26458333)" />
      <path
         style="fill:#a9def9;stroke:none;stroke-width:0.632847;fill-opacity:1"
         d="M 0.18479074,614.14982 C -0.07125541,516.14067 -0.18544646,435.87416 -0.06896709,435.7798 0.09319031,435.64844 382.39188,787.98924 385.95853,791.55722 c 0.63262,0.63284 -37.81928,0.79106 -192.25871,0.79106 H 0.65032918 Z"
         id="path1161"
         transform="scale(0.26458333)" />
      <path
         style="fill:#d3b088;stroke:none;stroke-width:0.632847;fill-opacity:1"
         d="m 476.54792,451.70096 c -61.97818,-97.188 -112.62759,-176.77472 -112.55425,-176.85939 0.23131,-0.26704 407.24497,202.01395 407.2597,202.40327 0.0104,0.27648 -177.64894,147.86948 -181.34089,150.65145 -0.43568,0.32829 -40.84316,-62.47449 -113.36456,-176.19533 z"
         id="path1163"
         transform="scale(0.26458333)" />
      <path
         style="fill:#d3b088;stroke:none;stroke-width:0.632847;fill-opacity:1"
         d="M 69.399332,497.23318 0.0622647,433.20736 -0.36484453,275.04099 C -0.59975458,188.04949 -0.68859819,116.77127 -0.56227482,116.64495 -0.32231857,116.40499 153.55576,243.41992 155.89907,245.79217 l 1.34148,1.35805 -8.74561,155.36405 c -4.81009,85.45022 -8.75993,156.14719 -8.77744,157.10437 -0.0175,0.95718 -0.24542,1.71783 -0.50647,1.69034 -0.26105,-0.0275 -31.67631,-28.86161 -69.811698,-64.0758 z"
         id="path1165"
         transform="scale(0.26458333)" />
      <path
         style="fill:#ffb380;stroke-width:0.632847"
         d="M 132.0915,554.47732 C 128.78487,551.41508 111.10468,535.12221 92.802199,518.27093 74.499713,501.41965 46.269705,475.39316 30.068847,460.43427 L 0.61274166,433.2363 0.17933698,351.58452 C -0.05903563,306.67604 -0.16477001,235.64908 -0.05562826,193.74684 l 0.1984395,-76.18588 3.79708456,3.13132 c 2.0883965,1.72223 13.4796502,11.08085 25.3138972,20.79693 28.63724,23.51158 78.346527,64.56528 105.527307,87.15244 18.90472,15.70977 21.99135,18.51331 21.99075,19.97382 -3.9e-4,0.93445 -2.26345,41.85316 -5.02902,90.93048 -2.76557,49.07732 -6.67264,118.77755 -8.68237,154.88941 -2.35639,42.34082 -3.88539,65.64935 -4.30548,65.63379 -0.35829,-0.0133 -3.35685,-2.52959 -6.66348,-5.59183 z"
         id="path45"
         transform="scale(0.26458333)" />
      <path
         id="path47"
         style="fill:#ffb380;stroke-width:0.167441"
         d="m 155.70936,165.47961 c -19.73882,-30.45865 -39.16939,-61.11775 -58.628241,-91.75596 2.077043,-0.10437 8.342061,3.953904 11.960481,5.408284 31.59348,15.65257 63.20557,31.269616 94.71431,47.091636 -15.67255,13.47554 -31.71131,26.54824 -47.64925,39.71651 z" />
    </g>
  </g>
</svg>
