<?xml version="1.0" encoding="UTF-8" standalone="no"?>
<svg
   xmlns:dc="http://purl.org/dc/elements/1.1/"
   xmlns:cc="http://creativecommons.org/ns#"
   xmlns:rdf="http://www.w3.org/1999/02/22-rdf-syntax-ns#"
   xmlns:svg="http://www.w3.org/2000/svg"
   xmlns="http://www.w3.org/2000/svg"
   id="svg210"
   viewBox="0 0 300.15 397.12"
   version="1.1"
   height="397.12mm"
   width="300.15mm">
  <metadata
     id="metadata216">
    <rdf:RDF>
      <cc:Work
         rdf:about="">
        <dc:format>image/svg+xml</dc:format>
        <dc:type
           rdf:resource="http://purl.org/dc/dcmitype/StillImage" />
        <dc:title></dc:title>
      </cc:Work>
    </rdf:RDF>
  </metadata>
  <defs
     id="defs214" />
  <g
     id="g208"
     transform="translate(48.652,49.728)">
    <g
       id="g206"
       transform="translate(284.16)">
      <g
         id="g12"
         transform="matrix(0.35278,0,0,-0.35278,-158.99,127.75)">
        <path
           style="fill:#009ee2"
           id="path10"
           d="m 0,0 c -10.458,-1.991 -21.063,1.642 -27.577,7.526 -6.483,5.916 -9.492,13.729 -11.324,21.547 -8.754,38.228 10.229,81.417 48.629,110.48 C 43.508,108.711 53.279,58.148 26.421,19.513 20.511,11.02 11.96,2.285 0,0.001" />
      </g>
      <g
         id="g16"
         transform="matrix(0.35278,0,0,-0.35278,-159.97,187.11)">
        <path
           id="path14"
           d="M 0,0 C -40.344762,-13.161623 -70.55842,29.230991 -76.118194,64.561201 -83.168185,100.21484 -70.685637,137.83674 -47.079,164.887 3.7110995,139.62287 47.479891,76.650733 21.199922,19.687703 16.831097,10.852039 9.4504805,3.2739056 0,0.004"
           style="fill:#008d36" />
      </g>
      <g
         id="g20"
         transform="matrix(0.35278,0,0,-0.35278,-205.44,147.04)">
        <path
           id="path18"
           d="M 0,0 C -38.129942,-17.100413 -71.960731,21.794243 -88.961089,51.930701 -105.54357,81.921806 -110.01408,119.30013 -97.145,151.484 -42.828645,131.52724 13.726405,84.201419 12.080969,21.521484 11.352915,13.136276 7.4434892,4.4360184 0.001,0.006"
           style="fill:#e20613" />
      </g>
      <g
         id="g24"
         transform="matrix(0.35278,0,0,-0.35278,-188.4,16.596)">
        <path
           style="fill:#e5007e"
           id="path22"
           d="M 0,0 C -6.423,-6.893 -16.018,-8.169 -23.895,-5.263 -31.764,-2.317 -38.174,4.176 -43.747,11.226 -70.827,45.759 -80.7,98.268 -68.956,145.556 -27.929,130.161 6.603,83.629 8.348,32.056 8.726,20.719 7.346,7.896 0,0.009" />
      </g>
      <g
         id="g28"
         transform="matrix(0.35278,0,0,-0.35278,-141.65,37.317)">
        <path
           style="fill:#ef8000"
           id="path26"
           d="m 0,0 c -9.537,3.022 -16.289,11.86 -18.539,21.024 -2.219,9.171 -0.626,18.602 1.928,27.473 C -3.959,91.771 33.836,126.7 80.11,137.812 91.641,89.986 73.43,33.621 31.592,7.151 22.39,1.342 10.911,-3.452 0,0" />
      </g>
      <g
         id="g32"
         transform="matrix(0.35278,0,0,-0.35278,-117.4,139.03)">
        <path
           style="fill:#008d36"
           id="path30"
           d="m 0,0 c -9.379,2.439 -16.418,10.469 -19.126,18.984 -2.682,8.53 -1.696,17.473 0.248,25.923 C -9.218,86.14 25.186,120.591 69.183,133 83.12,88.513 68.868,34.728 30.06,8.062 21.519,2.209 10.732,-2.789 0,0" />
      </g>
      <g
         id="g36"
         transform="matrix(0.35278,0,0,-0.35278,-130.45,98.214)">
        <path
           id="path34"
           d="M 0,0 C -39.797883,9.6367848 -34.912876,60.837561 -23.141527,90.828987 -8.413477,131.77307 24.570571,165.41538 64.767,181.834 91.647677,122.219 79.75384,37.833131 19.736,3.099375 13.619965,0.28310806 6.7069015,-1.1083989 0,-0.001"
           style="fill:#81358a" />
      </g>
      <g
         id="g40"
         transform="matrix(0.35278,0,0,-0.35278,-206.3,197.29)">
        <path
           style="fill:#009ee2"
           id="path38"
           d="m 0,0 c -7.735,-6.336 -20.537,-7.588 -31.589,-5.017 -11.051,2.612 -20.616,8.456 -29.117,14.819 -41.385,31.174 -61.954,78.861 -52.574,122 C -55.673,118.184 -2.57,76.161 6.88,29.252 8.947,18.934 8.842,7.257 -0.003,0.007" />
      </g>
      <g
         id="g44"
         transform="matrix(0.35278,0,0,-0.35278,-255.35,179.66)">
        <path
           style="fill:#81358a"
           id="path42"
           d="m 0,0 c -3.271,-9.208 -13.478,-15.96 -24.202,-18.43 -10.738,-2.443 -21.896,-1.255 -32.424,0.87 -51.354,10.542 -93.644,45.372 -108.14,89.129 55.991,12.687 122.94,-2.696 155.39,-41.68 C -2.25,21.312 3.742,10.536 0.005,0" />
      </g>
      <g
         id="g48"
         transform="matrix(0.35278,0,0,-0.35278,-272.4,92.498)">
        <path
           id="path46"
           d="M 0,0 C -28.345712,-26.690726 -69.813382,-3.7771609 -95.19133,15.98469 -125.2284,39.645426 -146.48158,76.42883 -145.758,115.315 -86.242957,112.69258 -17.031329,84.876033 3.7829375,24.379016 5.9619024,16.288517 5.6524949,6.7513101 -0.001,-0.001"
           style="fill:#008d36" />
      </g>
      <g
         id="g52"
         transform="matrix(0.35278,0,0,-0.35278,-241.45,145.27)">
        <path
           style="fill:#2c2c83"
           id="path50"
           d="m 0,0 c -4.413,-6.964 -13.442,-10.08 -21.913,-9.434 -8.483,0.672 -16.492,4.528 -23.829,9.015 -35.744,22.03 -59.521,62.317 -60.779,103.07 C -62.307,99.109 -16.064,69.003 -0.471,27.704 2.947,18.623 5.055,7.971 0.003,0.001" />
      </g>
      <g
         id="g56"
         transform="matrix(0.35278,0,0,-0.35278,-281.27,142.88)">
        <path
           id="path54"
           d="M 0,0 C -30.38268,-27.074664 -72.745025,-1.8583516 -98.953781,19.178359 -126.85103,42.373648 -146.61923,77.245099 -146.1,114.142 -86.786446,111.25047 -17.718709,84.092241 3.6777969,24.006203 5.8902182,16.055639 5.6260546,6.6231139 0.002,-0.002"
           style="fill:#ef8000" />
      </g>
      <g
         id="g60"
         transform="matrix(0.35278,0,0,-0.35278,-266.01,60.485)">
        <path
           style="fill:#81358a"
           id="path58"
           d="M 0,0 C -7.281,-6.671 -18.663,-8.121 -28.221,-5.577 -37.771,-2.999 -45.776,2.96 -52.81,9.466 -87.021,41.364 -101.676,90.659 -90.249,135.586 -40.45,122.111 3.306,79.086 8.208,30.456 9.276,19.764 8.332,7.635 0,0.001" />
      </g>
      <g
         id="g64"
         transform="matrix(0.35278,0,0,-0.35278,-227.44,84.757)">
        <path
           style="fill:#e5007e"
           id="path62"
           d="M 0,0 C -6.973,-5.309 -17.045,-5.526 -25.162,-2.32 -33.278,0.913 -39.732,7.048 -45.287,13.579 -72.279,45.57 -80.608,91.365 -66.544,130.719 -24.25,113.821 10.066,70.889 9.934,26.639 9.899,16.907 7.971,6.072 0,-0.004" />
      </g>
      <g
         id="g68"
         transform="matrix(0.35278,0,0,-0.35278,-193.18,91.209)">
        <path
           id="path66"
           d="M 0,0 C -43.079891,-12.750999 -63.05057,40.680438 -65.894533,74.741132 -68.879269,107.85145 -59.325363,141.73468 -40.206,168.851 11.122052,137.52135 45.131494,63.391898 10.992551,8.5016348 8.0198606,4.9054232 4.2797557,1.9028537 0,0.004"
           style="fill:#008d36" />
      </g>
      <g
         id="g72"
         transform="matrix(0.35278,0,0,-0.35278,-223.03,39.909)">
        <path
           style="fill:#009ee2"
           id="path70"
           d="m 0,0 c -7.44,-4.494 -17.208,-3.772 -24.636,0.085 -7.414,3.89 -12.846,10.43 -17.344,17.278 -21.865,33.5 -23.852,78.638 -5.036,115.46 C -8.368,112.521 19.124,67.744 13.136,24.893 11.814,15.467 8.513,5.149 0,0.006" />
      </g>
      <g
         id="g76"
         transform="matrix(0.35278,0,0,-0.35278,-164.23,74.38)">
        <path
           style="fill:#e20613"
           id="path74"
           d="m 0,0 c -8.76,-2.915 -17.984,0.178 -23.862,5.993 -5.86,5.841 -8.881,13.984 -10.899,22.219 -9.707,40.265 3.85,87.921 34.736,121.91 C 30.491,119.635 41.796,66.236 21.279,22.862 16.763,13.328 10.02,3.333 0,-0.003" />
      </g>
      <g
         id="g80"
         transform="matrix(0.35278,0,0,-0.35278,-159.69,14.349)">
        <path
           id="path78"
           d="M 0,0 C -45.837328,-7.6153557 -48.588963,53.799705 -43.374069,85.706456 -37.778735,121.49455 -20.660659,155.16179 3.938,181.633 49.657117,136.07466 55.341661,51.056032 8.6128906,4.5601719 L 4.4809316,1.9579902 0,0.003"
           style="fill:#2c2c83" />
      </g>
      <g
         id="g84"
         transform="matrix(0.35278,0,0,-0.35278,-80.946,181.88)">
        <path
           style="fill:#0068b2"
           id="path82"
           d="M 0,0 C -6.991,4.86 -9.377,13.176 -7.799,20.459 -6.189,27.75 -1.221,34.162 4.352,39.895 31.687,67.81 77.313,82.632 121.072,77.778 112.637,39.793 75.554,3.913 29.705,-3.632 19.622,-5.286 7.993,-5.56 -0.004,0" />
      </g>
      <g
         id="g88"
         transform="matrix(0.35278,0,0,-0.35278,-157.43,265.61)">
        <path
           id="path86"
           d="m 0,0 c -0.50893889,-73.279417 13.019948,-149.43758 56.024912,-210.39351 8.130415,-7.01482 15.604401,-23.92534 -2.521946,-18.24342 -80.097986,7.72346 -160.995806,5.96614 -240.900966,-3.14507 -12.51084,8.20973 13.64446,25.70395 16.06701,37.55788 43.05939,70.99833 69.82472,157.974936 48.79903,240.622075 -12.44126,50.586119 -41.8659,96.708215 -82.54164,129.224145 5.62273,14.50622 28.25784,-8.08242 39.67926,-9.70314 28.21117,-13.07543 54.60474,-30.31263 77.568543,-51.03887 12.852038,8.95845 -5.566616,33.53914 -5.836219,47.87382 -7.023674,24.45607 -16.448174,48.18201 -26.698594,71.40097 11.23501,10.11507 22.448293,-16.43963 33.604446,-21.58091 23.328305,-19.6143 47.779914,-42.45501 79.1641436,-46.69129 26.1936894,0.46571 44.9002174,22.95977 61.0021454,40.97753 9.351752,9.24484 15.517369,24.37685 24.724375,31.75934 C 87.878875,217.44746 66.849674,195.52801 61.607805,175.06498 38.650896,121.02564 6.5470289,68.829839 0.31907535,9.3661641 0.09580814,6.2496141 -0.0167545,3.124675 0.001,0"
           style="fill:#2c2c83" />
      </g>
      <g
         id="g92"
         transform="matrix(0.35278,0,0,-0.35278,-157.89,-10.759)">
        <path
           id="path90"
           d="m 0,0 c 0.94104076,-0.70062446 0.53062446,1.6914571 0,0 z m -0.845,39.562 c 2.4378581,0.199187 -0.574891,1.078871 0,0 z m -7.84,-45.55 1.093,-1.094 z m 0,-14.084 c -0.9572309,-1.112078 1.0950862,-0.815573 0,0 z m -0.341,-1.268 c -0.9329528,-1.099963 0.9314853,-1.104958 0,0 z m -1.349,7.76 c -0.42414,-0.508847 0.817868,-0.120497 0,0 z m -0.168,18.221 c -0.814266,-1.5070512 1.0603783,-0.6979574 0,0 z m 0,0.757 c -0.745991,-1.2480635 1.0176117,-0.6658651 0,0 z m -0.167,26.827 c -0.831598,-1.489623 1.0655771,-0.715272 0,0 z m -0.255,-50.273 c 1.7826413,-0.417761 -0.135876,1.503111 0,0 z m 0.255,5.816 c -0.310275,0.676332 -0.357294,-0.844047 0,0 z m -2.112,39.561 0.931,-0.839 z m 0.087,-48.669 c -0.71963,-0.666926 0.856374,-0.419406 0,0 z m -0.342,18.893 c 1.190882,-0.1296729 -0.300207,1.3790982 0,0 z m 0,13.245 c -1.36142,-0.679782 1.105954,-1.5062526 0,0 z m -0.591,14.848 c -0.285406,-2.907167 2.507486,0.619 0,0 z m 0.088,-8.269 c -0.65256,-0.63237 0.820071,-0.405912 0,0 z m -0.423,-47.999 c -0.4412,-2.09826 4.3335027,0.19889 0,0 z m -0.423,23.788 c 0.700099,-1.193899 1.220736,-0.1238985 0,0 z m -0.335,18.899 c -0.890955,-1.095347 0.668397,-1.122888 0,0 z m 0,10.629 c -3.324322,-3.449034 3.339372,-1.149759 0,0 z m -1.348,-28.347 c 0.04189,-1.3871599 -0.01688,-0.5732117 0,0 z m 0.081,-24.794 c -0.515979,-0.08262 0.361409,-0.517294 0,0 z m -0.336,43.357 c 1.843607,-1.358768 0.845013,3.997246 0,0 z m 0.336,7.337 c -1.200566,-0.60622 0.287968,-2.57773 0,0 z m -0.845,-51.794 c 0.244011,-2.924783 1.296933,0.693493 0,0 z m -0.336,-5.821 c 1.139859,-7.614538 3.758516,0.485263 0,0 z m 0,30.534 c -0.686943,0.4762297 -0.202033,-0.7344958 0,0 z m 0.168,13.581 c -1.762063,-1.088039 0.733161,-2.5864671 0,0 z m -0.335,-3.373 c -1.211233,-1.0791084 1.209635,-1.0842369 0,0 z m -0.678,-19.737 c -0.528809,-0.514187 0.351734,-0.546417 0,0 z M -18.476,12.4 c 1.029788,-2.03153 1.32644,1.154916 0,0 z m -0.59,-21.004 c -0.187299,-2.844836 1.925811,-0.2652153 0,0 z m -0.503,9.027 c -1.216938,-1.08922729 1.215356,-1.09448062 0,0 z m -1.349,10.884 c -0.536711,-0.623977 0.362967,-0.634263 0,0 z m 0,-3.037 c -1.000964,-0.7500359 1.294181,-3.4032877 0,0 z m 1.684,-15.352 c 1.12007,11.7092366 -0.63365,-2.0700037 0,0 z m -3.796,5.989 c -1.221029,-1.1098268 1.232132,-1.073049 0,0 z m -1.013,-7.002 c -2.603013,-2.39916 0.95375,-1.6421275 0,0 z m -1.851,5.735 c -0.313145,-8.932876 5.744394,0.1433989 0,0 z m -1.603,-5.567 c 1.788901,-4.772631 1.702082,8.90463116 0,0 z m 6.915,-42.264 c -0.307054,6.826427 5.527694,17.253242 2.193,21.427 4.918927,6.531824 -1.478715,8.677602 0.845,15.519 -2.874852,4.7730238 -18.349552,-1.368335 -10.966,2.827 -3.809695,3.0168344 0.15878,7.2280005 3.84,10.039 7.319496,3.9988577 0.956828,2.4614032 3.199,7.468 0.419225,7.184327 -2.117024,17.922907 4.598,25.049 3.575306,7.503786 14.5811572,12.158383 19.656,8.144 -1.83767444,7.157834 11.020618,1.595699 4.685,-5.317 C 3.5871203,34.817781 3.7505745,38.486838 -3.964,36.107 -10.891478,31.486168 -13.587904,24.347602 -10.288,18.598625 -13.791604,10.588175 -9.7880072,0.68419317 -0.168,4.306 4.0152501,3.1714581 4.6089951,3.6782882 8.27,0.51 7.8739474,-7.5528011 0.52277984,0.55096341 -0.758,-6.324 c -3.7168474,-0.8535831 -13.317544,0.047279 -7.679,-9.915 2.4054854,-7.499304 -3.971133,-15.106075 0.211,-20.583 -0.9345262,-8.442514 -5.613872,-3.041037 -8.138,-10.331 -1.499356,-0.835288 -2.040842,-6.055865 -4.218,-3.038 z"
           style="fill:#ffffff" />
      </g>
      <g
         id="g96"
         transform="matrix(0.35278,0,0,-0.35278,-293.13,120.88)">
        <path
           id="path94"
           d="m 0,0 c 2.874208,-0.75567827 -2.0901,-1.3667083 0,0 z m -1.262,2.616 c 0.99713903,-2.04543134 -1.350426,-0.2040042 0,0 z m -2.111,-5.057 c -0.5616751,0.6141854 -0.5302769,-0.6237391 0,0 z m 3.037,-2.535 c -8.8015465,5.9964256 6.0994013,2.4573721 -1.013,0 z m -4.554,2.952 c -1.7938308,-0.6926737 -2.580273,-0.1972563 0,0 z m -3.541,5.653 c 0.058839,-1.7486899 -0.907793,-0.6638699 0,0 z m 0,-17.377 c -1.0560961,-0.643461 -1.1767626,0.638079 0,0 z m -0.422,8.772 c -0.6184387,0.6525985 -0.4979704,-0.6612802 0,0 z m -1.69,-25.981 c -0.672859,-0.485743 0.6626715,-0.634822 0,0 z m -0.422,-4.554 c 1.2159626,-1.201888 -1.217513,-1.19676 0,0 z m -1.181,34.753 c 3.6449473,-0.4267018 -0.399989,-0.8285913 0,0 z m -0.925,-10.462 c 1.670938,-0.704796 -0.821462,2.0679037 0,0 z m 0,3.125 c 2.74898,-9.693872 2.779878,5.3022797 0,0 z m -0.758,-21.172 c 0.771839,-0.571487 0.429813,1.393784 0,0 z m -1.268,2.106 c -2.044364,-1.02759 1.155153,-1.330245 0,0 z m -2.112,21.092 c 0.671407,-7.369265 3.404099,4.1531396 0,0 z m 0,-25.733 c -1.228327,-1.105157 1.239332,-1.067177 0,0 z m -0.416,16.37 c 2.867199,-1.703788 1.443335,2.714798 0,0 z m -0.845,-16.37 c 2.853739,-1.158596 -1.363854,3.413012 0,0 z m -0.423,-0.416 c -1.217879,-1.091784 1.217879,-1.091784 0,0 z m -1.267,17.625 c 0.931295,-1.312771 1.17592,0.279632 0,0 z m 0,-5.902 c 4.848884,2.815684 1.675857,0.562761 0,0 z m -1.261,9.698 c 5.922232,-5.505978 3.184969,9.3282076 1.261,0.168 -0.411511,0.291309 -0.973466,0.275191 -1.261,-0.168 z m 0,-4.635 c -2.814465,-6.284259 3.396004,-1.74232 0,0 z m -0.423,-17.209 c 3.1887,-0.173564 -2.099023,-2.06391 0,0 z m -3.715,7.592 c 1.118078,-0.159119 -0.23206,1.218586 0,0 z m 0,2.107 c 0.938037,-0.387545 -0.382878,0.922104 0,0 z m -0.925,7.088 c 1.365282,-0.550861 -0.496861,1.181205 0,0 z m -1.181,-10.884 c 0.791025,0.259832 0.34404,3.076739 0,0 z m -0.932,3.373 c 2.670495,-2.147773 0.699345,3.729174 0,0 z m -0.335,-4.218 c 0.579732,0.778665 -1.399598,0.439066 0,0 z m -0.422,6.666 c 1.861605,1.05744 -1.151144,1.276841 0,0 z m -1.684,0.845 c -0.601163,-0.39834 0.586491,-0.488312 0,0 z m -0.423,0.844 c -1.233914,-1.074543 1.224402,-1.106194 0,0 z m -6.746,-2.447 c 1.365282,-0.550861 -0.496861,1.181205 0,0 z m -3.293,-3.461 c 3.258142,0.131049 -0.170445,2.316271 0,0 z m -0.423,-4.553 c 1.299117,-0.218376 -0.218376,1.299117 0,0 z m -3.541,41.5 c -2.773883,-3.1949584 2.114522,-2.1823215 0,0 z m -1.522,-20.582 c 2.491054,-1.704407 1.577153,4.9541779 0,0 z m -1.261,-29.355 c -0.779803,-0.581106 -0.440606,1.40057 0,0 z m -1.603,41.5 c 1.101484,-0.1536621 -0.232862,1.2085846 0,0 z m -1.348,8.859 c 1.020803,-2.02688 1.319919,1.146897 0,0 z m 0.416,-38.971 c -0.570484,12.292859 1.614047,28.778755 -0.758,36.101 5.211531,-2.174364 -7.355682,5.690419 3.716,7.343 5.041064,-4.695808 7.688756,-18.0638883 6.827,-27.373 2.442561,-11.117317 12.506785,-7.523786 14.513,-2.826 3.862052,-3.718038 -0.665658,3.074768 3.665,3.839 -3.922623,3.5994931 18.1949553,2.9770819 8.058,8.561 6.5252514,-0.022327 9.1267717,6.0338023 7.679,-2.149 6.85071196,-2.9392404 0.9575541,-6.1780245 -0.7540882,-5.3645655 C -6.7412826,-10.617664 -11.230243,-12.37079 -14.339,-16.699 c -8.45749,-4.97325 -6.043259,-9.529976 9.741,-14.469 -6.414857,-2.900478 0.5794792,1.444342 -4.975,-6.834 -1.099781,7.710025 -7.162573,-2.101047 -10.332,6.287 -3.8832,0.667851 -8.196641,-1.258042 -10.965,2.361 -4.249275,1.473403 -3.843132,2.112709 -7.847,5.063 -6.703574,-0.686169 2.985224,-12.295558 -6.579,-10.797 -1.60277,-7.713723 -4.480189,3.27048 -5.486,6.624375 z"
           style="fill:#ffffff" />
      </g>
      <g
         id="g100"
         transform="matrix(0.35278,0,0,-0.35278,-218.11,183.6)">
        <path
           id="path98"
           d="m 0,0 c -1.4717224,-1.0399732 0.61982358,-2.4057638 0,0 z m -1.18,-0.423 c -2.6571536,-1.2264231 -0.1117822,-3.3900136 0,0 z m -4.132,-3.286 c -1.1147473,-1.4309248 1.3896848,-0.5437358 0,0 z m -1.944,-1.603 c -1.1354372,-0.6637488 1.0026292,-1.0764071 0,0 z m -5.224,28.764 c -1.373137,-0.444156 1.070224,-1.279435 0,0 z m -0.845,3.038 c -2.138544,-1.045115 1.566154,-0.07956 0,0 z M -15.854,7.169 c -0.03483,0.261192 -0.197174,1.314805 0,0 z m -0.341,16.028 c -4.715184,-1.892707 -0.402532,-4.434209 0,0 z m -3.709,-5.23 c 1.250997,0.17325 -0.348615,0.589403 0,0 z M -28.429,6.579 c 0.719101,-0.5804455 0.481743,1.2001182 0,0 z m -3.373,-7.424 c 3.28176,-5.6813852 4.594677,10.2858609 1.311,1.18 1.305489,-0.92624719 -1.361031,-0.17289548 -1.311,-1.18 z m -1.18,18.054 c -0.408471,-1.26609 2.562021,-1.325972 0,0 z M -32.05,2.112 c -4.703818,-1.87660599 -0.443982,-4.4588613 0,0 z m -2.871,47.49 c -0.660502,-0.609287 0.652801,-0.743328 0,0 z m -0.845,0.335 c -0.450149,0.580023 -0.447584,-0.58169 0,0 z m -2.025,-1.181 c 1.534332,0.255034 -0.459998,0.743919 0,0 z m -1.603,-50.781 c -1.008924,-1.3396153 1.152502,-0.856262 0,0 z m -0.757,-6.157 c -1.446814,-0.856474 1.302905,-1.3176728 0,0 z m 25.39,17.208 c -4.335812,8.906931 -6.961774,-4.155574 -10.039,-0.167 -0.185418,-3.3105651 -3.218896,-8.66758006 -6.747,-16.364 0.05606,1.8948367 -2.24873,-0.4140186 -6.579,1.771 0.854018,-5.608056 -5.6206,-1.9106282 -2.069,5.479 0.114778,15.667621 -0.484711,34.092714 -1.771,50.235 2.039801,2.558537 15.200678,1.030597 7.468,-7.467 6.526109,-0.403943 -2.720774,-10.230626 4.467,-13.749 -5.408444,-3.474984 0.462323,-8.438935 -1.771,-14.171 -5.179606,-13.65965618 14.688709,15.583422 14.742374,10.524895 C -7.518297,31.531257 -12.868497,19.065454 -6.492,17.122 -6.1124858,11.301243 -8.6205711,9.1516752 -3.497,5.908 -10.802277,1.8766997 1.8162334,5.934745 1.268,-3.5447505 -4.4201201,-17.54788 -9.4812817,-2.0033395 -12.232,-1.392 c 1.500963,7.2352277 -6.293282,0.64701298 -2.615946,10.2702787 z"
           style="fill:#ffffff" />
      </g>
      <g
         id="g104"
         transform="matrix(0.35278,0,0,-0.35278,-252.78,126.91)">
        <path
           id="path102"
           d="m 0,0 c 1.370966,-0.52666488 -0.40999822,0.97606947 0,0 z m -0.758,-0.926 c 0.34069016,0.46255939 -0.8389621,0.25450725 0,0 z m -0.591,2.194 c -0.7028537,-0.88698856 0.84396037,-0.43055344 0,0 z m -5.398,0.248 c 0.5475338,-0.90821437 1.1232577,0.331479 0,0 z M -8.095,0.758 c 0.6338643,1.1213509 -1.0604218,0.0646472 0,0 z m -7.592,-0.423 c -0.84113,-0.65681857 0.712399,-1.09349105 0,0 z m -0.509,-18.47 c 0.342069,0.458742 -0.823485,0.259569 0,0 z m -0.671,-9.362 c -0.583075,-0.256142 0.583075,-0.256142 0,0 z m -0.255,8.431 c -1.174724,-0.866991 0.471872,-1.91164 0,0 z m -3.038,0.931 c -0.615283,-0.885967 0.615283,-0.885967 0,0 z m -1.348,-10.549 c 0.158604,-1.933262 0.855892,0.456381 0,0 z m -1.515,14.003 c 1.102307,-0.153367 -0.233594,1.210524 0,0 z m 0.589,-14.673 c -2.358901,-1.594405 0.29597,-2.524527 0,0 z m -1.857,11.468 c 1.384012,0.724829 -0.805712,0.915984 0,0 z m -0.168,22.017 c -2.387947,-1.128077 0.804962,-2.2614483 0,0 z M -29.1,6.156 c -0.614509,-0.3397702 0.597354,-0.5057706 0,0 z m -1.348,-1.602 c -0.761076,-0.8121806 1.048138,-0.4720182 0,0 z m 7.505,-36.524 c -3.745765,3.014752 -0.787853,11.301138 -1.771,16.029 -0.457924,5.874592 -0.488201,12.8882425 -5.485,14.505 -3.276877,3.5171728 -2.790173,13.399974 0.509,7.847 -0.739243,4.150459 4.786557,0.2380024 7.927,1.436 4.491476,-10.2829254 11.731795,6.572678 18.265,1.179 2.0594694,-0.8703798 5.5116816,-4.8222342 5.945,-6.411 3.6069531,-3.29336316 -1.1961094,-2.89007346 -2.783,-7.678 -5.2318791,0.6331416 -6.1192309,9.6968171 -11.133,1.857 -2.069868,0.5090326 -3.280207,-1.4995788 -5.777,-1.9 0.680167,-3.4503791 1.702741,-8.996204 1.602,-14.084 0.947693,-5.114727 -0.626648,-15.002901 -7.212,-14.296 -1.697271,-1.641397 -1.136787,-0.09 -0.087,1.516 z"
           style="fill:#ffffff" />
      </g>
      <g
         id="g108"
         transform="matrix(0.35278,0,0,-0.35278,-272.99,47.576)">
        <path
           id="path106"
           d="m 0,0 c 6.8675278,-5.5347019 -0.20190275,6.5279064 0,0 z m -0.758,1.007 c 0.468337,0.750722 -1.5392887,0.2648159 0,0 z m -4.138,27.167 c 0.2207807,-0.67773 -0.3021416,0.105447 0,0 z m -0.925,-7.933 c 1.0363227,-0.172636 -0.1768499,1.042822 0,0 z m -1.1,7.679 c -1.1411002,-0.892563 1.0190614,-1.306411 0,0 z m 0,1.857 c -1.5107146,-0.873438 0.6478267,-2.109465 0,0 z M -7.337,9.107 c -1.0218797,-1.308582 1.1453296,-0.8862215 0,0 z m -3.038,50.615 c -0.53687,-0.09118 0.4182591,-0.948075 0,0 z m -0.758,-26.491 c 1.2013296,0.47981 -0.579102,0.718629 0,0 z m -0.087,12.488 c 2.3574961,-6.273552 2.6920926,5.332916 0,0 z M -14.258,8.686 c -1.014565,-1.1933754 1.142005,-0.7689811 0,0 z m 0,24.545 c 0.842848,1.619229 -1.126695,0.247251 0,0 z m -0.845,3.964 c -0.489655,-3.204544 3.216128,0.508317 0,0 z m -1.851,-26.229 c 1.161977,-0.481168 -0.480501,1.159701 0,0 z m -3.46,-6.921 c -1.014618,-1.1934182 1.140207,-0.7724534 0,0 z m -0.758,24.21 c 1.934271,0.904086 -1.037847,1.223261 0,0 z m -0.342,4.219 c -1.141144,-0.766501 1.012189,-1.196016 0,0 z M -24.21,3.286 c -0.581647,-0.3468688 0.579775,-0.3495412 0,0 z m -1.517,23.788 c 1.42999,0.997849 -0.58969,2.232179 0,0 z M -26.148,1.852 c 0.468457,0.6299129 -1.1333,0.3542897 0,0 z m -0.765,27.584 c 1.218586,-0.23206 -0.159119,1.118078 0,0 z m -1.261,-1.852 0.926,-0.932 z M -42.687,11.891 c 6.185641,-11.13909811 20.060651,-3.7372608 27.162,1.771 -0.05754,-2.433321 4.505183,1.109469 3.082,4.386 -4.041093,3.160408 -8.996667,7.195856 -7.337,6.877 -2.730316,1.88365 -8.575437,-0.900527 -15.228,-0.845 -5.953389,-0.630271 -7.574945,-7.398201 -7.679,-12.189 z m -1.428,12.146 c -0.126495,0.551771 -0.922214,-0.433049 0,0 z m -1.603,-24.211 c 0.945047,-0.39841172 -0.457078,1.14479371 0,0 z m -1.18,18.054 c 1.578631,-0.104354 -0.500659,1.929461 0,0 z m -1.436,-7.256 c 1.037196,-0.172469 -0.177526,1.044994 0,0 z M -6.156,26.739 C -2.6041663,27.838948 -6.139801,14.927636 -1.224,10.624 0.71622,2.7167505 7.5043723,6.7576494 9.53,1.852 8.4219764,-4.4281801 4.8586488,-4.3861803 -0.298,-1.944 c -2.2059253,3.7922088 -8.5930472,8.9318617 -7.592,7.97 -1.3251585,3.980982 -7.181273,2.1433552 -10.922,-1.18 -1.285823,-2.5676357 -7.785878,-6.2478699 -9.704,-4.597 2.08434,0.0765073 -11.269568,-0.31309388 -6.448,-3.162 -4.089516,5.3913301 -5.794584,0.4817256 -9.406,2.404 -2.966664,1.9951035 -4.956955,8.6763791 -6.243,15.395 2.801759,4.302437 2.372633,9.145504 7.926,12.611 2.06404,3.201808 6.363787,2.107549 9.618,3.373 0.189981,-1.044856 8.535932,2.898387 13.456,2.616 4.157033,2.709969 0.652058,13.516243 3.082,19.315 1.233556,19.746471 13.8887956,1.668225 11.046,-8.014 -2.3463437,6.911569 -2.8653613,-0.389156 -1.094,-3.542 -0.8584071,-5.347169 -3.899431,-6.373842 0.249,-11.68 0.3989862,-1.440587 2.877502,-0.25707 0.174,-2.826 z"
           style="fill:#ffffff" />
      </g>
      <g
         id="g112"
         transform="matrix(0.35278,0,0,-0.35278,-228.07,24.235)">
        <path
           id="path110"
           d="m 0,0 c -0.83916149,-0.66994673 0.70956563,-1.0914904 0,0 z m -1.689,-2.447 c 1.25494628,-0.1726527 -0.063031,1.81057232 0,0 z m -10.965,52.633 c -0.915171,-0.999233 0.922698,-0.973474 0,0 z m -0.759,-33.151 c -0.281976,0.589082 -0.394262,-0.579559 0,0 z m -0.925,29.696 c 1.111055,0.348547 -0.460214,0.618135 0,0 z m -0.759,-27.584 c 1.238572,0.176177 -0.348686,0.585856 0,0 z m -0.341,34.418 c 2.954351,-7.072586 1.222943,3.331721 0,0 z m -0.249,-26.994 c 1.865535,-0.626466 -0.702041,2.045914 0,0 z m 0,22.186 c -0.6018,-0.306998 0.59218,-0.32756 0,0 z m -0.341,4.131 c 0.935748,-0.386891 -0.383557,0.924367 0,0 z m 0.341,-23.284 c -1.517005,-1.058269 2.129311,-0.599429 0,0 z m -0.341,22.271 c -1.88884,-2.17065 2.539667,-0.460867 0,0 z m 0,-39.562 c -2.718673,-0.742539 1.039678,-1.459264 0,0 z m -1.348,-6.579 c 0.849838,-0.1127126 -0.187523,0.9463751 0,0 z m -1.1,31.044 c -0.899841,-0.770724 0.907996,-0.7453 0,0 z m -0.336,-22.104 c -0.925155,-0.871928 0.926713,-0.86664 0,0 z M -19.233,-0.59 c -0.366341,-2.0748757 1.97645,0.16234821 0,0 z m -0.926,53.814 c -1.141144,-0.766501 1.012189,-1.196016 0,0 z M -20.837,3.709 c -0.830393,-0.6801481 0.713354,-1.0900961 0,0 z m -0.335,12.655 c -1.952727,-1.327409 0.293281,-1.675523 0,0 z m -1.099,20.073 c -0.714672,-0.994117 0.844022,-0.542755 0,0 z m 8.523,-40.91 c -4.636016,2.201864 -6.805881,3.49527631 -9.114,1.69 -0.123758,3.44603891 -1.65433,2.16381286 0.932,8.181 -0.524973,1.3915378 -1.883126,7.468412 1.348,4.132 -0.261312,3.943606 -1.385771,5.179512 -3.46,2.616 -2.174383,1.593745 7.891651,10.911563 1.435,8.517 4.91854,3.867243 1.295861,2.46909 -1.603,6.244 -2.360807,7.587295 1.651784,-0.732476 1.1,4.473 4.856251,0.595312 0.469621,7.440542 0.248,5.057 1.225819,3.399959 -0.348589,1.93858 2.28,5.821 1.468662,3.361696 -3.349473,11.053226 2.36,10.674 0.214339,0.990401 6.07568,6.973181 6.667,-1.057 -1.816716,-2.665182 -0.362361,-7.694462 -0.758,-10.207 C -14.215126,30.077297 -12.841769,18.934958 -11.934,7.17 -8.5543621,4.0803144 0.96354916,6.3508429 0.591,5.145 c 10.556914,3.7533712 -0.85634071,-5.82654428 0,-6.834 -2.4232063,-3.4603848 -8.691871,-3.2704671 -12.233,-3.12 l -1.012,0.292 z"
           style="fill:#ffffff" />
      </g>
      <g
         id="g116"
         transform="matrix(0.35278,0,0,-0.35278,-195.29,-3.2663)">
        <path
           id="path114"
           d="m 0,0 c 0.81943896,-0.11929087 -0.41719652,-0.58053883 0,0 z m -7.592,-9.785 c -4.883588,-0.926108 1.6353092,-5.485536 0,0 z m -1.938,-4.641 c -0.125899,0.554733 -0.922161,-0.434373 0,0 z m -2.449,6.659 c 0.6851,1.0563686 -1.337543,0.1783544 0,0 z M -12.4,-12.4 c -0.591955,-0.162251 0.461174,-0.892707 0,0 z m -0.081,47.234 c -0.293907,0.6344 -0.248942,-0.826502 0,0 z M -16.7,19.482 c 1.155004,-1.214042 -1.079983,-0.773347 0,0 z m -3.883,17.296 c -0.550688,-1.084989 0.891704,-0.602946 0,0 z m 1.013,-8.946 c -8.695791,1.465161 -1.709583,16.741559 5.107,10.164 4.433394,0.445003 5.8377547,-6.160686 2.192,-9.362 -2.752231,1.258515 -4.470965,-3.520684 -7.299,-0.802 z m 7.511,-43.357 c -7.538783,2.534229 -14.9982,6.4378174 -12.91,19.445 0.373083,3.5214957 -0.773529,23.862752 6.143091,15.99427 4.872671,-2.843442 4.49814,-4.440758 2.840909,-8.82527 2.48016,-1.1549223 -3.420136,-10.64804389 0.211,-8.474 -0.719409,-3.8118414 0.927014,-13.304714 8.648,-7.089 4.7764857,0.4405097 3.5418209,-0.277403 6.368,3.541 2.9668235,-2.8840008 -4.5443934,-9.725819 1.771,-6.579 -4.5746944,-10.089832 -5.5267527,2.4284017 -7.884,-7.424 -1.1384169,-1.307042 -3.700076,-1.037597 -5.188,-0.589 z"
           style="fill:#ffffff" />
      </g>
      <g
         id="g120"
         transform="matrix(0.35278,0,0,-0.35278,-125.57,21.6)">
        <path
           id="path118"
           d="m 0,0 c -0.84237189,-0.65546676 0.71181648,-1.0935635 0,0 z m -1.604,22.521 c -0.5056892,0.692847 -0.4018376,-0.696526 0,0 z m -0.254,2.87 c -1.0048604,0.189698 -0.8034223,-2.851645 0,0 z m -0.677,3.373 c -0.8358526,-0.570879 0.7231956,-0.965721 0,0 z M -3.548,-1.349 c -2.1498978,-3.7725669 1.2968378,-0.3665662 0,0 z m -4.386,31.716 c 0.9602424,-0.577227 0.2991988,2.017223 0,0 z M -8.27,28.174 c 0.9231758,-0.382392 -0.3823919,0.923176 0,0 z m 0,-35.431 c -0.4042016,-0.9983403 0.5182959,-0.5426201 0,0 z m -3.373,32.313 c 0.453669,-4.934073 2.1884727,3.174321 0,0 z m 1.181,4.385 c -4.824264,-5.400446 5.3064466,-2.038429 0,0 z m -1.771,-5.318 c -0.924064,-0.761979 0.924064,-0.761979 0,0 z m -0.335,-32.727 c 5.9547386,0.4486421 -0.189524,5.3752999 0,0 z m 0.335,37.368 c -1.384012,-0.724829 0.805712,-0.915984 0,0 z m -1.938,0.932 c -0.329526,0.592935 -0.304895,-0.60449 0,0 z m -0.175,-1.354 c -0.710441,-1.301301 0.850691,0.487423 0,0 z m -0.416,-5.567 c 1.583547,0.961411 -1.030209,1.120983 0,0 z m -1.354,-0.925 c 0.459359,0.557732 -0.911599,0.389028 0,0 z m -0.248,3.206 c -0.839841,-0.670752 0.710427,-1.093958 0,0 z m -0.932,-1.939 c 1.208678,0.468157 -0.571028,0.715821 0,0 z m -0.671,1.597 c 1.453538,-1.020525 3.797278,4.320563 0.671,1.266 z m 0,3.97 c 1.438527,-3.860349 5.425897,2.308948 0,0 z m -0.932,-0.845 c -2.385978,-5.862652 2.028643,-3.877413 0,0 z m -1.851,0.671 c 0.08778,-1.065979 2.375892,0.89194 0,0 z m -1.522,-2.951 c 2.322281,0.827066 -1.039663,1.33984 0,0 z m -5.822,-8.941 c -0.19849,-2.262907 2.171309,0.710833 0,0 z m -0.844,5.232 c -0.985624,-0.823743 1.720012,-0.104453 0,0 z M -30.2,-2.273 c -0.867747,-0.4813932 -0.0093,-0.9571702 0,0 z m -0.677,16.531 c 2.272377,-7.4961429 6.190113,1.780559 0,0 z m 0.087,5.143 c -0.709317,0.06503 0.120462,-0.731116 0,0 z m -0.255,-2.192 c 0.0107,-2.483887 0.288082,2.021373 0,0 z m -0.677,8.101 c 0.684395,-0.469442 0.316707,1.312663 0,0 z m -0.671,-13.164 c 1.216623,-0.231341 -0.159398,1.117258 0,0 z m 0,1.602 c -1.005532,-1.076987 1.137192,-0.651821 0,0 z M -32.983,0.51 c -0.841982,-0.43552178 0.704106,-0.88201329 0,0 z m -0.932,12.312 c 1.006233,0.452778 -0.702817,1.857886 0,0 z m 0.932,-2.87 c -4.886478,-2.454596 2.712079,-1.0579015 0,0 z M -34.25,4.386 c -0.423919,0.3828994 -0.307362,-0.5162765 0,0 z m -0.926,11.897 c 1.081185,-0.02923 -0.454728,1.435659 0,0 z m -0.168,3.038 c -0.348221,-2.974893 3.694228,-0.07582 0,0 z m -0.174,-12.4 c -2.023298,-0.8972279 1.392048,0.1431503 0,0 z m -1.851,0.758 c 1.732243,0.2065976 -0.457481,0.7995233 0,0 z m -1.858,2.864 c -0.59232,-0.311155 0.59232,-0.311155 0,0 z m 0,-2.783 c -1.144374,-0.5433336 1.009208,-0.9733541 0,0 z m 25.981,-16.954 c -2.862239,6.2211461 -6.353489,-2.928141 -7.212,4.131 -2.895741,-1.1719195 -11.940935,-1.0586745 -10.077,-1.261 0.724506,1.3861065 -5.513368,4.9647402 -3.802,4.975 0.190408,-0.3854761 -3.757542,5.5880093 -1.684,1.815 -2.553993,-1.6526437 -5.635089,6.3700736 -3.163,7.803 2.388373,1.1080318 -3.930146,0.428131 0.547,6.113 0.848661,7.625415 3.602187,7.345053 5.275,6.157 -0.01617,2.054631 1.11016,0.800317 2.317,6.374 6.081215,4.970522 -0.02815,-2.614199 3.249,-3.206 2.128048,1.11062 3.182728,0.453403 3.038,4.722 -0.382134,0.497104 8.088688,5.227328 6.871,1.435 3.876419,2.574726 5.474714,-0.279589 6.579,2.193 2.2127339,-0.337534 6.3437792,-4.904672 5.567,0.503 1.2877434,-8.067924 3.9641274,2.637535 4.473,-5.144 2.2837043,0.61972 5.0652689,-8.864015 2.106,-6.2 -3.8318532,-0.313143 -3.6692437,3.714364 -8.561,2.615 -4.524485,-0.564208 -11.061192,-4.642382 -16.152,-2.068 C -20.614039,16.55387 -33.11283,7.8800676 -28.342081,9.2698652 -32.337821,7.9518619 -19.412734,-1.9016504 -25.224,2.87 c 1.606162,-5.4220842 13.723139,-5.8894264 15.774,-3.796 3.4419515,4.7525946 17.2116011,0.40713665 10.375,-2.951 0.7923644,4.26191657 -5.3913952,-1.5094473 -5.821,-4.727 -0.4298882,4.8087959 -4.3143045,-3.301109 -8.35,-0.59 z"
           style="fill:#ffffff" />
      </g>
      <g
         id="g124"
         transform="matrix(0.35278,0,0,-0.35278,-116.15,74.073)">
        <path
           id="path122"
           d="m 0,0 c -0.14043946,-1.8041248 4.9726684,-1.1288604 0,0 z m -0.677,10.885 c -0.6096363,-0.521255 0.60350651,-0.320942 0,0 z M -0.758,7.338 c -1.1883686,-1.2414225 1.18644647,-1.106475 0,0 z m -0.59,-16.277 c 1.53003681,-3.901406 5.7657886,-1.486872 0,0 z m -2.28,18.301 c 3.8887108,-0.2219965 0.7759851,3.651379 0,0 z m -0.677,1.691 c 1.7939828,1.347186 -0.8418008,2.533192 0,0 z m -0.671,-25.224 c 8.9806094,-2.480416 2.3541294,7.9298147 0,0 z m -3.038,-7.846 c 1.6794132,-0.08254 -0.5904888,2.105401 0,0 z m -1.938,1.18 c 1.5008185,0.377207 -1.203099,1.704704 0,0 z m -1.355,30.119 c 0.797211,-2.8599364 1.5146493,2.690402 0,0 z m -0.335,-25.39 c -0.351406,-0.784265 0.933466,-0.02567 0,0 z m -0.59,31.292 c -0.695311,-0.865772 0.836738,-0.429181 0,0 z m -1.603,-38.549 c 2.430041,-0.689132 -0.529057,1.563407 0,0 z m -3.877,-1.684 c -0.784421,-0.452171 0.715379,-0.903348 0,0 z m -3.379,36.86 c -0.889533,-1.45855 1.391095,-0.62889 0,0 z m -0.671,16.786 c -1.031936,-1.503492 1.443751,-0.807419 0,0 z m -0.336,-29.268 c 1.455802,0.91645813 -0.517248,0.64830662 0,0 z m -0.087,16.532 c 0.928125,-0.691008 0.523341,1.668241 0,0 z m 1.771,-34.754 c -2.793337,-6.041276 7.141841,7.365106 6.915,-0.968 2.832024,6.698551 14.6433592,18.2284556 11.431,26.608 -6.1484489,-2.4614292 -11.438099,5.770231 -17.88,-1.938 -1.78726,-7.7911776 -4.356982,-18.128995 -2.113,-16.489 0.09382,-2.178911 -1.378085,-6.622827 1.647,-7.213 z m -2.696,34.754 c -0.552368,0.653315 -0.337926,-0.817136 0,0 z m -0.423,14.426 c -1.446322,-0.979899 1.309312,-1.430219 0,0 z m -0.59,-55.591 c -1.306299,-8.9549 10.311805,7.901513 0,0 z m -1.355,64.108 c 1.498591,-0.295311 -0.447592,1.363957 0,0 z m -1.012,-68.916 c 1.413819,-2.0688 1.022294,2.349484 0,0 z m -0.168,2.951 c 3.356742,-4.58416 1.325313,4.846741 0,0 z m -1.684,-0.845 c -1.650861,-1.142988 1.678147,-0.851684 0,0 z m 0.081,-3.032 c -4.098275,8.503937 -0.231808,20.577474 -2.615,30.112 1.893499,11.903986 -0.939145,24.665512 0.342,35.176 -3.00203,13.480814 12.504832,9.225686 9.275,-4.131 0.4351,-5.390348 -4.249318,-10.812477 5.696,-12.953 3.037604,-3.862806 11.6750173,4.633196 14.675,-3.287 3.7828026,-9.3260156 7.6161852,-7.054867 5.02,-15.984 -1.4689965,-3.3508783 1.2652632,-5.5620035 -3.628,-14.003 -2.0695008,-2.620365 -6.9849763,2.567715 -7.17,-6.158 -3.475139,-5.789756 -5.983562,-4.242524 -11.701663,-8.134261 -4.163518,4.676523 -5.949303,-5.54096 -9.893337,-0.637739 z"
           style="fill:#ffffff" />
      </g>
      <path
         id="path126"
         d="m -101.48,113.4 c 0.62375,0.0218 -0.24334,-0.80619 0,0 z m 0.12065,-3.3923 c -0.50636,0.4507 0.48139,0.32283 0,0 z m -0.20814,1.7554 c 0.4167,0.17528 -0.19433,-0.48165 0,0 z m -0.32844,2.7086 c 1.09577,0.16011 -0.31478,-0.91889 0,0 z m -0.1778,-5.3869 c -0.89667,0.77134 1.05642,0.81845 1e-5,2e-5 m -0.77364,3.3027 c -0.0833,0.71056 0.90327,0.64791 2e-5,0 m -0.14887,-0.14887 c -0.0548,0.65937 0.71099,0.39953 -3e-5,0 m -1.0125,4.8807 c -0.7648,1.46475 1.74788,0.32296 -4e-5,2e-5 m -1.5759,-5.8032 c -0.35033,0.3976 0.23008,0.54705 -3e-5,0 m -1.0125,9.3733 c 0.42078,-0.16626 -0.2014,-0.25082 0,0 z m -0.26741,-7.8546 c -0.58078,0.23381 0.36595,0.67697 4e-5,0 m -0.59654,-0.32668 c 0.7072,0.12808 -0.10307,-0.67025 0,0 z m -1.3392,6.1588 c 0.89074,0.50915 1.75779,-0.22113 0,-3e-5 m -0.35701,0.83255 c 0.76439,0.26179 -0.46839,-1.25005 0,0 z m -0.29563,0.71473 c 0.10964,0.75294 0.63102,-0.0498 0,0 z m -0.031,-2.3498 c 2.64492,1.0281 4.39882,-0.40043 4.79112,-2.02478 1.66701,0.88861 2.18623,-6.64047 0.23921,-4.29998 -2.32088,1.01836 -4.37326,3.64135 -5.03021,6.32493 m -1.0125,12.199 c 0.43063,1.49969 1.76611,-0.22628 0,0 z m 0,-17.527 c 3.56257,3.57114 0.18714,-3.81773 0.8635,0.16434 1.26126,0.53863 -0.58534,0.42175 -0.86361,-0.1644 m 0,19.67 c -0.2702,0.0298 0.086,0.57064 -2e-5,0 m -0.23672,-12.885 c 0.69494,4.1363 1.97762,-2.47046 0,0 z m -0.20814,7.7364 c -0.53782,0.46003 0.53783,0.45998 0,0 z m -0.29809,-0.95073 c 0.86192,1.14894 0.20764,-1.61863 -4e-5,0 m -0.32632,-1.131 c -0.51272,0.33904 0.46349,0.50515 0,0 z m -0.09,-4.0788 c 0.24426,-0.32957 -0.59466,-0.18393 0,0 z m -0.26741,3.1842 c 0.53862,1.25638 0.27022,-1.23081 0,0 z m -0.5655,-7.6772 c -0.23868,0.25473 0.27999,0.19398 0,0 z m -0.23883,19.313 c -0.28329,-8.73585 -0.97556,-17.99041 -0.45942,-27.08027 1.60651,-2.76764 4.34505,0.16433 3.43535,1.96576 1.05894,-2.42379 1.89552,4.09853 1.65074,0.77397 1.24698,-3.87851 2.01004,-0.0488 4.03265,-3.21531 2.10142,-1.20242 5.612064,3.38418 3.52054,5.56638 1.210268,1.3926 -1.79814,0.85327 -0.48528,2.49894 -3.07709,-1.03669 -0.0149,0.65066 -1.87363,2.58861 -1.48994,1.99621 -3.05261,1.64363 -4.03298,2.79652 -0.22728,1.47911 -2.79997,-0.54496 -3.45161,0.96909 -0.57742,1.73314 1.00309,1.95359 0.0151,3.82201 -0.002,2.92723 0.40235,4.15574 0.71223,6.14544 0.0469,1.75139 -0.67094,4.19714 -3.06388,3.16943"
         style="fill:#ffffff" />
      <g
         id="g130"
         transform="matrix(0.35278,0,0,-0.35278,-153.02,104.06)">
        <path
           id="path128"
           d="m 0,0 c 1.8967036,-0.06969744 -0.93061914,2.1297927 0,0 z m -1.522,-3.292 c 1.10668093,0.2522444 -0.8671679,1.8418727 0,0 z m -1.348,1.603 c 2.03511399,-0.2686424 -0.6389865,4.1210199 0,0 z m -0.336,-24.378 c -1.1594851,-0.968876 1.021667,-1.448155 0,0 z m 0,-4.045 c -2.442265,-1.391366 0.4887983,-1.198775 0,0 z M -4.474,0.336 c -1.4400786,-0.74934913 1.2944581,-1.18844856 0,0 z M -6.498,-4.05 c 1.4765317,-0.6210452 -0.7870452,2.0388849 0,0 z m -0.423,3.628 c 1.6498321,-3.4600787 0.4820694,2.7994728 0,0 z M -8.946,-26.57 c -1.217223,-0.990944 1.2270367,-0.959626 0,0 z m -1.348,51.371 c -2.878845,-1.319602 -1.536484,-3.491413 0,0 z m -1.603,-52.639 c -1.105735,-1.400596 1.38081,-0.549609 0,0 z m -1.268,27.671 c 0.931563,-4.2588987 3.018059,-0.60300186 0,0 z m -0.422,-24.72 c 0.928113,-0.815359 0.732715,1.404719 0,0 z m 0,27.671 c 1.574142,-5.4818946 3.294331,3.9093783 0,0 z m -0.249,15.942 c -0.840674,-0.912191 0.721245,-1.304551 0,0 z m 0,-21.596 c 0.851104,1.6202374 -1.147587,0.2453534 0,0 z m 0.249,15.861 c -0.74987,0.583617 -0.74987,-0.583617 0,0 z m -0.591,-1.18 c -1.3638,-0.564026 1.09954,-1.38734 0,0 z m -0.503,-31.131 c -0.588965,-0.283682 0.579603,-0.395417 0,0 z m 0,15.605 c -0.597354,-0.5057706 0.614509,-0.3397702 0,0 z m 0,-25.726 c -1.506154,-0.964154 1.507899,-0.959209 0,0 z m -0.757,28.174 c 0.476447,-1.2339228 1.433496,0.105053 0,0 z m -0.59,1.603 c 2.426883,-1.6996017 0.741407,2.794677 0,0 z m 0,4.976 c 10.7584926,-0.7403445 -1.475993,7.669864 0,0 z m -0.255,7.343 c 0.528193,-0.349761 0.222411,1.039416 0,0 z m -0.336,-28.179 c 2.249514,-4.342864 0.784444,3.110548 0,0 z m -0.509,27.335 c 1.380685,-0.555912 -0.497912,1.183017 0,0 z m 3.541,6.069 c -6.09654,-3.328764 -3.304624,-5.892681 0,0 z m -4.045,-37.871 c 2.838567,-1.711143 0.761978,2.44514 0,0 z m 0.504,35.846 c 1.921841,0.690781 -1.910247,0.696416 0,0 z m -0.504,2.448 c -0.46279,-0.681284 0.72197,-0.180227 0,0 z m -0.167,3.541 c 5.185555,-8.726728 6.203856,7.81969 0,0 z m -0.175,6.244 c -1.362299,-0.679955 1.107212,-1.509518 0,0 z m -0.503,-54.155 c 1.805171,1.622095 -0.69756,5.913485 0,0 z m -0.254,11.306 c 0.927582,-0.07954 -0.264211,1.106311 0,0 z m 0.254,4.467 c 0.03333,1.0621652 -0.454552,-0.644656 0,0 z M -18.731,6.58 c 0.925013,0.3864616 -0.459485,0.5617923 0,0 z m 0.757,-24.466 -0.924,-1.012 z m -0.757,30.119 c -0.535163,-0.09621 0.418011,-0.942383 0,0 z m 0,-25.732 c 1.112533,1.526824 -1.379197,0.65991 0,0 z m -0.59,18.389 c 0.66443,-3.2086161 3.513586,-1.2582195 0,0 z m 0.59,15.525 c -1.758993,-1.006711 0.859007,-1.556574 0,0 z m 0.254,6.66 c -4.788432,-1.032244 -0.51581,-4.075479 0,0 z m -2.28,-42.178 c 2.399522,-4.859085 0.461526,4.971196 0,0 z m -0.838,37.543 c 3.624913,-1.7783 3.654403,3.498982 0,0 z m -0.509,-38.381 c 1.173413,-0.695925 0.348366,2.486288 0,0 z m 10.716,-15.103 c -7.275063,-2.741727 -7.887267,2.585011 -11.81,5.653 -1.605161,17.4255321 1.852855,35.51004 0.591,52.808 5.567545,5.126398 5.60784,-4.140936 7.758,0.167 -3.029729,5.119095 10.2118235,-0.776718 4.088,-7.548 -4.435066,-4.455065 -0.296679,-10.5505318 -0.59,-15.773 4.5898033,-2.5842092 8.8171726,1.436999 13.035,-1.268 1.7350862,4.1751485 1.9167632,-8.5226579 -2.026,-5.865 2.1792517,-4.2298494 -9.757989,-7.298685 -7.971,-1.646 -1.840723,6.7408105 1.4120512,9.1978446 -5.063,0.677 -4.453175,-0.00245 -2.710628,-3.3775566 -2.062,-6.79 3.937952,-6.308891 -3.641588,-13.697629 6.871,-14.973 3.8127665,-0.137234 16.4988444,0.829934 10.419,-4.64 -4.6254626,-2.277761 -8.3176037,-4.836451 -13.24,-0.802 z"
           style="fill:#ffffff" />
      </g>
      <g
         id="g134"
         transform="matrix(0.35278,0,0,-0.35278,-229.94,69.677)">
        <path
           id="path132"
           d="m 0,0 c -0.28876468,-2.2772033 2.3214847,0.66626343 0,0 z m -1.262,-2.361 c -0.9219136,-0.8537787 0.91258814,-0.885475 0,0 z m -5.821,16.364 c 0.9246089,-0.383787 -0.3877874,0.938265 0,0 z m -0.677,7.511 c 0.1543594,-1.950942 0.8608068,0.456289 0,0 z M -8.437,1.776 c -1.587559,-0.96867011 1.0368092,-1.12659242 0,0 z m -0.671,-3.547 c 0.6811772,-0.4610863 0.3044601,1.31934568 0,0 z m 0,18.476 c 2.8619503,1.292008 -1.498834,1.786633 0,0 z m 0.671,-6.833 c -1.4052245,-5.6511622 1.3167366,3.823522 0,0 z m -1.006,8.605 c -0.726844,-1.075961 0.8355918,-0.695806 0,0 z m -1.013,5.062 c 0.6199798,-0.461588 0.349588,1.114372 0,0 z m 0,2.783 c 0.8676589,-2.545145 -0.07484,1.460926 0,0 z m 0,-32.814 c -0.924844,-0.8602822 0.9140597,-0.8979319 0,0 z m 0,19.992 c -1.893686,-0.788393 0.614984,-1.685605 0,0 z m -0.677,1.516 c -0.926713,-0.86664 0.925155,-0.871928 0,0 z m -0.759,-18.048 c 1.546068,-8.589612 3.0399157,4.5523458 0,0 z m -0.254,-2.702 c -2.473402,-0.7791972 0.770257,-2.1465315 0,0 z m -1.69,1.267 c 1.948711,0.2913739 -1.001605,2.4102962 0,0 z m -1.77,6.492 c 1.7673,0.9426965 -1.0428,1.178825 0,0 z m -0.671,-4.045 c -0.675652,-0.3748984 0.66378,-0.5277764 0,0 z m -0.59,2.61 c 0.752113,-1.20564051 0.865108,0.8010421 0,0 z m -0.342,-0.926 c -5.71721,-0.60581396 -0.991821,-2.9629428 0,0 z m -2.864,0.678 c 5.634471,2.7270708 1.543275,9.889539 0,0.248 z m -1.603,3.796 c -1.080781,-0.5581182 0.818134,-1.4130538 0,0 z m -0.423,-3.125 c -1.006588,-1.07384222 1.138847,-0.65313652 0,0 z m -5.143,-4.386 c -0.823069,-1.3841935 1.066093,-0.5898594 0,0 z m -0.255,0.341 c -1.06335,-0.4655812 0.800247,-1.2854881 0,0 z m 0,2.361 c -1.855307,-1.9587364 3.037725,-1.0072126 0,0 z m -1.1,-4.727 c 0.819876,-1.6576538 1.071638,0.925841 0,0 z m -1.012,-0.336 c 1.095028,0.1551312 -0.771442,1.4769796 0,0 z m -3.622,33.573 c 5.081554,-0.266775 -0.630172,-5.140644 0,0 z m -1.187,-1.517 c 6.108674,-0.588635 1.766803,-7.439383 0,0 z M -35.344,0.59 c -0.589586,-0.16211432 0.576098,-0.30160529 0,0 z m -0.677,11.22 c 1.261781,-3.96761 1.332314,3.76124 0,0 z m -0.335,11.139 c 1.038059,-1.074875 1.220768,0.07518 0,0 z m -0.422,-8.604 c 1.869791,0.281898 -0.424108,1.560394 0,0 z m 1.011,-8.182 c -4.489055,-1.2917265 2.18338,-0.9866629 0,0 z m -2.695,0.08 c 2.171871,-1.6768962 1.503036,2.0433855 0,0 z m -0.933,4.729 c 1.808579,-6.5078851 3.36697,2.578845 0,0 z m -0.757,17.376 c -0.921188,-0.8746 0.921188,-0.8746 0,0 z M -41.165,9.617 c 1.851148,1.053559 -0.629097,1.918575 0,0 z m -0.671,18.309 c 1.22119,-0.949545 0.313938,1.926052 0,0 z m -0.342,-10.127 c -2.922378,-4.325265 2.7711,-0.630519 0,0 z m -1.012,-8.94 c 0.624966,-0.4684536 0.357778,1.1169019 0,0 z m 0,4.131 c 2.912279,-2.022361 5.039867,2.351668 0,0 z M -43.948,2.789 c 1.338936,-1.0311467 1.167253,3.4200171 0,0 z m 0,2.609 c -0.02481,0.5359706 -0.564554,-0.3167648 0,0 z m -1.268,6.245 c 2.739721,-0.599015 -0.254589,2.362182 0,0 z m -0.08,3.205 c 1.432093,-2.198295 1.419085,2.203748 0,0 z M -7.76,-9.021 c 3.7658903,5.6415897 -3.960663,-0.1186892 -3.709,0.503 -3.710982,-1.326766 -5.182484,4.9521761 -9.114,6.288 -3.968175,6.5506204 -1.468823,-2.4356446 -3.541,-2.492 -3.368652,-2.3397071 -3.905746,-3.56435 -10.797,-1.727 -3.066598,-0.3153535 -14.65486,12.3270321 -6.791,6.704 -6.128419,0.45528155 -2.675413,11.459667 -2.739,10.251 -6.747935,-1.8593423 2.451075,21.206408 1.261,19.19 2.415092,1.613081 3.363733,-0.961153 6.163,-5.144 6.277973,-1.815571 3.634487,-9.52777 3.796,-14.426 -3.94745,-0.5591037 -1.029298,-12.4534503 1.217,-9.281 3.013593,0.5851433 3.577731,-0.68623121 7.89,3.293 11.049797,3.8043723 5.89926,17.839967 10.885,25.558 4.9672098,-2.040327 6.4266809,-0.23839 5.355,-6.244 2.8428445,-4.34073 1.0723262,9.252152 2.826,-4.343 2.78117,-4.228848 -5.019336,-13.3226077 -2.87,-12.275 -1.0202143,3.0848147 1.0618689,-4.4046371 -0.634,-4.219 2.1760838,-3.28674786 14.6118377,3.2094468 11.767,-3.964 0.9073392,-2.74235 -4.6386638,-2.1459971 -7.082,-5.398 1.5221687,-2.6751021 -2.8057034,-5.462529 -3.883,-2.274 z"
           style="fill:#ffffff" />
      </g>
      <g
         id="g138"
         transform="matrix(0.35278,0,0,-0.35278,-180.57,116.04)">
        <path
           id="path136"
           d="m 0,0 c 0.65887726,0.71882045 -1.3555179,0.58428567 0,0 z m -0.591,25.851 c 5.4433316,-0.732884 -0.7486304,4.684125 0,0 z M -0.752,15.432 c 0.64658195,-2.616437 1.15412271,2.587718 0,0 z m -7.237,10.269 c -1.7683732,0.01345 -5.150548,-0.840796 0,0 z m -3.958,0.242 c -1.336597,-0.965356 1.110119,-1.221084 0,0 z m -6.188,4.045 c -0.446163,-4.987232 4.284721,-0.159234 0,0 z m 0.031,-8.58 c -0.213829,1.149516 -1.293093,-0.711919 0,0 z m -1.82,2.063 c -0.489714,-0.501101 0.713567,-0.209926 0,0 z m -0.348,4.784 c -1.297394,-1.543065 1.303618,-0.882545 0,0 z m -8.332,-7.431 c 1.361372,-1.007912 -1.44048,-1.182294 0,0 z m -2.696,2.572 c -0.570154,-0.144336 0.34312,-1.350047 0,0 z m -0.329,-4.715 c 2.551806,-4.289947 0.23267,-1.175916 0,0 z m -12.99,19.173 c 1.591075,-0.426737 -0.133608,1.76594 0,0 z m -0.403,-0.547 c -0.698073,-1.526577 1.948885,-2.006841 0,0 z m -3.698,0.303 c 0.869841,-5.70146 1.545732,4.38636 0,0 z m -2.764,-3.696 c -0.670206,-6.937974 5.224536,-2.167081 0,0 z m -2.361,-11.972 c 1.662749,-0.383515 -0.169269,1.924133 0,0 z m -6.623,12.829 c -1.16589,-11.197604 0.817226,-2.986915 0,0 z M -61.412,9.673 c 1.095279,-6.1953086 4.139474,3.837244 0,0 z M -62.58,7.43 c -0.894302,-1.3306901 0.783176,-0.9184438 0,0 z m -1.441,1.591 c 2.241146,7.951086 -5.451482,33.723448 4.778,31.348 8.249479,-2.74244 1.688953,-15.632657 7.884,-2.82 3.450177,2.087478 8.784882,6.275274 13.648,5.566 10.47879,-2.077259 7.875191,-13.251732 8.027,-21.247 0.661202,-3.297872 9.378747,13.605369 15.687,10.394 7.0324789,0.282993 8.0661697,9.543692 14.426,1.702 C 6.8149649,32.200948 -0.56749941,20.431226 1.497,16.258 1.4864546,10.050509 0.14334149,-2.6668281 1.279,-1.149 c -13.184213,-0.3407633 -3.3429179,36.23458 -16.339,20.88 -2.87643,-5.11255 -1.570864,-2.156562 -5.647,-4.877 -1.718771,-3.385067 -5.362567,-7.0001526 -12.879,-13.183 -6.974229,0.7419988 1.783787,12.583082 -3.553,17.843 0.02899,6.652922 0.945831,11.962145 -4.337,13.599 -4.432387,-6.005561 -9.376031,-6.966853 -7.294,-12.972 -5.770014,-4.074384 -4.746281,-13.6655481 -11.504,-14.997 -2.346769,-1.8402048 -4.862344,1.4091465 -3.747,3.877 z"
           style="fill:#2c2c83" />
      </g>
      <g
         id="g142"
         transform="matrix(0.35278,0,0,-0.35278,-290.43,78.402)">
        <path
           id="path140"
           d="m 0,0 c -1.125312,-1.1051657 1.5860263,-0.80603707 0,0 z m -0.149,0.479 c 0.44817323,0.8470382 -1.8604784,0.5649934 0,0 z m -1.684,7.616 c 0.92254538,-0.3121266 -0.012662,1.4736211 0,0 z m -0.752,2.861 c -0.3798097,-0.811859 0.7913424,-0.452003 0,0 z m -1.435,4.147 c -0.9233941,-0.187671 0.7830519,-1.059251 0,0 z m 0.149,1.466 c 0.3708372,1.110803 -1.763743,-0.01916 0,0 z m -7.635,0.267 c -0.982876,-1.80905 1.485509,-0.3745 0,0 z m -1.565,-3.342 c 3.2007006,-2.909228 -0.215319,5.582535 0,0 z m -0.324,21.179 c -1.061319,-1.669395 1.767424,-0.903399 0,0 z m -3.23,-21.452 c 1.138953,0.214198 -0.467765,1.334305 0,0 z m -4.945,-1.694 c 1.519335,-4.4500717 3.335788,2.191119 0,0 z m -0.361,-5.439 c 1.562624,-0.1901201 -1.28731,2.2588537 0,0 z m -1.696,-1.882 c -1.523996,-0.9347198 1.228877,-1.664499 0,0 z m -0.292,35.561 c -1.042853,-1.547718 1.657179,-0.730629 0,0 z M -24.068,9.654 c 0.651222,2.498705 -1.894926,-0.3706042 0,0 z M -34.281,6.687 c 5.841527,-5.8626119 -0.63423,6.867455 0,0 z m -0.777,27.51 c -1.230889,-1.456108 1.50872,-1.186377 0,0 z m -2.814,-1.978 c -0.304951,0.328975 -0.957612,-0.692353 0,0 z m -0.709,-5.198 c -1.32023,-1.569049 1.244287,-2.365011 0,0 z m 7.468,-21.613 c -0.521717,2.5210042 3.226449,5.868626 5.865,2.702 2.413255,5.933673 10.047567,12.005427 8.492,19.703 0.714362,14.452135 -17.897043,6.133184 -19.414,-3.025 -6.789644,-3.706075 -5.001294,-1.706289 -4.075,-6.026 0.578702,-2.678442 3.647077,-6.35458 2.907,-8.542 -0.702777,0.537927 7.92391,1.5467 6.225,-4.812 z m -11.412,4.544 c 2.322405,-5.6276174 1.683331,2.514566 0,0 z m 0.124,5.626 c 3.703683,-5.207383 0.368313,6.253194 0,0 z m -2.473,4.613 c -1.180228,-1.445511 1.718188,-0.827901 0,0 z M 3.429,-25.851 c -3.45352955,12.3677 -9.024739,24.4272563 -12.593,36.437 -6.81962,4.144144 -2.356303,-2.9490348 -8.244,-5.336 -5.02067,-2.0791046 -14.54261,-3.9268521 -19.532,0.348 -2.388156,-2.27192 -11.825927,11.517927 -7.977,19.895 4.858842,3.127775 2.332102,-1.278527 5.622,2.364 -3.59593,7.247203 6.729186,9.50548 10.388,10.071 0.663552,5.732905 3.486789,1.404943 8.505,4.398 C -20.49929,48.053631 -9.0429754,32.762225 -6.791,29.1 -4.5064113,26.653486 -4.6451385,15.995401 -4.927,18.706 0.06110206,17.910861 -2.4954528,12.807711 0.09047772,9.4422647 -0.86352189,2.7723319 6.4503695,-2.0706857 2.652,-5.706 c 6.1033533,-3.5906426 4.5099059,-11.944285 8.437,-16.678 -1.2718805,-1.156016 -5.1511892,-8.180302 -7.66,-3.467 z"
           style="fill:#ffffff" />
      </g>
      <g
         id="g146"
         transform="matrix(0.35278,0,0,-0.35278,-134.13,147.46)">
        <path
           id="path144"
           d="m 0,0 c 1.1597009,-0.48050132 -0.48116799,1.1619771 0,0 z m -1.013,24.553 c 1.03518012,-0.07869 0.55672063,2.668946 0,0 z M -1.436,8.772 c -1.0271561,-1.5177051 1.14630601,-1.1110268 0,0 z m -0.335,25.982 c 2.19507065,-1.935026 2.26013171,1.051538 0,0 z m -1.1,-20.16 c 2.79685149,-0.98532 -0.3933874,1.463461 0,0 z m 0,12.822 c 3.27147241,0.473526 -0.9272189,1.551495 0,0 z m -1.684,8.351 c -1.4539896,-1.086146 1.3208871,-1.543524 0,0 z m -1.434,-7.251 c 2.730991,-0.876139 -0.8332168,2.551708 0,0 z m -3.715,-3.883 c 1.8466286,-6.702622 0.7318755,8.484172 0,0 z m -5.313,-52.552 c -1.5136,-1.191999 1.516912,-1.181776 0,0 z m -2.279,9.617 c -1.433446,-1.000628 1.312965,-1.386576 0,0 z m -0.504,-1.857 c 1.892186,-2.252422 0.708337,1.697443 0,0 z m 0,2.36 c -1.31502,-1.434464 1.454335,-0.961968 0,0 z m -0.422,-8.772 c 4.024178,-5.280328 4.342801,6.11057 0,0 z m 0,1.522 c 0.691008,0.928832 -1.670587,0.522841 0,0 z m -0.925,3.454 c 1.322302,0.314541 -0.469404,0.687249 0,0 z m -0.845,40.829 c 1.539413,1.53576 -1.540948,1.530519 0,0 z m -1.349,-39.393 c 0.782032,-3.543688 0.727464,1.802734 0,0 z m -1.434,1.434 c -0.581104,0.882758 -0.480171,-0.884868 0,0 z m -0.51,40.488 c 2.024883,-0.613758 -1.298691,3.531891 0,0 z m -1.261,-49.682 c 1.209925,-0.510159 -0.622159,1.590179 0,0 z m -0.591,5.908 c 2.149094,-1.107425 0.367202,1.437903 0,0 z m -2.615,50.105 c -1.524548,-1.30392 1.524548,-1.30392 0,0 z m -0.51,-48.676 c -0.742493,-0.955657 1.026377,-0.453536 0,0 z m -0.839,-2.615 c 1.231466,-0.514605 -0.687271,1.814407 0,0 z m 0.839,-2.61 c -4.650666,0.735211 -1.176064,-2.145564 0,0 z m -3.118,62.418 c 1.550099,-0.258688 -0.263744,1.557899 0,0 z m 1.093,-64.443 c -2.030948,-5.640032 6.732373,0.430077 0,0 z m -1.603,1.348 c -1.302905,-1.317673 1.446814,-0.856474 0,0 z m 0,59.721 c -0.546666,0.652867 -0.286923,-0.813177 0,0 z m -1.77,8.35 c 0.78051,-0.581106 0.440106,1.402914 0,0 z m -2.442,-15.519 c 0.340697,-2.941027 3.676492,1.979749 0,0 z m 0,11.133 c 1.588594,-4.261072 4.041595,-1.21767 0,0 z m -0.254,-9.698 c 1.571643,-0.634533 -0.975199,2.709483 0,0 z m 12.4,-57.783 c -4.923938,-3.264373 -12.677397,2.567259 -10.164,7.673 3.144572,7.979637 8.052291,-3.490867 12.27,5.063 5.554074,0.41623 12.1665327,7.343426 15.14,15.395 1.7223912,6.4549622 -1.3852376,22.482145 -0.124,20.116 -1.1817822,10.507166 -8.712095,-0.861902 -7.257,-1.939 -4.700117,2.070723 -10.030928,-3.038292 -11.301,2.741 -4.754459,-4.450887 -12.699193,4.085872 -12.903,9.828 -3.835352,10.171615 3.281866,20.00341 9.194,11.598 0.493924,-8.574778 2.016586,-19.361538 12.395,-17.544 0.622532,7.356151 10.0062203,6.740163 12.064,10.965 -6.277128,1.0551 3.3126818,12.85893 6.077,1.349 0.992539,-9.189651 0.4095779,-13.81051 -2.448,-17.501 9.4845874,-5.919244 -8.83236,-1.727382 2.74,-6.915 1.2988806,-9.61270699 -4.801175,-13.1401309 -3.331,-21.682 -5.9089347,4.2838359 1.90779884,-6.251205 -4.385,-4.721 0.7748996,-5.888451 -8.307091,-8.979209 -7.636,-14.805 -6.585075,1.292397 -7.102476,3.036796 -8.983,-2.617375 0.302031,-2.031149 -3.085522,3.181825 -1.348,2.996375 z"
           style="fill:#2c2c83" />
      </g>
      <path
         id="path148"
         d="m -265.98,172.58 c 0.69143,-0.19485 -0.31509,-0.42645 0,0 z m -0.59655,1.0717 c 0.91478,0.89954 0.69997,-1.55107 0,0 z m -1.1899,-5.3276 0.10885,-0.13633 z m -0.92251,4.8807 c -1.2263,0.86019 0.77003,2.14456 0,0 z m -0.0879,2.0535 c -0.87489,0.76265 0.16242,0.6304 2e-4,0 m -2.5005,-8.0038 c 1.55851,0.45201 0.16497,-2.19761 0,0 z m -0.44697,7.6161 -0.0254,0.28207 z m -1.3984,-0.32667 0.10988,-0.0762 z m 0,-0.74295 c 0.71694,1.65715 0.99129,-1.10484 0,0 z m 0,-0.89429 c 0.32169,1.09743 0.38333,-0.7744 0,-1.4e-4 m -0.47555,1.3391 0.0962,-0.16524 z m -0.14922,1.8454 c 0.69823,0.33069 0.13198,-0.91172 0,0 z m -1.5166,-2.8864 c 0.75014,0.27117 -0.10158,-0.82907 0,0 z m -2.1128,-0.95109 c 1.26481,0.94344 0.65256,-2.51899 0,0 z m -1.0717,3.5394 0.0845,-0.0983 z m -0.77329,-3.2131 -0.12801,-0.0165 0.12811,0.0165 m -0.14922,0.77399 c 0.14032,-0.55766 -0.13118,-0.11083 0,0 z m -1.2492,1.6369 c -0.44645,3.77878 0.87115,0.0967 -6e-5,1e-5 m -1.3392,1.2185 c -0.82284,0.25559 0.25295,0.88559 0,0 z m 0.32668,-2.231 c -1.84328,2.05851 -0.51803,2.26484 0,0 z m -1.4291,2.0539 c -0.21247,0.92869 0.65565,-0.007 -2e-5,-1e-4 m -1.9639,-6.7857 0.0149,0.10037 -0.0149,-0.10047 m 4.0174,7.4408 c -0.85483,1.5672 -4.97993,-1.36178 -4.21178,-4.61469 -3.23802,-0.59318 4.58091,-9.47194 2.42099,-0.70208 1.44753,4.08166 6.02415,-8.15468 7.20668,-0.12577 6.23627,4.41161 9.07062,-0.9037 3.89001,-4.45657 1.92354,-3.72749 2.22672,-0.97115 4.8591,0.94493 2.87823,4.8512 -0.15422,6.25406 -1.89945,9.78281 -1.32204,-1.3855 -1.22348,-4.12719 -4.15435,-1.24777 -0.81832,1.30947 -4.57328,-4.48541 -5.11605,-0.62577 -1.24263,0.95549 -2.64489,2.90992 -2.99474,1.04486"
         style="fill:#ffffff" />
      <g
         id="g152"
         transform="matrix(0.35278,0,0,-0.35278,-240.38,191.94)">
        <path
           id="path150"
           d="m 0,0 0.1840059,0.17127389 z m -4.132,-1.771 c -0.2372695,-5.9804418 4.72682212,1.59505291 0,0 z m -1.937,-10.208 -0.00964,-0.479967 z m -0.255,0.336 -0.071499,-0.553201 z m -0.926,2.616 -0.2079249,0.3753048 z m -0.59,-4.977 c 0.7754129,1.486082 -0.2193821,0.41759 0,0 z m -2.025,3.293 c 1.0364991,-0.945447 -0.086399,0.490659 0,0 z m -0.255,-3.547 c 3.7856818,-1.895779 0.9423123,7.4787415 0,0 z m 0,5.572 -0.07128,-0.5546847 z m -0.336,-4.385 -0.219649,-0.03218 z m -0.255,3.796 -0.06937,-0.6372392 z m -0.335,-13.755 -0.03258,-0.268259 z m -0.59,4.727 0.0087,-0.590881 z m 0,6.915 0.04617,-0.565086 z m -1.435,-10.208 -0.268253,0.03392 z m 0,5.568 c 2.381525,2.505354 -2.188448,0.574014 0,0 z m -2.026,-7.841 -0.0551,-0.585485 z m -0.59,4.89 0.135038,0.203118 z m -3.206,-7.847 -0.06329,0.656625 z m -5.821,-0.59 c 1.577278,1.646413 -1.783727,0.919415 0,0 z m -3.541,1.521 0.05246,-0.564623 z m -2.615,12.482 -0.123787,0.530217 z m -5.232,-0.591 -0.07167,-0.473861 z m 5.822,-15.183 c -12.849356,12.723046 -16.408743,43.352815 1.3535,15.094328 3.901661,-11.79605 5.720399,-14.277606 12.0667,-7.093359 1.1693,8.033526 11.6763788,16.1175655 13.6333156,20.95725382 C 7.33345,2.5497886 -13.062902,-31.748971 -19.095219,-36.249268 -23.588659,-35.208883 -29.712963,-37.090718 -30.28,-29.187 Z"
           style="fill:#2c2c83" />
      </g>
      <g
         id="g156"
         transform="matrix(0.35278,0,0,-0.35278,-220.06,126.19)">
        <path
           id="path154"
           d="m 0,0 c 2.3779022,-0.52623027 -0.29483158,2.526102 0,0 z m -2.796,27.758 c -1.0961005,-1.136423 1.097075,-0.837292 0,0 z m -1.236,0.429 c -0.4431809,0.631538 -0.4414378,-0.574294 0,0 z M -4.87,4.058 c 2.6036765,-3.14598261 2.3133016,3.1844729 0,0 z m -1.604,-4.71 c 1.2007653,-0.30404565 -0.073599,1.12636046 0,0 z m 0.342,-1.199 c -1.3726679,-1.0774298 1.3731395,-0.8620438 0,0 z m -4.125,0.286 c 2.926468,1.20432725 -0.764433,2.28277323 0,0 z m -1.826,22.198 c 1.284408,-0.311835 -0.145273,1.309459 0,0 z m -1.964,-21.931 c -1.282886,-0.9073894 1.167058,-1.0421496 0,0 z M -14.941,-2 c -0.400591,0.6141316 -0.485274,-0.5482121 0,0 z m -4.691,5.405 c 3.49873,-8.8709356 16.4331646,-0.2766481 16.383,4.517 9.5089166,14.802129 -7.136122,15.957578 -12.618,6.97 -0.05523,-4.837607 -5.628201,-10.7721532 -3.765,-11.487 z m 31.393,-14.202 c -8.8294737,-1.200088 -8.4582728,17.8217759 -14.768,5.256 4.434772,-1.2528192 -7.926821,-2.9835109 -5.504,-3.169 -7.756811,-7.605067 -13.828728,8.1259378 -14.588,4.281 -2.703052,2.3651552 -5.454558,13.531768 -1.534,15.537 -1.769858,2.284419 0.908989,4.392679 3.951,8.773 0.871877,2.300074 6.462473,4.122305 5.828,8.3 6.5335749,-2.347184 16.1448917,4.205069 18.799,-7.443 3.2232312,-4.196951 4.3328728,-9.469577 1.398,-9.617 5.687787,-0.103268 2.362874,-9.7923405 6.132,-13.32 4.577772,-4.107416 12.184073,-13.350575 0.746,-9.263 z"
           style="fill:#ffffff" />
      </g>
      <path
         id="path158"
         d="m -156.73,53.737 c 0.32731,0.0281 -0.0932,-0.390329 0,0 z m -0.14887,0.77364 c 0.20714,0.02143 -0.0537,-0.241642 0,0 z m -0.41628,0 c 0.29948,0.284604 0.1751,-0.246036 0,0 z m -0.11854,-0.2981 c -0.63707,0.774471 0.33827,0.155712 0,0 z m -0.26952,0.20814 c 0.18259,0.0123 -0.10642,-0.210383 0,0 z m -0.41628,0.53516 c -0.34939,0.181998 0.18014,0.217416 0,0 z m -0.95144,-0.53516 c 0.29037,-0.142117 -0.2305,-0.223305 0,0 z m -0.92251,0.08996 c 0.29361,0.973005 0.85565,-0.577764 3e-5,0 m -0.20814,-1.5473 c -0.19969,0.249998 0.12187,0.14633 0,0 z m 0,2.4084 c 0.12019,-0.163211 -0.29607,-0.08976 0,0 z M -160.48,55.31283 c 0.58698,-0.285372 -0.32384,-0.376897 0,0 z m -0.32632,-0.23671 c -0.1759,0.145186 0.12844,0.227809 0,0 z m -0.23883,-0.23883 c -0.10892,0.186303 0.10814,0.1429 0,-1e-5 m -0.11818,-0.20814 c 0.12619,0.348669 0.40698,-0.400921 -4e-5,1e-5 m -0.23918,-7.5593 c -0.40141,0.157808 -0.1411,0.643729 -8e-5,10e-6 m -0.50589,-0.47554 c 0.21255,0.02383 -0.0527,-0.245027 0,0 z m 0.0307,7.7957 c -0.19285,0.08376 0.13532,0.136879 0,0 z m -0.14922,-1.3674 c 0.24222,0.05361 -0.0218,-0.207973 0,0 z m -0.41663,-7.5001 c 0.29004,-0.04246 -0.20362,-0.385624 0,0 z m -0.23883,2.0232 c 0.46626,-0.101763 -0.19561,-0.954419 0,0 z m -0.23672,0.17921 c -0.10647,0.07022 0.10276,0.07971 0,0 z m -0.0593,-1.6962 c 0.18178,0.03068 -0.0303,-0.181269 0,0 z m -0.14887,2.5601 c 0.27154,0.04497 -0.0468,-0.274351 0,0 z m -0.17957,-1.1617 c 0.19992,-0.06003 -0.16621,-0.387102 0,0 z m 0,-2.2617 c -0.1763,3.355884 0.78335,-1.028728 -3e-5,0 m -0.17745,8.957 c -0.20619,0.183974 0.20547,0.185042 0,0 z m -0.0899,-7.7057 c 0.60339,0.742331 0.12346,-0.397119 0,0 z m -0.23919,0.29563 c 0.2999,0.0398 -0.0662,-0.333929 0,0 z m 0,1.7865 c -0.0754,1.363436 0.4264,-0.131177 -4e-5,10e-6 m -0.23671,-0.86325 c -0.2064,0.183685 0.2064,0.183685 0,0 z m -0.14887,0.6858 c 0.16243,0.0676 -0.0693,-0.168078 0,0 z m 0,-3.2745 c -0.10791,0.142921 0.11032,0.0898 0,0 z m -0.2981,4.3744 c 0.20768,0.02196 -0.0532,-0.24154 0,0 z m 0,-4.464 c 0.17266,0.07254 -0.093,-0.241851 0,0 z m -0.11818,4.0478 c 1.31932,0.08741 -0.7697,-0.44505 4e-5,-10e-6 m -0.26741,-3.4826 c -0.19066,0.03802 0.11486,0.105809 0,0 z m -0.0614,-0.38559 c -0.1894,0.08173 0.1446,0.225321 0,0 z m -0.0878,2.0535 c -0.20625,0.181555 0.20625,0.181555 0,0 z m -0.26952,-2.323 c -0.28309,-0.04917 -0.27346,0.735718 -4e-5,0 m -0.41628,0.32879 c -0.17948,0.149436 0.13388,0.221079 0,0 z m -0.774,5.7729 c 0.60141,-0.11144 0.20331,-0.820325 0,0 z m -0.26705,-0.11853 c -0.37441,0.09509 -0.10004,0.280766 0,0 z m -0.2674,-0.38806 c 0.24204,0.05352 -0.0218,-0.207884 0,0 z m -0.09,-5.4462 c -0.20653,0.184493 0.20653,0.184493 0,0 z m -0.14887,6.1609 c -0.18994,0.02496 0.12956,0.117121 0,0 z m -0.26776,3.2741 c 0.336,0.186575 -0.0215,0.246438 0.031,-0.0307 z m -0.26741,-3.513 c -0.2054,0.184636 0.20612,0.183561 0,0 z m -0.0589,3.3048 c -0.17733,0.14388 0.12867,0.221767 0,0 z m 0,-3.454 c -0.17736,0.148 0.12894,0.223478 0,0 z m -0.0896,0.38806 c -0.10782,0.07395 0.10711,0.07574 0,0 z m -0.2981,1.5162 c 0.25538,-0.164579 -0.0944,-0.335638 0,0 z m -0.23706,2.2031 c 0.24175,0.100422 -0.10186,-0.246669 0,0 z m -0.14887,-3.8968 c 0.2964,0.03674 -0.0688,-0.335397 0,0 z m -0.98178,1.2185 c -0.19999,-0.125522 -0.0169,0.182668 0,0 z m -0.56551,0.20814 c -0.0435,1.074059 0.68493,0.321125 -1.4e-4,1e-5 m -1.5187,0.50624 c 0.16604,0.12364 0.0937,-0.298399 0,0 z m -0.38593,-0.20849 c 0.14585,0.442388 0.14623,-0.44157 0,0 z m 12.319,2.4702 c -0.73021,0.792408 -1.54637,0.300571 -1.7862,-0.62441 -1.05742,0.580037 -1.64256,-0.546041 -1.53172,-0.25438 -0.69426,0.438861 -1.17101,0.617789 -1.41392,0.07441 -1.23779,1.18741 -2.64522,0.58683 -3.8089,0.12061 0.46429,1.294438 -0.75639,0.353756 -1.10033,0.05925 0.16935,1.77608 -2.32262,-0.915958 -2.11285,0.23669 0.69296,-1.007963 -2.15124,-1.811823 -0.0896,-2.20063 0.16721,-1.242495 0.73007,1.793008 1.20544,-0.76058 0.2853,-0.571191 0.7089,0.478552 1.08475,-0.51929 0.801,-1.251727 1.16252,-0.931291 2.60559,-2.6342 0.45056,-0.375462 0.89574,-1.379429 2.11282,-1.72507 -0.24951,-1.233956 2.56254,-1.185964 0.47557,-1.26437 -0.71397,0.13551 -1.78663,-0.06706 -2.45481,-0.38805 -0.46806,0.507835 -1.13193,0.01701 -2.11279,-0.08961 -1.72522,-0.993785 1.6849,-1.7258 3.34646,-1.54766 1.86335,0.552784 3.41952,-0.977002 5.17908,0.13372 0.3247,1.481901 -1.59079,4.521687 -2.32096,4.18182 -0.75966,1.573758 -2.76237,2.395387 -2.45675,2.11278 0.11066,-2.660031 -1.02245,2.433547 -1.99201,1.07174 -2.15303,1.462717 0.31704,2.410598 2.0675,1.51623 2.50543,0.117877 5.32653,0.249259 6.90281,0.28292 1.34342,0.433514 2.92399,1.261327 1.01263,2.17415 -0.25236,-0.989514 -1.80093,1.568844 -2.81209,0.04375"
         style="fill:#ffffff" />
      <g
         id="g162"
         transform="matrix(0.35278,0,0,-0.35278,-192.83,72.837)">
        <path
           id="path160"
           d="m 0,0 c -2.1130671,-0.79824048 0.92298034,-0.05735016 0,0 z m -2.28,4.642 c -1.0728274,-0.4513025 0.8131484,-1.3098352 0,0 z m -1.013,0.254 c -0.9159079,-0.7574934 0.9159079,-0.7574934 0,0 z M -3.629,0.423 c 0.3496906,0.53247473 -1.0540111,0.21907758 0,0 z m -0.677,2.951 c 1.3212976,-1.6445541 1.8141053,2.2777794 0,0 z m -1.267,26.913 c -0.9044872,-0.894637 0.9154398,-0.858929 0,0 z m -0.335,0.335 c -0.9302343,-0.983388 0.928724,-0.988554 0,0 z M -5.741,4.896 c -3.1951733,-1.7316772 1.2116428,0.1195429 0,0 z m -0.503,20.75 c 0.4527992,1.093981 -2.8113496,-0.0547 0,0 z m -1.348,5.902 c -0.9192139,-0.850717 0.9083076,-0.887331 0,0 z m -0.342,-1.261 c -0.5961822,-0.932201 0.5987316,-0.827228 0,0 z m -0.249,-8.269 c -0.8495039,-0.537326 0.7169375,-0.999344 0,0 z m -1.099,4.721 c 0.8026272,-5.558772 2.6592218,-1.211664 0,0 z m -0.255,1.187 c -0.905313,-0.788521 0.9165348,-0.751418 0,0 z m -0.335,-5.231 c 0.6181346,-0.460214 0.3485474,1.111055 0,0 z m 0.335,-1.945 c -0.48725,0.617327 -0.3593869,-0.620543 0,0 z m -1.348,0.933 c 1.2085846,-0.232862 -0.153662,1.101484 0,0 z m 0.422,3.963 c -0.545532,0.605897 -0.545532,-0.605897 0,0 z m -0.422,-1.267 c -0.803269,-1.283767 1.0641843,-0.454022 0,0 z m 0,-3.964 c 1.4980855,0.44299 -1.117719,0.633468 0,0 z M -11.897,0.423 c -0.809051,-1.39427902 1.058463,-0.57813313 0,0 z m -0.59,34.418 c 1.515841,-0.381729 -0.0914,1.251327 0,0 z m 0.59,-8.86 c -2.149118,-0.51227 1.577444,-1.278766 0,0 z m -2.616,0.51 c 1.659666,-1.042836 3.042064,1.677383 0,0 z m 0.087,-8.437 c 0.864337,1.401403 -1.393681,0.235622 0,0 z m -0.51,2.696 c -0.36419,-2.83027 2.417278,0.497842 0,0 z M -15.184,4.051 c -0.259751,-2.855657 2.726078,-1.0558652 0,0 z M -16.116,0 c 1.246024,-0.5212544 -0.691254,1.8202409 0,0 z m 0,5.653 c 2.141349,-3.3668265 2.483974,2.7415038 0,0 z m -0.671,15.352 c 1.104559,-0.154197 -0.233368,1.211688 0,0 z m -0.087,15.183 c -0.116122,-2.328239 1.822316,0.01534 0,0 z m -1.435,-11.387 c 0.707559,-5.774448 3.994896,-0.95926 0,0 z m 0.254,-4.722 c 0.461588,0.619273 -1.112027,0.350088 0,0 z m -0.676,2.275 c 1.05035,-0.176559 -0.176559,1.05035 0,0 z M -19.744,5.566 c 1.958515,0.1655503 -0.465997,0.8695617 0,0 z m -1.013,0.342 c -0.851274,0.6543362 -0.715238,-0.6616893 0,0 z m -1.261,27.92 c 2.811122,-3.358035 2.274532,0.719115 0,0 z m 0,-32.479 c -0.03073,0.536572 -0.77555,-0.37397866 0,0 z m 0,15.438 c -0.03662,0.520075 -0.774348,-0.368912 0,0 z m -0.341,-9.53 c -0.91755,-0.8969314 0.926782,-0.8645051 0,0 z m -0.926,8.268 c 1.063816,0.507251 -1.457414,0.320058 0,0 z m -1.013,16.023 c 1.064938,2.048006 -0.640797,4.601651 0,0 z m 0.255,5.063 c -2.088207,-0.43186 0.691129,-1.053881 0,0 z m -0.678,-5.399 c -0.748233,-0.824285 1.057528,-0.458568 0,0 z m 0,3.629 c -0.761749,-0.916904 1.049109,-0.561293 0,0 z M -24.975,4.896 c 0.184771,-3.7822377 1.67033,2.8466852 0,0 z m -0.671,-0.167 c -2.314165,-0.047136 0.469339,-1.9591339 0,0 z m -1.603,30.112 c 1.225628,-3.494915 2.13531,2.918679 0,0 z M -27.926,4.642 c 1.722099,-0.6030751 -0.238407,0.9470244 0,0 z m 0,25.645 c -0.906992,-0.892017 0.916385,-0.861405 0,0 z m -0.336,4.218 c -0.921188,-0.8746 0.921188,-0.8746 0,0 z m -0.335,0.336 c -0.925807,-0.861874 0.915043,-0.899695 0,0 z m -0.341,-23.62 c 1.044093,-0.177685 -0.171784,1.034997 0,0 z m 0,-7.847 c -0.915171,-0.9992335 0.922698,-0.9734741 0,0 z m -0.336,-1.429 c -0.2461,0.5054816 -0.458601,-0.3771155 0,0 z M -30.2,6.331 c 1.437914,-0.4558819 -0.0291,1.0822032 0,0 z m 0.249,26.571 c -0.324926,0.591873 -0.194067,-0.603451 0,0 z M -30.2,2.361 c -0.55306,-0.125516 0.431249,-0.9046507 0,0 z m 0,16.705 c -0.351895,0.613686 -0.514811,-0.595515 0,0 z m -0.342,11.811 c 1.689199,-0.02865 -0.850995,2.456272 0,0 z m 0,-27.926 c -0.909912,-0.7814302 0.921051,-0.7432512 0,0 z m 0.342,1.355 c 3.534865,-2.0343999 -1.932683,3.5511567 0,0 z m -1.354,23.62 c 0.917701,-0.909731 -0.255904,1.189285 0,0 z m 0,5.311 c 1.27779,0.675269 0.697272,0.355018 0,0 z m 0,-15.437 c -0.916009,-1.000927 0.923526,-0.975072 0,0 z m -0.672,-3.964 c -0.718158,-1.110757 0.847447,-0.66102 0,0 z m -0.757,21.85 c 1.181345,-3.427103 2.976571,0.112908 0,0 z m -0.174,-4.809 c -0.826078,-0.57896 0.711409,-0.949571 0,0 z m -1.006,1.013 c 2.190219,-1.878659 2.19016,1.296418 0,0 z m 0.248,-16.116 c -0.319651,0.586153 -0.198773,-0.588846 0,0 z m 0.932,1.945 c 0.412945,-1.384444 0.832975,4.055922 4.553,3.665 5.228916,0.817921 7.701857,2.445388 12.314,3.585 3.571532,4.67015 10.9600932,4.499756 1.77,9.872 -5.147983,-2.177783 -9.545641,-3.318564 -12.903,-5.908 -5.134357,-7.303779 -5.602454,-4.070433 -6.747,-11.133 -2.216836,-0.133887 0.321966,-0.604146 1.013,-0.081 z m -2.193,9.952 c -0.634465,-0.980088 0.625031,-1.01071 0,0 z m -0.255,1.262 c -3.153511,-2.72315 2.267383,-0.571842 0,0 z m -1.435,-7.928 c -0.317256,0.588495 -0.216618,-0.588911 0,0 z m 0,5.653 c -1.671152,-1.535085 1.546602,-0.315799 0,0 z m -0.255,-1.689 c -0.830362,-0.556362 0.709017,-0.981001 0,0 z m -2.95,2.957 c -0.844303,-0.549022 0.709754,-1.003168 0,0 z M -17.377,-0.59 c -3.28104,-2.7266256 -7.739271,2.7053169 -9.872,2.28 -2.652085,0.1516344 -8.13646,3.7647449 -11.133,9.531 -3.787772,3.588051 -2.940279,17.591772 -1.354,17.121 6.497037,0.970916 5.17953,4.60076 6.287,5.654 -0.578649,3.581721 6.544346,-0.336585 8.474,3.292 -4.327027,4.11739 3.002703,-1.082132 3.205,-1.434 2.977842,-1.672085 1.740567,3.980786 6.332,1.26 4.3496,2.569862 -3.294805,3.995105 3.838,0.721 3.0925693,0.971663 6.4922027,-5.809717 2.573,-1.814 -2.319205,-0.980908 -0.00324,-5.279143 1.77,-3.46 1.0449458,-0.297468 7.87671734,-4.415396 2.274,-3.628 0.2643374,-2.538772 1.9000907,-5.839961 -2.019,-8.096 -4.615031,-0.155232 -11.939509,-2.829624 -9.406,-3.329 -0.0143,1.244253 -3.899676,1.811394 -1.392,-3.082 -3.972376,-0.129526 -0.520795,0.06402 -7.511,-1.268 -8.175177,2.593416 2.081855,-4.2906402 8.35,-5.056 4.869061,-1.2445657 9.1051357,-2.0809715 13.332,-1.771 6.4173622,2.244651 7.1168577,-2.2737442 6.834,-7.002 -2.79121079,2.440114 -1.3418322,-2.2233642 -5.485,-0.932 -2.7342886,2.6366584 -6.1868109,-0.6693428 -9.028,1.436 -1.246529,4.0264062 -4.342532,-5.0310396 -6.069,-0.423 z"
           style="fill:#ffffff" />
      </g>
      <path
         id="path164"
         d="m -157.96,162.14 c 0.49831,0.0948 -0.0653,-0.45756 0,0 z m -1.4228,1.7688 c 0.22217,0.55575 0.3003,-0.13974 0,0 z m -0.10513,-1.9089 c -0.4718,0.31807 0.42073,0.4951 0,0 z m -0.17321,5.2409 c -0.32677,0.47734 0.43932,0.14822 0,0 z m -0.10513,-5.6924 c 0.35051,0.0464 -0.0774,-0.3905 0,0 z m -0.17322,-1.874 c -0.50007,0.40644 0.50412,0.39344 0,0 z m 0,-0.45156 c -0.49906,0.36273 0.50321,0.34972 0,0 z m -0.31115,8.0179 c 1.18876,0.34512 -0.10058,-0.60348 0,0 z m -0.17533,-6.2819 c 0.53659,0.0909 -0.0891,-0.53383 0,0 z m -0.13793,2.5686 c 0.45781,-0.14406 -0.18998,-0.25492 0,0 z m 0.13793,-1.2143 c -0.60032,1.11532 0.47316,0.67086 -3e-5,0 m -0.13793,-0.31327 c -0.47305,0.318 0.42194,0.49508 0,0 z m -0.17322,-0.3115 c -0.41722,0.48877 0.46892,0.31738 0,0 z m -3.8527,8.8865 c -0.42094,0.53409 0.47052,0.3654 0,0 z m -2.7792,-0.58985 c 2.21228,-1.06727 0.71047,-0.26892 0,0 z m 0,-11.665 c 0.78202,0.26556 -0.4772,-1.27921 0,0 z m -0.31115,-0.93804 c 0.32278,0.84735 0.23703,-0.61355 0,0 z m -0.10548,-0.34607 c 0.38289,-0.15874 -0.18922,-0.23193 0,0 z m -0.79763,12.358 c -1.30458,0.50504 0.0935,2.06441 0,0 z m -1.5275,0.59161 c 0.53022,-0.28104 -0.678,-0.4901 0,0 z m -0.7299,-13.087 c 0.78356,0.2399 -0.28467,-0.83819 0,0 z m -0.62477,0 c 0.8002,0.0124 -0.5601,-1.57638 0,0 z m -1.1109,12.011 c 0.3946,0.16632 -0.18984,-0.4747 0,0 z m -2.7421,-8.1234 c 1.48857,-0.61603 0.35508,-3.09052 0,0 z m -1.0756,0.27834 c -0.24557,0.16617 0.24005,0.17309 0,0 z m 7.4295,9.6485 c -2.62758,0.93222 -3.02041,-0.71858 -4.96645,-1.97889 -0.64614,-0.64701 -2.09615,0.016 -2.74135,-0.65966 -1.88618,-1.90248 0.9741,-4.22635 -0.20849,-6.49078 1.50971,-3.0534 1.99465,-3.83592 4.82584,-5.20741 1.81541,-2.07751 5.38765,-0.98217 2.72683,2.55118 -1.00953,0.0511 -3.86253,2.1946 -3.69986,3.8375 -2.51736,5.16274 7.17731,6.5371 9.47911,4.44146 0.11246,-3.92657 3.7721,0.10345 2.32516,-3.38313 1.38903,-4.18697 -5.3978,-3.39887 -5.52096,-6.23276 0.26593,3.83718 -2.98179,-1.53908 -0.13787,-1.80373 0.13017,1.89498 1.50309,0.922 2.15234,0.4164 1.50229,0.63603 6.50019,1.55315 5.65856,5.65894 0.31463,-3.3539 1.62861,-1.76806 2.36079,0.51924 -0.89583,2.16158 -0.34843,4.17336 -2.56886,4.20061 0.0699,2.31872 -1.48496,1.84806 -1.90889,3.61208 -0.81869,-1.30383 -2.13568,0.95507 -3.78496,0.79726 -1.12121,-0.5027 -0.28621,-0.62545 -3.00239,0.53933 -0.0832,-0.44973 -0.40144,-0.975 -0.98848,-0.81774"
         style="fill:#ffffff" />
      <g
         id="g168"
         transform="matrix(0.39009,0,0,-0.39133,-86.484,68.683)">
        <path
           id="path166"
           d="M 0,0 C -36.487564,13.485711 -20.703612,61.085184 -5.8730625,86.167325 9.0667456,111.19132 32.682939,130.88551 59.958,141.143 78.407915,91.73679 62.847815,23.555273 11.79007,0.68501172 7.9818222,-0.42046103 3.9120589,-0.75835818 0,-0.005"
           style="fill:#e5007e" />
      </g>
      <g
         id="g172"
         transform="matrix(0.39009,0,0,-0.39133,-67.756,148.05)">
        <path
           id="path170"
           d="M 0,0 C -34.003,19.575283 -7.8449669,63.458429 11.547851,84.673227 31.731857,106.61924 59.236919,121.61753 88.539,127.009 97.098298,74.265474 66.224643,11.655802 11.93616,-1.3128848 7.9305511,-1.7422818 3.8003017,-1.4036061 0.001,-0.004"
           style="fill:#e5007e" />
      </g>
      <g
         id="g176"
         transform="matrix(0.39009,0,0,-0.39133,-121.69,180.51)">
        <path
           style="fill:#81358a"
           id="path174"
           d="m 0,0 c -7.123,6.502 -10.14,17.99 -9.268,28.187 0.902,10.205 5.096,19.319 9.929,27.51 23.744,39.877 66.146,62.221 108.5,57.102 C 104.42,59.611 72.042,8.279 28.784,-3.941 19.269,-6.62 8.153,-7.437 0,0.002" />
      </g>
      <g
         id="g180"
         transform="matrix(0.39009,0,0,-0.39133,-75.611,101.4)">
        <path
           id="path178"
           d="M 0,0 C -33.660115,21.918506 2.371101,62.555961 23.495623,80.322923 48.003771,100.62872 78.492182,113.48518 110.035,117.446 111.14297,61.840339 67.425864,7.3716593 12.362938,-1.7612852 8.1871574,-1.9909952 3.9191645,-1.5394594 0.002,-0.004"
           style="fill:#ef8000" />
      </g>
      <g
         id="g184"
         transform="matrix(0.39009,0,0,-0.39133,-81.249,181.88)">
        <path
           id="path182"
           d="M 0,0 C -23.85991,38.0895 41.85362,64.607066 72.226213,69.202267 95.544621,75.546251 121.47988,71.186608 98.886688,45.158359 79.400299,14.510115 36.80883,-13.887134 0.004,0"
           style="fill:#0068b2" />
      </g>
      <g
         id="g188"
         transform="matrix(0.39009,0,0,-0.39133,-70.218,45.312)">
        <path
           id="path186"
           d="m 0,0 c 0.98065757,-1.5901912 0.39123482,1.651442 0,0 z m -0.381,-5.55 c 1.4357873,-0.099208 -0.44771126,1.748026 0,0 z m -0.073,3.114 c 0.51425365,-3.1763008 3.1277653,1.0370563 0,0 z M -1.215,0.23 c 0.1111815,-3.925314 1.26465301,-0.33798124 0,0 z M -2.05,-6.16 c 0.6427827,-0.516034 0.4258926,1.0785828 0,0 z m 0,-0.986 c -0.7325009,-1.0565262 0.9706199,-0.3285845 0,0 z m -0.61,23.265 c -0.9972228,-1.353737 1.2397472,-0.59665 0,0 z m -1.596,-3.954 c 0.8311944,-0.345091 -0.3490908,0.844851 0,0 z m 0,4.716 c 0.6690732,-0.413442 0.2288773,1.38057 0,0 z M -6.463,-4.866 c -0.4954385,0.5496872 -0.4901174,-0.5512635 0,0 z m 0.454,-17.111 c -2.6681425,-0.863779 -0.4300889,-1.894691 0,0 z m -1.064,38.858 c -0.7526846,-0.512532 0.6489527,-0.872152 0,0 z M -7.757,13.61 c 0.9578367,-1.790516 0.8858308,1.820622 0,0 z m 0,-19.16 c -0.9075199,-0.985292 1.0372979,-0.5824814 0,0 z M -8.059,6.385 c 0.9336416,-0.1547451 -0.1606471,0.9427372 0,0 z m -0.991,9.964 c 1.1403984,-0.08794 -0.3402226,1.3745 0,0 z m 0,2.889 c -0.3316293,-0.424944 0.4648334,-0.207156 0,0 z m -2.582,-1.898 c 2.4709083,-3.748072 -0.594919,-2.596912 0,0.375 v -0.224 z m 0.302,2.963 c -0.930626,-0.684149 0.339768,-1.261234 0,0 z m -3.343,2.357 c -0.326574,-0.990009 2.372119,-1.454528 0,0 z m 0.834,-3.723 c -2.667844,-1.732225 0.950438,-2.148962 0,0 z m -0.61,1.444 c -1.245825,0.263762 -1.196171,-3.16199 0,0 z m -1.748,-0.078 c -0.36736,-0.523585 0.473391,-0.461861 0,0 z m -0.532,1.444 c -0.590762,-0.537424 0.582622,-0.661644 0,0 z m -0.991,-50.035 c 1.348126,-0.02312 -0.808177,2.247497 0,0 z m 0.229,48.21 c 0.520825,0.599472 -0.920704,0.463512 0,0 z m -0.229,-1.978 c 0.832256,1.716056 -1.173005,0.102109 0,0 z m -0.605,-19.466 c 10.2741425,4.4061884 0.531704,-7.2897745 0,0 z m -1.216,23.197 c 0.232872,-3.054699 2.664746,1.201386 0,0 z m 0.454,-2.056 c -3.166954,-2.457428 1.545973,-1.08368 0,0 z M -19.619,0.986 c -1.239747,-0.59664962 0.997223,-1.35373729 0,0 z m -1.674,19.619 c -0.909529,-1.102588 1.039982,-0.666502 0,0 z m 0.078,1.826 c -1.890117,-1.763817 0.142103,-3.027852 0,0 z m -1.367,-22.89 c -1.959104,-0.0927144 0.411747,-0.832218 0,0 z m -1.372,24.945 c 0.665688,-3.468527 0.409118,2.214226 0,0 z m -0.61,-52.774 c 0.132799,-2.396342 1.028049,0.518057 0,0 z m 0,50.186 c -1.505399,-0.05284 0.30275,-0.629843 0,0 z m -2.128,-50.567 c 4.686638,2.994277 -2.036434,2.594911 0,0 z m -1.367,51.329 c 2.825831,-4.252356 3.657611,0.826743 0,0 z m -0.23,-23.191 c -0.741419,-0.8984232 1.149304,-0.43193462 0,0 z m -0.38,19.769 c 1.666793,-1.894527 0.923741,4.330417 0,0 z m -1.445,-4.032 c 0.0085,-2.012525 1.738434,-0.439921 0,0 z m -1.826,-41.518 c -0.566202,-3.539478 2.315124,0.186304 0,0 z m -5.399,0 c 8.508585,10.816228 2.573501,-1.417845 0,0 z m 0,37.261 c -1.029847,-0.691456 0.914918,-1.0739803 0,0 z m 12.321,-39.618 c -5.390248,-4.699432 -12.674488,3.558047 -7.297,5.478 3.944202,5.384705 3.652048,-3.479178 6.003,-1.753 3.498788,0.13945 3.559094,-1.516465 5.893,0.117 2.370126,-0.140692 3.378858,0.123614 6.658,-1.485 5.6578161,-2.152283 5.2009319,10.526542 7.83,6.694 -3.1039878,6.902837 -1.1618095,15.015872 -3.954,21.898 4.2061051,-0.4480071 -1.115426,10.99169 -3.993,14.298 -6.617438,-1.231408 -12.182899,3.724942 -13.346,-1.445 -4.416476,2.147924 -7.628722,-11.2128976 2.66,-13.004 3.430444,-1.3301367 11.746931,2.209534 8.827,-3.344 -2.414692,3.1845219 -3.758391,1.31663858 -2.588,-2.666 0.02907,1.6096922 -11.591076,0.3000468 -12.092,4.335 -3.316756,0.35407443 -5.972012,5.2531595 -5.135,3.612 -1.893385,-1.8904077 -7.574867,7.917113 -1.479,11.672 1.424408,1.724202 4.797147,5.723788 6.693,8.978 2.779566,-2.655077 4.350951,2.413518 4.486,-0.571 0.09715,0.295561 4.069541,2.155056 5.931,-0.118 2.115608,0.761254 2.964617,-2.894793 5.892,0.42 0.38792,-0.524946 2.437255,-4.797446 3.231,-0.952 3.0307429,-4.342852 6.7844421,-1.126651 9.734,-9.353 0.17387642,-7.144185 0.54958494,-8.1304788 2.587,-13.912 0.3021864,-5.136027 -1.85232808,-8.9303429 -1.904,-14.528 2.7167669,-7.813817 -4.6229448,-13.628614 -9.353,-15.665 -4.617931,-3.367911 -12.523575,-4.290465 -15.284,1.294 z"
           style="fill:#ffffff" />
      </g>
      <g
         id="g192"
         transform="matrix(0.39009,0,0,-0.39133,-51.947,87.592)">
        <path
           id="path190"
           d="m 0,0 c 4.7704367,3.1704925 0.69220364,0.19202932 0,0 z m -0.308,3.192 c 1.11781292,-2.90203515 1.3760984,0.8578446 0,0 z m -1.977,1.675 c -1.3076703,-0.6905529 1.1850522,-1.0711598 0,0 z m -0.454,1.899 c -0.9939783,-1.2633209 1.2447697,-0.4930643 0,0 z m -1.372,1.596 c 2.6180857,1.0678586 0.2734012,0.5428311 0,0 z m 0.308,8.289 c -1.3106491,-0.871168 1.1870762,-1.289353 0,0 z m -1.523,-0.38 c 1.1701266,-0.196693 -0.1966929,1.170127 0,0 z m 0,-2.891 c 4.90401662,-3.9134086 -3.2600463,3.845177 0,0 z M -6.088,9.426 c -0.5417054,-0.3857966 0.5417054,-0.3857966 0,0 z m -0.756,11.711 c -1.1050774,-0.958983 1.0954707,-0.989796 0,0 z m -7.225,1.372 c 0.796838,-1.638096 1.379381,0.482092 0,0 z m -1.445,2.207 c 1.190282,-3.104046 0.318138,2.038185 0,0 z m -0.381,-4.643 c 1.195315,0.282265 -0.42272,0.620249 0,0 z m -1.142,2.587 c 1.843549,0.926657 -1.041688,1.199579 0,0 z m -0.381,-3.803 c -1.095474,-0.892343 1.105275,-0.860886 0,0 z m -3.803,0.381 c 1.877634,2.023846 -1.310101,4.213013 0,0 z m -6.463,-7.527 c 1.333356,-0.249809 -0.180582,1.235553 0,0 z m -6.004,9.045 c 2.763699,-0.821736 -0.174758,1.424329 0,0 z m -1.142,-5.091 c 3.696691,-10.75849 1.049617,11.50595 0,0 z m -0.46,-3.197 c -0.235366,-8.9105311 6.938119,2.755152 0,0 z M -35.894,2.28 c 0.993449,-0.1383574 -0.210341,1.0906359 0,0 z m -0.84,29.812 c -0.533218,-0.400989 0.539798,-0.388402 0,0 z m 0,-1.446 c -0.358349,0.534953 -0.427467,-0.536475 0,0 z m -0.683,-23.04 c 0.564076,-0.4231187 0.323442,1.0074566 0,0 z m -0.835,4.105 c 0.786568,-0.623288 0.507391,1.336756 0,0 z m 0,16.578 c -1.173268,-1.084886 1.304056,-0.677719 0,0 z m -0.381,0 c 3.978351,1.323384 -1.745399,2.860687 0,0 z M 6.766,-1.523 C 2.1520191,-4.1615136 -6.6276291,3.0845118 -4.716,2.168 c -4.2051424,0.974371 -5.343484,2.5595288 -6.692,6.956 0.136914,8.351073 -1.942846,12.768771 -6.657832,7.908 -3.09058,-1.084109 -6.993987,-4.55983 -4.600168,-7.449 -6.075442,-2.6157152 -8.048329,-12.796788 -13.688,-9.168 4.123935,-4.2716133 -5.331066,-2.0156447 -3.343,7.723 3.252188,0.75326 -3.960616,11.217996 0,16.197 -3.101637,3.267845 1.593174,13.173218 0.381,8.513 -0.587433,6.811242 2.844211,1.69342 4.525,0.229 -1.442129,-5.691628 4.465257,-10.300869 3.612,-16.085 1.459008,-11.932815 6.595171,10.097117 11.863,5.668 3.590731,-0.108582 0.671173,10.403475 3.646,5.662 1.018577,6.51514 1.281933,0.831106 6.541,0.801 5.7220597,-2.464065 2.8970782,-10.139556 6.39,-14.371 C -2.8563056,6.6436564 3.7300223,4.2745975 6.766,-1.523 Z"
           style="fill:#ffffff" />
      </g>
      <g
         id="g196"
         transform="matrix(0.39009,0,0,-0.39133,-98.514,163.53)">
        <path
           id="path194"
           d="m 0,0 c -0.72394899,-0.50690674 0.71319398,-0.66913332 0,0 z m -4.346,26.793 c -0.6547761,-1.031394 0.6467315,-1.057473 0,0 z M -8.608,7.454 c -1.2071047,-0.8130709 1.0762869,-1.2658992 0,0 z m -0.796,16.942 c 1.1549833,-2.336467 0.5336557,2.329622 0,0 z M -11.448,6.653 c 0.891399,1.7088611 -1.190378,0.2647202 0,0 z m -0.974,21.031 c 0.997409,-2.403073 2.8706008,0.148647 0,0 z m -2.93,-37.174 c 1.856544,-0.030267 -0.989331,2.8045697 0,0 z m -1.596,-3.104 c -1.068598,-1.297831 1.218153,-0.781463 0,0 z m 0,7.097 c -1.060635,-1.2814543 1.211799,-0.7793576 0,0 z m -1.238,27.232 c 0.454044,-5.011626 -1.955905,-0.369041 0.398,0.846 z m -0.358,-30.072 c -0.605118,-0.375728 0.616386,-0.3600563 0,0 z m -2.307,32.733 c -1.198973,-0.806856 1.064997,-1.250417 0,0 z m -0.442,-11 c -1.062929,-1.276336 1.210801,-0.782459 0,0 z m -0.796,8.25 c 3.329611,-7.232463 2.356829,4.435395 0,0 z m -1.512,2.397 c 0.09775,-2.676711 1.508244,0.991449 0,0 z m 0,-5.5 c 0.484429,0.714677 -1.382833,0.320601 0,0 z m -2.392,1.507 c -0.97024,-0.903997 0.964008,-0.925031 0,0 z m -1.954,-31.932 c 2.650762,0.824145 -1.092149,1.47116 0,0 z m 0,2.038 c -0.571448,-0.094106 0.442037,-0.989735 0,0 z m -1.949,0 c -0.571448,-0.094106 0.442037,-0.989735 0,0 z m 5.41,-3.993 c 1.119123,3.515365 -5.55517,-3.571385 -6.211,0.442 -2.655823,-2.65939 -1.32776,10.2389795 3.769,9.852 5.292931,0.5164071 6.054089,-4.5083039 9.628,-1.954 9.006541,-1.1031161 19.0537097,9.8320843 3.903,9.048 -1.006356,-0.9570044 -1.537884,4.797961 -7.096,3.903 -3.95757,-5.1861295 -6.237481,-0.1849187 -7.986,4.167 -0.415505,6.375548 2.88382,14.271353 9.583,15.53 2.446106,-0.09248 4.604968,1.593604 8.090832,2.834 2.575094,-0.587502 9.3843891,-2.391312 10.849168,-9.577 1.2454888,-15.5229283 -4.0134007,1.693058 -12.819,-1.243 -8.825086,0.672506 -11.720046,-8.722476 -0.801,-7.41 C -6.5680053,10.807382 1.0972776,1.4232032 0.263,2.396 2.7244374,-5.1530861 -11.801583,-12.350049 -8.25,-12.24 c -0.2043606,-3.397853 -4.92204,1.109879 -6.743,-3.193 -4.644536,1.038505 -7.731524,4.712179 -9.493,1.596 z"
           style="fill:#ffffff" />
      </g>
      <g
         id="g200"
         transform="matrix(0.39009,0,0,-0.39133,-57.737,173.08)">
        <path
           id="path198"
           d="m 0,0 c 0.63570891,-2.0264319 1.1274037,0.83937558 0,0 z m -0.532,-2.588 c 0.94592912,-0.1590063 -0.15900632,0.9459291 0,0 z m -1.669,-1.137 c 0.6173773,0.7562234 -0.2134355,1.882619 0,0 z m 0,27.446 c -0.7671219,-0.483225 0.6471502,-0.90617 0,0 z M -2.733,-1.367 c -0.7546028,-0.6054269 0.6387312,-0.9852716 0,0 z m -0.61,-2.817 c -0.289611,0.5381004 -0.289611,-0.5381004 0,0 z m -0.23,2.817 c 0.6148599,1.19802787 -0.9331092,0.046506 0,0 z m -1.064,2.89 c 0.6526425,-0.2753181 -0.3233181,0.8159115 0,0 z M -5.248,-0.23 c 1.0679129,-0.44944196 -0.501442,1.245137 0,0 z m 0.841,3.271 c -1.7498271,0.2745895 -0.4167577,-1.1721353 0,0 z m -1.596,2.128 c 0.4720161,-0.3056991 0.1865981,0.9434915 0,0 z M -6.614,3.803 c 1.518593,-0.4302637 -0.056801,1.2068348 0,0 z m 0,19.616 c 1.839029,-0.750674 -0.666465,1.70497 0,0 z m -0.532,-7.071 c -0.6417016,-0.982592 0.7573959,-0.594399 0,0 z m -0.23,-7.225 c 0.4799355,-0.3154128 0.1978614,0.949531 0,0 z m 0,-3.422 c 1.3669606,1.670094 -1.580016,4.307836 0,0 z M -7.98,8.21 c -0.2738387,0.5452061 -0.298598,-0.5336748 0,0 z m -0.23,12.17 c 0.6317009,-0.26152 -0.2608532,0.629425 0,0 z M -8.513,7.073 c -0.5662848,-0.5869694 0.5602552,-0.6077672 0,0 z m -0.913,3.954 c 1.4609793,-2.5843862 0.5344723,2.037546 0,0 z M -9.655,7.678 c 0.017701,-1.6962657 0.6875022,0.3102869 0,0 z m 0.229,13.234 c -0.766482,-0.712149 0.4143236,-1.896784 0,0 z M -9.958,9.885 c 0.9283862,-0.1557453 -0.156588,0.929686 0,0 z m 0.303,6.463 c 0.2056989,0.386492 -0.873936,0.07088 0,0 z m -0.835,-4.487 c 0.9305731,-0.156425 -0.156425,0.930573 0,0 z M -11.862,0.762 c -0.82226,-0.68639305 0.823902,-0.68136426 0,0 z m -1.977,7.526 c -0.143108,-1.9317506 2.002509,-0.013743 0,0 z m -0.453,6.391 c 1.146916,-1.725223 2.629413,1.393795 0,0 z m -2.286,-1.753 c -0.749038,-0.502931 0.639508,-0.882269 0,0 z m -0.302,-4.94 c 2.051308,-2.9130263 3.859723,4.583581 0,0 z m -1.367,6.082 c 0.798278,-1.369082 0.797312,1.371137 0,0 z m -5.628,-16.807 c 0.232325,-1.3657791 0.664804,0.4135246 0,0 z m -1.826,20.151 c 0.901541,-1.039185 -0.205905,0.975287 0,0 z m -0.302,-20.224 c 1.015143,-5.8064398 0.804281,4.2333559 0,0 z m -0.762,-1.674 c 1.454622,-0.4376013 -0.59856,2.1703747 0,0 z m 0,28.817 c 1.320593,-0.521666 -0.18513,0.88627 0,0 z m -0.61,-26.992 c 0.549127,-1.3738324 0.548796,1.3732418 0,0 z m -0.533,-1.064 c -0.823509,-0.5893145 0.825192,-0.5841452 0,0 z m -0.604,-1.596 c -0.645535,-0.8667673 0.746778,-0.5279538 0,0 z m -0.762,-1.143 c -0.82605,-0.5866539 0.82605,-0.5866539 0,0 z M 2.207,-7.226 c -1.21411147,1.2644561 -1.40624185,3.6651753 -6.614,2.129 -1.1938436,3.6838815 -1.5066248,1.2326899 -1.977,4.637 -1.3672652,-1.7228114 -7.11549,2.1942194 -6.01,1.523 -2.732052,5.0630967 -2.664408,6.4501885 -7.376,0.303 -4.242631,1.464004 -0.160962,-7.864383 -5.32,-6.917 -2.559102,-2.5188375 -7.635553,-5.506763 -3.73,2.089 4.034166,4.852571 7.614047,11.7585081 6.922,14.299 4.632621,-1.3273668 -0.06401,4.177539 0.073,1.825 -5.325475,0.263145 -8.851974,7.856169 -9.655,12.05 -2.285857,-7.436878 -1.687591,8.02424 0.834,3.422 2.263943,0.36355 6.068832,-4.895134 9.05,-5.517 4.842398,-0.560913 2.284045,-3.957742 7.304,-3.531 5.4713522,10.782122 5.4195174,1.003209 7.947,6.461 4.1589667,2.866547 6.72817306,-3.923342 2.24,-7.676 C -5.6194675,18.23962 -11.177341,11.509394 -6.312,8.82 -6.0160414,6.4599525 1.3090923,1.9371054 3.573,-1.143 8.1584435,-8.3305155 2.6253126,-5.3486698 4.414,-8.592 3.5070434,-8.656396 1.9686935,-8.649705 2.207,-7.226 Z"
           style="fill:#ffffff" />
      </g>
      <g
         id="g204"
         transform="matrix(0.39009,0,0,-0.39133,-53.12,122.55)">
        <path
           id="path202"
           d="m 0,0 c -1.002548,-1.4579138 1.2377622,-0.70478351 0,0 z m -0.303,-12.546 c -1.8500272,-1.226483 1.6514796,-1.337025 0,0 z m -0.459,19.16 c 1.24513699,-0.501442 -0.449442,1.0679129 0,0 z m 1.524,-7.146 c -7.4877359,-8.4865548 4.9714719,-1.14468 0,0 z m -2.056,24.715 c 1.39936401,-1.363787 -0.1244089,1.266955 0,0 z m -0.605,-47.756 c 1.43697593,0.358504 -0.5230678,0.754912 0,0 z m -0.308,-2.739 c 2.94418159,-2.817012 0.1665786,2.561763 0,0 z M -2.739,6.614 c 0.8770811,-0.7291897 0.6231941,1.4191217 0,0 z m -0.756,-49.426 c 4.19878274,-0.204392 -1.1608917,2.846123 0,0 z m -0.762,41.215 c -1.170282,-0.5554384 0.830742,-1.6283654 0,0 z M -5.55,-41.444 c 1.7979322,-2.919367 0.5824968,2.318744 0,0 z m 0,6.233 c 1.3333556,-0.249809 -0.1805821,1.235553 0,0 z m 0,4.643 c 0.7923302,-0.630101 0.5148934,1.341915 0,0 z m -1.977,57.49 c 1.4331426,-0.559004 -0.4543377,1.077957 0,0 z M -7.908,-43.5 c -0.543846,-0.557073 0.5562489,-0.406128 0,0 z m -0.381,55.513 c -1.0956346,-0.895051 1.1054275,-0.863583 0,0 z m -1.137,-54.292 c -0.839076,0.109596 -0.1069399,-1.174022 0,0 z m 4.637,67.375 c -3.4856014,-4.566555 -10.021643,7.697608 -3.119,6.082 4.1078309,6.696064 9.9168165,2.032067 8.289,1.294 5.1666733,-6.887877 2.9313684,-9.628493 -2.509,-9.885 -0.9764413,0.763061 -1.1139179,2.506061 -2.661,2.509 z m -8.518,-72.472 c -1.299951,-0.872424 1.172958,-1.277525 0,0 z m -4.789,1.143 c 0.782006,-2.043595 0.451034,1.574958 0,0 z m -6.995,-3.12 c -0.605149,-0.446043 0.735087,-0.375284 0,0 z m -1.221,1.596 c -0.04028,0.483663 -0.879506,-0.369869 0,0 z m -1.064,3.501 c -0.726282,-0.414076 0.597114,-0.560003 0,0 z m -1.215,-0.841 c -0.594135,-0.535185 0.738134,-0.271271 0,0 z m -0.611,4.413 c -1.311799,-5.746451 5.459073,0.487744 0,0 z m -2.811,2.359 c -2.260253,-1.429606 0.01195,-1.414206 0,0 z m 10.115,-15.284 c -3.860259,1.132633 -4.334304,5.90911 -7.875,6.653 -0.493128,10.936329 -0.860699,0.164823 -5.13,6.463 -6.499721,8.260399 2.877034,9.826126 6.312,2.016 2.938305,-2.72431 5.91065,-7.021986 10.686,-6.581 5.241188,-4.444097 10.3516634,6.677998 11.52,11.902 3.3363987,15.224246 -1.9459659,31.2661773 -2.319,45.779 -0.2582967,1.529498 9.29185277,1.535268 5.36,2.168 2.58613683,3.237713 8.5834014,-6.7719637 3.876,-7.415 -0.55195114,-3.9148426 1.1251604,-2.5266282 1.786,-6.956 2.1176058,-4.7298013 2.5663289,-9.2893033 -2.01,-7.034 -2.1738908,-4.176955 2.2394896,-5.629609 1.445,-10.648 -2.9502302,-5.00946 -0.089958,-10.23673 -1.221,-14.298 -1.6114507,-7.973625 -2.0126684,-11.816715 -6.883,-16.236 -5.06667,-6.019492 -6.892467,-5.247479 -8.289,-1.445 -2.615479,-6.174533 -3.285463,-0.104112 -5.741,-0.112 -6.449907,-0.27427 4.894394,-4.029381 -1.517,-4.256 z"
           style="fill:#ffffff" />
      </g>
    </g>
  </g>
</svg>
