<svg xmlns="http://www.w3.org/2000/svg" viewBox="0 0 68.06 228.6" height="864" width="257.24"><path d="M20.79 136.1c-.95 1.18-2.81 1.75-4.52 1.7a12.06 12.06 0 0 1-4.77-1.34c-7.07-3.4-11.57-9.9-11.5-16.6 8.94.3 18.09 4.97 20.92 11.68.62 1.48.96 3.22-.13 4.57" fill="#ef8000"/><path d="M46.53 105.92c1.36-.83 3.36-.8 5-.23 1.64.58 2.97 1.62 4.12 2.73 5.6 5.43 7.58 13.02 5.04 19.42-8.54-3.02-15.68-10.3-15.96-17.58-.05-1.6.26-3.38 1.8-4.34" fill="#e20613"/><path d="M17.1 84.31a3.1 3.1 0 0 1 3.39-.75 6.95 6.95 0 0 1 2.81 2.37c3.84 4.96 5.24 12.5 3.58 19.3-5.82-2.2-10.72-8.9-10.96-16.31-.06-1.63.14-3.47 1.18-4.6M38.12.24a4.25 4.25 0 0 1 2.61 3.3c.23 1.4-.13 2.8-.64 4.13-2.51 6.43-8.82 11.42-16.15 12.76-1.2-7.3 2.34-15.66 9.18-19.34 1.5-.81 3.34-1.45 5-.85" fill="#e5007e"/><path d="M36.54 150.85c1.35.82 2.15 2.5 2.28 4.08a9.57 9.57 0 0 1-.9 4.46 18.63 18.63 0 0 1-16.32 11.43c-.64-8.25 3.31-16.9 10.1-19.85 1.5-.65 3.3-1.05 4.84-.12" fill="#81358a"/><path d="M64.36 187.25a4.87 4.87 0 0 1 3.3 3.03c.53 1.4.46 2.89.23 4.3-1.13 6.9-6.36 12.82-13.38 15.15-2.73-7.3-.98-16.3 5.05-20.96 1.32-1.03 3.02-1.92 4.8-1.52" fill="#ffec00"/><path d="M25.24 47.27c.95 1.16 1.15 3.08.77 4.75a12.05 12.05 0 0 1-2.2 4.4c-4.65 6.24-11.79 9.37-18.27 8 2-8.69 8.27-16.71 15.3-18.17 1.55-.32 3.3-.31 4.4 1.02" fill="#009ee2"/><path d="M54.81 27.36c1.55.58 2.67 2.23 3.06 3.91.38 1.69.16 3.4-.23 5.02-1.9 7.86-7.88 14.1-15.3 15.96-2-8.79.75-19.03 7.4-23.7 1.47-1.03 3.3-1.87 5.07-1.2" fill="#ffec00"/><path d="M46.75 68.67c.63-.98 1.92-1.42 3.13-1.33 1.21.1 2.36.64 3.4 1.27 5.11 3.12 8.5 8.81 8.69 14.57-6.32-.5-12.92-4.76-15.15-10.6-.49-1.28-.8-2.78-.07-3.9" fill="#2c2c83"/><path d="M20.29 212.35c.95-1.18 2.8-1.75 4.52-1.7 1.72.06 3.31.65 4.76 1.34 7.08 3.4 11.58 9.9 11.5 16.61-8.94-.3-18.08-4.98-20.91-11.69-.62-1.47-.96-3.22.13-4.56" fill="#ef8000"/><path d="M66.14 151.61c1.1 1.02 1.47 2.75 1.22 4.27a9.65 9.65 0 0 1-1.9 4.05c-4.3 5.81-11.48 8.9-18.36 7.9 1.32-7.92 7.15-15.4 14.37-16.97 1.58-.35 3.41-.4 4.67.75" fill="#0068b2"/></svg>