<svg xmlns="http://www.w3.org/2000/svg" version="1" viewBox="0 0 263 505" height="1910" width="995"><defs><clipPath id="a"><path d="M0 2589h747v1433H0z"/></clipPath></defs><g clip-path="url(#a)" transform="matrix(.35278 0 0 -.35278 0 1419)"><path d="M1 3504v-111c14-31 35-59 64-77 17-10 40-14 58-3 14 10 16 29 14 44-5 42-31 77-63 104-21 18-46 33-73 43zm55-83c8 8 17-3 20-10 3-4 2-9-1-8 8-1 3-10 8-15-2-8 14-9 8-17-6-1-14 4-17 10-2 6-5 5-8 1-2-2 3-4-2-5-7-1-22-8-23 5 1 5-5-5-4 3-3 6-1 16 0 18-5 4 7 1 1 6 4 6 11 6 12 14 2-1 5 0 6-2zm7 2c-1 0 2 0 0 0zm2 0c-1-2 2-1 0 0zm-4-8c-8-2-12-8-13-15-4-3-7-5-3-7-2-10 14-6 17 0 3 5 10 18 1 21h-1zm-8-1c0-2 2 0 0 0zm11-20c-5-1 3-5 0 0zm5-6c-1-3 3 1 0 0zm-8-1c-1-2 1 0 0 0zm-5 0c-2-3 3 0 0 0zm-5-1c-2-2 2-2 0 0zm-2-1c0-1 2 0 0 0zm12 0c-2-1 2-1 0 0zM527 3510c-56-16-100-59-112-112-2-11-4-22 0-33 3-11 12-21 24-24l8-1c11 0 22 5 30 11 50 34 68 103 50 159m-71-139h-1v13l-1 8v30a253 253 0 0 0 0 25v1l1 4h1l1 1 1 1 2 1 2-1a36 36 0 0 0 4-1v-6l2-1h-1v-1h-1l1-1 1-1 1 1 1 2 1-4v-4-1h2l1 1-1 1v7l2 1v1h1l1 1h2v-2-2-1l2 1 1 1 1 7h2l2-1 1 1h1l1 1 1-1v-2l1 1h1l3-1 2-2 2-3 2-3v-1l-1-1 1-1v-3-2-2l-2-1v-1h2v-1-1l-2-1h-3v-1-1l1 1h1v-2l-1-2v-1h-2l-1 2-2 1-1-1v-1c-1 0 0 0 0 0l1-1h1a33 33 0 0 0 0-3v-2l-1-1a49 49 0 0 0-5-5 10 10 0 0 0-1-1l-1-1-1-1-1-1v-1h-1v1l-1 1-1-1h-1l1-1-1-2-2-1-1 1h-1v-1-1-1h-1l-1 1v1h-3v-1-1h-2l-1 1-1 1h-1l-1-1v-4-1l-1-1h-1v-1h3l-1-1 1-1v-1l-1-1v-1h1v-2-1h-1v-2l1-2v-1l-2-2h-2v-1l1-1a24 24 0 0 1 4-4h2v-4a21 21 0 0 0-2 0h-2l-1-1-1-1 1-1 2-1 1-2 1-2-2-1v-4-1-1h-1-1-1v-1l-1-1v-1l-1-1-1 1h-1l-1 1h-1-1a28 28 0 0 0-1 13l1 2v3m39 78l-1-1v-1h1v2m2-3v-1h1l-1 1m-8-3l-2-1-1-2-2-2h-3-1l-3-5a357 357 0 0 0-7-9c-2-2-2-4-2-7v-1h4a15 15 0 0 1 2-1l3 1v2h2l1 1 1-2 2-1v6h1v1h-1l2 2 4-1v1l-1 1v3a128 128 0 0 1 3 9v1l-1 1v1l-1 1v1m-22-2h-1v-1-2l1-2 1-1 1 1v-1l-1-1h-1l-1 1-1 1-1 1 1-3 2-1h1l1 1h2l1 1h-1l-1 1v3h-2l-1 1v1m15 0l-1-1h1v1m14-1v-1h1l-1 1m-5-2v-1l1-1v1l-1 1m-15-1h-1 1zm16 0v-1l1-1v1l-1 1m-15-2v-1l1 1h-1m20 0v-2zm-1-4h-1v-1h2l-1 1m-39-8v-1 1m31-3l-1-2h2v2h-1m-22-5l-1-1v-2h-1l-1 1v-1-1a26 26 0 0 1 1-4l1-1v2l1 1h1l1 1v1l-1 2v2h-1m7 0h-1a16 16 0 0 1-2-1h1a7 7 0 0 1 2 0h1l-1 1m-4-2v-2h1v1l-1 1m-1-4v-1l1-1v2h-1m11-1h-1v-1l1 1m-19-1h-1l1-1v1m0-11h-1v-1-1h1v2m0-4v-1-1l1 1-1 1m3-2l-1-1-1-1 2-2v4m0-6l-1-1h1v1m2-11h-1l1-1 1-1h1v2h-1-1m-1-7v-1 1M475 3720c-68-28-116-91-122-161-2-14-1-29 5-43 6-13 19-25 34-28h6c15 0 29 9 40 19 57 50 68 141 37 213m-66-93l1 1v3h1a9 9 0 0 0 2-3 22 22 0 0 0 3-6v-3-4l1-1v-2-1h-1l1-6-2 1v-1l1-1 1-2 1-3 1-1 2-1a13 13 0 0 1 4 0l1-2 1 1 1 1 1-1a6 6 0 0 1 2 0l2 1 3 1h2l2-2v-2h2l1-1 1-1 1-2 1-1 1-1v-1-2-3-1h1v2h2a45 45 0 0 0 1-6v-1-1l-2-2c0-2 1-2 2-2h1l-2-1h-1-1l-1 1h-1a16 16 0 0 1 3-7l1 1v-2h-2l-2 1v-3l-1-2v-2l-1-2h-2l1-1 1-1h-1-1-1l-1 1-2 1h-1a19 19 0 0 0 0-3v-1a21 21 0 0 0-1-4h-1-1v-1l-1-1a25 25 0 0 0-1-3l-1-1-1 1h-1v-1-1h-1-1v-1h-5-1l-1-2h-2v2l-2-1-3-1v-2l-1-1h-1-2l-1 2-2 3-1 4v2l1 3-1 2v6l1 3-1 1v1a23 23 0 0 0 0 5 60 60 0 0 1 1 4h-1a61 61 0 0 1-1 2v2a38 38 0 0 1 2 4v3a131 131 0 0 1-2 19v12h2v3l-1 2v3l-1 3-1 3 2 2h1l3-1m3-2h-1 1m2-11l-1-1h1v1m2-2v-1h1l-1 1m0-16h-1 1m-2 0v-1 1m14-1v-1 1m11-4h-1v-2l1 1v1m-22-1v-1 1m24 0v-1h-1v-1h-1v-1h1l1 1v1h0v1m-10-2h-1l-1-1 1-1 1 1v1m-4-1a22 22 0 0 1-4-1l-2-1-1-1-1-1a95 95 0 0 0-2-4v-1-2a23 23 0 0 1 1-3 92 92 0 0 1 0-7v-3l-1-2-1 1 1 1v1h-1v-1l-1-1 1-2v-1l-1-1v-2-2l1-1v-1l2-1-1-1-1-1h3v1l1 1v1h3l1 1v1h1v-2-1l1-1h1a5 5 0 0 1 1 0v2l-1 2 1 2a378 378 0 0 0 10 10c2 1 3 2 3 4l1 5v1l-1 1h-1v1l-1 1 1 1 2 1v1l-1 2-3 1a24 24 0 0 1-6 1l1-1v-2h-1a11 11 0 0 0-2 2h-1l-1 1-1 1m16-2l-1-1 1-1v2m1-10l1-1h1l-2 1m-28 0v-1 1m27-11h-1v-1l2-1 1-1-1 2-1 1m-1-2h-1v-1l-1-1v-2l-1 1h-1l-1-1v-1a17 17 0 0 1 6 0v1a52 52 0 0 1-1 3v1m-13-7v-1 1m2-5v-1h1l-1 1m3-2v-1zm-7-2h-1 1m-10 0h-1l-2-1-1-2 1-2 1-1h1v3 1h1a28 28 0 0 1 3-1l-1 2-2 1m-5-4a8 8 0 0 1-2-1l1-1 1-1v1a10 10 0 0 0-1 1l1 1m-4-2l-1-1h1v1m3-2l-1-1 1-1v2M393 3189c-25-35-51-76-94-92-34-7-64 18-90 37-21 16-40 35-59 53-20-5 9-32 9-46 13-35 24-71 31-107-19-7-35 29-56 34-30 19-62 35-95 47-15-12 22-25 27-38 70-73 96-182 75-280-14-74-50-141-91-203 21-12 56 6 82 2 80 5 161 5 241-4 14 13-19 33-23 49-46 79-58 173-54 263 12 83 59 154 89 231 4 16 23 39 8 54zM160 3480c-5-7-19-5-18-16-1 6-2 14-9 13-7-7-4-22-3-32-3-6 2-22 10-12 0 9 11 12 9 22 4 10 17 14 15 0 0-9 4-20 2-28 9-1 13 4 13 13 5-5 8 1 7 2 3 3 2 5 5 3 0 8 14 14 12 1-1-8 0-28 11-22-4 12 0 27 1 41-5 6-12 10-15 3-8-1-21-8-26-17-1 9 3 26-12 28zm-10-10c-3 4 3 4 0 0zm5 2c-2 0 1 2 0 0zm0-3c-3 2 0 4 0 0zm-21-7c-1 6 2 7 0 0zm13 0c-6 7 5 4 0 0zm41 0c6 0-1-6 0 0zm-3-3c-1 2 2 1 0 0zm26-2c-2 7 6-2 0 0zm-15-1c-2 1 2 1 0 0zm2 0c5 1 2 0 0 0zm-12-3c-1 1 1 0 0 0zm-15 0c0 1 1 1 0 0zm-28-1c-2 0 1 2 0 0zm45-1c-2 0 1 1 0 0zm-14-6c-8 0-1 7 0 0zm37-3c-2 2 2 4 0 0zm-77-5c6 0-3-7 0 0zm-3-5c0 2 2 1 0 0zm80-8c-1 0 1 1 0 0zM333 3367c-6-9-5-24 3-31 6-4 11-2 16-5 2 3 12-4 12 3 1 7 9 5 5-2 5-10 4-26-5-35-5-7-11-8-17-10-2-10-10 7-12-6 1-8 5-12 13-10 3-9 3 8 7 1 4 4 7-4 8 4 4 9 14 13 11 22 5-4 0 6 4 9 4 7 4 18-2 21 3 2 7-2 4 4 0 1 2 5-1 8 9 5-2 31-9 18 0-5 6-8-2-8-4 0-14-18-23-7-4 8 2 22-12 24zm3-4c0 2 1 0 0 0zm0-8c-5 1-2 6 0 0zm3 3c2 0-1-2 0 0zm34-3c-2 1 2 2 0 0zm5-1c-5 2 3 1 0 0zm-40-1c-1 0 1 0 0 0zm33-6c-1 3 3-1 0 0zm-38-1c-2 2 1 0 0 0zm42-1c0 2 3 0 0 0zm-31 0c-3 2 2 2 0 0zm22-5c-1 9 6 2 0 0zm-32 3c-4 1 4 1 0 0zm44-1c0 2 1 0 0 0zm-29-4c-1 3 2 0 0 0zm4-3c-2 2 2 2 0 0zm22-6c0 2 3-1 0 0zm2-9c-2 2 2 2 0 0zm2-9c-1 1 1-1 0 0zm-23-24c-1 3 3-2 0 0zm-6-1c-2 1 1 2 0 0zm7-2c-2 0 1 3 0 0zm-5-1c-2 2 1 3 0 0zm-9 0c-1 2 1 1 0 0zm11 0c0 1 2 0 0 0zm-7 0c1 1 2-1 0 0zm-5-2c-1 2 1 0 0 0zm14-2c-2 0 0 1 0 0zm3-4c-9 1 4 8 0 0zm-19 2c2 2 5-2 0 0zm-2-1c-2 1 2 1 0 0zm10-1c-1 2 1 0 0 0zm-6-2c6 2-8-5-2 2h1zm18 1c-3 1 2 1 0 0zm-3 13c-1-1-1 0 0 0zM267 3790c-19 4-29 22-33 39-12 50 0 103 24 147 9 15 19 30 31 43 8 4 12-10 17-14a170 170 0 0 0 25-152c-6-20-15-40-31-54-9-8-22-12-33-9zm15 72c-2 0 1-5 0 0zm-16 33c-4-1 1-9 0-1zm9 32c0 5-2-4 0 0zM158 3775c-14 2-23 13-32 23-18 24-29 53-34 83-3 21-3 41-2 62 2 8 2 16 5 24 8 0 14-6 21-9 50-31 81-89 77-148-1-13-5-28-19-33-5-3-11-3-16-2zM139 3512c-17 4-31 17-42 42-7 13-11 27-14 43l-1 27a185 185 0 0 0 33 104l18-13 27-27c26-33 40-76 37-113-3-31-14-53-30-61-9-4-18-5-28-2zm-17 104l-1 1v-1-1l1 1zM354 3708c-18 4-28 22-27 39 1 22 10 43 22 62 23 36 61 63 103 74 6-4 4-15 5-22 3-32-3-66-19-94-14-25-35-47-62-58-7-2-15-3-22-1zm41 45c-4 3-1-2 0 0zm-15 5c-3 0-2-2 0 0zm-11 3c-3 3 1-3 0 0zm-6 4c-3 3 0-2 0 0zm-3 10c0 3-3-3 0 0zm0 1c-2 3-2-1 0 0zm4 14c-3 0-2-4 0 0zm48 2c-3 3 0-3 0 0zm-22 0c-3 1-2-1 0 0zm13 3c-4 1-2-1 0 0zm-33 3c-1 2-3-5 0 0zm40 0c-2 2 2-3 0 0zm-31 3c-2 3 0-3 0 0zm22 3c-4 3 1-3 0 0zM548 3596c-15 5-26 20-27 35s0 30 4 44c10 34 30 64 57 87 15 13 33 23 51 31 9 0 7-15 10-21 4-18 4-36 3-54-1-27-10-53-24-75-12-18-26-34-45-44-9-5-20-6-29-3zM593 3476c-16 5-25 23-21 38 4 21 17 39 31 55 36 40 87 65 140 73 4 1 4-2 4-6a176 176 0 0 0-125-160c-10-2-20-3-29 0zm60 75c-2 1-2-2 0 0zm-21 8c-3 1 2-3 0 0zm-12 7c-1 0 0-4 0 0zm38 4c-5 4 2-3 0 0zm-38 5c-2 1 1-5 1-1zM621 3308c-17 5-27 25-25 43 3 23 15 44 29 63 27 38 70 64 115 73 5 2 6-3 6-7 1-21 1-43-6-63-12-45-42-86-85-105-10-4-22-7-34-4zm34 18c0 3-3-3 0 0zm-9 3c-2 3 1-4 0 0zm-18 10c-3 1-3-1 0 0zM585 3181c-13 2-25 12-24 25-1 13 8 24 17 32 33 32 79 48 124 48 7 0 14 1 20-1 5-6-3-13-4-20-17-39-53-67-93-79-13-4-27-6-40-5zm78 25c-1 3-1-2 0 0zm-45 3c-3-1 1-4 0 0zm42-1c-2 5-2-2 0-1v1zm-10 4c-2 3 1-3 0 0zm-32 4c-4-2-3-7 0 0zm46-3c-2 2-4 3 0 0v-1zm-23 5c-4 3-5-2 0 0zm18 1c-2 2-5 2 0 0zm-28 3c1 3-7-5 0 0zm-16 23c-3 4 2-5 0 0zm16 2c-3 4-1-2 0 0zm-18 3c-2 3 1-3 0 0zm30 3c-1 2-2-3 0 0zM441 3184c-19 3-30 23-30 41 0 24 14 46 28 64 28 37 73 62 120 62 9 1 23 2 18-10-6-46-26-92-60-124-18-17-40-31-65-33h-11zm41 47c-1 3-2-1 0 0zm-17 2c-5 3-2-2 0 0zm6 0c-2 1-1-3 0 0zm22 0c-2 1-1-3 0 0zm14 9c2 5-4-5 0 0zm-42 0c-1 2-1-3 0 0zm20 3c-3 2-3-2 0 0zm-18 1c-1 3-2-4 0 0zm24 1c-4 1-2-2 0 0zm-18 1c-3 1-1-1 0 0zm16 10c-2 0 1-3 0 0zm18 3c-2 0 2-4 0 0zm-33 0c-5 3 0-3 0 0zm17 7c-5 4 1-2 0 0zm-12 4c-3 3 2-4 0 0zm-11 4c-1-1 2-3 0 0zm25 4c-3 0-1-2 0 0zm16 1c-2 0 1-4 0 0zm-33 7c2 5-5-6 0 0zm12 5c-2 2-2-3 0 0z" fill="#e0e0ed"/><path d="M437 3342c-15 5-24 21-24 37 0 23 10 46 22 65 21 32 55 55 91 66 4-4 4-12 5-18 3-15 3-31 1-47-4-34-21-68-49-90-12-8-26-17-41-14l-5 1zm31 21c-2 1 0-3 0 0zm-12 14v-2 1zm9 6c-1-1 1-4 0 0zm-10 13v-5 5zm11-3c-2 5 0-6 0 0zm14 11c-2 1-3-2 0 0zm-14 5c-1 1-2-3 0-1zm28 8l-3-3 3 3zm3 5c-1 2-1-2 0 0zm-11 2c-3 0-2-2 0 0zm2 4c-1 0 1-3 0 0zm-34 5c-1-1 1-7 0 0zm49-3c-2 4-2-5 0 0zm-24 4c1 5-6-6-1-1zm-10 5c-2 3-2-1 0 0zm4 4c-1 0 0-6 0 0zm28 1c-2 3 2-7 0 0zm-30 1c-2 2-1-4 0 0zm-4 1c0 4-2-3 0 0zm31 4c-8 8 3-6 0 0zm-42 2c-3 1-2-6-1-1zm35 1c-2 2-4-2 0 0zm-30 2c-3 0-2-2 0 0zm-3-102c-7 5 0 14-3 21l-1 71c-3 8 12 14 12 5 0-3 0-9 4-5 1-3 2-12 3-5-2 7 8 13 7 4 4 1 1 9 6 9l10-2c5-5 9-14 4-19 7-4-8-3-1-6 0-7-4-1-6-1-3-3 5-5 0-9-4-4-7-10-13-9 2-4-5-2-4-6-3 5-7-2-9 2-3-1-3-7-3-8 3-6 0-13 0-17 4-3 6-9 0-9 1-4 5-6 2-10 2-5-4-4-5-7l-3 1zm9 19c-5 4-1-4 0 0zm-4 11c-1 3-2-1 0 0zm0 5c-2 4-1-5 0 0zm-3 8c-3 0 1-4 0 0zm7 17c-2 5-5-4-3-6 2 1 5 3 3 6zm3-1c-2 3-2-1 0 0zm4 2c-6 1-1-1 0 0zm3 3c2 5 7-5 6 3 0 5 7 4 6 10 3 4 2 17-4 9-4 0-6-2-8-4 0-4-9-10-9-17-1-4 8-3 9-1zm12 2c-2 4-2-4 0 0zm-19 15c4 0-5 10-4 5 2-4 3-6-2-3-1-2 4-4 6-2zm22 3c-2 1 2-4 0 0zm3 11c-2 3-2-3 0 0zM387 3490c-23 7-36 32-35 56a192 192 0 0 0 122 173c7-11 9-25 13-38 6-26 5-53 2-80-8-42-30-82-66-105-10-7-24-10-36-6zm34 62c-1 1-2-3 0 0zm-3 13c-2-1 1-4 0 0zm7 31c-1 4-1-3 0 0zm-21 13c-1-1 1-4 0 0zM252 3574c-16 6-24 24-27 40a173 173 0 0 0 44 149c9-1 12-12 18-18 18-29 26-64 22-98-2-24-10-48-27-66-8-7-19-10-30-7zM271 3383c-18 4-29 21-32 38-7 37 6 75 28 104 10 13 22 24 35 34 21-20 37-48 40-78 2-28-5-57-23-79-9-11-21-20-35-21l-13 2zm24 44c-4 1-3-1 0 0zm-8 2c-2 3-3 1 0 0zm28 5c-4 3-2-2 0 0zm-12 1c-3 1-2-1 0 0zm-22 15v-3 3zm11 2c-4 6 2-6 0 0zm10 6c-1 3-3-2 0 0zm-8 3c-2 2-2-3 0 0zm17 0c-1 2-1-3 0 0zm-30 3c-1-1 1-4 0 0zm14 0c0 4-2-2 0 0zm19 1c-1 2-2-4 0 0zm-15 2c0 4-2-3 0 0zm13 1c-3 3-1-3 0 0zm-6 4c-3 1-2-1 0 0zm4 0c-2 3-2 0 0 0zm-28 22v-3 3zm13-8c-2 1 1-3 0 0zm4 13c-2-2 1-3 0 0zm-14 4c-2 1-3-4 0 0zm4 1c-2-1 3-3 0 0zm4 1c-3 3-2-2 0 0zm7-80c-5 5-14 0-16 7-6 7-3 17-3 25l2 46c4 1 7 1 8-3 3 2-1 9 2 3 10 2 2-13 1-18 1-4 2-10 4-13 5 0 14 1 17-1 0-6-6-13-12-13-5 1-4 9-4 11-6-1-3-10-10-7 3-3 3-6 1-8 4-5 2-11 3-16 5-4 12-4 19-4 8-3-4-9-9-9h-3zm-13 12c-1-2 2-3 0 0zm-1 11c-1 6-2-4 0 0zm5 0c-2 4 0-4 0 0zm11 19c-1 1 2-3 0 0zm-10 1c-2 3-2-3 0 0zm20 0c-2 3-2-3 0 0zm-16 3c-4 3 0-6 0 0zm-8 1c-3 3-1-2 0 0zm7 3c2 6-9 0-3-2l3 2zm-3 13c5 6-8-6-1-1l1 1zm2 5c-3 1 3 6-3 4-6 0 0-7 3-4zm-8 3c1 5-5-3 0 0zm11 2c-1 2-2-4 0 0zm-10 3c-3 2-2-4 0 0zM256 3165c-25 5-43 25-54 47-24 45-19 104 10 146 5 7 11 25 22 15 39-24 72-60 85-104 4-18 4-36 1-54-3-17-12-36-29-45-11-5-23-6-35-5zm10 62c-4 1 0-6 0 0zm-4 1c1 4-3-3 0 0zm21 30c-2 3-2-3 0 0zm-30 24c-6 2-5-2 0 0zm4-117c-24 4-42 23-53 44-25 43-22 98 2 140l19 28c14-6 26-15 38-25 29-25 53-59 58-97 2-19 2-38-5-55-6-17-21-33-40-35h-19zm9 62c-3 4-2-9 0 0zm2-1c-3 1 2-3 0 0zm-5 4c-4 0-2-5 0 0zm-22-1c-2 4 0-4 0 0zm40 1c-2 2-1-4 0 0zm5 4c-2-1-1-3 0 0zm-53 0c-1 2-1-3 0 0zm3 0c-4 3 2-4 0 0zm36 5c-2 3-2-3 0 0zm-49 3c-2 2 1-4 0 0zm69 0c-3 0-3-2 0 0zm-18 2c0 3-2-5 0 0zm-35 1c-3 1 2-3 0 0zm57 3c0 4-2-2 0 0zm-15 5c-1-1 2-3 0 0zm2 5c-3 4-2-4 0 0zm-58 2c-1 1 1-3 0 0zm17 1c-1 3-3-4 0 0zm54 3c-3 2-3-2 0 0zm-50 2c-2 1-1-4 0 0zm46 1c-3 0-2-4 0 0zm-44 1c-1 2-1-3 0 0zm16 0c-3 11 0-4 0 0zm24 1c-3 2 2-3 0 0zm-35 1c-1 1-2-3 0 0zm-21 2c-2 4-1-3 0 0zm25 1c-2 0 1-3 0 0zm10 3c-2 1-2-2 0 0zm-28 1c-3 1-2-3 0 0zm25 1c-2 3-1-3 0 0zm-10 4c-3 3-9-1-2 0 0-1 3-2 2 0zm2-57c-8 2-17 2-22 11-3-3-4 1-9-1-3 9 1 18 1 27 3 8 10 15 19 18 8 8 16-9 5-10-6-5-13-10-13-18-2-11 11-16 20-16 8-2 15 2 19 9 2-1 3 6 5 0 4-1-3 15 3 11-3 7-12 9-19 12-2 2-4 9-4 2-9-3-2 17 0 7 4 0 6-4 7 2 3-3 10-1 14-6 8-1 5-11 8-14 3 3-1 10 4 5 6-4 3-15-2-19 1-4-5-3-5-8-3 0-2-9-8-7-2 3-4-8-7-2-3-7-7 5-8 0-1 7-6 4-4-1 0-2-3-6-4-2zm-2 5c-2 4 0-6 0 0zm-22 34c4 7-4 1-2-1h1zm-6 113c-33-36-48-89-35-137 7-24 19-49 40-64 20-14 49-17 68-1 18 16 23 40 24 62 0 44-25 86-59 114-12 10-25 19-38 26zm28-93c1-6 3-15-5-15-7-6-13-12-12-22 3-9 15-12 24-11 8-1 11 6 15 9 2-3 1 6 5 1 4-4-1 9 0 12-3 9-18 5-19 15-3 2 0-6-3-4-5-2-2 15 1 10 0-6 4 2 4-3 6-2 0 6 6 2 5 0 11-4 17-8 4-2-1-16 5-8-4 3 0 7 1 1 8 3 2-13 3-15-2-2-7-4-3-6-6 3-4-11-7-5 0-4-2-6-5-7-1-6-3 7-4-2-2-4-8 2-9-3-1 8-4 2-4-1 0 10-3 1-7 0-5 5-17-2-18 9-4 0-5 5-7 0-2 3-4 3-7 2-4 8 2 16 0 24 0 7 7 10 7 14 6 2 10 8 17 7-4 5 5 1 5 4m-9-5c-2-2 0-4 0 0zm2-1c-2-2 2-1 0 0zm11-2c-1 1 0-1 0 0zm1-1c-3 0 1-3 0 0zm0-2c-1-2 2-2 0 0zm27-5c-2-1 2-1 0 0zm-53 0c-7-4-1-8 0 0zm53-2c-3-1 2-1 0 0zm-1-4c-2 1 0-1 0 0zm-59-1c-1 0 1 0 0 0m61-1c-2 0 0-1 0 0zm-4-1c-2-1 2-1 0 0zm10-1c-2 0 1-1 0 0zm-6 0c-2-1 2-2 0 0zm-4 0c-2-1 2-2 0 0zm1-1c-2-3 2-2 0 0zm0-4c-1 1 0-1 0 0zm4-2c-1-1 2 0 0 0zm-3-11c-2-2 3 0 0 0zm2-1c-2-2 1 0 0 0zm-47-5c0-1 2-1 0 0zm24-1c-10-1-3-10 0 0zm-9-2c-6-2 1-7 0 0zm-6-1c-2-1 2-1 0 0m20-3c-2-2 2-1 0 0zM81 3124c-20 4-37 16-52 30-10 9-20 19-28 30v106c39-14 75-38 101-70 14-18 25-41 26-64 1-11-3-21-12-27-11-7-24-7-35-5zm-50 47c-9 3 2-2 0 0zm7 2c3 5-3-5 0 0zm39 5c-1 0 1-5 0 0zm-15 0c-1 3-2-2 0 0zm-23 3c0 3-2-4 0 0zm7 7c-3-1-3-5 0 0zm1 3c-3 2 2-3 0 0zm-13 3c-1 0 1-4 0 0zm17-1c0 3-2-4 0 0zm-11 5c5 7-6-4-2-1h1zm-16 12c0 1 0-13 1-5l-1 5zm43-8c-2 1 0-3 0 0zm-4 10c-3 4-3 3 0 0zm-6 2c2 4-4-2-1 0zm-20 3c-1 0-1-4 0 0zm-2 25c-3 1 2-3 0 0zm-11 2c-2 1-3-4 0-1zm9 1c-4 1-6 1-1-1 0 0 2 0 1 1zM24 3578c-4 1-1 9 1 3 0 5-7 4-5 0h-2c-2-4-5 1-5 2-4 0-3 5-6 5-4 3 2 8 2 12 2 5 2 11 3 17 0 3 0 12 5 12 2-4 7 2 5-4-3-2 3-10 2-4 0 2 0 5 1 2-1-5 2-8 2-11-2-2-1-5 0-6-4 0-1-9-5-6 1 3-4 0-1-2v-3c3-2 8-2 13-1s2-5 3-7c-2 0-6 3-6-2-1-3-4-3-4-6l-3-1zm-5 4c0 2-1 0 0 0zm-2 1c1 3-3-1 0 0zm2 1c2 3-1 8-2 3l2-3zm-4 2c1 2-2 0 0 0zm16 2c0 1-2-1 0 0zm-19 0c0 1-1 0 0 0zm9 1c1 1-1 0 0 0zm-12 0c5 4-6 1 0 0zm24 1c2 3-3 1 0 0zm-25 2c4 1 3 12 0 5 1-2-3-6 0-5zm3 0c1 1-1 0 0 0zm10 1c1 2-1-1 0 0zm-8 1c0 2-1 0 0 0zm9 8c2 2-1 5-1 1-1-1 0-1 1-1zm-3 5c1 3-2 0 0 0zm5 2c-1 1-1 0 0 0zm-6 1c1 2-1-1 0 0zm3 3c2 2-2 0 0 0zm-1 1c1 2-1 0 0 0zm3 4c0 2-1-1 0 0zm-4 3c1 1-1 0 0 0zm0 3c0 3 0 0 0 0zm-19 53v-138c12-8 29-11 41-2 10 8 13 22 13 34a139 139 0 0 1-54 106zm15-48c3-1 5-3 8-1-1-3-3-8 1-9 0 2 0 8 1 3-2-4 3-7 2-10-2-2-1-5 0-6-4 0-2-9-5-5 0 2-3-1-1-3-2-1 0-1 0-3 4-3 11 0 16-1v-8c-2 2-7 3-5-1-2-3-5-3-5-6-4-4-6 5-4 4 4-5 0 6-3 1 0-3 2-4-2-2-4 1 2-3-3-3-3 2 0 5-4 5-3 1-1 3-4 3-4 5 3 12 3 17l2 15c0 4 1 8 3 10zm4-4c0-1 1-2 0 0zm0-3c-1-1 1-1 0 0zm4-3c-1-1 1-1 0 0zm-3-4c-1-1 1-1 0 0zm1-1c-2-1 2-2 0 0zm-3-3c-1-2 1-2 0 0zm5-1c0-1 1-1 0 0zm-4-1c-2-1 1-3 0 0zm3-4c-4-5 3-3 0 0zm-12-5c-2-2-5-12 0-6v6zm3-5c-2-1 1-1 0 0zm8-1c-1-1 1-2 0 0zm-10-2c-1 0 1 0 0 0zm22-1c-3 0 2-2 0 0zm-23 0c-3 1-4-3 0-1zm11-1c-1-1 0-1 0 0zm-3-1c-3-2 3-8 1-2l-1 2zm-7 0c0-1 1 0 0 0zm20-1c-2-1 1-1 0 0zm-16-1c-2-1 2-2 0 0zm2-3c-3-1 1-3 0 0zm2-1c-2-1 1-1 0 0zM38 3695c-13 2-23 11-30 21l-7 11v138c1 3 8-4 11-5 34-24 60-62 64-104 1-15 0-31-7-45-4-10-14-17-25-16h-6zm-26 87c1 2 0-1 0 0zm26-87c-16 2-27 15-35 28-2 2-2 5-2 8v135l16-10c33-25 56-63 59-105 0-15-1-33-11-46-6-8-17-11-27-10zm-26 57c0 1 0 0 0 0zm30 2s0-1 0 0zm-29 28c0 1-2-1 0 0zm-4 12c-1 0 0-1 0 0zm30-99c-16 2-27 14-35 27-2 2-4 5-3 8v136c6-2 12-7 18-11 31-25 54-62 57-103 0-16-1-34-11-47-6-8-16-11-26-10zm-27 57c-1 1 0 0 0 0zm30 2c-1 0 0-1 0 0zm-30 28c2 1-1-1 0 0zm-3 12c-1 1 0-2 0 0zm14 33s-1-1 0 0zm16-132c-17 2-28 16-36 29-3 2-2 6-2 9v133c34-19 60-51 70-88 6-19 7-39 2-58-3-12-11-23-23-25H39zm-27 57c0 1-1-1 0 0zm30 1c0 2-1-1 0 0zm-29 29c0 2-2-2 0 0zm0 2c-1 1 0 0 0 0zm-4 10c-1 1 0-3 0 0zm15 15c0 1 0 0 0 0zm-1 18c-1 0-1-1 0 0zm16-132c-16 2-28 15-36 28-2 2-2 5-2 8v135c34-19 60-51 70-88 6-19 7-41 1-61-3-11-13-21-25-22h-8zm-27 57c0 1-1-1 0 0zm30 2c0 1 0-2 0 0zm-30 28c2 2-2-1 0 0zm1 2c0 1-1 0 0 0zm-4 9c-1 3 0-1 0 0zm15 16c0 1 0 0 0 0zm-5 16c0 1-1-3 0 0zm4 2c-1 0 0-1 0 0zm16-132c-16 2-28 15-36 28-2 2-2 5-2 8v135c34-19 61-52 71-90 5-19 6-40 0-59-4-11-13-21-25-22h-8zm0 57c-1 0-1-1 0 0zm-27 0c0 2-1-1 0 0zm30 2c0 1 0-2 0 0zm-4 7zm-14 7zm-11 14c0 2-2-2 0 0zm0 2c-1 1-1 0 0 0zm-4 9c-1 3 0-2 0 0zm15 9c-1 0 0-1 0 0zm0 7s0 1 0 0zm-10 1c-1 1-1 0 0 0zm5 15c-1 1-1-3 0 0zm4 2c0 1-1-1 0 0zm17-132c-16 1-27 13-35 25-2 3-5 6-4 9v137c35-19 62-54 72-93 4-19 5-39-2-58-4-10-13-19-25-20h-6zm-1 57c1 1-2-1 0 0zm-27 0c0 2-1-1 0 0zm30 1c0 2-1-1 0 0zm-4 8c-1 1 0 0 0 0zm-14 7c0 1 0 0 0 0zm-11 14c0 2-3-1 0 0zm0 2c-1 1-1 0 0 0zm-4 9c-1 2-1 0 0 0zm15 9c-1 0 0-1 0 0zm0 7c0 1 0-1 0 0zm-10 2c-1 0 0-1 0 0zm5 14c-1 2-1-4 0 0zm4 2c-1 1-1-1 0 0zm16-132c-16 2-28 15-36 28-2 2-2 5-2 8v135c37-21 65-58 73-99 3-18 3-38-4-55-5-11-16-18-28-17h-3zm0 57c2 1-3-1 0 0zm-27 1c-1 0-1-2 0 0zm30 0c0 2-1-1 0 0zm-4 8c-1 0 1 0 0 0zm-14 7c0 1 0-1 0 0zm-12 14c2 2-2-1 0 0zm1 2c0 1-1-1 0 0zm-4 9v-1zm15 9c0 1-1-2 0 0zm0 7c0 2 0-1 0 0zm-10 1c-1 1-1 0 0 0zm5 15c-1 2-1-4 0 0zm4 2c0 1-1-1 0 0zm17-132c-15 1-27 13-35 26-2 2-5 5-4 8v137c37-21 65-58 73-100 3-17 3-36-4-52-4-11-14-20-26-19h-4zm0 57c-3-1-2-1 0 0zm-28 0c1 2-2-1 0 0zm30 1c1 2-1-1 0 0zm-10 8c-1 0 0 0 0 0zm7 0c-3 1 0 0 0 0zm-15 7c0 1 0-1 0 0zm-12 14c2 2-2-1 0 0zm1 2c1 1-3 0 0 0zm-4 9c-1 4-1-2 0 0zm3 6c-1 0 0 0 0 0zm12 3c0 2-1-2 0 0zm0 7c0 2 0-1 0 0zm-10 1c-1 2-1-1 0 0zm10 5c0-1 1-1 0 0zm-6 9c1 5 0-2 0 0zm5 3c-1 1-1-2 0 0zm16-132c-17 2-29 16-37 30-2 2-1 6-1 9v132c36-20 63-56 72-96 4-18 4-38-2-56-4-11-15-19-26-19h-6zm0 57c3 2-4-2 0 0zm-27 0c2 3-3-1 0 0zm30 2c-1 1 0-2 0 0zm3 3zm0 1zm-13 3c-1 0 0 0 0 0zm7 0c-1 1-2 0 0 0zm-15 7c0 1 0-1 0 0zm-11 14c2 3-3-2 0 0zm0 2c2 1-3 0 0 0zm-4 9c-1 4 0-2 0 0zm2 6c-1 0 0 0 0 0zm1 0c0 1-1 0 0 0zm12 3c0 2-1-2 0 0zm0 7c0 3 0-2 0 0zm-10 1c-1 2-1-1 0 0zm10 5c0-1 1-2 0 0zm-5 9c0 5-1-4 0 0zm4 3c0 1-1-1 0 0zm22-70c-1 2 2 1 0 0zm-5-62c-16 1-28 14-36 27-2 2-4 5-3 8v136c37-21 66-58 73-101 3-17 3-35-4-51-4-11-14-20-26-19h-4zm-2 56c4 1 0 1 0 0zm-26 1c0 2-2-1 0 0zm30 2c-1 1 0-3 0 0zm3 3c2 3-2 1 0 0zm-12 4c-2 1-2 0 0 0zm6 0c-2 1-2 0 0 0zm-15 7c0 2 0-2 0 0zm-13 7c3 4-1 0 0 0zm2 7c2 3-4-2 0 0zm0 2c2 1-3 0 0 0zm-4 9c-1 5-1-2 0 0zm14 0s0-1 0 0zm-11 6c-3 2-3-1 0 0zm12 3c0 2-1-2 0 0zm0 7c0 3 0-2 0 0zm-10 2c-1-1 0-2 0 0zm10 4c0 2 0-3 0 0zm-5 9c0 5-1-5 0 0zm5-1c0 1 0 0 0 0zm-1 4c0 1-2-1 0 0zm16-132c-16 2-28 15-36 29-2 2-2 4-2 7v135c37-20 65-57 73-98 3-18 3-38-4-55a29 29 0 0 0-31-18zm-1 56c5 2-1 1 0 0zm-26 1c1 2-2-1 0 0zm30 2c0 2 0-3 0 0zm3 3c2 4-2 0 0 0zm-12 4c-2 1-2 0 0 0zm6 0c-1 1-3-1 0 0zm-15 8c0-2 1-2 0 0zm-12 6c3 6-3-3 0 0zm1 7c1 3-3-1 0 0zm0 2c2 1-3-1 0 0zm-4 8c0 4-2 1 0 0zm14 1c0 1 0-1 0 0zm-10 6c-3 2-5-1 0 0zm11 2c0 4-1-1 0 0zm0 8c1 3 0-1 0 0zm-10 1c-1 3-1-2 0 0zm10 4c1 4 0-1 0 0zm1 7c-1 0 0-1 0 0zm-1 1zm-5 2c0 5-1-5 0 0zm5-1c0 1 1-1 0 0zm-1 4c0 1-2-1 0 0zm1-6c-1 5 3-1 0 0zm16-126c-16 1-28 14-36 27-2 3-4 5-3 8v136c38-21 66-59 73-101 3-18 3-37-4-53-5-11-17-18-29-17zm-1 56c4 2-2 1-1 0zm-27 1c1 2-2-1 0 0zm30 2c0 2 0-3 0 0zm3 3c1 4-2-1 0 0zm-12 4c-3 1-3 0 0 0zm6 0c-1 1-3-1 0 0zm-15 7c0 3 0-3 0 0zm-12 7c1 4-2-1-1 0zm0 7c2 1 0 2 0-1zm1 2c2 1-3 0 0 0zm10 9c0 1 0-2 0 0zm-14 0c-2 5 0-3 0 0zm4 6c-5 2-4-1 0 0zm11 3c-1 3-1-3 0 0zm0 7c0 4 0-3 0 0zm-10 2c-1 2 0-4 0 0zm11 3c0 4-1-2 0 0zm0 7c-1 6-2 1 0 0zm-6 3c0 5-2-2-1-1zm4 3c-1 1-1-2 0 0zm18-132c-16 1-28 13-37 26-1 3-4 5-3 9v136l14-9c34-24 59-64 61-107 0-15-1-31-10-44-6-8-16-12-25-11zm-2 56c5 3-4 0 0 0zm-27 1c1 2-2-1 0 0zm30 2c-1 2-1-3 0 0zm3 3c1 4-2-1 0 0zm-6 4c-2 1-2-1 0 0zm-6 0c-3 1-3 0 0 0zm-9 6c1 3-1 1 0 0zm-13 8c3 4-1 0 0 0zm2 7c1 2-1 2-1-1zm2 2c-1 0-1 0 0 0zm-2 0c3 2-3 0 0 0zm10 9c0 3 0-3 0 0zm-14-1c0 5-2 1 0 0zm4 7c-4 2-4-1 0 0zm11 3c-1 3-1-4 0 0zm1 7c-1 5-1-3 0 0zm-11 1c0 5-1-2 0 0zm10 4c1 4 0-1 0 0zm1 7c-1 6-2-1 0 0zm-6 3c-1 5-1-5 0 0zm4 3c0 1-2-1 0 0zm10-131c-13 4-22 15-29 26-1 2-3 4-3 7l1 135c2 3 8-4 11-6a144 144 0 0 0 61-97v-35c-2-12-8-25-20-29-7-2-14-3-21-1zm7 56c2 2-5-3 0 0zm-27 1c-1 2-2-3 0 0zm30 1c-2 3-2-4 0 0zm3 4c-2 2-2-4 0 0zm-13 3c-4 1-1-1 0 0zm6 0c-3 1-2-1 0 0zm-15 8c-1 0 1-4 0 0zm-12 8c-2 0-2-5 0-1zm1 6c2 1 2 2-1 1-1-2 0-5 1-1zm10 11c-1-1 1-4 0 0zm-14 0c-3 3 1-5 0 0zm3 6c-4 2-2-3 1-1zm12 3c-2-1 0-4 0 0zm0 7c-1 0 1-3 0 0zm-10 1c-2 1 0-3 0 0zm10 5c-1-1 1-4 0 0zm1 5c0 5-2 0 0 0zm-6 3c0 5-2-6 0 0zm4 3c-1 2-2-3 0 0zm2-78c-4 3-7 3-11 3 0 3-2 0-3 2-3 1 4 7-1 9-1 4 6 0 2 4-3 3 0 2 2 1 0 2-2 7-4 3-6 1 4 3 2 6 3 3-1 6 3 7-3 1-3 0-1 3-4 2-6 6-3 8 4 0 3 6-1 5 1 4 1 3 3 4-3 3-1 1 1 3l-1 11c0 3 2 6 5 4-1 5 7 6 6 0v-17c-2-12 0-25 0-37 0-8 9-7 14-7 1-2 12 5 7 0 0-5-5-8-8-10-2-4-8-2-12-2zm-4 71c-2 3-3-1 0 0zm1 3c-3 4 1-5 0 0zm-21 43v-139c8-14 19-29 36-32 12-2 25 3 31 13 8 15 9 32 7 49-4 45-34 87-74 109zm17-45c0 3 0 6 4 6 1-1 5-6 2-7 1-4-1-9 1-11-2-3 0-7-2-10v-7c-1-3 0-7 1-12v-14c1-4 6-5 10-5 3 1 5 1 6-1 0 1 5 5 7 2-4-2-2-2-2-5-3 3-2-7-3-4l-6-3c2-2-3-1-5-1-4 2-4-3-7 0-2 1-5 5-7 2-2 3-5-3-3 3 0 2-5-6-2 0 0 2-4-2-2 2 2 1 4 6 1 7-3 5 4-1 1 3-5 3 2 4 2 2l-2 5c-2-1 0-5-4-2 1 4 5 5 5 9 3 3 0 1-2 2 2 1 6 4 1 2-2 0 5 4 0 5-4-1-4 5-3 6 0-5 2-2 2 0 0 1 3-2 2 2 3 0 1 3-2 2s1 8 1 3c5 3-5 4 0 4 4 2 1 5 2 7-1 4-2 8 1 10 2 1 2-1 3-2zm3 3c-2-2 4-6 1-1 0 2-1 1-1 1zm-1-1c-1-1 1-1 0 0zm-6 0c-1-1 2-2 0 0zm6-2c-4-2 2-2 0 0zm4-2c-2-1 1-1 0 0zm-4-2c-1-1 1 0 0 0m2-2c-1 0 0-1 0 0zm-6-13c-1-1 2-1 0 0zm-4 0c-1-2 1-1 0 0zm8-9c-2-2 3-1 0 0zm0-3c-1-1 2-1 0 0zm1-10c-1 0-1-1 0 0zm2-3c-1 0 0 0 0 0zm-10-1c-2-1 0-2 0 0zm3-2c-1-1 1-1 0 0zm4-3c-4-1 0-2 0 0zm-2-8c-1 0 0-1 0 0zm-5-3c-1-1 1-2 0 0zm27-5c-1-1 1-1 0 0zm-25-1c0-2 3 0 0 0zm23-1c-1-1 1-1 0 0zM0 3867v-139c2-4 1 3 1 5v133z" fill="#e0e0ed"/></g></svg>