<?xml version="1.0" encoding="UTF-8" standalone="no"?>
<svg
   xmlns:dc="http://purl.org/dc/elements/1.1/"
   xmlns:cc="http://creativecommons.org/ns#"
   xmlns:rdf="http://www.w3.org/1999/02/22-rdf-syntax-ns#"
   xmlns:svg="http://www.w3.org/2000/svg"
   xmlns="http://www.w3.org/2000/svg"
   id="svg4021"
   version="1.1"
   viewBox="0 0 68.062225 228.6012"
   height="228.6012mm"
   width="68.062225mm">
  <defs
     id="defs4015" />
  <metadata
     id="metadata4018">
    <rdf:RDF>
      <cc:Work
         rdf:about="">
        <dc:format>image/svg+xml</dc:format>
        <dc:type
           rdf:resource="http://purl.org/dc/dcmitype/StillImage" />
        <dc:title></dc:title>
      </cc:Work>
    </rdf:RDF>
  </metadata>
  <g
     transform="translate(-14.34984,-20.16964)"
     id="layer1">
    <g
       transform="matrix(0.35277777,0,0,-0.35277777,35.138911,156.27563)"
       id="g1152">
      <path
         id="path1154"
         style="fill:#ef8000;fill-opacity:1;fill-rule:nonzero;stroke:none"
         d="m 0,0 c -2.699,-3.333 -7.963,-4.949 -12.824,-4.8 -4.864,0.162 -9.382,1.819 -13.5,3.784 -20.062,9.659 -32.817,28.06 -32.603,47.084 C -33.575,45.204 -7.659,31.961 0.363,12.939 2.123,8.758 3.088,3.813 0,0" />
    </g>
    <g
       transform="matrix(0.35277777,0,0,-0.35277777,60.883401,126.09421)"
       id="g1156">
      <path
         id="path1158"
         style="fill:#e20613;fill-opacity:1;fill-rule:nonzero;stroke:none"
         d="M 0,0 C 3.834,2.365 9.523,2.304 14.174,0.677 18.822,-0.966 22.587,-3.937 25.852,-7.078 41.724,-22.46 47.316,-43.98 40.129,-62.136 15.907,-53.555 -4.315,-32.948 -5.099,-12.281 -5.267,-7.736 -4.387,-2.71 0,0" />
    </g>
    <g
       transform="matrix(0.35277777,0,0,-0.35277777,31.448861,104.48347)"
       id="g1160">
      <path
         id="path1162"
         style="fill:#e5007e;fill-opacity:1;fill-rule:nonzero;stroke:none"
         d="m 0,0 c 2.582,2.808 6.437,3.328 9.603,2.144 3.163,-1.2 5.739,-3.845 7.979,-6.717 C 28.465,-18.644 32.433,-40.036 27.713,-59.301 11.225,-53.028 -2.653,-34.07 -3.354,-13.057 -3.506,-8.438 -2.952,-3.214 0,0" />
    </g>
    <g
       transform="matrix(0.35277777,0,0,-0.35277777,52.465661,20.405233)"
       id="g1164">
      <path
         id="path1166"
         style="fill:#e5007e;fill-opacity:1;fill-rule:nonzero;stroke:none"
         d="m 0,0 c 4.094,-1.485 6.752,-5.403 7.419,-9.363 0.651,-3.965 -0.387,-7.963 -1.827,-11.701 -7.112,-18.231 -24.998,-32.38 -45.778,-36.181 -3.376,20.673 6.649,44.386 26.018,54.837 C -9.907,-0.112 -4.683,1.698 0,0" />
    </g>
    <g
       transform="matrix(0.35277777,0,0,-0.35277777,50.893831,171.02411)"
       id="g1168">
      <path
         id="path1170"
         style="fill:#81358a;fill-opacity:1;fill-rule:nonzero;stroke:none"
         d="m 0,0 c 3.816,-2.314 6.096,-7.08 6.464,-11.561 0.355,-4.485 -0.909,-8.73 -2.541,-12.621 -8.046,-18.956 -26.127,-31.631 -46.271,-32.401 -1.83,23.382 9.373,47.911 28.622,56.261 C -9.491,1.51 -4.368,2.648 0,0" />
    </g>
    <g
       transform="matrix(0.35277777,0,0,-0.35277777,78.705241,207.4167)"
       id="g1172">
      <path
         id="path1174"
         style="fill:#ffec00;fill-opacity:1;fill-rule:nonzero;stroke:none"
         d="m 0,0 c 4.39,-0.986 7.869,-4.643 9.372,-8.602 1.485,-3.966 1.298,-8.186 0.656,-12.193 -3.225,-19.554 -18.043,-36.339 -37.933,-42.925 -7.739,20.683 -2.775,46.215 14.303,59.417 C -9.845,-1.404 -5.025,1.127 0,0" />
    </g>
    <g
       transform="matrix(0.35277777,0,0,-0.35277777,39.586351,67.43492)"
       id="g1176">
      <path
         id="path1178"
         style="fill:#009ee2;fill-opacity:1;fill-rule:nonzero;stroke:none"
         d="m 0,0 c 2.71,-3.288 3.27,-8.749 2.198,-13.471 -1.088,-4.72 -3.554,-8.814 -6.243,-12.456 -13.176,-17.723 -33.419,-26.598 -51.787,-22.684 5.676,24.612 23.442,47.359 43.378,51.488 C -8.069,3.78 -3.102,3.76 0,0" />
    </g>
    <g
       transform="matrix(0.35277777,0,0,-0.35277777,69.163871,47.525025)"
       id="g1180">
      <path
         id="path1182"
         style="fill:#ffec00;fill-opacity:1;fill-rule:nonzero;stroke:none"
         d="m 0,0 c 4.38,-1.67 7.544,-6.326 8.651,-11.1 1.093,-4.777 0.451,-9.651 -0.638,-14.222 -5.391,-22.295 -22.335,-39.993 -43.364,-45.255 -5.688,24.917 2.123,53.94 20.991,67.212 C -10.209,-0.453 -5.012,1.907 0,0" />
    </g>
    <g
       transform="matrix(0.35277777,0,0,-0.35277777,61.100431,88.842728)"
       id="g1184">
      <path
         id="path1186"
         style="fill:#2c2c83;fill-opacity:1;fill-rule:nonzero;stroke:none"
         d="M 0,0 C 1.787,2.789 5.443,4.037 8.873,3.778 12.307,3.509 15.55,1.965 18.521,0.168 32.993,-8.657 42.62,-24.793 43.129,-41.116 25.228,-39.698 6.504,-27.639 0.192,-11.097 -1.192,-7.459 -2.045,-3.192 0,0" />
    </g>
    <g
       transform="matrix(0.35277777,0,0,-0.35277777,34.637301,232.51907)"
       id="g1188">
      <path
         id="path1190"
         style="fill:#ef8000;fill-opacity:1;fill-rule:nonzero;stroke:none"
         d="M 0,0 C 2.699,3.333 7.963,4.949 12.825,4.8 17.688,4.638 22.206,2.981 26.324,1.016 46.386,-8.643 59.141,-27.044 58.927,-46.068 33.575,-45.204 7.659,-31.961 -0.363,-12.939 -2.123,-8.758 -3.088,-3.813 0,0" />
    </g>
    <g
       transform="matrix(0.35277777,0,0,-0.35277777,80.487371,171.78238)"
       id="g1192">
      <path
         id="path1194"
         style="fill:#0068b2;fill-opacity:1;fill-rule:nonzero;stroke:none"
         d="m 0,0 c 3.117,-2.871 4.18,-7.782 3.477,-12.085 -0.718,-4.307 -2.933,-8.095 -5.417,-11.48 -12.186,-16.491 -32.526,-25.247 -52.035,-22.379 3.761,22.438 20.291,43.633 40.731,48.09 C -8.75,3.123 -3.565,3.285 0,0" />
    </g>
  </g>
</svg>
