<svg xmlns="http://www.w3.org/2000/svg" width="476.41" height="792.66" viewBox="0 0 126.05 209.73"><defs><clipPath id="s"><path d="M354.18 2055.97h57.66v49.25h-57.66z"/></clipPath><clipPath id="r"><path d="M351.98 2296.44h44.35v44.93h-44.35z"/></clipPath><clipPath id="q"><path d="M338.88 2384.1h46.4v71.27h-46.4z"/></clipPath><clipPath id="p"><path d="M371.64 1937.72h41.97v64h-41.97z"/></clipPath><clipPath id="o"><path d="M281.72 2048.02h49.07v58.14h-49.07z"/></clipPath><clipPath id="n"><path d="M287.89 2474.3h48.45v57.92h-48.45z"/></clipPath><clipPath id="m"><path d="M265.77 2233.92h33.05v62.04h-33.05z"/></clipPath><clipPath id="l"><path d="M347.46 2169.83h48.34v63.98h-48.34z"/></clipPath><clipPath id="k"><path d="M145.95 1971.48h57.66v49.24h-57.66z"/></clipPath><clipPath id="j"><path d="M56.3 2258.87h43.08v68.43H56.3z"/></clipPath><clipPath id="i"><path d="M142.98 2362.4h31.05v64.53h-31.05z"/></clipPath><clipPath id="h"><path d="M183.98 2258.76h38.4v59.36h-38.4z"/></clipPath><clipPath id="g"><path d="M83.61 2025.63h32.88v63.67H83.6z"/></clipPath><clipPath id="f"><path d="M75.31 2455.99h57.57v54.89H75.31z"/></clipPath><clipPath id="e"><path d="M220.68 2141.6h60.93v50.88h-60.93z"/></clipPath><clipPath id="d"><path d="M207.81 2395.16h52.7v58.73h-52.7z"/></clipPath><clipPath id="c"><path d="M144.18 2074.98h41.97v63.99h-41.97z"/></clipPath><clipPath id="b"><path d="M227 1970.53h49.07v58.15H227z"/></clipPath><clipPath id="a"><path d="M101.24 2161.29h41.48v63.03h-41.48z"/></clipPath></defs><g clip-path="url(#a)" transform="matrix(.35278 0 0 -.35278 -19.86 893.31)"><path d="M139.27 2224.32c-19.64-7.14-34.3-23.98-37.54-43.06-.64-3.91-.84-8.01.62-11.8 1.47-3.79 4.89-7.2 9.22-8 .6-.1 1.19-.16 1.77-.17h.47c4.14.08 8.04 2.36 11.2 4.87 16.87 13.44 21.84 38.39 14.26 58.16" fill="#f27fbe"/></g><g clip-path="url(#b)" transform="matrix(.35278 0 0 -.35278 -19.86 893.31)"><path d="M275.87 2028.67c-20.14-.77-38.22-13.44-46.27-32.4-1.63-3.89-2.9-8.13-2.54-12.62.37-4.48 2.65-9.24 6.47-11.56a11.01 11.01 0 0 1 5.81-1.56c2.72 0 5.47.83 7.91 1.88 17.8 7.73 28.73 29.3 28.82 51v.52c0 1.58-.07 3.16-.2 4.74" fill="#c09ac4"/></g><g clip-path="url(#c)" transform="matrix(.35278 0 0 -.35278 -19.86 893.31)"><path d="M182.6 2138.97h-.01c-19.89-6.59-34.7-23.37-37.93-42.92-.64-4-.83-8.23.66-12.2 1.5-3.96 4.98-7.61 9.37-8.6.78-.17 1.55-.26 2.31-.27h.36c4.04.06 7.85 2.2 10.93 4.58 17.08 13.2 22.04 38.73 14.3 59.41" fill="#fff67f"/></g><g clip-path="url(#d)" transform="matrix(.35278 0 0 -.35278 -19.86 893.31)"><path d="M208.78 2453.89h-.01a41.92 41.92 0 0 1-.96-8.9v-.07c0-15.72 8.57-31.8 23.4-42.92 3.62-2.7 7.7-5.2 12.42-6.3 1.5-.36 3.09-.54 4.65-.54 3.33 0 6.58.83 8.83 2.67 3.78 3.08 3.82 8.05 2.94 12.44-4.03 19.95-26.7 37.83-51.27 43.62" fill="#7fcef0"/></g><g clip-path="url(#e)" transform="matrix(.35278 0 0 -.35278 -19.86 893.31)"><path d="M220.68 2192.48c-.21-19.03 12.54-37.43 32.6-47.09 4.12-1.96 8.64-3.62 13.5-3.78l.4-.01h.46c4.61.05 9.43 1.67 11.97 4.81a9.13 9.13 0 0 1 2 5.9v.02c0 2.37-.7 4.8-1.64 7.02-8.02 19.02-33.94 32.26-59.29 33.13" fill="#f7bf7f"/></g><g clip-path="url(#f)" transform="matrix(.35278 0 0 -.35278 -19.86 893.31)"><path d="M126.32 2510.88h-.67c-16.55-.13-33.26-9.66-44.22-25.7-2.57-3.77-4.89-7.98-5.78-12.77-.22-1.18-.33-2.4-.34-3.62v-.2c.02-3.64 1.01-7.23 3.15-9.58 1.98-2.17 4.58-2.97 7.3-3.02h.54c1.64.03 3.31.31 4.9.71 20.01 5.07 37.01 28.69 41.68 53.62-2.17.36-4.36.54-6.56.56" fill="#f7bf7f"/></g><g clip-path="url(#g)" transform="matrix(.35278 0 0 -.35278 -19.86 893.31)"><path d="M93.07 2089.3a54.4 54.4 0 0 1-9.46-30.15v-.7a49.08 49.08 0 0 1 5.29-22.08c1.72-3.32 3.9-6.55 7.14-8.66a13.26 13.26 0 0 1 7.04-2.08c1.54 0 3.07.3 4.5.95 4.26 1.97 6.4 6.53 7.54 10.77 5.23 19.3-5.1 40.96-22.05 51.95" fill="#7fc69a"/></g><g clip-path="url(#h)" transform="matrix(.35278 0 0 -.35278 -19.86 893.31)"><path d="M219.06 2318.12c-18.22-6.44-31.77-22.17-34.66-40.22-.24-1.52-.4-3.08-.42-4.63v-.55a17.4 17.4 0 0 1 1.06-6.03c1.39-3.61 4.6-6.9 8.63-7.73.57-.12 1.15-.18 1.72-.2h.68c3.72.12 7.22 2.16 10.06 4.42 15.62 12.48 20.1 36.06 12.93 54.94" fill="#7fc69a"/></g><g clip-path="url(#i)" transform="matrix(.35278 0 0 -.35278 -19.86 893.31)"><path d="M161.07 2426.93c-14.15-14.08-20.8-34.26-17.06-51.6.78-3.55 2-7.07 4.52-9.65a11.04 11.04 0 0 1 7.55-3.28h.4c.84.02 1.69.14 2.53.38 4.49 1.28 7.61 5.46 9.74 9.47a46.01 46.01 0 0 1 5.28 21.48v.3c-.04 12.36-4.78 24.49-12.96 32.9" fill="#c09ac4"/></g><g clip-path="url(#j)" transform="matrix(.35278 0 0 -.35278 -19.86 893.31)"><path d="M57.67 2327.3c-4.4-23.06 2-47.17 16.4-61.69 2.95-2.95 6.31-5.6 10.29-6.47a11.74 11.74 0 0 1 11.64 4.04c2.54 3.14 3.35 7.38 3.38 11.54v.44c0 1.24-.08 2.48-.2 3.67-2.37 24.2-20.79 43.88-41.5 48.46" fill="#9595c1"/></g><g clip-path="url(#k)" transform="matrix(.35278 0 0 -.35278 -19.86 893.31)"><path d="M196.9 2020.72h-1.36c-16.88-.22-33.45-8.7-43.96-22.91-2.49-3.39-4.7-7.18-5.42-11.48-.7-4.3.36-9.22 3.48-12.09 2.18-2 4.96-2.72 7.82-2.76h.43c1.68.02 3.38.27 5 .62 20.43 4.45 36.96 25.65 40.72 48.09-2.23.32-4.47.5-6.7.53" fill="#7fb3d8"/></g><g clip-path="url(#l)" transform="matrix(.35278 0 0 -.35278 -19.86 893.31)"><path d="M359.95 2233.8c-2.7 0-5.3-.56-7.37-1.84-4-2.47-5.08-6.87-5.11-11.07v-.4l.01-.8c.79-20.67 21-41.28 45.23-49.86a44.36 44.36 0 0 1 3.1 16.06v.62c-.1 13.62-6.18 27.53-17.38 38.37-3.26 3.15-7.02 6.12-11.67 7.76a20.94 20.94 0 0 1-6.81 1.17" fill="#f08288"/></g><g clip-path="url(#m)" transform="matrix(.35278 0 0 -.35278 -19.86 893.31)"><path d="M275.58 2295.96h-.22a8.47 8.47 0 0 1-6.21-2.74c-2.62-2.84-3.35-7.26-3.38-11.44v-.52l.02-1.1c.7-21 14.58-39.97 31.07-46.24a69.22 69.22 0 0 1 1.96 16.26v.38c-.04 14.14-4.29 28-12.1 38.09-2.23 2.87-4.8 5.51-7.97 6.72a9.4 9.4 0 0 1-3.17.59" fill="#f27fbe"/></g><g clip-path="url(#n)" transform="matrix(.35278 0 0 -.35278 -19.86 893.31)"><path d="M325.03 2532.22h-.51c-3.45-.07-6.95-1.45-9.96-3.07-19.37-10.45-29.4-34.17-26.02-54.84 20.78 3.8 38.66 17.95 45.77 36.18 1.13 2.93 2.01 6 2.03 9.11v.2c0 .8-.07 1.6-.2 2.4-.67 3.95-3.33 7.87-7.42 9.35-1.2.44-2.44.65-3.69.67" fill="#f27fbe"/></g><g clip-path="url(#o)" transform="matrix(.35278 0 0 -.35278 -19.86 893.31)"><path d="M318.78 2106.16h-.67a20.74 20.74 0 0 1-7.57-1.88c-17.83-7.74-28.76-29.36-28.82-51.1v-.3c0-1.63.07-3.24.2-4.86 20.14.77 38.22 13.44 46.27 32.4 1.63 3.9 2.9 8.14 2.54 12.62-.37 4.48-2.65 9.25-6.46 11.56a10.93 10.93 0 0 1-5.49 1.56" fill="#c09ac4"/></g><g clip-path="url(#p)" transform="matrix(.35278 0 0 -.35278 -19.86 893.31)"><path d="M400.61 2001.72c-4.1 0-7.98-2.17-11.11-4.58-17.08-13.2-22.04-38.73-14.3-59.42 19.89 6.59 34.7 23.37 37.93 42.93.64 4 .83 8.22-.66 12.2-1.5 3.95-4.98 7.6-9.37 8.6-.84.18-1.67.27-2.49.27" fill="#fff67f"/></g><g clip-path="url(#q)" transform="matrix(.35278 0 0 -.35278 -19.86 893.31)"><path d="M372.27 2455.37c-3.77 0-7.47-1.88-10.58-4.06-18.86-13.27-26.67-42.29-20.99-67.2 21.03 5.25 37.98 22.95 43.37 45.25 1.09 4.57 1.73 9.44.64 14.22-1.11 4.77-4.27 9.43-8.65 11.1-1.26.48-2.53.69-3.8.69" fill="#fff67f"/></g><g clip-path="url(#r)" transform="matrix(.35278 0 0 -.35278 -19.86 893.31)"><path d="M361.18 2341.37c-3.16 0-6.35-1.26-7.98-3.81a8.24 8.24 0 0 1-1.22-4.47v-.16a19.1 19.1 0 0 1 1.41-6.47c6.31-16.54 25.04-28.6 42.94-30.02-.51 16.32-10.14 32.46-24.61 41.29-2.97 1.8-6.21 3.34-9.65 3.6-.3.03-.6.04-.9.04" fill="#9595c1"/></g><g clip-path="url(#s)" transform="matrix(.35278 0 0 -.35278 -19.86 893.31)"><path d="M400.12 2105.22c-1.75 0-3.53-.26-5.21-.62-20.44-4.46-36.97-25.65-40.73-48.1 2.38-.34 4.77-.52 7.16-.53h.47c17.02.08 33.8 8.57 44.4 22.92 2.49 3.38 4.7 7.17 5.42 11.48.13.8.2 1.63.2 2.46v.23c-.02 3.53-1.2 7.1-3.68 9.4-2.23 2.05-5.1 2.76-8.03 2.76" fill="#7fb3d8"/></g></svg>