<?xml version="1.0" encoding="UTF-8" standalone="no"?>
<!-- Created with Inkscape (http://www.inkscape.org/) -->

<svg
   xmlns:dc="http://purl.org/dc/elements/1.1/"
   xmlns:cc="http://creativecommons.org/ns#"
   xmlns:rdf="http://www.w3.org/1999/02/22-rdf-syntax-ns#"
   xmlns:svg="http://www.w3.org/2000/svg"
   xmlns="http://www.w3.org/2000/svg"
   xmlns:sodipodi="http://sodipodi.sourceforge.net/DTD/sodipodi-0.dtd"
   xmlns:inkscape="http://www.inkscape.org/namespaces/inkscape"
   width="131.93904mm"
   height="166.16655mm"
   viewBox="0 0 131.93904 166.16655"
   version="1.1"
   id="svg1763"
   sodipodi:docname="basicTreesvg.svg"
   inkscape:version="0.92.4 (f8dce91, 2019-08-02)">
  <defs
     id="defs1757" />
  <sodipodi:namedview
     id="base"
     pagecolor="#ffffff"
     bordercolor="#666666"
     borderopacity="1.0"
     inkscape:pageopacity="0.0"
     inkscape:pageshadow="2"
     inkscape:zoom="0.35"
     inkscape:cx="-370.66638"
     inkscape:cy="271.15841"
     inkscape:document-units="mm"
     inkscape:current-layer="layer1"
     showgrid="false"
     inkscape:window-width="3138"
     inkscape:window-height="1723"
     inkscape:window-x="62"
     inkscape:window-y="38"
     inkscape:window-maximized="1"
     fit-margin-top="0"
     fit-margin-left="0"
     fit-margin-right="0"
     fit-margin-bottom="0" />
  <metadata
     id="metadata1760">
    <rdf:RDF>
      <cc:Work
         rdf:about="">
        <dc:format>image/svg+xml</dc:format>
        <dc:type
           rdf:resource="http://purl.org/dc/dcmitype/StillImage" />
        <dc:title></dc:title>
      </cc:Work>
    </rdf:RDF>
  </metadata>
  <g
     inkscape:label="Layer 1"
     inkscape:groupmode="layer"
     id="layer1"
     transform="translate(-33.06024,-54.410771)">
    <g
       id="g1853"
       transform="translate(142.875,186.72024)">
      <g
         transform="matrix(0.35277777,0,0,-0.35277777,-23.252632,31.275611)"
         id="g4088">
        <path
           inkscape:connector-curvature="0"
           id="path4090"
           style="fill:#cd9c58;fill-opacity:1;fill-rule:nonzero;stroke:none"
           d="m 0,0 c -9.507,-9.873 -123.644,-8.034 -121.166,-4.435 28.526,41.449 43.111,87.424 44.909,139.229 1.581,45.537 -30.257,99.933 -65.365,132.049 -2.426,2.219 0.406,5.753 3.414,4.254 25.22,-12.572 51.893,-28.161 68.255,-47.392 1.88,-2.209 5.706,-0.813 5.273,1.937 -4.135,26.177 -10.414,52.263 -20.173,77.184 -1.112,2.838 2.946,4.877 5.022,2.524 23.185,-26.343 41.422,-50.172 60.884,-46.913 17.207,2.87 48.664,21.817 61.745,40.903 1.833,2.678 5.407,-6.485 3.126,-8.694 C -16.825,229.809 -26.966,188.9 -29.145,144.811 -31.936,88.994 -19.555,46.16 0,0" />
      </g>
      <g
         transform="matrix(0.35277777,0,0,-0.35277777,-52.778121,-80.468148)"
         id="g4092">
        <path
           inkscape:connector-curvature="0"
           id="path4094"
           style="fill:#008d36;fill-opacity:1;fill-rule:nonzero;stroke:none"
           d="m 0,0 c -4.373,-2.895 -10.903,-2.936 -16.259,-1.092 -5.356,1.864 -9.719,5.321 -13.504,8.997 -18.422,17.99 -20.136,40.656 -17.103,65.263 C -18.952,63.438 4.526,39.315 5.696,14.724 5.948,9.316 5.001,3.312 0,0" />
      </g>
      <g
         transform="matrix(0.35277777,0,0,-0.35277777,-44.626335,-80.755115)"
         id="g4096">
        <path
           inkscape:connector-curvature="0"
           id="path4098"
           style="fill:#ef8000;fill-opacity:1;fill-rule:nonzero;stroke:none"
           d="m 0,0 c -4.285,1.643 -7.153,5.907 -7.946,10.202 -0.783,4.296 0.184,8.622 1.575,12.654 C 0.521,42.54 18.694,57.712 40.15,61.652 44.214,39.239 34.449,13.648 14.637,2.487 10.274,0.041 4.902,-1.88 0,0" />
      </g>
      <g
         transform="matrix(0.35277777,0,0,-0.35277777,-9.1421897,-63.650597)"
         id="g4100">
        <path
           inkscape:connector-curvature="0"
           id="path4102"
           style="fill:#008d36;fill-opacity:1;fill-rule:nonzero;stroke:none"
           d="M 0,0 C 2.384,3.559 6.886,5.336 10.99,5.243 15.095,5.13 18.864,3.436 22.284,1.411 38.944,-8.538 49.157,-27.825 48.39,-47.937 26.981,-47.35 5.479,-33.687 -0.711,-13.684 -2.065,-9.285 -2.729,-4.073 0,0" />
      </g>
      <g
         transform="matrix(0.35277777,0,0,-0.35277777,-2.0924997,-71.479221)"
         id="g4104">
        <path
           inkscape:connector-curvature="0"
           id="path4106"
           style="fill:#2c2c83;fill-opacity:1;fill-rule:nonzero;stroke:none"
           d="m 0,0 c -3.003,3.971 -3.348,9.744 -1.808,14.42 1.555,4.671 4.703,8.405 8.08,11.629 C 22.835,41.705 47.216,46.731 68.646,38.878 60.523,14.528 38.26,-5.388 14.513,-5.552 9.296,-5.588 3.44,-4.543 0,0" />
      </g>
      <g
         transform="matrix(0.35277777,0,0,-0.35277777,-35.942974,-106.96024)"
         id="g4108">
        <path
           inkscape:connector-curvature="0"
           id="path4110"
           style="fill:#008d36;fill-opacity:1;fill-rule:nonzero;stroke:none"
           d="m 0,0 c -2.807,2.399 -4.213,6.685 -4.141,10.511 0.078,3.821 1.407,7.257 2.993,10.346 C 6.664,35.911 21.837,44.486 37.673,42.781 37.246,22.84 26.518,3.455 10.774,-1.334 7.313,-2.385 3.209,-2.745 0,0" />
      </g>
      <g
         transform="matrix(0.35277777,0,0,-0.35277777,-13.602589,-75.276388)"
         id="g4112">
        <path
           inkscape:connector-curvature="0"
           id="path4114"
           style="fill:#009ee2;fill-opacity:1;fill-rule:nonzero;stroke:none"
           d="m 0,0 c -1.164,-3.379 -4.377,-5.907 -7.668,-6.87 -3.291,-0.953 -6.644,-0.588 -9.785,0.128 -15.322,3.544 -27.441,16.007 -30.984,31.889 17.166,4.96 37.107,-0.256 46.171,-14.291 C -0.272,7.767 1.329,3.867 0,0" />
      </g>
      <g
         transform="matrix(0.35277777,0,0,-0.35277777,-78.118193,-62.419279)"
         id="g4116">
        <path
           inkscape:connector-curvature="0"
           id="path4118"
           style="fill:#e5007e;fill-opacity:1;fill-rule:nonzero;stroke:none"
           d="m 0,0 c 0.072,-4.671 -3.132,-9.384 -7.205,-12.258 -4.095,-2.863 -8.925,-4.166 -13.638,-4.943 -23.015,-3.719 -46.037,4.959 -58.881,22.217 21.331,14.91 51.594,19.019 71.169,6.86 C -4.254,9.198 -0.083,5.346 0,0" />
      </g>
      <g
         transform="matrix(0.35277777,0,0,-0.35277777,-87.422689,-75.30327)"
         id="g4120">
        <path
           inkscape:connector-curvature="0"
           id="path4122"
           style="fill:#81358a;fill-opacity:1;fill-rule:nonzero;stroke:none"
           d="M 0,0 C -3.266,-3.585 -9.307,-5.089 -14.776,-4.63 -20.245,-4.156 -25.23,-2.024 -29.742,0.433 -51.713,12.489 -64.861,33.934 -63.357,55.307 -34.831,52.819 -6.5,36.386 1.271,14.523 2.977,9.718 3.733,4.104 0,0" />
      </g>
      <g
         transform="matrix(0.35277777,0,0,-0.35277777,-72.713178,-67.029538)"
         id="g4124">
        <path
           inkscape:connector-curvature="0"
           id="path4126"
           style="fill:#ef8000;fill-opacity:1;fill-rule:nonzero;stroke:none"
           d="m 0,0 c -2.956,-2.302 -7.2,-2.204 -10.614,-0.571 -3.415,1.642 -6.118,4.584 -8.436,7.694 -11.289,15.213 -14.673,36.396 -8.632,54.185 C -9.898,52.722 4.444,32.343 4.265,12.036 4.224,7.565 3.379,2.632 0,0" />
      </g>
      <g
         transform="matrix(0.35277777,0,0,-0.35277777,-47.038594,-99.726561)"
         id="g4128">
        <path
           inkscape:connector-curvature="0"
           id="path4130"
           style="fill:#81358a;fill-opacity:1;fill-rule:nonzero;stroke:none"
           d="m 0,0 c -5.804,-1.112 -12.216,1.514 -16.485,5.547 -4.254,4.053 -6.701,9.296 -8.467,14.517 -8.534,25.53 -1.638,53.793 17.675,72.297 C 14.904,71.226 25.153,37.492 13.334,12.411 10.728,6.896 6.639,1.271 0,0" />
      </g>
      <g
         transform="matrix(0.35277777,0,0,-0.35277777,-61.005366,-111.65797)"
         id="g4132">
        <path
           inkscape:connector-curvature="0"
           id="path4134"
           style="fill:#0068b2;fill-opacity:1;fill-rule:nonzero;stroke:none"
           d="m 0,0 c -2.364,-2.739 -6.263,-3.651 -9.62,-3.008 -3.354,0.665 -6.253,2.648 -8.828,4.867 C -30.973,12.741 -37.143,30.798 -34.202,48.051 -16.707,44.59 -0.634,29.83 2.147,11.712 2.761,7.726 2.704,3.137 0,0" />
      </g>
      <g
         transform="matrix(0.35277777,0,0,-0.35277777,7.3109003,-90.459979)"
         id="g4136">
        <path
           inkscape:connector-curvature="0"
           id="path4138"
           style="fill:#008d36;fill-opacity:1;fill-rule:nonzero;stroke:none"
           d="m 0,0 c -3.898,0.984 -6.546,4.347 -7.318,7.941 -0.762,3.595 0.056,7.386 1.267,10.976 5.985,17.5 22.243,32.255 41.603,37.734 C 39.507,37.89 30.999,15.049 13.21,3.564 9.296,1.046 4.46,-1.122 0,0" />
      </g>
      <g
         transform="matrix(0.35277777,0,0,-0.35277777,-5.9210197,-77.374799)"
         id="g4140">
        <path
           inkscape:connector-curvature="0"
           id="path4142"
           style="fill:#ef8000;fill-opacity:1;fill-rule:nonzero;stroke:none"
           d="m 0,0 c -4.495,-1.555 -9.038,0.145 -11.813,3.312 -2.761,3.183 -4.028,7.601 -4.786,12.072 -3.62,21.846 4.693,47.643 21.281,65.983 C 19.071,64.763 23.088,35.794 11.413,12.34 8.843,7.185 5.146,1.782 0,0" />
      </g>
    </g>
  </g>
</svg>
