<?xml version="1.0" encoding="UTF-8" standalone="no"?>
<svg
   xmlns:dc="http://purl.org/dc/elements/1.1/"
   xmlns:cc="http://creativecommons.org/ns#"
   xmlns:rdf="http://www.w3.org/1999/02/22-rdf-syntax-ns#"
   xmlns:svg="http://www.w3.org/2000/svg"
   xmlns="http://www.w3.org/2000/svg"
   id="svg3768"
   version="1.1"
   viewBox="0 0 151.36977 258.40924"
   height="258.40924mm"
   width="151.36977mm">
  <defs
     id="defs3762" />
  <metadata
     id="metadata3765">
    <rdf:RDF>
      <cc:Work
         rdf:about="">
        <dc:format>image/svg+xml</dc:format>
        <dc:type
           rdf:resource="http://purl.org/dc/dcmitype/StillImage" />
        <dc:title></dc:title>
      </cc:Work>
    </rdf:RDF>
  </metadata>
  <g
     transform="translate(56.030123,-26.432288)"
     id="layer1">
    <g
       transform="matrix(0.35277777,0,0,-0.35277777,-1.4922435,284.19084)"
       id="g678">
      <path
         id="path680"
         style="fill:#e20613;fill-opacity:1;fill-rule:nonzero;stroke:none"
         d="M 0,0 C -3.835,-2.365 -9.523,-2.304 -14.174,-0.677 -18.822,0.966 -22.588,3.937 -25.852,7.078 -41.725,22.46 -47.316,43.98 -40.13,62.136 -15.907,53.555 4.314,32.948 5.099,12.281 5.267,7.736 4.387,2.71 0,0" />
    </g>
    <g
       transform="matrix(0.35277777,0,0,-0.35277777,-34.526585,172.45331)"
       id="g682">
      <path
         id="path684"
         style="fill:#e5007e;fill-opacity:1;fill-rule:nonzero;stroke:none"
         d="m 0,0 c -4.331,0.789 -7.752,4.205 -9.222,7.989 -1.456,3.789 -1.261,7.891 -0.616,11.8 3.233,19.084 17.9,35.925 37.54,43.064 C 35.284,43.084 30.318,18.134 13.433,4.687 9.715,1.733 4.955,-0.904 0,0" />
    </g>
    <g
       transform="matrix(0.35277777,0,0,-0.35277777,-1.8939605,46.627051)"
       id="g686">
      <path
         id="path688"
         style="fill:#e5007e;fill-opacity:1;fill-rule:nonzero;stroke:none"
         d="m 0,0 c -4.094,1.485 -6.753,5.403 -7.419,9.363 -0.651,3.965 0.386,7.963 1.826,11.701 C 1.52,39.295 19.405,53.444 40.185,57.245 43.561,36.572 33.537,12.859 14.168,2.408 9.906,0.112 4.683,-1.698 0,0" />
    </g>
    <g
       transform="matrix(0.35277777,0,0,-0.35277777,8.4971535,239.26092)"
       id="g690">
      <path
         id="path692"
         style="fill:#81358a;fill-opacity:1;fill-rule:nonzero;stroke:none"
         d="m 0,0 c -3.816,2.314 -6.096,7.08 -6.464,11.561 -0.354,4.485 0.909,8.73 2.541,12.621 C 4.123,43.138 22.203,55.813 42.349,56.583 44.178,33.201 32.975,8.672 13.726,0.322 9.491,-1.51 4.368,-2.648 0,0" />
    </g>
    <g
       transform="matrix(0.35277777,0,0,-0.35277777,-19.3141,202.86833)"
       id="g694">
      <path
         id="path696"
         style="fill:#ffec00;fill-opacity:1;fill-rule:nonzero;stroke:none"
         d="m 0,0 c -4.391,0.986 -7.869,4.643 -9.372,8.602 -1.485,3.966 -1.299,8.186 -0.656,12.193 C -6.804,40.349 8.015,57.134 27.904,63.72 35.644,43.037 30.68,17.505 13.602,4.303 9.845,1.404 5.024,-1.127 0,0" />
    </g>
    <g
       transform="matrix(0.35277777,0,0,-0.35277777,16.817717,89.070609)"
       id="g698">
      <path
         id="path700"
         style="fill:#009ee2;fill-opacity:1;fill-rule:nonzero;stroke:none"
         d="m 0,0 c -3.301,-2.695 -8.764,-3.228 -13.479,-2.134 -4.717,1.111 -8.799,3.597 -12.427,6.303 C -43.566,17.43 -52.345,37.715 -48.342,56.063 -23.758,50.271 -1.097,32.396 2.938,12.44 3.82,8.051 3.775,3.084 0,0" />
    </g>
    <g
       transform="matrix(0.35277777,0,0,-0.35277777,24.753841,177.76596)"
       id="g702">
      <path
         id="path704"
         style="fill:#ef8000;fill-opacity:1;fill-rule:nonzero;stroke:none"
         d="m 0,0 c -2.699,-3.333 -7.964,-4.949 -12.825,-4.8 -4.864,0.162 -9.382,1.819 -13.499,3.784 -20.062,9.659 -32.818,28.06 -32.604,47.084 C -33.575,45.204 -7.659,31.961 0.362,12.939 2.122,8.758 3.088,3.813 0,0" />
    </g>
    <g
       transform="matrix(0.35277777,0,0,-0.35277777,-46.205452,67.487435)"
       id="g706">
      <path
         id="path708"
         style="fill:#ef8000;fill-opacity:1;fill-rule:nonzero;stroke:none"
         d="m 0,0 c -2.889,3.171 -3.693,8.618 -2.813,13.401 0.894,4.785 3.211,9.001 5.775,12.776 C 15.533,44.554 35.646,54.391 54.421,51.313 49.747,26.38 32.75,2.756 12.736,-2.308 8.338,-3.418 3.305,-3.627 0,0" />
    </g>
    <g
       transform="matrix(0.35277777,0,0,-0.35277777,-41.678934,266.23913)"
       id="g710">
      <path
         id="path712"
         style="fill:#81358a;fill-opacity:1;fill-rule:nonzero;stroke:none"
         d="m 0,0 c -3.148,-2.853 -8.07,-3.474 -12.203,-2.385 -4.13,1.102 -7.592,3.651 -10.634,6.433 C -37.631,17.688 -43.968,38.769 -39.025,57.98 -17.492,52.219 1.429,33.819 3.549,13.023 4.012,8.451 3.603,3.265 0,0" />
    </g>
    <g
       transform="matrix(0.35277777,0,0,-0.35277777,-35.937025,220.0387)"
       id="g714">
      <path
         id="path716"
         style="fill:#008d36;fill-opacity:1;fill-rule:nonzero;stroke:none"
         d="m 0,0 c -3.738,-1.722 -8.269,-0.956 -11.526,1.135 -3.251,2.106 -5.422,5.332 -7.144,8.658 -8.339,16.267 -6.719,36.958 4.168,52.931 C 2.438,51.738 12.777,30.076 7.554,10.775 6.402,6.532 4.274,1.971 0,0" />
    </g>
    <g
       transform="matrix(0.35277777,0,0,-0.35277777,-5.5646835,138.05988)"
       id="g718">
      <path
         id="path720"
         style="fill:#008d36;fill-opacity:1;fill-rule:nonzero;stroke:none"
         d="m 0,0 c -4.033,0.821 -7.234,4.118 -8.625,7.731 -1.376,3.621 -1.219,7.506 -0.641,11.206 2.895,18.049 16.438,33.777 34.662,40.22 C 32.562,40.28 28.089,16.697 12.463,4.223 9.025,1.481 4.612,-0.938 0,0" />
    </g>
    <g
       transform="matrix(0.35277777,0,0,-0.35277777,-17.788936,101.43506)"
       id="g722">
      <path
         id="path724"
         style="fill:#81358a;fill-opacity:1;fill-rule:nonzero;stroke:none"
         d="m 0,0 c -3.92,-1.121 -7.963,0.332 -10.486,2.901 -2.515,2.58 -3.741,6.103 -4.521,9.651 -3.745,17.344 2.915,37.516 17.063,51.599 C 15.151,50.688 19.423,27.708 9.739,9.467 7.607,5.457 4.483,1.282 0,0" />
    </g>
    <g
       transform="matrix(0.35277777,0,0,-0.35277777,-40.018409,136.57332)"
       id="g726">
      <path
         id="path728"
         style="fill:#2c2c83;fill-opacity:1;fill-rule:nonzero;stroke:none"
         d="m 0,0 c -2.969,-3.669 -7.67,-4.898 -11.646,-4.039 -3.972,0.876 -7.33,3.518 -10.288,6.476 C -36.323,16.953 -42.739,41.064 -38.326,64.121 -17.611,59.539 0.809,39.853 3.183,15.651 3.701,10.331 3.394,4.198 0,0" />
    </g>
    <g
       transform="matrix(0.35277777,0,0,-0.35277777,-21.096228,238.50265)"
       id="g730">
      <path
         id="path732"
         style="fill:#0068b2;fill-opacity:1;fill-rule:nonzero;stroke:none"
         d="m 0,0 c -3.117,2.871 -4.181,7.782 -3.478,12.085 0.718,4.307 2.933,8.095 5.417,11.48 C 14.126,40.056 34.466,48.812 53.975,45.944 50.214,23.506 33.683,2.311 13.244,-2.146 8.749,-3.123 3.564,-3.285 0,0" />
    </g>
    <g
       transform="matrix(0.35277777,0,0,-0.35277777,50.498007,147.58454)"
       id="g1096">
      <path
         id="path1098"
         style="fill:#e20613;fill-opacity:1;fill-rule:nonzero;stroke:none"
         d="M 0,0 C 3.835,2.365 9.523,2.304 14.174,0.677 18.822,-0.966 22.588,-3.937 25.852,-7.078 41.725,-22.46 47.316,-43.98 40.13,-62.136 15.907,-53.555 -4.314,-32.948 -5.099,-12.281 -5.267,-7.736 -4.387,-2.71 0,0" />
    </g>
    <g
       transform="matrix(0.35277777,0,0,-0.35277777,21.06383,125.97379)"
       id="g1100">
      <path
         id="path1102"
         style="fill:#e5007e;fill-opacity:1;fill-rule:nonzero;stroke:none"
         d="m 0,0 c 2.581,2.808 6.437,3.328 9.603,2.144 3.163,-1.2 5.739,-3.845 7.979,-6.717 C 28.465,-18.644 32.433,-40.036 27.713,-59.301 11.224,-53.028 -2.653,-34.07 -3.355,-13.057 -3.507,-8.438 -2.952,-3.214 0,0" />
    </g>
    <g
       transform="matrix(0.35277777,0,0,-0.35277777,86.543017,116.10497)"
       id="g1104">
      <path
         id="path1106"
         style="fill:#ef8000;fill-opacity:1;fill-rule:nonzero;stroke:none"
         d="m 0,0 c 3.944,-1.237 6.736,-4.856 7.667,-8.608 0.917,-3.755 0.259,-7.617 -0.798,-11.249 -5.231,-17.718 -20.861,-32.02 -39.998,-36.569 -4.768,19.582 2.763,42.66 20.065,53.497 C -9.259,-0.55 -4.513,1.413 0,0" />
    </g>
    <g
       transform="matrix(0.35277777,0,0,-0.35277777,83.532377,259.32205)"
       id="g1108">
      <path
         id="path1110"
         style="fill:#e5007e;fill-opacity:1;fill-rule:nonzero;stroke:none"
         d="m 0,0 c 4.331,-0.789 7.752,-4.205 9.222,-7.989 1.456,-3.789 1.261,-7.891 0.616,-11.801 -3.233,-19.083 -17.9,-35.924 -37.54,-43.063 -7.582,19.769 -2.616,44.719 14.269,58.166 C -9.715,-1.733 -4.955,0.904 0,0" />
    </g>
    <g
       transform="matrix(0.35277777,0,0,-0.35277777,42.080637,41.895561)"
       id="g1112">
      <path
         id="path1114"
         style="fill:#e5007e;fill-opacity:1;fill-rule:nonzero;stroke:none"
         d="m 0,0 c 4.093,-1.485 6.752,-5.403 7.419,-9.363 0.65,-3.965 -0.387,-7.963 -1.827,-11.701 -7.113,-18.231 -24.998,-32.38 -45.778,-36.181 -3.376,20.673 6.649,44.386 26.017,54.837 C -9.907,-0.112 -4.684,1.698 0,0" />
    </g>
    <g
       transform="matrix(0.35277777,0,0,-0.35277777,40.508615,192.51444)"
       id="g1116">
      <path
         id="path1118"
         style="fill:#81358a;fill-opacity:1;fill-rule:nonzero;stroke:none"
         d="m 0,0 c 3.816,-2.314 6.097,-7.08 6.464,-11.561 0.355,-4.485 -0.909,-8.73 -2.541,-12.621 -8.046,-18.956 -26.126,-31.631 -46.271,-32.401 -1.83,23.382 9.373,47.911 28.622,56.261 C -9.491,1.51 -4.368,2.648 0,0" />
    </g>
    <g
       transform="matrix(0.35277777,0,0,-0.35277777,68.319867,228.90703)"
       id="g1120">
      <path
         id="path1122"
         style="fill:#ffec00;fill-opacity:1;fill-rule:nonzero;stroke:none"
         d="m 0,0 c 4.391,-0.986 7.869,-4.643 9.372,-8.602 1.485,-3.966 1.299,-8.186 0.656,-12.193 -3.224,-19.554 -18.043,-36.339 -37.932,-42.925 -7.74,20.683 -2.776,46.215 14.302,59.417 C -9.845,-1.404 -5.024,1.127 0,0" />
    </g>
    <g
       transform="matrix(0.35277777,0,0,-0.35277777,71.693307,41.6713)"
       id="g1124">
      <path
         id="path1126"
         style="fill:#81358a;fill-opacity:1;fill-rule:nonzero;stroke:none"
         d="M 0,0 C 1.331,3.699 5.483,6.411 9.846,7.403 14.214,8.385 18.753,7.907 23.035,7.054 43.927,2.819 61.13,-11.171 67.029,-28.748 44.252,-33.844 17.017,-27.665 3.816,-12.006 0.918,-8.561 -1.52,-4.232 0,0" />
    </g>
    <g
       transform="matrix(0.35277777,0,0,-0.35277777,58.778677,69.015351)"
       id="g1128">
      <path
         id="path1130"
         style="fill:#ffec00;fill-opacity:1;fill-rule:nonzero;stroke:none"
         d="m 0,0 c 4.38,-1.67 7.544,-6.326 8.651,-11.1 1.093,-4.777 0.451,-9.651 -0.638,-14.222 -5.391,-22.295 -22.335,-39.993 -43.364,-45.255 -5.688,24.917 2.123,53.94 20.991,67.212 C -10.209,-0.453 -5.013,1.907 0,0" />
    </g>
    <g
       transform="matrix(0.35277777,0,0,-0.35277777,50.715397,110.33305)"
       id="g1132">
      <path
         id="path1134"
         style="fill:#2c2c83;fill-opacity:1;fill-rule:nonzero;stroke:none"
         d="M 0,0 C 1.786,2.789 5.442,4.037 8.872,3.778 12.307,3.509 15.55,1.965 18.521,0.168 32.993,-8.657 42.62,-24.793 43.129,-41.116 25.228,-39.698 6.504,-27.639 0.191,-11.097 -1.192,-7.459 -2.046,-3.192 0,0" />
    </g>
    <g
       transform="matrix(0.35277777,0,0,-0.35277777,24.252271,254.0094)"
       id="g1136">
      <path
         id="path1138"
         style="fill:#ef8000;fill-opacity:1;fill-rule:nonzero;stroke:none"
         d="M 0,0 C 2.698,3.333 7.963,4.949 12.824,4.8 17.688,4.638 22.206,2.981 26.323,1.016 46.385,-8.643 59.141,-27.044 58.927,-46.068 33.574,-45.204 7.658,-31.961 -0.363,-12.939 -2.123,-8.758 -3.089,-3.813 0,0" />
    </g>
    <g
       transform="matrix(0.35277777,0,0,-0.35277777,84.958267,75.196891)"
       id="g1140">
      <path
         id="path1142"
         style="fill:#e5007e;fill-opacity:1;fill-rule:nonzero;stroke:none"
         d="m 0,0 c 2.795,2.141 6.832,2.229 10.086,0.936 3.253,-1.304 5.84,-3.779 8.066,-6.414 10.82,-12.905 14.159,-31.377 8.521,-47.252 C 9.721,-45.914 -4.035,-28.596 -3.981,-10.747 -3.968,-6.822 -3.194,-2.451 0,0" />
    </g>
    <g
       transform="matrix(0.35277777,0,0,-0.35277777,84.942797,211.73671)"
       id="g1144">
      <path
         id="path1146"
         style="fill:#008d36;fill-opacity:1;fill-rule:nonzero;stroke:none"
         d="m 0,0 c 3.738,1.722 8.269,0.956 11.526,-1.135 3.251,-2.106 5.422,-5.333 7.144,-8.658 8.339,-16.267 6.719,-36.958 -4.168,-52.931 -16.94,10.986 -27.279,32.648 -22.056,51.949 C -6.401,-6.532 -4.274,-1.971 0,0" />
    </g>
    <g
       transform="matrix(0.35277777,0,0,-0.35277777,70.101997,193.27271)"
       id="g1148">
      <path
         id="path1150"
         style="fill:#0068b2;fill-opacity:1;fill-rule:nonzero;stroke:none"
         d="m 0,0 c 3.117,-2.871 4.181,-7.782 3.478,-12.085 -0.718,-4.307 -2.933,-8.095 -5.417,-11.48 -12.187,-16.491 -32.527,-25.247 -52.036,-22.379 3.761,22.438 20.292,43.633 40.731,48.09 C -8.749,3.123 -3.564,3.285 0,0" />
    </g>
  </g>
</svg>
