<svg xmlns="http://www.w3.org/2000/svg" viewBox="0 0 151.37 258.41" height="976.66" width="572.11"><path d="M54.54 257.76c-1.36.83-3.36.81-5 .24a11.6 11.6 0 0 1-4.12-2.74c-5.6-5.42-7.57-13.02-5.04-19.42 8.55 3.03 15.68 10.3 15.96 17.59.06 1.6-.25 3.37-1.8 4.33" fill="#e20613"/><path d="M21.5 146.02a4.5 4.5 0 0 1-3.25-2.82 7.94 7.94 0 0 1-.22-4.16c1.14-6.73 6.32-12.67 13.25-15.2 2.67 6.98.92 15.78-5.04 20.53-1.3 1.04-2.99 1.97-4.74 1.65M54.14 20.2a4.25 4.25 0 0 1-2.62-3.3c-.23-1.4.14-2.82.64-4.14C54.67 6.33 60.98 1.34 68.31 0c1.2 7.3-2.34 15.66-9.18 19.35-1.5.8-3.34 1.44-5 .84" fill="#e5007e"/><path d="M64.53 212.83c-1.35-.82-2.15-2.5-2.28-4.08a9.58 9.58 0 0 1 .9-4.45 18.63 18.63 0 0 1 16.32-11.43c.64 8.25-3.31 16.9-10.1 19.85-1.5.64-3.3 1.04-4.84.1" fill="#81358a"/><path d="M36.72 176.44a4.87 4.87 0 0 1-3.31-3.04 8.38 8.38 0 0 1-.23-4.3c1.14-6.9 6.36-12.82 13.38-15.14 2.73 7.3.98 16.3-5.05 20.96-1.32 1.02-3.02 1.91-4.8 1.52" fill="#ffec00"/><path d="M72.85 62.64c-1.17.95-3.1 1.14-4.76.75-1.66-.4-3.1-1.27-4.38-2.22-6.23-4.68-9.33-11.84-7.92-18.3 8.68 2.03 16.67 8.34 18.1 15.38.3 1.55.29 3.3-1.04 4.39" fill="#009ee2"/><path d="M80.78 151.33c-.95 1.18-2.8 1.75-4.52 1.7a12.05 12.05 0 0 1-4.76-1.34c-7.08-3.4-11.58-9.9-11.5-16.6 8.94.3 18.08 4.97 20.91 11.68.62 1.47.96 3.22-.13 4.56M9.82 41.06c-1.01-1.12-1.3-3.05-.99-4.73a12.06 12.06 0 0 1 2.04-4.51c4.43-6.48 11.53-9.95 18.15-8.87-1.65 8.8-7.64 17.13-14.7 18.92-1.55.4-3.33.46-4.5-.81" fill="#ef8000"/><path d="M14.35 239.8c-1.1 1.01-2.85 1.23-4.3.85a9.21 9.21 0 0 1-3.76-2.27 19.54 19.54 0 0 1-5.7-19.03c7.59 2.04 14.27 8.53 15.01 15.86.17 1.62.02 3.45-1.25 4.6" fill="#81358a"/><path d="M20.1 193.6c-1.33.61-2.92.34-4.07-.4a7.7 7.7 0 0 1-2.52-3.05c-2.95-5.74-2.37-13.04 1.47-18.67 5.97 3.87 9.62 11.52 7.78 18.33-.4 1.5-1.16 3.1-2.67 3.8M50.47 111.63a4.36 4.36 0 0 1-3.05-2.73 7.7 7.7 0 0 1-.22-3.95c1.02-6.37 5.8-11.92 12.22-14.2 2.53 6.67.95 14.99-4.56 19.39-1.21.97-2.77 1.82-4.4 1.49" fill="#008d36"/><path d="M38.24 75a3.8 3.8 0 0 1-3.7-1.02 6.87 6.87 0 0 1-1.6-3.4c-1.31-6.12 1.04-13.24 6.03-18.2a16.97 16.97 0 0 1 2.7 19.28c-.75 1.42-1.85 2.9-3.43 3.34" fill="#81358a"/><path d="M16.01 110.14a4.18 4.18 0 0 1-4.1 1.43c-1.4-.31-2.6-1.25-3.64-2.29C3.2 104.16.93 95.65 2.5 87.52c7.3 1.62 13.8 8.56 14.64 17.1.19 1.88.08 4.04-1.12 5.52" fill="#2c2c83"/><path d="M34.93 212.07c-1.1-1.01-1.47-2.74-1.22-4.26a9.65 9.65 0 0 1 1.9-4.05c4.3-5.82 11.48-8.9 18.37-7.9-1.33 7.92-7.16 15.4-14.37 16.97-1.59.34-3.42.4-4.68-.76" fill="#0068b2"/><path d="M106.53 121.15c1.35-.83 3.36-.81 5-.24a11.6 11.6 0 0 1 4.12 2.74c5.6 5.43 7.57 13.02 5.04 19.42-8.55-3.02-15.68-10.3-15.96-17.59-.06-1.6.25-3.37 1.8-4.33" fill="#e20613"/><path d="M77.1 99.54a3.1 3.1 0 0 1 3.38-.75 6.95 6.95 0 0 1 2.82 2.36c3.84 4.97 5.24 12.52 3.57 19.31-5.82-2.21-10.71-8.9-10.96-16.31-.05-1.63.14-3.47 1.18-4.6" fill="#e5007e"/><path d="M142.57 89.67a4.24 4.24 0 0 1 2.7 3.04 7.7 7.7 0 0 1-.27 3.97c-1.85 6.25-7.36 11.3-14.11 12.9-1.69-6.91.97-15.05 7.07-18.87 1.35-.84 3.02-1.54 4.61-1.04" fill="#ef8000"/><path d="M139.56 232.89a4.5 4.5 0 0 1 3.26 2.82c.5 1.33.44 2.78.21 4.16-1.14 6.73-6.31 12.67-13.24 15.2-2.67-6.98-.92-15.78 5.03-20.53 1.32-1.04 3-1.97 4.74-1.65M98.11 15.46a4.25 4.25 0 0 1 2.62 3.3 8 8 0 0 1-.65 4.13c-2.5 6.44-8.82 11.43-16.15 12.77-1.19-7.3 2.35-15.66 9.18-19.35 1.5-.8 3.35-1.45 5-.85" fill="#e5007e"/><path d="M96.54 166.08c1.34.82 2.15 2.5 2.28 4.08a9.57 9.57 0 0 1-.9 4.45 18.63 18.63 0 0 1-16.32 11.43c-.65-8.25 3.3-16.9 10.1-19.84 1.5-.65 3.3-1.05 4.84-.12" fill="#81358a"/><path d="M124.35 202.47a4.87 4.87 0 0 1 3.3 3.04c.53 1.4.46 2.89.24 4.3-1.14 6.9-6.37 12.82-13.38 15.14-2.73-7.3-.98-16.3 5.04-20.96 1.33-1.02 3.03-1.91 4.8-1.52" fill="#ffec00"/><path d="M127.72 15.24c.47-1.3 1.94-2.26 3.48-2.61 1.54-.35 3.14-.18 4.65.12 7.37 1.5 13.44 6.43 15.52 12.63-8.04 1.8-17.64-.38-22.3-5.9-1.02-1.22-1.88-2.75-1.35-4.24" fill="#81358a"/><path d="M114.8 42.58c1.55.6 2.67 2.23 3.06 3.92.39 1.68.16 3.4-.22 5.02-1.9 7.86-7.88 14.1-15.3 15.96-2-8.79.75-19.03 7.4-23.71 1.47-1.03 3.3-1.86 5.07-1.19" fill="#ffec00"/><path d="M106.75 83.9c.63-.98 1.92-1.42 3.13-1.33 1.2.1 2.35.64 3.4 1.27 5.1 3.11 8.5 8.8 8.68 14.57-6.31-.5-12.92-4.76-15.15-10.6-.48-1.28-.79-2.78-.06-3.9" fill="#2c2c83"/><path d="M80.28 227.58c.95-1.18 2.81-1.75 4.53-1.7 1.71.06 3.3.65 4.76 1.34 7.08 3.4 11.58 9.9 11.5 16.6-8.94-.3-18.09-4.97-20.92-11.68-.62-1.47-.96-3.22.13-4.56" fill="#ef8000"/><path d="M140.99 48.76c.98-.75 2.4-.78 3.56-.33a7.54 7.54 0 0 1 2.84 2.27c3.82 4.55 5 11.07 3 16.67-5.97-2.4-10.83-8.52-10.8-14.81 0-1.39.27-2.93 1.4-3.8" fill="#e5007e"/><path d="M140.97 185.3a4.36 4.36 0 0 1 4.07.4 7.7 7.7 0 0 1 2.52 3.06c2.94 5.74 2.37 13.04-1.47 18.67-5.98-3.87-9.62-11.52-7.78-18.32.4-1.5 1.16-3.11 2.66-3.8" fill="#008d36"/><path d="M126.13 166.84c1.1 1.01 1.48 2.75 1.23 4.26a9.65 9.65 0 0 1-1.91 4.05c-4.3 5.82-11.48 8.91-18.36 7.9 1.33-7.92 7.16-15.4 14.37-16.97 1.59-.34 3.41-.4 4.67.76" fill="#0068b2"/></svg>