<svg xmlns="http://www.w3.org/2000/svg" width="257.24" height="835.06" viewBox="0 0 68.06 220.94"><defs><clipPath id="k"><path d="M1514.45 2364.73h57.66v49.24h-57.66z"/></clipPath><clipPath id="j"><path d="M1529.96 2128.57h44.35v44.93h-44.35z"/></clipPath><clipPath id="i"><path d="M1541.01 2014.58h46.39v71.26h-46.39z"/></clipPath><clipPath id="h"><path d="M1631.36 2068.33h58.54v52.9h-58.54z"/></clipPath><clipPath id="g"><path d="M1512.68 2468.23h41.96v63.99h-41.96z"/></clipPath><clipPath id="f"><path d="M1595.5 2363.78h49.06v58.14h-49.06z"/></clipPath><clipPath id="e"><path d="M1589.95 1937.72h48.45v57.91h-48.45z"/></clipPath><clipPath id="d"><path d="M1627.47 2173.98h33.05v62.04h-33.05z"/></clipPath><clipPath id="c"><path d="M1601.13 2501h47.89v63.02h-47.89z"/></clipPath><clipPath id="b"><path d="M1530.48 2236.14h48.34v63.98h-48.34z"/></clipPath><clipPath id="a"><path d="M1644.67 2277.47h60.94v50.87h-60.94z"/></clipPath></defs><g clip-path="url(#a)" transform="matrix(.35278 0 0 -.35278 -533.64 904.53)"><path d="M1659.35 2328.34h-.93c-4.55-.1-9.24-1.72-11.74-4.8-3.09-3.82-2.12-8.76-.36-12.94 8.01-19.01 33.9-32.25 59.23-33.13h.06v.69c-.1 18.78-12.79 36.85-32.6 46.39-4.12 1.97-8.64 3.62-13.5 3.79h-.16" fill="#f7bf7f"/></g><g clip-path="url(#b)" transform="matrix(.35278 0 0 -.35278 -533.64 904.53)"><path d="M1533.57 2300.12c-7.18-18.16-1.59-39.68 14.28-55.06 3.27-3.14 7.03-6.11 11.68-7.76a20.99 20.99 0 0 1 6.46-1.16h.7c2.56.05 5.03.62 7.01 1.84 4 2.47 5.09 6.87 5.12 11.07v.4c0 .27 0 .54-.02.81-.78 20.67-21 41.28-45.23 49.86" fill="#f08288"/></g><g clip-path="url(#c)" transform="matrix(.35278 0 0 -.35278 -533.64 904.53)"><path d="M1648.88 2564.02c-19.52-.47-37.15-14.02-45.12-34.63-1.62-4.24-2.88-8.86-2.58-13.78.31-4.92 2.48-10.18 6.16-12.79a9.86 9.86 0 0 1 5.84-1.82c2.56 0 5.14.84 7.45 1.92 17.39 8.16 28.18 31.74 28.39 55.6v1.39a78.24 78.24 0 0 1-.14 4.1" fill="#f08288"/></g><g clip-path="url(#d)" transform="matrix(.35278 0 0 -.35278 -533.64 904.53)"><path d="M1629.43 2236.02a69.26 69.26 0 0 1-1.96-15.66v-1.58c.15-13.93 4.4-27.54 12.09-37.48 2.24-2.88 4.81-5.52 7.98-6.72a9.38 9.38 0 0 1 3.27-.6c2.3 0 4.6.86 6.33 2.74 2.95 3.22 3.5 8.44 3.35 13.06-.7 21.01-14.57 39.96-31.06 46.24" fill="#f27fbe"/></g><g clip-path="url(#e)" transform="matrix(.35278 0 0 -.35278 -533.64 904.53)"><path d="M1637.75 1995.63h-.02c-20.77-3.8-38.65-17.95-45.76-36.18-1.1-2.86-1.97-5.87-2.02-8.9v-.6c.01-.73.08-1.46.2-2.2.66-3.96 3.32-7.88 7.42-9.36 1.28-.47 2.6-.67 3.94-.67 3.53 0 7.13 1.41 10.22 3.08 19.37 10.45 29.4 34.16 26.02 54.83" fill="#f27fbe"/></g><g clip-path="url(#f)" transform="matrix(.35278 0 0 -.35278 -533.64 904.53)"><path d="M1644.37 2421.92h-.15c-20.09-.83-38.1-13.49-46.12-32.4-1.4-3.33-2.53-6.92-2.6-10.7v-.77c0-.38.03-.76.06-1.15.36-4.48 2.64-9.24 6.46-11.56a11.02 11.02 0 0 1 5.82-1.56c2.72 0 5.46.83 7.9 1.88 17.7 7.68 28.59 29.01 28.82 50.57v1.4a63.96 63.96 0 0 1-.19 4.29" fill="#c09ac4"/></g><g clip-path="url(#g)" transform="matrix(.35278 0 0 -.35278 -533.64 904.53)"><path d="M1551.09 2532.22c-19.9-6.59-34.71-23.37-37.93-42.92a35.23 35.23 0 0 1-.48-5.04v-.73c.03-2.17.35-4.33 1.13-6.43 1.5-3.96 4.98-7.61 9.37-8.6.75-.17 1.48-.25 2.21-.27h.57c4 .1 7.77 2.21 10.83 4.57 11.68 9.04 17.7 23.85 17.85 38.93v1.16a56.95 56.95 0 0 1-3.55 19.33" fill="#fff67f"/></g><g clip-path="url(#h)" transform="matrix(.35278 0 0 -.35278 -533.64 904.53)"><path d="M1681.16 2121.23c-15.8 0-31.93-8.66-43.04-23.6-2.7-3.64-5.16-7.73-6.25-12.46-1.07-4.72-.5-10.18 2.2-13.47 2.1-2.53 5.03-3.37 8.06-3.37 1.47 0 2.96.2 4.4.5 19.93 4.12 37.7 26.86 43.37 51.47v.01c-2.88.62-5.8.92-8.74.92" fill="#7fcef0"/></g><g clip-path="url(#i)" transform="matrix(.35278 0 0 -.35278 -533.64 904.53)"><path d="M1585.58 2085.84c-21.03-5.26-37.97-22.96-43.36-45.25-1.1-4.57-1.73-9.45-.64-14.23 1.1-4.77 4.27-9.43 8.65-11.1 1.17-.44 2.34-.65 3.51-.68h.56c3.67.1 7.26 1.92 10.3 4.05 14.65 10.31 22.63 30.13 22.8 50.14v1.27a73.94 73.94 0 0 1-1.82 15.8" fill="#fff67f"/></g><g clip-path="url(#j)" transform="matrix(.35278 0 0 -.35278 -533.64 904.53)"><path d="M1530 2173.5h-.04v-.06c.53-16.3 10.15-32.4 24.6-41.22 2.98-1.8 6.22-3.34 9.65-3.61l.9-.03c3.15 0 6.34 1.26 7.98 3.8 2.04 3.2 1.19 7.47-.2 11.1-6.3 16.53-25 28.58-42.88 30.02" fill="#9595c1"/></g><g clip-path="url(#k)" transform="matrix(.35278 0 0 -.35278 -533.64 904.53)"><path d="M1565.22 2413.97h-1.01c-16.94-.17-33.6-8.64-44.14-22.91-2.48-3.39-4.7-7.18-5.41-11.48a15.9 15.9 0 0 1-.21-2.35v-.46c.05-3.5 1.23-7.02 3.68-9.28 2.18-2 4.96-2.73 7.82-2.76h.44c1.68.02 3.38.26 4.99.61 20.44 4.46 36.97 25.66 40.73 48.1-2.3.33-4.6.5-6.9.53" fill="#7fb3d8"/></g></svg>