<svg xmlns="http://www.w3.org/2000/svg" viewBox="0 0 38.91 67.29" height="254.32" width="147.08"><path d="M0 67.29c.9-.17 15.67.27 15.38-.44-3.83-9.36-2.75-16.9-5.5-26.8C6.7 28.62 13.06 19.53 19.6 13.3c.45-.43 0-.93-.63-.85-5.54.68-17.7 14.55-14.59 27.1 2.13 8.6-.4 20.99-4.38 27.74" fill="#dab27d"/><path d="M20.5 27.44a2.7 2.7 0 0 1 2.43-.7c.84.17 1.56.65 2.2 1.18a11.54 11.54 0 0 1 3.7 11.02c-4.37-.86-8.33-4.4-8.93-8.72-.14-.95-.1-2.04.6-2.78" fill="#ef8000"/><path d="M21.8 11.25a3.9 3.9 0 0 1-.67-3.55 7.23 7.23 0 0 1 1.92-3A16.08 16.08 0 0 1 38.9.64c-1.74 6.16-7.19 11.4-13.3 11.78-1.34.08-2.86-.1-3.8-1.17" fill="#008d36"/><path d="M18.5 9.68a2.99 2.99 0 0 1-2.26 1.3c-.88.08-1.71-.16-2.47-.49a10.47 10.47 0 0 1-6.3-9.26c4.58-.39 9.37 1.84 10.99 5.7.35.84.57 1.87.05 2.75" fill="#e5007e"/></svg>