<?xml version="1.0" encoding="UTF-8" standalone="no"?>
<svg
   xmlns:dc="http://purl.org/dc/elements/1.1/"
   xmlns:cc="http://creativecommons.org/ns#"
   xmlns:rdf="http://www.w3.org/1999/02/22-rdf-syntax-ns#"
   xmlns:svg="http://www.w3.org/2000/svg"
   xmlns="http://www.w3.org/2000/svg"
   id="svg1880"
   version="1.1"
   viewBox="0 0 38.914404 67.287665"
   height="254.31558"
   width="147.07806">
  <defs
     id="defs1874" />
  <metadata
     id="metadata1877">
    <rdf:RDF>
      <cc:Work
         rdf:about="">
        <dc:format>image/svg+xml</dc:format>
        <dc:type
           rdf:resource="http://purl.org/dc/dcmitype/StillImage" />
        <dc:title></dc:title>
      </cc:Work>
    </rdf:RDF>
  </metadata>
  <g
     transform="translate(-88.127538,-61.369644)"
     id="layer1">
    <g
       transform="matrix(1.0960467,0,0,1.0960467,-43.21302,-70.600486)"
       id="g1926">
      <g
         id="g4016"
         transform="matrix(0.35277777,0,0,-0.35277777,119.83117,181.79681)">
        <path
           d="m 0,0 c 2.333,0.445 40.532,-0.696 39.786,1.123 -9.927,24.225 -7.121,43.738 -14.229,69.318 -8.217,29.568 8.222,53.083 25.121,69.181 1.164,1.109 0,2.401 -1.615,2.206 C 34.734,140.077 3.279,104.197 11.333,71.719 16.849,49.495 10.282,17.458 0,0"
           style="fill:#dab27d;fill-opacity:1;fill-rule:nonzero;stroke:none"
           id="path4018" />
      </g>
      <g
         id="g4020"
         transform="matrix(0.35277777,0,0,-0.35277777,138.53407,145.44343)">
        <path
           d="M 0,0 C 1.574,1.674 4.12,2.219 6.294,1.801 8.463,1.378 10.323,0.146 11.965,-1.232 19.955,-7.99 23.707,-19.127 21.56,-29.728 10.237,-27.513 -0.004,-18.354 -1.56,-7.194 -1.901,-4.738 -1.801,-1.914 0,0"
           style="fill:#ef8000;fill-opacity:1;fill-rule:nonzero;stroke:none"
           id="path4022" />
      </g>
      <g
         id="g4024"
         transform="matrix(0.35277777,0,0,-0.35277777,139.72438,130.66918)">
        <path
           d="M 0,0 C -2.142,2.438 -2.583,6.131 -1.732,9.187 -0.869,12.238 1.091,14.753 3.22,16.94 13.67,27.586 29.709,31.696 44.252,27.436 39.736,11.52 25.652,-2.068 9.859,-3.037 6.389,-3.246 2.451,-2.787 0,0"
           style="fill:#008d36;fill-opacity:1;fill-rule:nonzero;stroke:none"
           id="path4026" />
      </g>
      <g
         id="g4028"
         transform="matrix(0.35277777,0,0,-0.35277777,136.71836,129.2367)">
        <path
           d="m 0,0 c -1.183,-1.987 -3.602,-3.183 -5.871,-3.388 -2.274,-0.195 -4.42,0.45 -6.385,1.292 -9.586,4.129 -15.966,13.488 -16.311,23.951 C -16.717,22.86 -4.32,17.104 -0.132,7.126 0.787,4.935 1.351,2.274 0,0"
           style="fill:#e5007e;fill-opacity:1;fill-rule:nonzero;stroke:none"
           id="path4030" />
      </g>
    </g>
  </g>
</svg>
