<?xml version="1.0" encoding="UTF-8" standalone="no"?>
<!-- Created with Inkscape (http://www.inkscape.org/) -->

<svg
   xmlns:dc="http://purl.org/dc/elements/1.1/"
   xmlns:cc="http://creativecommons.org/ns#"
   xmlns:rdf="http://www.w3.org/1999/02/22-rdf-syntax-ns#"
   xmlns:svg="http://www.w3.org/2000/svg"
   xmlns="http://www.w3.org/2000/svg"
   xmlns:sodipodi="http://sodipodi.sourceforge.net/DTD/sodipodi-0.dtd"
   xmlns:inkscape="http://www.inkscape.org/namespaces/inkscape"
   width="247.86331mm"
   height="314.93369mm"
   viewBox="0 0 247.86331 314.93369"
   version="1.1"
   id="svg5484"
   inkscape:version="0.92.4 (f8dce91, 2019-08-02)"
   sodipodi:docname="word treeLessLettersPlain.svg">
  <defs
     id="defs5478" />
  <sodipodi:namedview
     id="base"
     pagecolor="#ffffff"
     bordercolor="#666666"
     borderopacity="1.0"
     inkscape:pageopacity="0.0"
     inkscape:pageshadow="2"
     inkscape:zoom="0.35"
     inkscape:cx="-185.88261"
     inkscape:cy="558.00743"
     inkscape:document-units="mm"
     inkscape:current-layer="layer1"
     showgrid="false"
     fit-margin-top="0"
     fit-margin-left="0"
     fit-margin-right="0"
     fit-margin-bottom="0"
     inkscape:window-width="3138"
     inkscape:window-height="1723"
     inkscape:window-x="62"
     inkscape:window-y="38"
     inkscape:window-maximized="1" />
  <metadata
     id="metadata5481">
    <rdf:RDF>
      <cc:Work
         rdf:about="">
        <dc:format>image/svg+xml</dc:format>
        <dc:type
           rdf:resource="http://purl.org/dc/dcmitype/StillImage" />
        <dc:title></dc:title>
      </cc:Work>
    </rdf:RDF>
  </metadata>
  <g
     inkscape:label="Layer 1"
     inkscape:groupmode="layer"
     id="layer1"
     transform="translate(15.830465,18.460891)">
    <g
       transform="matrix(0.35277777,0,0,-0.35277777,118.11409,161.867)"
       id="g1222">
      <path
         inkscape:connector-curvature="0"
         id="path1224"
         style="fill:#0068b2;fill-opacity:1;fill-rule:nonzero;stroke:none"
         d="m 0,0 c -10.326,-0.833 -21.209,4.743 -28.146,12.309 -6.919,7.593 -10.493,16.87 -12.886,25.991 -11.503,44.567 4.419,90.977 40.78,118.707 C 35.777,117.399 49.184,58.696 25.056,18.528 19.745,9.702 11.812,0.956 0,0" />
    </g>
    <g
       transform="matrix(0.35277777,0,0,-0.35277777,89.291046,132.15066)"
       id="g1226">
      <path
         inkscape:connector-curvature="0"
         id="path1228"
         style="fill:#e20613;fill-opacity:1;fill-rule:nonzero;stroke:none"
         d="M 0,0 C -7.852,-4.843 -19.496,-4.717 -29.018,-1.387 -38.534,1.977 -46.243,8.059 -52.926,14.489 -85.421,45.98 -96.87,90.039 -82.156,127.208 -32.566,109.64 8.833,67.453 10.438,25.142 10.782,15.838 8.98,5.547 0,0" />
    </g>
    <g
       transform="matrix(0.35277777,0,0,-0.35277777,102.79721,24.367741)"
       id="g1230">
      <path
         inkscape:connector-curvature="0"
         id="path1232"
         style="fill:#e5007e;fill-opacity:1;fill-rule:nonzero;stroke:none"
         d="M 0,0 C -5.285,-5.749 -13.18,-6.814 -19.66,-4.39 -26.135,-1.934 -31.409,3.482 -35.995,9.362 -58.275,38.167 -66.399,81.964 -56.736,121.404 -22.979,108.563 5.433,69.751 6.868,26.729 7.18,17.273 6.044,6.578 0,0" />
    </g>
    <g
       transform="matrix(0.35277777,0,0,-0.35277777,146.57262,38.426827)"
       id="g1234">
      <path
         inkscape:connector-curvature="0"
         id="path1236"
         style="fill:#ef8000;fill-opacity:1;fill-rule:nonzero;stroke:none"
         d="m 0,0 c -8.075,2.533 -13.791,9.942 -15.696,17.624 -1.878,7.687 -0.53,15.593 1.633,23.028 10.71,36.274 42.709,65.554 81.887,74.868 C 77.586,75.43 62.168,28.183 26.746,5.995 18.956,1.125 9.237,-2.894 0,0" />
    </g>
    <g
       transform="matrix(0.35277777,0,0,-0.35277777,181.08493,71.38158)"
       id="g1238">
      <path
         inkscape:connector-curvature="0"
         id="path1240"
         style="fill:#e5007e;fill-opacity:1;fill-rule:nonzero;stroke:none"
         d="m 0,0 c -8.867,1.615 -15.871,8.609 -18.88,16.356 -2.98,7.758 -2.582,16.156 -1.261,24.16 6.618,39.068 36.645,73.546 76.855,88.161 C 72.235,88.205 62.069,37.125 27.5,9.598 19.889,3.549 10.144,-1.852 0,0" />
    </g>
    <g
       transform="matrix(0.35277777,0,0,-0.35277777,202.54269,132.47279)"
       id="g1242">
      <path
         inkscape:connector-curvature="0"
         id="path1244"
         style="fill:#e5007e;fill-opacity:1;fill-rule:nonzero;stroke:none"
         d="m 0,0 c -8.381,3.041 -13.823,11.061 -15.188,19.168 -1.333,8.118 0.791,16.303 3.739,23.957 14.561,37.321 51.178,66.29 93.72,74.07 C 89.183,74.872 68.66,26.326 29.007,4.93 20.282,0.229 9.587,-3.479 0,0" />
    </g>
    <g
       transform="matrix(0.35277777,0,0,-0.35277777,160.82983,160.92338)"
       id="g1246">
      <path
         inkscape:connector-curvature="0"
         id="path1248"
         style="fill:#81358a;fill-opacity:1;fill-rule:nonzero;stroke:none"
         d="m 0,0 c -7.813,4.739 -12.481,14.495 -13.234,23.668 -0.727,9.183 1.861,17.874 5.203,25.84 C 8.44,88.314 45.456,114.264 86.697,115.842 90.443,67.972 67.508,17.755 28.1,0.661 19.431,-3.09 8.942,-5.421 0,0" />
    </g>
    <g
       transform="matrix(0.35277777,0,0,-0.35277777,143.23813,93.570388)"
       id="g1250">
      <path
         inkscape:connector-curvature="0"
         id="path1252"
         style="fill:#ffec00;fill-opacity:1;fill-rule:nonzero;stroke:none"
         d="m 0,0 c -8.988,2.021 -16.11,9.505 -19.187,17.61 -3.041,8.122 -2.659,16.761 -1.344,24.964 6.602,40.031 36.94,74.396 77.659,87.879 C 72.972,88.109 62.811,35.839 27.846,8.811 20.155,2.875 10.287,-2.307 0,0" />
    </g>
    <g
       transform="matrix(0.35277777,0,0,-0.35277777,88.458686,173.35398)"
       id="g1254">
      <path
         inkscape:connector-curvature="0"
         id="path1256"
         style="fill:#009ee2;fill-opacity:1;fill-rule:nonzero;stroke:none"
         d="m 0,0 c -6.394,-5.219 -16.974,-6.251 -26.107,-4.133 -9.134,2.152 -17.04,6.967 -24.067,12.208 -34.204,25.682 -51.205,64.969 -43.452,100.506 C -46.014,97.361 -2.124,62.742 5.688,24.094 7.397,15.593 7.311,5.974 0,0" />
    </g>
    <g
       transform="matrix(0.35277777,0,0,-0.35277777,44.32873,156.81787)"
       id="g1258">
      <path
         inkscape:connector-curvature="0"
         id="path1260"
         style="fill:#81358a;fill-opacity:1;fill-rule:nonzero;stroke:none"
         d="m 0,0 c -2.725,-7.572 -11.225,-13.125 -20.156,-15.155 -8.944,-2.01 -18.236,-1.032 -27.004,0.715 -42.77,8.669 -77.989,37.31 -90.067,73.294 C -90.596,69.288 -34.838,56.638 -7.812,24.579 -1.878,17.525 3.112,8.665 0,0" />
    </g>
    <g
       transform="matrix(0.35277777,0,0,-0.35277777,33.738887,86.947918)"
       id="g1262">
      <path
         inkscape:connector-curvature="0"
         id="path1264"
         style="fill:#ffec00;fill-opacity:1;fill-rule:nonzero;stroke:none"
         d="m 0,0 c -5.574,-6.982 -16.396,-10.405 -26.376,-10.127 -9.979,0.306 -19.244,3.734 -27.68,7.813 -41.099,20.031 -67.12,58.39 -66.513,98.152 C -68.523,94.222 -15.435,66.738 0.862,27.047 4.433,18.317 6.371,7.993 0,0" />
    </g>
    <g
       transform="matrix(0.35277777,0,0,-0.35277777,57.541386,126.27125)"
       id="g1266">
      <path
         inkscape:connector-curvature="0"
         id="path1268"
         style="fill:#ffec00;fill-opacity:1;fill-rule:nonzero;stroke:none"
         d="m 0,0 c -3.657,-5.71 -11.143,-8.266 -18.164,-7.736 -7.031,0.551 -13.671,3.713 -19.753,7.392 -29.629,18.067 -49.338,51.102 -50.381,84.52 C -51.647,81.271 -13.315,56.584 -0.393,22.718 2.44,15.271 4.187,6.535 0,0" />
    </g>
    <g
       transform="matrix(0.35277777,0,0,-0.35277777,26.730895,128.38622)"
       id="g1270">
      <path
         inkscape:connector-curvature="0"
         id="path1272"
         style="fill:#ef8000;fill-opacity:1;fill-rule:nonzero;stroke:none"
         d="m 0,0 c -5.525,-6.824 -16.303,-10.133 -26.256,-9.827 -9.958,0.333 -19.206,3.723 -27.636,7.747 -41.072,19.775 -67.185,57.446 -66.749,96.394 C -68.736,92.546 -15.681,65.434 0.742,26.49 4.346,17.93 6.322,7.808 0,0" />
    </g>
    <g
       transform="matrix(0.35277777,0,0,-0.35277777,39.455316,60.571208)"
       id="g1274">
      <path
         inkscape:connector-curvature="0"
         id="path1276"
         style="fill:#81358a;fill-opacity:1;fill-rule:nonzero;stroke:none"
         d="M 0,0 C -6.098,-5.525 -15.631,-6.727 -23.635,-4.619 -31.633,-2.484 -38.337,2.451 -44.228,7.84 -72.88,34.259 -85.153,75.085 -75.582,112.292 -33.877,101.133 2.769,65.498 6.874,25.223 7.77,16.367 6.978,6.322 0,0" />
    </g>
    <g
       transform="matrix(0.35277777,0,0,-0.35277777,70.832889,80.535185)"
       id="g1278">
      <path
         inkscape:connector-curvature="0"
         id="path1280"
         style="fill:#e5007e;fill-opacity:1;fill-rule:nonzero;stroke:none"
         d="M 0,0 C -5.722,-4.384 -13.988,-4.564 -20.648,-1.917 -27.31,0.753 -32.605,5.819 -37.164,11.214 -59.313,37.633 -66.148,75.451 -54.607,107.952 -19.9,93.997 8.26,58.543 8.15,22.002 8.123,13.966 6.54,5.018 0,0" />
    </g>
    <g
       transform="matrix(0.35277777,0,0,-0.35277777,96.247706,89.031828)"
       id="g1282">
      <path
         inkscape:connector-curvature="0"
         id="path1284"
         style="fill:#008d36;fill-opacity:1;fill-rule:nonzero;stroke:none"
         d="m 0,0 c -7.24,-3.335 -16.015,-1.852 -22.324,2.198 -6.295,4.079 -10.5,10.327 -13.834,16.768 -16.151,31.505 -13.013,71.579 8.072,102.513 C 4.724,100.203 24.747,58.249 14.63,20.869 12.399,12.651 8.278,3.816 0,0" />
    </g>
    <g
       transform="matrix(0.35277777,0,0,-0.35277777,74.635586,43.521775)"
       id="g1286">
      <path
         inkscape:connector-curvature="0"
         id="path1288"
         style="fill:#009ee2;fill-opacity:1;fill-rule:nonzero;stroke:none"
         d="M 0,0 C -6.213,-3.74 -14.37,-3.14 -20.572,0.071 -26.763,3.309 -31.3,8.752 -35.057,14.451 -53.313,42.334 -54.973,79.901 -39.26,110.546 -6.988,93.648 15.969,56.381 10.968,20.714 9.865,12.868 7.108,4.28 0,0" />
    </g>
    <g
       transform="matrix(0.35277777,0,0,-0.35277777,122.08456,93.517018)"
       id="g1290">
      <path
         inkscape:connector-curvature="0"
         id="path1292"
         style="fill:#81358a;fill-opacity:1;fill-rule:nonzero;stroke:none"
         d="m 0,0 c -7.592,-2.17 -15.422,0.645 -20.309,5.62 -4.87,4.996 -7.245,11.819 -8.754,18.691 -7.253,33.592 5.645,72.659 33.044,99.935 C 29.344,98.17 37.617,53.664 18.862,18.336 14.734,10.57 8.684,2.484 0,0" />
    </g>
    <g
       transform="matrix(0.35277777,0,0,-0.35277777,122.37431,41.582194)"
       id="g1294">
      <path
         inkscape:connector-curvature="0"
         id="path1296"
         style="fill:#ffec00;fill-opacity:1;fill-rule:nonzero;stroke:none"
         d="m 0,0 c -9.112,-3.123 -18.573,-0.147 -24.514,5.65 -5.918,5.826 -8.855,14.037 -10.76,22.358 -9.129,40.707 5.934,89.351 38.577,124.424 C 34.145,122.038 44.632,68.021 22.482,23.607 17.607,13.846 10.422,3.576 0,0" />
    </g>
    <g
       transform="matrix(0.35277777,0,0,-0.35277777,183.19297,106.31071)"
       id="g1298">
      <path
         inkscape:connector-curvature="0"
         id="path1300"
         style="fill:#ef8000;fill-opacity:1;fill-rule:nonzero;stroke:none"
         d="m 0,0 c -8.654,2.522 -13.966,9.986 -14.981,17.733 -0.989,7.758 1.66,15.756 5.148,23.275 C 7.364,77.69 47.317,107.396 92.408,116.972 97.519,76.517 73.485,28.729 30.731,6.17 21.324,1.213 9.897,-2.882 0,0" />
    </g>
    <g
       transform="matrix(0.35277777,0,0,-0.35277777,191.10914,161.23035)"
       id="g1302">
      <path
         inkscape:connector-curvature="0"
         id="path1304"
         style="fill:#0068b2;fill-opacity:1;fill-rule:nonzero;stroke:none"
         d="m 0,0 c -6,4.171 -8.047,11.307 -6.693,17.559 1.381,6.255 5.645,11.759 10.427,16.678 23.46,23.956 62.617,36.678 100.173,32.512 C 96.668,34.149 64.844,3.357 25.496,-3.117 16.843,-4.537 6.863,-4.771 0,0" />
    </g>
    <g
       transform="matrix(0.35277777,0,0,-0.35277777,127.32593,228.92233)"
       id="g1306">
      <path
         inkscape:connector-curvature="0"
         id="path1308"
         style="fill:#bc8027;fill-opacity:1;fill-rule:nonzero;stroke:none"
         d="m 0,0 c 0.35,-68.752 11.171,-128.032 53.384,-184.386 1.769,-2.364 -0.322,-5.454 -3.488,-5.11 -65.106,7.13 -138.156,5.726 -203.196,-1.955 -3.096,-0.365 -5.229,2.604 -3.592,4.973 37.6,54.416 63.921,116.552 62.605,180.309 -1.151,56.043 -26.331,113.193 -72.568,150.198 -3.189,2.556 0.114,7.093 3.991,5.46 32.489,-13.687 67,-30.977 88.848,-53.466 2.506,-2.582 7.212,-0.605 6.476,2.747 -6.988,31.868 -16.657,63.473 -30.612,93.402 -1.589,3.407 3.363,6.197 6.126,3.445 30.884,-30.737 68.785,-63.418 92.96,-58.062 21.379,4.716 46.123,34.853 61.212,59.209 2.119,3.418 5.733,-6.71 4.521,-10.46 C 46.543,124.021 -0.306,54.307 0,0" />
    </g>
    <g
       transform="matrix(0.35277777,0,0,-0.35277777,145.39234,133.54901)"
       id="g1310">
      <path
         inkscape:connector-curvature="0"
         id="path1312"
         style="fill:#008d36;fill-opacity:1;fill-rule:nonzero;stroke:none"
         d="m 0,0 c -7.638,2.025 -13.37,8.691 -15.576,15.762 -2.184,7.081 -1.381,14.507 0.202,21.521 7.867,34.233 35.886,62.835 71.717,73.137 C 67.693,73.486 56.086,28.832 24.48,6.693 17.525,1.835 8.741,-2.314 0,0" />
    </g>
    <g
       transform="matrix(0.35277777,0,0,-0.35277777,157.98072,119.02315)"
       id="g1314">
      <path
         style="fill:#ffffff;fill-opacity:1;fill-rule:nonzero;stroke:none"
         d="m 0,0 c 0.70098941,-0.10137093 -0.36880099,-0.49722844 0,0 z m -6.515,-8.397 c -4.196484,-0.7840147 1.3883411,-4.716677 0,0 z m -1.664,-3.983 c -0.516861,0.53117 -0.231067,-0.601558 0,0 z m -2.1,5.715 c 0.5873238,0.9060156 -1.151819,0.1517149 0,0 z m -0.363,-3.978 c -0.521815,-0.137628 0.400828,-0.762637 0,0 z m -0.075,40.538 c -0.252112,0.541899 -0.198099,-0.709228 0,0 z m -3.62,-13.175 c 0.982243,-1.024398 -0.908775,-0.683419 0,0 z m -3.332,14.842 c -0.470744,-0.932175 0.763689,-0.517725 0,0 z m 0.875,-7.676 c -5.921224,-0.329225 -3.415403,14.557544 3.401,8.978 3.4887572,-0.542742 4.1461637,-1.079746 4.921,-5.139 -0.3197016,-3.265129 -5.731611,-4.907805 -8.322,-3.839 z m 6.44,-37.21 c -5.322705,2.596823 -11.812628,3.5093551 -11.037,13.324 0.523915,5.2040577 -1.363691,16.906327 3.221,18.532 2.098055,-2.28551 5.641473,-2.927078 6.334,-5.651 -4.826629,-2.591901 0.527104,-4.7522031 -2.207,-7.741 -0.844594,-4.56055912 0.779786,-2.0267279 0.725,-6.371 -0.975505,-6.8623528 5.4704776,-2.6684282 10.055,-2.464 0.1613988,-1.261479 2.361254,4.2865599 3.263,1.957 -1.0572067,-4.7259009 -1.9844991,-5.419708 0.288,-5.615 -3.6759839,-7.403184 -3.9161598,2.8369064 -5.972,-4.702 -0.1467899,-2.122976 -3.3398722,-1.610446 -4.67,-1.269 z"
         id="path1316"
         inkscape:connector-curvature="0" />
    </g>
    <g
       transform="matrix(0.35277777,0,0,-0.35277777,77.271101,115.37131)"
       id="g1318">
      <path
         style="fill:#ffffff;fill-opacity:1;fill-rule:nonzero;stroke:none"
         d="m 0,0 c 2.0917661,-0.537002 -0.22558539,2.3434394 0,0 z m -2.399,23.827 c -0.9337266,-0.968147 0.9317075,-0.722351 0,0 z m -1.061,0.362 c -0.3697133,0.540974 -0.3924041,-0.473091 0,0 z M -4.183,3.486 c 1.9482436,-2.63220742 1.9593787,2.606118 0,0 z m -1.37,-4.041 c 1.0226341,-0.27380401 -0.07391,0.96572666 0,0 z m 0.288,-1.04 c -1.1901983,-0.951127 1.1958092,-0.7116527 0,0 z m -3.538,0.251 c 2.4031204,1.2011188 -0.6390842,1.77032127 0,0 z m -1.57,19.056 c 1.1009923,-0.270974 -0.111555,1.128595 0,0 z M -12.052,-1.12 c -1.113528,-0.7593609 0.994149,-0.906702 0,0 z m -0.77,-0.592 c -0.343195,0.5286124 -0.419432,-0.4708717 0,0 z m -4.029,4.639 c 2.693035,-6.8853301 11.6120249,-1.5538133 13.951,2.287 3.8880233,5.969176 0.9372976,19.351871 -8.163,9.89 -4.201533,-1.807626 -1.008848,-8.6291138 -6.966,-9.34 0.05481,-1.6192681 4.773526,-1.7110381 1.178,-2.837 z M 10.093,-9.267 C 2.5179731,-10.295572 2.8292218,6.0338761 -2.581,-4.756 1.2279852,-5.8341762 -5.2350342,-7.6274913 -7.307,-7.47 c -5.373519,-3.722871 -11.769435,1.0587958 -12.199,5.103 -1.075279,-4.5826462 -4.456465,7.3342501 -2.794,9.304 1.184726,4.164512 1.302746,1.6553867 0.27,4.877 4.772737,-0.254135 0.121777,4.884805 4.486,6.111 3.465561,0.996193 4.046976,4.148835 5.084,6.243 5.5683962,-1.977764 13.6005342,3.554441 15.846,-6.371 1.654913,-2.547725 5.0094924,-8.7232607 0.789,-7.416 3.9749757,-0.300999 2.9805254,-5.0863293 3.548,-7.87 2.2267963,-4.0632758 3.560221,-8.6304693 8.981,-10.642 -0.683221,-2.867725 -4.837333,-5.404676 -6.611,-1.136 z"
         id="path1320"
         inkscape:connector-curvature="0" />
    </g>
    <g
       transform="matrix(0.35277777,0,0,-0.35277777,177.5134,148.88659)"
       id="g1322">
      <path
         style="fill:#ffffff;fill-opacity:1;fill-rule:nonzero;stroke:none"
         d="m 0,0 c -1.7754225,-0.69031696 0.79904838,-0.03990951 0,0 z m -1.951,3.982 c -0.9185353,-0.3848394 0.6944879,-1.1242453 0,0 z M -2.82,4.201 c -0.7858643,-0.6485359 0.7842287,-0.6536217 0,0 z M -3.113,0.362 c 0.3003892,0.45322169 -0.8913028,0.19132415 0,0 z m -0.576,2.533 c 1.3340654,-1.2644369 1.2659154,1.7527289 0,0 z m -1.088,23.096 c -0.7759068,-0.764155 0.7837281,-0.738629 0,0 z m -0.287,0.288 c -0.7927125,-0.827814 0.7821761,-0.863869 0,0 z M -4.921,4.201 c -1.6483539,-0.2521918 -0.030182,-1.0111594 0,0 z m -0.432,17.808 c 0.3291446,1.067206 -2.2195242,-0.137253 0,0 z m -1.162,5.064 c -0.7832148,-0.755823 0.7894307,-0.734674 0,0 z m -0.288,-1.082 c -0.5118231,-0.800677 0.5152564,-0.706805 0,0 z m -0.214,-7.096 c -0.7365586,-0.436433 0.6087834,-0.882148 0,0 z m -0.949,4.052 c 0.414477,-4.061015 2.3264467,-1.067331 0,0 z m -0.213,1.018 c -0.7710606,-0.660412 0.7710606,-0.660412 0,0 z m -0.288,-4.489 c 0.5314113,-0.395647 0.2996468,0.955176 0,0 z m 0.288,-1.668 c -0.4290535,0.525374 -0.2994461,-0.53559 0,0 z m -1.157,0.799 c 1.0265828,-0.196201 -0.1329566,0.939933 0,0 z m 0.357,3.402 c -0.4652007,0.517724 -0.454946,-0.520928 0,0 z m -0.357,-1.088 c -0.68821,-1.107215 0.9143803,-0.385075 0,0 z m 0,-3.401 c 1.2713877,0.382884 -0.95527,0.541297 0,0 z M -10.204,0.362 c -0.708137,-1.18519866 0.9148954,-0.50582768 0,0 z m -0.507,29.537 c 1.3027582,-0.327941 -0.07866,1.075551 0,0 z m 0.507,-7.602 c -1.831816,-0.466187 1.2892998,-0.988223 0,0 z m -2.245,0.436 c 1.426632,-0.890131 2.6078085,1.438813 0,0 z m 0.069,-7.24 c 0.740889,1.203617 -1.192354,0.200928 0,0 z m -0.432,2.315 c -0.151857,-3.238507 2.049593,0.914333 0,0 z M -13.03,3.476 c -0.203123,-2.4497824 2.331294,-0.9060467 0,0 z M -13.825,0 c 1.068946,-0.44723543 -0.592569,1.5598742 0,0 z m 0,4.852 c 1.828505,-2.8936657 2.13698,2.3526938 0,0 z m -0.581,13.173 c 0.947117,-0.132043 -0.200343,1.039422 0,0 z m -0.074,13.032 c -0.09175,-2.002095 1.570019,0.01839 0,0 z m -1.227,-9.774 c 0.661335,-5.372212 3.421548,-0.285277 0,0 z m 0.214,-4.052 c 0.39702,0.532549 -0.956148,0.301187 0,0 z m -0.576,1.952 c 0.888901,-0.147854 -0.152068,0.895399 0,0 z M -16.938,4.776 c 1.678989,0.1434295 -0.400619,0.7462235 0,0 z m -0.87,0.294 c -0.738068,0.5573484 -0.603832,-0.5654317 0,0 z m -1.088,23.96 c 4.256711,-3.73914 1.132839,1.108791 0,0 z m 0,-27.874 c -0.334026,0.5718469 -0.279907,-0.71170868 0,0 z m 0,13.249 c -0.340808,0.558081 -0.273536,-0.707576 0,0 z m -0.287,-8.178 c -0.784688,-0.768223 0.792378,-0.7412289 0,0 z m -0.795,7.096 c 0.912607,0.433547 -1.247667,0.2743 0,0 z m -0.869,13.75 c 0.75435,2.554891 -0.336566,3.153366 0,0 z m 0.214,4.346 c -1.777371,-0.373029 0.592457,-0.899657 0,0 z m -0.576,-4.633 c -0.640016,-0.702045 0.893041,-0.401144 0,0 z m 0,3.113 c -0.696805,-1.122235 0.919446,-0.386833 0,0 z M -21.428,4.201 c 0.331414,-3.183199 1.133526,2.3183238 0,0 z m -0.581,-0.144 c -1.996616,-0.097067 0.451925,-1.5593028 0,0 z m -1.376,25.842 c 1.450398,-4.101362 2.034166,3.399465 0,0 z M -23.96,3.982 c 1.462381,-0.5105768 -0.205389,0.8127977 0,0 z m 0,22.009 c -0.779375,-0.76402 0.787206,-0.738483 0,0 z m -0.288,3.62 c -0.786261,-0.736004 0.776869,-0.766642 0,0 z m -0.288,0.288 c -0.808608,-0.727246 0.793163,-0.781324 0,0 z m -0.293,-20.27 c 0.894498,-0.1522276 -0.14717,0.886701 0,0 z m 0,-6.734 c -0.798976,-0.8464285 0.798976,-0.8464285 0,0 z m -0.288,-1.227 c -0.219314,0.4345742 -0.399607,-0.3230838 0,0 z m -0.794,3.765 c 1.220167,-0.3839351 -0.02587,0.922753 0,0 z m 0.213,22.803 c -0.353808,0.577559 -0.204266,-0.595221 0,0 z M -25.911,2.025 c -0.493595,-0.1029745 0.377882,-0.77666 0,0 z m 0,14.337 c -0.302208,0.525168 -0.442302,-0.509528 0,0 z m -0.294,10.136 c 1.302739,0.02687 -0.550868,2.079639 0,0 z m 0,-23.966 c -0.796435,-0.6546247 0.796435,-0.6546247 0,0 z m 0.294,1.162 c 3.02367,-2.0124425 -1.77826,3.4470237 0,0 z m -1.163,20.271 c 0.793885,-0.777032 -0.222046,1.005462 0,0 z m 0,4.558 c 1.073297,0.562428 0.625664,0.319374 0,0 z m 0,-13.249 c -0.784676,-0.861238 0.793713,-0.830317 0,0 z m -0.575,-3.401 c -0.624285,-0.918367 0.71544,-0.599794 0,0 z M -28.3,30.624 c 1.013284,-2.938585 2.555086,0.09672 0,0 z m -0.149,-4.126 c -0.711912,-0.493918 0.611186,-0.819658 0,0 z m -0.864,0.869 c 1.727522,-1.55857 1.917384,1.164159 0,0 z M -29.1,13.536 c -0.324495,0.573963 -0.234641,-0.582389 0,0 z m 0.8,1.669 c 0.72876,-1.653702 -0.0081,3.801138 3.764,2.603 2.495258,3.513777 7.039313,-0.804203 8.648,3.982 3.073239,-0.760591 6.0378521,2.502229 6.552,4.201 4.0056195,0.0018 -5.716836,6.948374 -8.472,1.376 -2.079617,1.38809 -3.460968,-2.216137 -5.171,-2.682 -2.173219,-4.994199 -6.439616,-3.031374 -5.251,-6.947 -0.799419,-0.711897 -2.82439,-3.907586 -0.07,-2.533 z m -1.887,8.542 c -0.537703,-0.864498 0.544446,-0.842599 0,0 z m -0.213,1.082 c -2.712634,-2.327048 1.934787,-0.504083 0,0 z m -1.233,-6.804 c -0.342949,0.575902 -0.230084,-0.58614 0,0 z m 0,4.853 c -1.445227,-1.311155 1.316803,-0.27968 0,0 z m -0.218,-1.45 c -0.712774,-0.47764 0.608122,-0.843403 0,0 z m -2.533,2.537 c -0.725836,-0.474859 0.612351,-0.8555 0,0 z m 19.477,-24.472 c -1.516966,-1.7061103 -5.393838,0.39905273 -6.809,1.52 -1.674752,0.8489329 -5.527015,0.5227181 -7.021,3.839 -4.958866,3.1055746 -6.950528,9.733237 -6.516,15.331608 0.181291,6.622252 1.725302,4.006324 5.647,5.226392 -0.882342,2.353554 1.132455,7.393769 3.113,4.271 4.502614,1.382714 4.358969,2.237515 4.597,3.62 1.271129,-1.828019 5.493402,-4.604248 4.451,-1.957 1.506328,1.909548 4.495433,-0.723859 5.065,0.925608 0.17263,4.185434 1.405735,-4.334671 1.957,1.250392 0.6343887,-2.847196 5.3824159,-1.188772 4.195,-3.583 -2.034718,2.225562 -3.3347721,-0.426749 -1.444,-2.283 1.06777,1.618049 3.3878409,-1.35556 5.795,-2.463 -2.7067388,-0.411782 -3.1096109,-1.774917 -1.236,-4.27 -1.7035305,-1.981439 -3.8577076,-5.092091 -7.742,-3.983 -0.913641,-2.433265 -3.409582,-3.593782 -3.983,-0.576 -1.751861,-1.394227 -0.214039,-8.0537399 -2.751,-2.895 0.90631,-4.3427701 -6.268726,-0.286198 -6.19,-1.668 -2.369223,-2.4411959 8.640373,-4.0593844 11.581,-5.428 C -8.1580713,6.349666 -6.5346914,4.614131 -3.689,5.502 -1.0590701,4.703202 4.7195029,7.755495 2.538,1.668 3.4236386,-0.52269367 1.5494938,0.0353605 1.45,-0.507 c -2.8801093,-1.906064 -6.246496,0.24071239 -7.272,0.112 -2.2688768,-1.9673781 -3.7683847,1.14510158 -5.47,0.395 -2.165827,1.1050064 -1.411746,-4.0269457 -3.615,-0.507 z"
         id="path1324"
         inkscape:connector-curvature="0" />
    </g>
    <g
       transform="matrix(0.35277777,0,0,-0.35277777,82.930697,162.21463)"
       id="g1326">
      <path
         style="fill:#ffffff;fill-opacity:1;fill-rule:nonzero;stroke:none"
         d="m 0,0 c -0.08529967,-2.4317158 1.93088,0.82362788 0,0 z m -1.085,-2.026 c -0.7948335,-0.7387492 0.79017341,-0.7547087 0,0 z m -4.996,14.044 c 0.80001,-0.331648 -0.332981,0.804562 0,0 z m -0.578,6.446 c 0.1327139,-1.677182 0.7400243,0.392272 0,0 z M -7.24,1.524 c -1.3636809,-0.83143946 0.8900778,-0.9673587 0,0 z M -7.819,-1.52 c 0.5881766,-0.3993586 0.2650375,1.13665138 0,0 z m 0,15.857 c 2.0668319,0.717571 -0.7176151,1.947865 0,0 z M -7.24,8.472 c -1.2110568,-4.8487037 1.1267564,3.278523 0,0 z m -0.867,7.384 c -0.6216595,-0.935983 0.7231662,-0.582102 0,0 z m -0.869,4.345 c 0.5314113,-0.395647 0.2996468,0.955176 0,0 z m 0,2.389 c 0.7435288,-2.185535 -0.063486,1.252656 0,0 z m 0,-28.161 c -0.7953089,-0.749125 0.7922273,-0.7599318 0,0 z m 0,17.157 c -1.628636,-0.686654 0.5294005,-1.443593 0,0 z m -0.582,1.301 c -0.785862,-0.75664 0.7920941,-0.735605 0,0 z m -0.65,-15.489 c 1.3257012,-7.3728861 2.6106781,3.9083103 0,0 z m -0.216,-2.319 c -2.210899,-0.8166798 0.788736,-1.7201703 0,0 z m -1.45,1.088 c 1.603157,0.3520354 -0.763992,1.9704528 0,0 z m -1.52,5.571 c 1.520953,0.8088653 -0.895464,1.0132035 0,0 z m -0.578,-3.47 c -0.570106,-0.3305094 0.561456,-0.4456296 0,0 z m -0.507,2.239 c 0.646064,-1.03779168 0.743888,0.6884091 0,0 z m -0.29,-0.795 c -4.434397,-0.2526612 -1.122324,-2.6755151 0,0 z m -2.46,0.581 c 5.583078,2.4584855 0.953044,9.0991116 0,0 z m -1.375,3.258 c -0.922976,-0.4799673 0.698761,-1.2138743 0,0 z m -0.364,-2.682 c -0.860929,-0.93719566 0.983199,-0.54611114 0,0 z m -4.414,-3.765 c -0.700045,-1.195585 0.913911,-0.495483 0,0 z m -0.219,0.294 c -0.911844,-0.4098041 0.689835,-1.0909956 0,0 z m 0,2.026 c -1.601146,-1.9244349 2.68872,-0.6822011 0,0 z m -0.941,-4.057 c 0.701058,-1.4184799 0.916744,0.7918332 0,0 z m -0.869,-0.288 c 0.93487,0.1337795 -0.660478,1.2677471 0,0 z m -3.11,28.812 c 4.437587,-0.663537 -0.80214,-4.015886 0,0 z m -1.016,-1.301 c 5.051224,-0.974749 1.918655,-6.042246 0,0 z M -30.332,0.507 c -0.514214,-0.13560724 0.49832,-0.26432722 0,0 z m -0.581,9.629 c 1.081486,-3.4089609 1.142704,3.227206 0,0 z m -0.288,9.559 c 0.893525,-0.922742 1.04646,0.06511 0,0 z m -0.362,-7.384 c 1.649514,0.2669 -0.45708,1.29269 0,0 z m 0.869,-7.022 c -3.857112,-1.1066547 1.870588,-0.8489053 0,0 z m -2.317,0.069 c 2.181218,-1.5572566 1.093313,1.8656943 0,0 z m -0.797,4.058 c 1.957715,-5.4918835 2.802338,2.6277 0,0 z m -0.651,14.912 c -0.787522,-0.748553 0.785954,-0.753662 0,0 z M -35.327,8.253 c 1.619508,0.9493907 -0.572917,1.6060986 0,0 z m -0.579,15.713 c 1.021656,-0.800089 0.274079,1.659917 0,0 z m -0.29,-8.691 c -2.522947,-3.700798 2.376331,-0.557346 0,0 z m -0.869,-7.672 c 0.533688,-0.3983939 0.302726,0.9571209 0,0 z m 0,3.545 c 3.305474,-1.4488011 3.447576,1.457677 0,0 z m -0.651,-8.754 c 1.145449,-0.8898256 1.001312,2.9353412 0,0 z m 0,2.239 c -0.02558,0.460785 -0.482412,-0.2728688 0,0 z m -1.088,5.358 c 2.070262,-0.5188488 -0.176063,1.704769 0,0 z m -0.072,2.751 c 1.624429,-2.093275 1.024449,2.031979 0,0 z M -6.659,-7.741 c -0.6914037,4.7825635 3.8400456,-1.7547275 -0.291,3.401 -1.3292305,-3.8600964 -2.8340201,-1.6643191 -4.849,-3.726 -1.222422,3.734012 -4.294481,4.1304284 -7.169,7.49 -1.95401,2.8517885 -1.684972,-3.5773608 -1.156,-3.476 -4.595027,2.0556069 -1.188119,-4.8731068 -5.178,-1.807 -4.143058,0.077123 -8.299448,0.7783527 -10.46,4.27 2.477711,1.87559862 -2.280963,1.53855148 -3.114,3.833 0.749942,5.0132019 0.464939,6.3251002 -0.578,7.172 -2.784138,3.599004 2.343163,16.247776 2.026,15.2 4.819372,5.022902 1.604203,-4.047806 6.734,-3.546 3.49094,-3.370711 2.286467,-7.155402 2.316,-11.367 -2.765005,-2.066593 -1.339906,-6.8226133 -0.253,-9.228 1.505114,1.6437624 3.931065,-1.5166952 5.609,1.919 5.100968,1.4692618 9.76541,6.1188293 8.759,12.012 1.912787,2.534666 -0.441645,13.048857 4.705,9.922 5.1339868,1.323365 1.2345004,-1.932127 3.187,-4.633 1.5272745,-3.620163 0.8480447,7.597512 1.737,-1.167433 1.8860058,-4.869 1.0348614,-7.414071 -0.578,-11.1827835 C -5.9522797,2.8320205 -8.3565363,9.6417698 -8,4.238 -8.630639,2.8874965 -7.0195372,1.2751204 -4.452,1.524 c 3.098175,-0.3797034 9.3621017,2.1082453 7.203,-2.681 1.4584138,-3.6679875 -4.1940651,0.66427855 -4.705,-4.995 -1.6176303,1.5274296 -1.8802742,-5.916989 -4.705,-1.589 z"
         id="path1328"
         inkscape:connector-curvature="0" />
    </g>
  </g>
</svg>
