<svg xmlns="http://www.w3.org/2000/svg" width="936.81" height="1190.3" viewBox="0 0 247.86 314.93"><path d="M133.94 180.33c-3.64.3-7.48-1.68-9.92-4.34-2.45-2.68-3.7-5.96-4.55-9.17a39.87 39.87 0 0 1 14.39-41.88c12.7 13.97 17.44 34.68 8.92 48.85-1.87 3.12-4.67 6.2-8.84 6.54" fill="#0068b2"/><path d="M105.12 150.61c-2.77 1.71-6.88 1.67-10.24.5-3.35-1.2-6.07-3.34-8.43-5.61-11.46-11.1-15.5-26.65-10.31-39.76 17.5 6.2 32.1 21.08 32.66 36 .13 3.28-.51 6.91-3.68 8.87" fill="#e20613"/><path d="M118.63 42.83a6.34 6.34 0 0 1-6.94 1.55c-2.28-.87-4.14-2.78-5.76-4.85C98.07 29.36 95.2 13.9 98.6 0c11.91 4.53 21.93 18.22 22.44 33.4.11 3.34-.29 7.1-2.42 9.43" fill="#e5007e"/><path d="M162.4 56.89c-2.85-.9-4.86-3.51-5.53-6.22-.67-2.71-.2-5.5.57-8.12 3.78-12.8 15.07-23.13 28.89-26.42 3.44 14.15-2 30.82-14.5 38.64-2.74 1.72-6.17 3.14-9.43 2.12" fill="#ef8000"/><path d="M196.92 89.84c-3.13-.57-5.6-3.03-6.67-5.77-1.05-2.73-.9-5.7-.44-8.52 2.33-13.78 12.93-25.95 27.11-31.1 5.48 14.28 1.9 32.3-10.3 42-2.69 2.14-6.13 4.05-9.7 3.4M218.37 150.93c-2.95-1.07-4.87-3.9-5.35-6.76-.48-2.86.27-5.75 1.31-8.45 5.14-13.17 18.06-23.39 33.07-26.13 2.43 14.93-4.8 32.06-18.8 39.6-3.07 1.66-6.84 2.97-10.23 1.74" fill="#e5007e"/><path d="M176.66 179.38c-2.76-1.67-4.4-5.1-4.67-8.35-.25-3.23.66-6.3 1.84-9.11 5.8-13.7 18.87-22.85 33.42-23.4 1.32 16.89-6.77 34.6-20.68 40.63-3.05 1.32-6.76 2.15-9.91.23" fill="#81358a"/><path d="M159.07 112.03c-3.17-.71-5.68-3.35-6.77-6.21-1.07-2.87-.94-5.91-.47-8.8 2.32-14.13 13.03-26.25 27.4-31.01 5.58 14.94 2 33.38-10.34 42.91-2.71 2.1-6.2 3.93-9.82 3.11" fill="#ffec00"/><path d="M104.29 191.81c-2.26 1.85-5.99 2.21-9.21 1.46-3.22-.76-6.01-2.45-8.5-4.3-12.06-9.06-18.06-22.92-15.32-35.46 16.8 3.96 32.28 16.17 35.04 29.8.6 3 .57 6.4-2.01 8.5" fill="#009ee2"/><path d="M60.16 175.28c-.96 2.67-3.96 4.63-7.11 5.35-3.16.7-6.43.36-9.53-.26-15.09-3.06-27.51-13.16-31.77-25.85 16.45-3.68 36.12.78 45.65 12.09 2.1 2.49 3.86 5.61 2.76 8.67" fill="#81358a"/><path d="M49.57 105.4c-1.97 2.47-5.78 3.68-9.3 3.58-3.53-.1-6.8-1.32-9.77-2.75C16 99.16 6.82 85.63 7.04 71.6c18.36.57 37.08 10.27 42.83 24.27 1.26 3.08 1.95 6.72-.3 9.54M73.37 144.73c-1.29 2.02-3.93 2.92-6.4 2.73-2.49-.2-4.83-1.3-6.97-2.6-10.46-6.38-17.41-18.03-17.78-29.82 12.93 1.02 26.45 9.73 31.01 21.68 1 2.62 1.62 5.7.14 8.01" fill="#ffec00"/><path d="M42.56 146.85c-1.95 2.4-5.75 3.57-9.26 3.46-3.51-.11-6.78-1.31-9.75-2.73-14.49-6.98-23.7-20.26-23.55-34 18.31.62 37.03 10.18 42.82 23.92 1.27 3.02 1.97 6.6-.26 9.35" fill="#ef8000"/><path d="M55.29 79.03c-2.16 1.95-5.52 2.38-8.34 1.63-2.82-.75-5.19-2.5-7.27-4.4-10.1-9.31-14.43-23.72-11.06-36.84 14.71 3.93 27.64 16.5 29.1 30.71.3 3.13.03 6.67-2.43 8.9" fill="#81358a"/><path d="M86.66 99c-2.02 1.54-4.93 1.6-7.28.67-2.35-.94-4.22-2.73-5.83-4.63a35.45 35.45 0 0 1-6.15-34.13c12.24 4.93 22.18 17.43 22.14 30.32-.01 2.84-.57 6-2.88 7.77" fill="#e5007e"/><path d="M112.08 107.5c-2.56 1.17-5.65.65-7.88-.78-2.22-1.44-3.7-3.65-4.88-5.92-5.7-11.11-4.59-25.25 2.85-36.16 11.57 7.5 18.64 22.3 15.07 35.5-.79 2.89-2.24 6-5.16 7.35" fill="#008d36"/><path d="M90.47 61.98c-2.2 1.32-5.07 1.11-7.26-.02-2.19-1.14-3.79-3.06-5.11-5.08-6.44-9.83-7.03-23.08-1.48-33.9C88 28.95 96.1 42.1 94.34 54.68c-.4 2.76-1.37 5.8-3.87 7.3" fill="#009ee2"/><path d="M137.92 111.98a7.36 7.36 0 0 1-7.17-1.98c-1.72-1.77-2.56-4.17-3.09-6.6-2.56-11.85 2-25.63 11.66-35.25 8.95 9.2 11.87 24.9 5.25 37.36-1.46 2.74-3.6 5.6-6.65 6.47" fill="#81358a"/><path d="M138.2 60.04a8.53 8.53 0 0 1-8.64-1.99c-2.1-2.06-3.13-4.95-3.8-7.89-3.22-14.36 2.1-31.52 13.61-43.9 10.88 10.73 14.58 29.79 6.77 45.46-1.72 3.44-4.26 7.06-7.94 8.32" fill="#ffec00"/><path d="M199.02 124.77a7.49 7.49 0 0 1-5.28-6.25c-.35-2.74.58-5.56 1.81-8.22 6.07-12.94 20.17-23.42 36.07-26.8 1.8 14.28-6.67 31.14-21.76 39.1-3.31 1.74-7.35 3.19-10.84 2.17" fill="#ef8000"/><path d="M206.94 179.7a5.95 5.95 0 0 1-2.36-6.2c.49-2.21 1.99-4.15 3.68-5.89 8.27-8.45 22.09-12.94 35.34-11.47-2.56 11.5-13.78 22.37-27.67 24.65-3.05.5-6.57.58-8.99-1.1" fill="#0068b2"/><path d="M143.16 247.38c.12 24.26 3.94 45.17 18.83 65.05.62.83-.11 1.92-1.23 1.8-22.97-2.51-48.74-2.02-71.68.7-1.1.12-1.85-.93-1.27-1.76 13.26-19.2 22.55-41.12 22.08-63.61-.4-19.77-9.28-39.93-25.6-52.99-1.12-.9.04-2.5 1.41-1.92 11.46 4.83 23.64 10.92 31.35 18.86.88.9 2.54.21 2.28-.97-2.47-11.24-5.88-22.4-10.8-32.95-.56-1.2 1.19-2.19 2.16-1.22 10.9 10.85 24.27 22.38 32.8 20.49 7.54-1.67 16.27-12.3 21.59-20.9.75-1.2 2.02 2.38 1.6 3.7-7.1 21.97-23.63 46.56-23.52 65.72" fill="#bc8027"/><path d="M161.22 152.01c-2.7-.71-4.71-3.07-5.5-5.56-.76-2.5-.48-5.12.08-7.6 2.77-12.07 12.66-22.16 25.3-25.8 4 13.04-.1 28.79-11.24 36.6-2.45 1.71-5.55 3.18-8.64 2.36" fill="#008d36"/><path d="M173.81 137.48c.25.04-.13.18 0 0zm-2.3 2.97c-1.48.27.5 1.66 0 0zm-.58 1.4c-.19-.19-.09.21 0 0zm-.75-2.01c.21-.32-.4-.06 0 0zm-.12 1.4c-.19.05.14.27 0 0zm-.03-14.3c-.09-.2-.07.25 0 0zm-1.28 4.65c.35.36-.32.24 0 0zm-1.17-5.24c-.17.33.27.18 0 0zm.3 2.7c-2.08.12-1.2-5.13 1.2-3.16 1.24.2 1.47.38 1.74 1.81-.11 1.16-2.02 1.73-2.93 1.36zm2.28 13.13c-1.88-.91-4.17-1.23-3.9-4.7.19-1.83-.48-5.96 1.14-6.53.74.8 2 1.03 2.24 1.99-1.7.91.18 1.68-.78 2.73-.3 1.61.27.72.25 2.25-.34 2.42 1.93.94 3.55.87.06.44.83-1.51 1.15-.7-.37 1.67-.7 1.92.1 1.99-1.3 2.61-1.38-1-2.1 1.66-.06.75-1.18.56-1.65.44zM93.1 133.83c.74.2-.08-.82 0 0zm-.84-8.4c-.33.34.32.25 0 0zm-.38-.13c-.13-.2-.14.17 0 0zm-.25 7.3c.68.93.69-.92 0 0zm-.49 1.43c.36.1-.02-.34 0 0zm.1.36c-.42.34.43.26 0 0zm-1.24-.08c.84-.43-.23-.63 0 0zm-.56-6.73c.4.1-.04-.4 0 0zm-.59 6.65c-.4.27.35.32 0 0zm-.27.2c-.12-.18-.15.17 0 0zm-1.42-1.63c.95 2.43 4.1.55 4.92-.8 1.37-2.11.33-6.83-2.88-3.5-1.48.64-.36 3.05-2.46 3.3.02.57 1.69.6.42 1zm9.5 4.3c-2.67.36-2.56-5.4-4.47-1.59 1.34.38-.94 1.01-1.67.96-1.9 1.31-4.15-.38-4.3-1.8-.38 1.61-1.57-2.59-.99-3.29.42-1.46.46-.58.1-1.72 1.68.1.04-1.72 1.58-2.15 1.23-.35 1.43-1.46 1.8-2.2 1.96.7 4.8-1.26 5.59 2.24.58.9 1.76 3.08.27 2.62 1.4.1 1.06 1.8 1.26 2.78.78 1.43 1.25 3.04 3.16 3.75-.24 1.01-1.7 1.9-2.33.4zM193.34 167.35c-.62.24.29.01 0 0zm-.68-1.4c-.33.13.24.39 0 0zm-.31-.08c-.28.22.28.23 0 0zm-.1 1.35c.1-.16-.32-.07 0 0zm-.2-.9c.46.45.44-.61 0 0zm-.4-8.14c-.27.27.29.26 0 0zm-.1-.1c-.27.29.28.3 0 0zm.06 7.79c-.58.08-.01.35 0 0zm-.15-6.29c.11-.37-.79.05 0 0zm-.41-1.78c-.28.26.27.26 0 0zm-.1.38c-.19.28.18.25 0 0zm-.08 2.5c-.26.16.21.31 0 0zm-.34-1.43c.15 1.43.82.38 0 0zm-.07-.36c-.27.24.27.24 0 0zm-.1 1.59c.18.14.1-.34 0 0zm.1.59c-.15-.19-.1.18 0 0zm-.41-.29c.36.07-.05-.33 0 0zm.13-1.2c-.17-.18-.16.19 0 0zm-.13.39c-.24.39.32.13 0 0zm0 1.2c.45-.14-.34-.2 0 0zm-.3 6.05c-.26.42.32.18 0 0zm-.18-10.42c.45.12-.03-.38 0 0zm.17 2.68c-.64.17.46.35 0 0zm-.79-.15c.5.31.92-.51 0 0zm.03 2.55c.26-.42-.42-.07 0 0zm-.16-.81c-.05 1.14.73-.33 0 0zm-.07 5.05c-.07.87.82.32 0 0zm-.28 1.23c.37.16-.21-.55 0 0zm0-1.71c.64 1.02.75-.83 0 0zm-.2-4.65c.33.05-.08-.37 0 0zm-.03-4.6c-.04.7.55 0 0 0zm-.44 3.45c.24 1.9 1.21.1 0 0zm.08 1.43c.14-.19-.34-.1 0 0zm-.2-.69c.3.05-.06-.32 0 0zm-.31 5.08c.6-.05-.14-.26 0 0zm-.3-.1c-.27-.2-.22.2 0 0zm-.4-8.45c1.5 1.32.4-.4 0 0zm0 9.83c-.11-.2-.1.25 0 0zm0-4.67c-.11-.2-.09.25 0 0zm-.1 2.88c-.27.27.29.26 0 0zm-.27-2.5c.32-.16-.44-.1 0 0zm-.31-4.85c.27-.9-.12-1.12 0 0zm.08-1.54c-.63.14.2.32 0 0zm-.2 1.64c-.23.25.3.14 0 0zm0-1.1c-.25.4.32.14 0 0zm-.09 9.07c.12 1.12.4-.82 0 0zm-.2.05c-.7.03.16.55 0 0zm-.49-9.12c.52 1.45.72-1.2 0 0zm-.2 9.14c.52.18-.07-.28 0 0zm0-7.76c-.27.27.28.26 0 0zm-.1-1.28c-.28.26.27.27 0 0zm-.1-.1c-.29.26.28.28 0 0zm-.1 7.15c.31.05-.06-.31 0 0zm0 2.38c-.29.3.28.3 0 0zm-.1.43c-.08-.15-.15.11 0 0zm-.29-1.33c.43.14 0-.32 0 0zm.08-8.04c-.13-.2-.07.2 0 0zm-.08 9.24c-.17.04.14.28 0 0zm0-5.05c-.1-.19-.15.18 0 0zm-.1-3.58c.46-.01-.2-.73 0 0zm0 8.45c-.28.24.28.24 0 0zm.1-.4c1.07.7-.62-1.22 0 0zm-.4-7.16c.27.28-.09-.35 0 0zm0-1.6c.37-.2.21-.12 0 0zm0 4.67c-.28.3.27.3 0 0zm-.21 1.2c-.22.32.25.21 0 0zm-.23-6.62c.36 1.04.9-.03 0 0zm-.05 1.46c-.25.17.21.29 0 0zm-.3-.3c.6.54.67-.42 0 0zm.07 4.87c-.12-.2-.08.2 0 0zm.28-.59c.26.59 0-1.34 1.33-.91.88-1.24 2.48.28 3.05-1.41 1.08.27 2.13-.88 2.31-1.48 1.41 0-2.02-2.45-2.99-.49-.73-.49-1.22.78-1.82.95-.77 1.76-2.27 1.07-1.86 2.45-.28.25-1 1.38-.02.9zm-.67-3.01c-.19.3.2.3 0 0zm-.07-.38c-.96.82.68.18 0 0zm-.44 2.4c-.12-.2-.08.2 0 0zm0-1.71c-.5.46.47.1 0 0zm-.07.5c-.25.18.21.3 0 0zm-.9-.89c-.25.17.22.3 0 0zm6.88 8.64c-.54.6-1.9-.14-2.4-.54-.6-.3-1.96-.18-2.48-1.35-1.75-1.1-2.46-3.44-2.3-5.41.06-2.34.6-1.42 1.99-1.85-.31-.83.4-2.6 1.1-1.5 1.59-.5 1.54-.8 1.62-1.28.45.64 1.94 1.62 1.57.69.53-.67 1.59.26 1.79-.33.06-1.47.5 1.53.69-.44.22 1 1.9.42 1.48 1.27-.72-.79-1.18.15-.51.8.37-.57 1.2.48 2.04.87-.95.15-1.1.63-.43 1.5-.6.7-1.37 1.8-2.74 1.41-.32.86-1.2 1.27-1.4.2-.62.5-.08 2.85-.97 1.03.32 1.53-2.21.1-2.18.59-.84.86 3.04 1.43 4.08 1.91 1.43 0 2 .62 3 .3.93.29 2.97-.79 2.2 1.36.31.77-.35.58-.38.77-1.02.67-2.2-.09-2.57-.04-.8.7-1.33-.4-1.93-.14-.76-.4-.5 1.42-1.27.18zM98.76 180.68c-.03.85.68-.3 0 0zm-.38.71c-.28.26.28.27 0 0zm-1.76-4.95c.28.11-.12-.29 0 0zm-.2-2.28c.04.6.25-.14 0 0zm-.21 5.98c-.48.3.31.34 0 0zm-.2 1.07c.2.14.09-.4 0 0zm0-5.6c.72-.25-.26-.68 0 0zm.2 2.08c-.43 1.7.4-1.16 0 0zm-.3-2.6c-.23.32.25.2 0 0zm-.32-1.54c.2.14.11-.34 0 0zm0-.84c.27.77-.02-.45 0 0zm0 9.93c-.28.27.28.27 0 0zm0-6.05c-.57.24.2.5 0 0zm-.2-.46c-.28.27.28.26 0 0zm-.23 5.46c.47 2.6.92-1.38 0 0zm-.08.82c-.78.29.28.6 0 0zm-.5-.38c.56-.13-.28-.7 0 0zm-.54-1.97c.53-.28-.32-.36 0 0zm-.2 1.23c-.2.11.19.15 0 0zm-.19-.8c.23.37.27-.24 0 0zm-.1.29c-1.56.09-.4.94 0 0zm-.87-.2c1.97-.88.34-3.22 0 0zm-.48-1.16c-.33.17.24.43 0 0zm-.13.95c-.3.33.35.2 0 0zm-1.56 1.33c-.24.42.32.17 0 0zm-.07-.1c-.33.14.24.38 0 0zm0-.72c-.57.68.94.24 0 0zm-.34 1.43c.25.5.33-.28 0 0zm-.3.1c.33-.05-.24-.45 0 0zm-1.1-10.16c1.57.23-.28 1.41 0 0zm-.36.46c1.78.34.68 2.13 0 0zm-.28 7.79c-.18.04.18.09 0 0zm-.2-3.4c.38 1.2.4-1.14 0 0zm-.1-3.37c.3.32.36-.03 0 0zm-.13 2.6c.58-.1-.16-.45 0 0zm.3 2.48c-1.36.39.66.3 0 0zm-.81-.02c.77.54.38-.66 0 0zm-.29-1.44c.7 1.94 1-.92 0 0zm-.23-5.26c-.27.27.28.27 0 0zm-.3 5.67c.57-.33-.2-.56 0 0zm-.2-5.54c.35.28.1-.58 0 0zm-.1 3.07c-.9 1.3.83.2 0 0zm-.31 2.7c.18.14.1-.33 0 0zm0-1.25c1.16.51 1.21-.51 0 0zm-.23 3.1c.4.3.35-1.04 0 0zm0-.8c-.01-.16-.17.1 0 0zm-.39-1.89c.73.18-.06-.6 0 0zm-.02-.97c.57.74.36-.72 0 0zm11.36 7.23c-.24-1.7 1.36.62-.1-1.2-.47 1.36-1 .58-1.71 1.31-.43-1.32-1.52-1.46-2.53-2.64-.69-1-.6 1.26-.4 1.22-1.63-.72-.43 1.72-1.83.64-1.47-.02-2.93-.27-3.7-1.5.88-.67-.8-.55-1.1-1.36.27-1.76.17-2.23-.2-2.53-.98-1.27.83-5.73.72-5.36 1.7-1.77.56 1.43 2.37 1.25 1.23 1.2.81 2.53.82 4.01-.98.73-.47 2.4-.09 3.26.53-.58 1.39.53 1.98-.68 1.8-.52 3.44-2.16 3.09-4.24.67-.9-.16-4.6 1.66-3.5 1.81-.46.43.68 1.12 1.64.54 1.27.3-2.68.62.4.66 1.73.36 2.62-.2 3.95-.27 1.6-1.12-.8-1 1.1-.21.48.35 1.05 1.26.96 1.1.13 3.3-.75 2.54.94.52 1.3-1.48-.23-1.66 1.77-.57-.54-.66 2.08-1.66.56z" fill="#fff"/></svg>