<svg xmlns="http://www.w3.org/2000/svg" viewBox="0 0 300.15 397.12" height="1500.93" width="1134.43"><path d="M173.82 177.48c-3.69.7-7.43-.58-9.73-2.66-2.28-2.08-3.35-4.84-4-7.6-3.08-13.48 3.62-28.72 17.16-38.97 11.92 10.88 15.37 28.71 5.9 42.34-2.1 3-5.1 6.08-9.33 6.89" fill="#009ee2"/><path d="M172.84 236.84c-14.23 4.64-24.89-10.31-26.85-22.78-2.49-12.58 1.92-25.85 10.24-35.4 17.92 8.92 33.36 31.14 24.1 51.23-1.55 3.12-4.15 5.8-7.49 6.95" fill="#008d36"/><path d="M127.37 196.77c-13.45 6.03-25.38-7.7-31.38-18.32-5.85-10.58-7.43-23.77-2.89-35.12 19.16 7.04 39.11 23.73 38.53 45.85-.25 2.95-1.63 6.02-4.26 7.59" fill="#e20613"/><path d="M144.41 66.32a7.77 7.77 0 0 1-8.43 1.86c-2.77-1.04-5.04-3.33-7-5.82-9.55-12.18-13.04-30.7-8.9-47.39 14.48 5.44 26.66 21.85 27.28 40.05.13 4-.36 8.52-2.95 11.3" fill="#e5007e"/><path d="M191.16 87.05c-3.36-1.07-5.74-4.19-6.54-7.42-.78-3.24-.22-6.56.68-9.7 4.47-15.26 17.8-27.58 34.12-31.5 4.07 16.87-2.35 36.75-17.11 46.1-3.25 2.04-7.3 3.73-11.15 2.52" fill="#ef8000"/><path d="M215.41 188.76c-3.3-.86-5.79-3.7-6.75-6.7-.94-3-.6-6.16.1-9.14 3.4-14.55 15.54-26.7 31.06-31.08 4.92 15.7-.11 34.67-13.8 44.07-3.02 2.07-6.82 3.83-10.6 2.85" fill="#008d36"/><path d="M202.36 147.94c-14.04-3.4-12.31-21.46-8.16-32.04 5.2-14.44 16.83-26.31 31.01-32.1 9.48 21.03 5.29 50.8-15.89 63.05a12.1 12.1 0 0 1-6.96 1.1" fill="#81358a"/><path d="M126.51 247.02c-2.73 2.23-7.24 2.67-11.14 1.77-3.9-.92-7.27-2.99-10.27-5.23-14.6-11-21.86-27.82-18.55-43.04 20.32 4.8 39.06 19.63 42.39 36.18.73 3.64.7 7.76-2.43 10.32" fill="#009ee2"/><path d="M77.46 229.39c-1.15 3.25-4.75 5.63-8.54 6.5-3.78.86-7.72.44-11.43-.3-18.12-3.73-33.04-16.01-38.15-31.45 19.75-4.48 43.37.95 54.81 14.7 2.52 3.03 4.63 6.83 3.31 10.55" fill="#81358a"/><path d="M60.41 142.23c-10 9.41-24.63 1.33-33.58-5.64-10.6-8.35-18.1-21.33-17.84-35.04 21 .92 45.41 10.73 52.76 32.08.77 2.85.66 6.21-1.34 8.6" fill="#008d36"/><path d="M91.36 195c-1.55 2.45-4.74 3.55-7.73 3.33-3-.24-5.82-1.6-8.4-3.18-12.61-7.78-21-21.99-21.45-36.37 15.6 1.25 31.91 11.88 37.42 26.44 1.2 3.2 1.95 6.97.16 9.78" fill="#2c2c83"/><path d="M51.54 192.6c-10.72 9.56-25.66.66-34.9-6.76C6.78 177.66-.19 165.36 0 152.34c20.93 1.02 45.3 10.6 52.84 31.8.78 2.8.69 6.13-1.3 8.47" fill="#ef8000"/><path d="M66.8 110.21c-2.57 2.36-6.58 2.87-9.95 1.97-3.37-.9-6.2-3.01-8.68-5.3-12.07-11.26-17.24-28.65-13.2-44.5 17.56 4.75 33 19.93 34.73 37.09.37 3.77.04 8.05-2.9 10.74" fill="#81358a"/><path d="M105.37 134.49c-2.46 1.87-6.01 1.94-8.87.81-2.87-1.14-5.14-3.3-7.1-5.6a42.72 42.72 0 0 1-7.5-41.33c14.92 5.96 27.02 21.1 26.98 36.72-.02 3.43-.7 7.25-3.5 9.4" fill="#e5007e"/><path d="M139.63 140.94c-15.2 4.5-22.24-14.35-23.24-26.37a50.38 50.38 0 0 1 9.06-33.2c18.1 11.05 30.1 37.2 18.06 56.57a10.74 10.74 0 0 1-3.88 3" fill="#008d36"/><path d="M109.78 89.64c-2.62 1.58-6.07 1.33-8.69-.03-2.61-1.38-4.53-3.68-6.12-6.1-7.71-11.82-8.41-27.74-1.77-40.73 13.63 7.16 23.33 22.96 21.22 38.08-.47 3.32-1.63 6.96-4.64 8.77" fill="#009ee2"/><path d="M168.58 124.1a8.37 8.37 0 0 1-8.42-2.1c-2.06-2.07-3.13-4.94-3.84-7.84-3.43-14.2 1.36-31.02 12.25-43.01 10.77 10.75 14.76 29.6 7.52 44.9-1.6 3.36-3.97 6.88-7.5 8.06" fill="#e20613"/><path d="M173.12 64.08c-16.17 2.68-17.14-18.98-15.3-30.24 1.97-12.62 8.01-24.5 16.7-33.84 16.12 16.07 18.13 46.07 1.64 62.47l-1.46.92-1.58.69" fill="#2c2c83"/><path d="M251.87 231.6a6.94 6.94 0 0 1-2.76-7.21c.57-2.57 2.33-4.83 4.3-6.86 9.63-9.84 25.73-15.07 41.17-13.36-2.98 13.4-16.06 26.06-32.23 28.72-3.56.58-7.66.68-10.49-1.28" fill="#0068b2"/><path d="M175.38 315.34c-.18 25.85 4.6 52.72 19.77 74.22 2.86 2.48 5.5 8.44-.9 6.44-28.25-2.73-56.79-2.1-84.98 1.1-4.41-2.89 4.82-9.06 5.67-13.24 15.19-25.05 24.63-55.73 17.22-84.89a84.7 84.7 0 0 0-29.12-45.59c1.98-5.12 9.96 2.85 14 3.43a109.92 109.92 0 0 1 27.36 18c4.53-3.16-1.96-11.83-2.06-16.89-2.48-8.63-5.8-17-9.42-25.19 3.96-3.57 7.92 5.8 11.86 7.62 8.23 6.92 16.85 14.97 27.92 16.47 9.24-.17 15.84-8.1 21.52-14.46 3.3-3.26 5.48-8.6 8.73-11.2 3.43 7.47-3.98 15.2-5.83 22.42-8.1 19.06-19.43 37.48-21.63 58.45-.07 1.1-.11 2.2-.1 3.3" fill="#2c2c83"/><path d="M174.92 38.97c.33.25.19-.6 0 0zm-.3-13.96c.86-.07-.2-.38 0 0zm-2.76 16.07l.38.39zm0 4.97c-.34.4.38.29 0 0zm-.12.45c-.33.39.33.39 0 0zm-.48-2.74c-.15.18.29.04 0 0zm-.06-6.43c-.28.53.38.25 0 0zm0-.27c-.26.44.36.24 0 0zm-.06-9.46c-.29.53.38.25 0 0zm-.09 17.74c.63.14-.04-.53 0 0zm.1-2.06c-.12-.23-.13.3 0 0zm-.75-13.95l.33.3zm.03 17.17c-.25.23.3.15 0 0zm-.12-6.67c.42.05-.1-.48 0 0zm0-4.67c-.48.24.39.53 0 0zm-.21-5.24c-.1 1.03.88-.22 0 0zm.03 2.92c-.23.22.3.14 0 0zm-.15 16.93c-.15.74 1.53-.07 0 0zm-.15-8.39c.25.42.43.04 0 0zm-.12-6.67c-.31.39.24.4 0 0zm0-3.75c-1.17 1.22 1.18.4 0 0zm-.47 10c.01.5 0 .2 0 0zm.03 8.75c-.18.03.13.18 0 0zm-.12-15.3c.65.48.3-1.4 0 0zm.12-2.58c-.43.21.1.9 0 0zm-.3 18.27c.09 1.03.46-.25 0 0zm-.12 2.05c.4 2.69 1.33-.17 0 0zm0-10.77c-.24-.17-.07.26 0 0zm.06-4.8c-.62.4.26.92 0 0zm-.12 1.2c-.43.38.43.38 0 0zm-.24 6.96c-.18.18.13.2 0 0zm-.15-10.15c.37.72.47-.4 0 0zm-.2 7.41c-.07 1 .68.1 0 0zm-.18-3.18c-.43.38.43.39 0 0zm-.48-3.84c-.19.22.13.22 0 0zm0 1.07c-.35.27.46 1.2 0 0zm.6 5.42c.4-4.13-.23.73 0 0zm-1.34-2.12c-.43.4.43.38 0 0zm-.36 2.47c-.92.85.34.58 0 0zm-.65-2.02c-.11 3.15 2.02-.05 0 0zm-.57 1.97c.63 1.68.6-3.15 0 0zm2.44 14.9c-.1-2.4 1.95-6.08.77-7.55 1.74-2.3-.52-3.06.3-5.48-1.01-1.68-6.47.48-3.87-1-1.34-1.06.06-2.55 1.36-3.54 2.58-1.4.34-.87 1.13-2.63.15-2.54-.75-6.32 1.62-8.84 1.26-2.65 5.14-4.29 6.93-2.87-.64-2.53 3.9-.56 1.66 1.87-1.37.06-1.31-1.24-4.04-.4-2.44 1.63-3.4 4.15-2.23 6.18-1.23 2.82.18 6.32 3.57 5.04 1.48.4 1.69.22 2.98 1.34-.14 2.84-2.73-.02-3.19 2.41-1.3.3-4.7-.02-2.7 3.5.84 2.64-1.4 5.33.07 7.26-.33 2.98-1.98 1.07-2.87 3.64-.53.3-.72 2.14-1.49 1.08zM39.68 170.6c1.02.27-.74.49 0 0zm-.44-.91c.35.72-.48.07 0 0zm-.75 1.78c-.2-.22-.18.22 0 0zm1.07.9c-3.1-2.12 2.16-.87-.35 0zm-1.6-1.05c-.64.25-.91.07 0 0zm-1.25-2c.02.62-.32.24 0 0zm0 6.14c-.37.23-.42-.23 0 0zm-.15-3.1c-.22-.23-.18.24 0 0zm-.6 9.17c-.23.17.24.22 0 0zm-.15 1.6c.43.43-.43.43 0 0zm-.41-12.25c1.28.15-.14.29 0 0zm-.33 3.69c.59.24-.29-.73 0 0zm0-1.1c.97 3.41.98-1.88 0 0zm-.27 7.46c.28.2.16-.49 0 0zm-.44-.74c-.73.36.4.47 0 0zm-.75-7.44c.24 2.6 1.2-1.47 0 0zm0 9.08c-.43.39.44.37 0 0zm-.15-5.78c1.02.6.51-.96 0 0zm-.3 5.78c1.01.4-.47-1.2 0 0zm-.14.14c-.43.39.43.39 0 0zm-.45-6.21c.33.46.41-.1 0 0zm0 2.08c1.71-1 .6-.2 0 0zm-.44-3.42c2.08 1.94 1.12-3.3.44-.06-.15-.1-.34-.1-.44.06zm0 1.63c-1 2.22 1.2.62 0 0zm-.15 6.07c1.12.06-.74.73 0 0zm-1.31-2.68c.39.06-.09-.43 0 0zm0-.74c.33.14-.14-.32 0 0zm-.33-2.5c.48.2-.18-.42 0 0zm-.42 3.84c.28-.1.12-1.08 0 0zm-.33-1.19c.95.76.25-1.31 0 0zm-.11 1.49c.2-.28-.5-.16 0 0zm-.15-2.35c.65-.38-.41-.45 0 0zm-.6-.3c-.21.14.2.17 0 0zm-.15-.3c-.43.38.44.4 0 0zm-2.38.86c.48.2-.17-.41 0 0zm-1.16 1.23c1.15-.05-.06-.82 0 0zm-.15 1.6c.46.08-.07-.46 0 0zm-1.25-14.64c-.98 1.13.75.77 0 0zm-.53 7.26c.88.6.55-1.75 0 0zm-.45 10.36c-.27.2-.15-.5 0 0zm-.56-14.64c.38.05-.09-.43 0 0zm-.48-3.13c.36.72.47-.4 0 0zm.15 13.75c-.2-4.34.57-10.15-.27-12.74 1.84.77-2.6-2 1.31-2.59 1.78 1.66 2.71 6.38 2.4 9.66.87 3.92 4.42 2.66 5.13 1 1.36 1.31-.24-1.09 1.3-1.36-1.4-1.27 6.41-1.05 2.83-3.02 2.3.01 3.22-2.13 2.71.76 2.42 1.04.34 2.18-.26 1.9.38.7-1.2 1.32-2.3 2.85-2.98 1.75-2.13 3.36 3.44 5.1-2.26 1.03.2-.5-1.76 2.41-.38-2.72-2.52.75-3.64-2.21-1.37-.24-2.9.44-3.87-.84-1.5-.52-1.35-.74-2.77-1.78-2.36.24 1.06 4.34-2.32 3.8-.56 2.73-1.58-1.15-1.93-2.33zM114.7 233.33c-.52.36.22.85 0 0zm-.41.15c-.94.43-.04 1.2 0 0zm-1.46 1.16c-.4.5.49.19 0 0zm-.69.56c-.4.24.36.38 0 0zm-1.84-10.15c-.49.16.38.46 0 0zm-.3-1.07c-.75.37.55.03 0 0zm-.9 6.82c0-.1-.06-.46 0 0zm-.11-5.66c-1.66.67-.14 1.57 0 0zm-1.31 1.85c.44-.06-.12-.2 0 0zm-3 4.02c.25.2.16-.43 0 0zm-1.2 2.62c1.16 2 1.62-3.63.47-.42.46.33-.48.06-.47.42zm-.41-6.37c-.15.44.9.46 0 0zm.33 5.32c-1.66.66-.16 1.58 0 0zm-1.02-16.75c-.23.21.23.26 0 0zm-.3-.12c-.15-.2-.15.2 0 0zm-.71.42c.54-.1-.16-.26 0 0zm-.57 17.91c-.35.47.41.3 0 0zm-.26 2.17c-.51.3.46.47 0 0zm8.95-6.07c-1.52-3.14-2.45 1.47-3.54.06-.06 1.17-1.13 3.06-2.38 5.78.02-.67-.79.14-2.32-.63.3 1.98-1.98.67-.73-1.93.04-5.53-.17-12.03-.62-17.72.72-.9 5.36-.37 2.63 2.63 2.3.14-.96 3.6 1.58 4.85-1.91 1.23.16 2.98-.63 5-1.82 4.82 5.18-5.5 5.2-3.71 3.37-2.27 1.48 2.13 3.73 2.82.14 2.05-.75 2.8 1.06 3.95-2.58 1.43 1.87 0 1.68 3.34-2 4.94-3.8-.55-4.76-.76.53-2.55-2.22-.23-.93-3.62zM80.03 176.64c.49.18-.14-.35 0 0zm-.27.32c.12-.16-.3-.09 0 0zm-.2-.77c-.25.31.3.15 0 0zm-1.9-.09c.18.32.39-.11 0 0zm-.48.27c.22-.4-.38-.02 0 0zm-2.68.15c-.3.23.25.39 0 0zm-.18 6.52c.12-.17-.3-.1 0 0zm-.24 3.3c-.2.09.2.09 0 0zm-.09-2.98c-.41.31.17.68 0 0zm-1.07-.32c-.22.3.22.3 0 0zm-.48 3.72c.06.68.3-.16 0 0zm-.53-4.94c.39.05-.08-.43 0 0zm.2 5.17c-.82.57.11.9 0 0zm-.65-4.04c.5-.26-.28-.33 0 0zm-.06-7.77c-.84.4.29.8 0 0zm-1.63-.71c-.22.12.2.17 0 0zm-.48.56c-.27.29.37.17 0 0zm2.65 12.89c-1.32-1.07-.28-3.99-.63-5.66-.16-2.07-.17-4.55-1.93-5.12-1.16-1.24-.99-4.72.18-2.76-.26-1.47 1.69-.09 2.8-.51 1.58 3.63 4.13-2.32 6.44-.42.72.31 1.94 1.7 2.1 2.27 1.27 1.16-.43 1.02-.99 2.7-1.84-.22-2.16-3.42-3.92-.65-.73-.18-1.16.53-2.04.67.24 1.22.6 3.17.56 4.97.34 1.8-.22 5.3-2.54 5.04-.6.58-.4.03-.03-.53zM59.82 97.3c2.42 1.96-.07-2.3 0 0zm-.27-.35c.17-.27-.54-.1 0 0zm-1.46-9.59c.08.24-.1-.03 0 0zm-.32 2.8c.36.06-.06-.36 0 0zm-.39-2.7c-.4.3.36.46 0 0zm0-.66c-.53.3.23.74 0 0zm-.15 7.3c-.36.45.4.3 0 0zm-1.07-17.86c-.19.03.15.33 0 0zm-.27 9.34c.43-.17-.2-.25 0 0zm-.03-4.4c.84 2.2.95-1.89 0 0zM54.8 94.24c-.36.42.4.27 0 0zm0-8.66c.3-.57-.4-.09 0 0zm-.3-1.4c-.17 1.13 1.14-.18 0 0zm-.65 9.26c.41.17-.17-.41 0 0zm-1.22 2.44c-.36.42.4.27 0 0zm-.27-8.54c.69-.32-.36-.44 0 0zm-.12-1.5c-.4.28.36.43 0 0zm-.95 10.3c-.2.13.2.13 0 0zm-.53-8.39c.5-.35-.21-.78 0 0zm-.15 8.9c.16-.22-.4-.12 0 0zm-.27-9.73c.43.08-.06-.4 0 0zm-.45.65l.33.33zm-5.12 5.54c2.19 3.93 7.08 1.32 9.59-.63-.03.86 1.58-.39 1.08-1.54-1.42-1.12-3.17-2.54-2.59-2.43-.96-.66-3.02.32-5.37.3-2.1.22-2.67 2.6-2.7 4.3zm-.5-4.29c-.05-.19-.33.16 0 0zm-.57 8.55c.34.14-.16-.4 0 0zM43.28 91c.55.03-.18-.68 0 0zm-.5 2.56c.36.06-.07-.37 0 0zm14.87-5.69c1.25-.39 0 4.17 1.74 5.69.68 2.79 3.08 1.36 3.8 3.1-.4 2.2-1.65 2.2-3.47 1.33-.78-1.34-3.03-3.15-2.68-2.81-.47-1.4-2.53-.76-3.85.41-.46.91-2.75 2.2-3.43 1.63.74-.03-3.97.1-2.27 1.11-1.45-1.9-2.05-.17-3.32-.85-1.05-.7-1.75-3.06-2.2-5.43.99-1.52.83-3.22 2.8-4.45.72-1.13 2.24-.74 3.39-1.19.06.37 3-1.02 4.74-.92 1.47-.96.23-4.77 1.09-6.81.44-6.97 4.9-.6 3.9 2.82-.83-2.43-1.01.14-.39 1.25-.3 1.89-1.37 2.25.09 4.12.14.51 1.01.1.06 1zM104.74 73.96c-.3.24.25.39 0 0zm-.6.87c.45.06-.02-.64 0 0zm-3.86-18.57c-.32.35.32.34 0 0zm-.27 11.7c-.1-.21-.14.2 0 0zm-.33-10.48c.4-.13-.16-.22 0 0zm-.26 9.73c.43-.06-.13-.2 0 0zm-.12-12.14c1.04 2.5.43-1.18 0 0zm-.1 9.52c.67.22-.24-.72 0 0zm0-7.83c-.2.11.22.12 0 0zm-.11-1.45c.33.13-.14-.33 0 0zm.12 8.2c-.54.38.75.22 0 0zm-.12-7.85c-.67.77.9.17 0 0zm0 13.96c-.96.26.36.51 0 0zm-.48 2.32c.3.04-.06-.33 0 0zm-.39-10.95c-.31.27.32.26 0 0zm-.11 7.8c-.33.3.32.3 0 0zm-.15 5.38c-.13.73.7-.06 0 0zm-.33-18.98c-.4.27.36.42 0 0zm-.24 17.46c-.3.24.25.39 0 0zm-.12-4.46c-.69.47.1.6 0 0zm-.38-7.08c-.26.35.3.19 0 0zm3 14.43c-1.63-.78-2.4-1.23-3.21-.6-.05-1.21-.59-.76.33-2.88-.19-.5-.67-2.64.47-1.46-.1-1.39-.49-1.83-1.22-.92-.77-.56 2.78-3.85.5-3 1.74-1.37.46-.88-.56-2.2-.83-2.69.58.25.39-1.59 1.71-.2.16-2.62.09-1.78.43-1.2-.13-.69.8-2.05.52-1.2-1.18-3.9.83-3.77.08-.35 2.15-2.46 2.36.37-.65.94-.13 2.72-.27 3.6-.67 4.1-.19 8.02.13 12.17 1.2 1.1 4.55.3 4.42.72 3.72-1.33-.3 2.05 0 2.4-.85 1.23-3.07 1.16-4.32 1.11l-.35-.1zM137.52 46.46c.3.04-.15.2 0 0zm-2.68 3.45c-1.72.33.58 1.94 0 0zm-.68 1.64c-.04-.2-.33.15 0 0zm-.86-2.35c.24-.37-.48-.06 0 0zm-.15 1.64c-.21.05.16.31 0 0zm-.03-16.67c-.1-.22-.09.3 0 0zm-1.49 5.42c.4.43-.38.27 0 0zm-1.37-6.1c-.2.38.32.21 0 0zm.36 3.15c-3.07-.51-.6-5.9 1.8-3.58 1.56-.16 2.06 2.17.77 3.3-.97-.44-1.57 1.24-2.57.28zm2.65 15.3c-2.66-.9-5.3-2.27-4.56-6.86.14-1.24-.27-8.42 2.17-5.64 1.72 1 1.59 1.56 1 3.11.88.4-1.2 3.76.08 2.99-.26 1.34.32 4.7 3.05 2.5 1.68-.16 1.25.1 2.24-1.25 1.05 1.02-1.6 3.43.63 2.32-1.61 3.56-1.95-.85-2.78 2.62-.4.46-1.3.37-1.83.2zM207.24 71.33c-.3.23.25.38 0 0zm-.56-7.95c-.18-.24-.15.25 0 0zm-.1-1c-.35-.08-.28 1 0 0zm-.23-1.2c-.3.2.25.34 0 0zm-.36 10.62c-.76 1.33.46.13 0 0zm-1.55-11.18c.34.2.1-.72 0 0zm-.12.77c.33.13-.13-.33 0 0zm0 12.5c-.14.35.19.19 0 0zm-1.19-11.4c.16 1.74.78-1.12 0 0zm.42-1.55c-1.7 1.9 1.87.72 0 0zm-.62 1.88c-.33.27.32.27 0 0zm-.12 11.54c2.1-.15-.07-1.9 0 0zm.12-13.18c-.5.26.28.32 0 0zm-.69-.33c-.11-.2-.1.22 0 0zm-.06.48c-.25.46.3-.17 0 0zm-.15 1.96c.56-.34-.36-.4 0 0zm-.47.33c.16-.2-.32-.14 0 0zm-.1-1.13c-.29.24.26.38 0 0zm-.32.68c.43-.16-.2-.25 0 0zm-.24-.56c.52.36 1.34-1.52.24-.45zm0-1.4c.51 1.36 1.92-.82 0 0zm-.33.3c-.84 2.07.72 1.36 0 0zm-.65-.24c.03.38.84-.31 0 0zm-.54 1.04c.82-.29-.36-.47 0 0zm-2.05 3.16c-.07.8.77-.26 0 0zm-.3-1.85c-.34.29.61.04 0 0zm-.44 8.51c-.3.17 0 .34 0 0zm-.24-5.83c.8 2.64 2.18-.63 0 0zm.03-1.82c-.25-.02.04.26 0 0zm-.09.78c0 .87.1-.72 0 0zm-.24-2.86c.24.16.11-.46 0 0zm-.24 4.64c.43.08-.05-.4 0 0zm0-.56c-.35.38.4.23 0 0zm-.2 4.67c-.3.15.24.3 0 0zm-.33-4.35c.35-.16-.25-.65 0 0zm.33 1.02c-1.73.86.95.37 0 0zm-.45 1.96c-.15-.13-.1.18 0 0zm-.33-4.2c.38.01-.16-.5 0 0zm-.06-1.07c-.12 1.05 1.3.03 0 0zm-.06 4.38c-.71.31.5-.05 0 0zm-.65-.27c.61-.07-.16-.28 0 0zm-.66-1.01c-.2.1.21.1 0 0zm0 .98c-.4.2.36.34 0 0zm9.17 5.98c-1.01-2.2-2.24 1.03-2.55-1.46-1.02.42-4.2.38-3.55.45.26-.49-1.95-1.75-1.34-1.76.07.14-1.33-1.97-.6-.64-.9.59-1.98-2.24-1.11-2.75.84-.39-1.39-.15.2-2.16.3-2.69 1.26-2.59 1.85-2.17 0-.72.4-.28.82-2.25 2.15-1.75-.01.93 1.15 1.13.75-.39 1.12-.16 1.07-1.66-.14-.18 2.85-1.85 2.42-.5 1.37-.92 1.93.1 2.32-.78.78.12 2.24 1.73 1.97-.18.45 2.85 1.4-.93 1.57 1.82.81-.22 1.8 3.12.75 2.18-1.35.11-1.3-1.3-3.02-.92-1.6.2-3.9 1.64-5.7.73 1.15 1.84-3.26 4.9-1.58 4.4-1.4.47 3.15 3.95 1.1 2.27.57 1.9 4.84 2.07 5.57 1.33 1.21-1.67 6.07-.14 3.66 1.05.28-1.5-1.9.53-2.06 1.66-.15-1.7-1.52 1.17-2.94.21zM216.66 123.8c-.05.64 1.76.4 0 0zm-.24-3.84c-.21.18.22.11 0 0zm-.03 1.25c-.41.44.42.4 0 0zm-.2 5.74c.54 1.38 2.03.53 0 0zm-.8-6.45c1.36.08.27-1.29 0 0zm-.25-.6c.64-.47-.3-.9 0 0zm-.23 8.9c3.16.88.83-2.8 0 0zm-1.08 2.77c.6.03-.2-.74 0 0zm-.68-.42c.53-.13-.42-.6 0 0zm-.48-10.62c.28 1 .54-.95 0 0zm-.12 8.95c-.12.28.33.01 0 0zm-.2-11.04c-.25.31.3.16 0 0zm-.57 13.6c.86.25-.19-.55 0 0zm-1.37.6c-.27.16.26.32 0 0zm-1.19-13c-.31.5.5.22 0 0zm-.24-5.93c-.36.53.51.29 0 0zm-.11 10.33c.51-.33-.19-.23 0 0zm-.03-5.83c.32.24.18-.6 0 0zm.62 12.26c-.99 2.13 2.52-2.6 2.44.34 1-2.37 5.17-6.43 4.03-9.39-2.17.87-4.03-2.03-6.3.68-.64 2.75-1.54 6.4-.75 5.82.03.77-.49 2.34.58 2.55zm-.95-12.26c-.2-.23-.12.28 0 0zm-.15-5.1c-.51.35.46.51 0 0zm-.2 19.62c-.47 3.16 3.63-2.79 0 0zm-.49-22.62c.53.1-.15-.48 0 0zm-.35 24.31c.5.73.36-.82 0 0zm-.06-1.04c1.18 1.62.47-1.7 0 0zm-.6.3c-.58.4.6.3 0 0zm.03 1.07c-1.44-3-.08-7.26-.92-10.62.67-4.2-.33-8.7.12-12.41-1.06-4.76 4.41-3.26 3.27 1.46.16 1.9-1.5 3.81 2.01 4.57 1.07 1.36 4.12-1.64 5.18 1.15 1.33 3.3 2.69 2.5 1.77 5.64-.52 1.19.45 1.97-1.28 4.94-.73.93-2.46-.9-2.53 2.18-1.23 2.04-2.11 1.5-4.13 2.87-1.47-1.65-2.1 1.95-3.49.22zM231.33 163.13c.63.02-.24-.8 0 0zm.12-3.4c-.5.46.48.33 0 0zm-.2 1.76c.41.18-.2-.48 0 0zm-.33 2.71c1.1.16-.32-.92 0 0zm-.18-5.39c-.9.77 1.05.82 0 0m-.78 3.3c-.08.72.9.65 0 0m-.14-.14c-.06.66.7.4 0 0m-1.02 4.88c-.76 1.46 1.75.32 0 0m-1.57-5.8c-.35.4.23.54 0 0m-1.02 9.37c.43-.17-.2-.25 0 0zm-.26-7.86c-.58.24.36.68 0 0m-.6-.32c.7.12-.1-.67 0 0zm-1.34 6.15c.9.51 1.76-.22 0 0m-.36.84c.77.26-.46-1.25 0 0zm-.3.71c.12.76.64-.05 0 0zm-.02-2.35c2.64 1.03 4.4-.4 4.79-2.02 1.67.89 2.19-6.64.24-4.3-2.32 1.02-4.37 3.64-5.03 6.32m-1.01 12.2c.43 1.5 1.76-.22 0 0zm0-17.53c3.56 3.58.18-3.81.86.17 1.26.54-.59.42-.86-.17m0 19.67c-.27.03.08.58 0 0m-.24-12.88c.7 4.14 1.98-2.47 0 0zm-.2 7.74c-.55.46.53.46 0 0zm-.3-.95c.85 1.14.2-1.62 0 0m-.33-1.14c-.52.34.46.5 0 0zm-.1-4.07c.25-.33-.59-.19 0 0zm-.26 3.18c.54 1.26.27-1.23 0 0zm-.57-7.68c-.24.26.28.2 0 0zm-.24 19.32c-.28-8.74-.97-18-.45-27.08 1.6-2.77 4.34.16 3.43 1.96 1.06-2.42 1.9 4.1 1.65.77 1.25-3.87 2.01-.04 4.03-3.21 2.1-1.2 5.62 3.38 3.52 5.57 1.21 1.39-1.8.85-.48 2.5-3.08-1.04-.02.65-1.87 2.58-1.5 2-3.06 1.65-4.04 2.8-.22 1.48-2.8-.54-3.45.97-.58 1.73 1 1.95.02 3.82 0 2.93.4 4.16.7 6.15.06 1.75-.66 4.2-3.06 3.17M179.8 153.79c.66.02-.34-.75 0 0zm-.54 1.16c.39-.09-.31-.65 0 0zm-.48-.57c.72.1-.23-1.45 0 0zm-.12 8.6c-.4.35.36.51 0 0zm0 1.43c-.86.5.17.42 0 0zm-.45-10.74c-.5.26.46.42 0 0zm-.71 1.55c.52.22-.28-.72 0 0zm-.15-1.28c.58 1.22.17-1 0 0zm-.71 9.22c-.43.35.43.34 0 0zm-.48-18.12c-1.02.46-.54 1.23 0 0zm-.57 18.57c-.39.5.5.2 0 0zm-.44-9.76c.33 1.5 1.06.21 0 0zm-.15 8.72c.33.29.26-.5 0 0zm0-9.76c.55 1.93 1.16-1.38 0 0zm-.09-5.63c-.3.32.26.46 0 0zm0 7.62c.3-.57-.4-.09 0 0zm.09-5.6c-.27-.2-.27.21 0 0zm-.21.42c-.48.2.39.5 0 0zm-.18 10.98c-.2.1.2.14 0 0zm0-5.5c-.2.18.22.12 0 0zm0 9.07c-.53.34.53.34 0 0zm-.26-9.94c.16.44.5-.03 0 0zm-.21-.56c.85.6.26-.99 0 0zm0-1.76c3.8.27-.52-2.7 0 0zm-.1-2.59c.2.13.09-.36 0 0zm-.11 9.94c.8 1.54.28-1.1 0 0zm-.18-9.64c.49.2-.18-.42 0 0zm1.25-2.14c-2.15 1.17-1.17 2.08 0 0zm-1.43 13.36c1 .6.27-.86 0 0zm.18-12.65c.68-.24-.67-.24 0 0zm-.18-.86c-.16.24.26.06 0 0zm-.06-1.25c1.83 3.08 2.2-2.76 0 0zm-.06-2.2c-.48.24.4.53 0 0zm-.18 19.1c.64-.57-.24-2.08 0 0zm-.09-3.98c.33.02-.09-.4 0 0zm.1-1.58c0-.38-.17.23 0 0zm-.1-5.95c.33-.14-.16-.2 0 0zm.27 8.63l-.32.35zm-.27-10.63c-.18.04.15.33 0 0zm0 9.08c.4-.54-.48-.23 0 0zm-.2-6.49c.23 1.13 1.24.45 0 0zm.2-5.47c-.62.35.3.55 0 0zm.1-2.35c-1.7.36-.19 1.43 0 0zm-.81 14.88c.85 1.71.16-1.76 0 0zm-.3-13.25c1.28.63 1.3-1.23 0 0zm-.18 13.54c.42.25.13-.88 0 0zm3.78 5.33c-2.56.97-2.78-.91-4.16-2-.57-6.14.65-12.52.2-18.62 1.97-1.81 1.99 1.46 2.74-.06-1.07-1.8 3.6.27 1.45 2.66-1.57 1.57-.1 3.72-.21 5.56 1.62.92 3.1-.5 4.6.45.6-1.47.67 3-.72 2.07.77 1.5-3.44 2.58-2.81.58-.65-2.38.5-3.24-1.79-.24-1.57 0-.95 1.2-.72 2.4 1.39 2.22-1.29 4.83 2.42 5.28 1.34.05 5.82-.3 3.68 1.64-1.64.8-2.94 1.7-4.68.28zM102.87 119.4c-.1.8.82-.23 0 0zm-.44.84c-.33.3.32.31 0 0zm-2.06-5.77c.33.13-.13-.34 0 0zm-.24-2.65c.06.68.3-.17 0 0zm-.23 6.96c-.56.34.36.4 0 0zm-.24 1.25c.24.16.1-.47 0 0zm0-6.52c1-.45-.53-.63 0 0zm.24 2.41c-.5 2 .46-1.35 0 0zm-.36-3.03c-.26.38.3.24 0 0zm-.36-1.79c.22.16.13-.4 0 0zm0-.98c.3.9-.02-.52 0 0zm0 11.58c-.32.3.33.31 0 0zm0-7.06c-.66.28.22.6 0 0zm-.24-.53c-.32.3.33.3 0 0zm-.26 6.36c.54 3.03 1.07-1.6 0 0zm-.1.96c-.87.27.28.76 0 0zm-.59-.45c.69-.1-.35-.85 0 0zm-.62-2.29c.62-.33-.37-.42 0 0zm-.24 1.43c-.24.13.23.18 0 0zm-.2-.92c.26.42.3-.29 0 0zm-.13.32c-2.02.22-.35 1.05 0 0zm-1-.24c1.98-.96.54-3.48 0-.08zm-.57-1.33c-.39.2.28.5 0 0zm-.15 1.1c-.36.38.4.23 0 0zm-1.82 1.54c-.29.5.38.21 0 0zm-.09-.12c-.37.17.28.46 0 0zm0-.83c-.65.7 1.07.36 0 0zm-.39 1.67c.3.58.38-.33 0 0zm-.35.12c.38-.06-.28-.52 0 0zm-1.28-11.85c1.8.1-.22 1.82 0 0zm-.42.54c2.16.2.62 2.62 0 0zm-.33 9.08c-.2.05.2.1 0 0zm-.24-3.96c.45 1.4.47-1.33 0 0zm-.11-3.93c.36.38.43-.03 0 0zm-.15 3.03c.66-.1-.15-.55 0 0zm.35 2.9c-1.58.45.77.34 0 0zm-.95-.04c.77.6.53-.72 0 0zm-.33-1.67c.64 2.3 1.2-.9 0 0zm-.26-6.13c-.33.31.32.31 0 0zm-.36 6.61c.65-.37-.22-.67 0 0zm-.24-6.46c.43.34.11-.68 0 0zm-.12 3.58c-1.03 1.52.98.22 0 0zm-.35 3.15c.22.16.12-.4 0 0zm0-1.46c1.02.72 1.77-.83 0 0zm-.27 3.6c.47.36.41-1.2 0 0zm0-.92c-.01-.19-.2.11 0 0zm-.45-2.2c.97.2-.09-.84 0 0zm-.03-1.13c.5.77.5-.78 0 0zm13.24 8.42c1.33-2-1.4.04-1.3-.18-1.31.47-1.83-1.75-3.22-2.22-1.4-2.3-.52.86-1.25.88-1.19.83-1.38 1.26-3.8.61-1.09.11-5.18-4.35-2.4-2.36-2.17-.17-.95-4.05-.97-3.62-2.38.65.87-7.48.45-6.77.85-.57 1.18.34 2.17 1.81 2.21.64 1.28 3.36 1.34 5.1-1.4.19-.36 4.39.43 3.27 1.06-.21 1.26.24 2.78-1.16 3.9-1.35 2.08-6.3 3.84-9.02 1.75.72 2.27.08 1.9 2.2 1 1.53.37-3.26.99 1.53.98 1.5-1.77 4.7-1.01 4.33-.36-1.08.37 1.56-.23 1.5.77 1.15 5.16-1.14 4.15 1.4.32.96-1.63.75-2.5 1.9.54.94-.99 1.92-1.37.8z" fill="#fff"/><path d="M152.24 165.77c.23-.26-.48-.2 0 0zm-.2-9.12c1.91.26-.27-1.65 0 0zm-.06 3.67c.22.93.4-.9 0 0zm-2.56-3.62c-.62 0-1.81.3 0 0zm-1.4-.08c-.46.34.4.43 0 0zm-2.18-1.43c-.15 1.76 1.52.06 0 0zm.02 3.03c-.08-.41-.46.25 0 0zm-.65-.73c-.17.17.25.07 0 0zm-.12-1.69c-.46.54.46.31 0 0zm-2.94 2.62c.48.36-.5.42 0 0zm-.95-.9c-.2.05.12.47 0 0zm-.12 1.66c.9 1.51.09.41 0 0zm-4.58-6.77c.56.15-.05-.62 0 0zm-.14.2c-.25.54.69.7 0 0zm-1.3-.11c.3 2.01.54-1.55 0 0zm-.98 1.3c-.24 2.45 1.84.77 0 0zm-.83 4.23c.58.13-.06-.68 0 0zm-2.34-4.53c-.41 3.95.29 1.06 0 0zm-.33 8.86c.38 2.18 1.46-1.36 0 0zm-.41.79c-.32.47.27.32 0 0zm-.51-.56c.79-2.8-1.93-11.9 1.68-11.06 2.91.96.6 5.51 2.78 1 1.22-.74 3.1-2.22 4.82-1.97 3.7.73 2.78 4.67 2.83 7.5.23 1.16 3.3-4.8 5.53-3.67 2.49-.1 2.85-3.37 5.1-.6 2.25.62-.36 4.77.37 6.24 0 2.2-.48 6.68-.08 6.14-4.65.12-1.18-12.78-5.76-7.36-1.02 1.8-.56.76-2 1.72-.6 1.2-1.88 2.47-4.54 4.65-2.46-.26.63-4.44-1.25-6.3.01-2.34.33-4.22-1.53-4.8-1.56 2.13-3.3 2.46-2.57 4.58-2.04 1.44-1.68 4.82-4.06 5.3-.83.64-1.72-.5-1.32-1.37z" fill="#2c2c83"/><path d="M42.38 128.13c-.4.39.56.28 0 0zm-.05-.17c.16-.3-.66-.2 0 0zm-.6-2.69c.33.11 0-.52 0 0zm-.26-1c-.13.28.28.15 0 0zm-.5-1.47c-.33.07.27.38 0 0zm.05-.52c.13-.39-.63.01 0 0zm-2.7-.09c-.34.64.53.13 0 0zm-.55 1.18c1.13 1.03-.08-1.97 0 0zm-.11-7.47c-.38.59.62.32 0 0zm-1.14 7.57c.4-.08-.17-.47 0 0zm-1.75.6c.54 1.56 1.18-.78 0 0zm-.12 1.91c.55.07-.46-.8 0 0zm-.6.67c-.54.33.43.58 0 0zm-.1-12.55c-.37.55.58.26 0 0zm-.06 10.62c.23-.88-.67.14 0 0zm-3.6 1.05c2.06 2.07-.23-2.42 0 0zm-.28-9.7c-.43.51.54.41 0 0zm-.99.7c-.1-.12-.34.24 0 0zm-.25 1.83c-.46.55.44.83 0 0zm2.64 7.62c-.19-.89 1.13-2.07 2.07-.95.85-2.1 3.54-4.24 3-6.95.24-5.1-6.32-2.17-6.86 1.07-2.4 1.3-1.76.6-1.44 2.12.2.95 1.3 2.24 1.03 3.01-.25-.19 2.8-.54 2.2 1.7zm-4.03-1.6c.82 1.98.6-.89 0 0zm.04-1.99c1.31 1.84.13-2.2 0 0zm-.87-1.62c-.42.5.6.29 0 0zm17.04 16.24c-1.22-4.36-3.18-8.62-4.44-12.85-2.4-1.47-.83 1.04-2.9 1.88-1.78.73-5.14 1.38-6.9-.12-.84.8-4.17-4.07-2.81-7.02 1.71-1.1.82.45 1.98-.84-1.27-2.55 2.37-3.35 3.66-3.55.24-2.02 1.23-.5 3-1.55-.03-2.02 4.01 3.37 4.8 4.66.81.87.76 4.63.66 3.67 1.76.28.86 2.08 1.77 3.27-.33 2.35 2.25 4.06.9 5.34 2.16 1.27 1.6 4.22 2.98 5.89-.44.4-1.81 2.88-2.7 1.22z" fill="#fff"/><path d="M198.68 197.19c.41.17-.17-.41 0 0zm-.36-8.66c.37.02.2-.95 0 0zm-.14 5.56c-.37.54.4.4 0 0zm-.12-9.16c.77.68.8-.37 0 0zm-.4 7.11c1 .35-.13-.52 0 0zm0-4.52c1.16-.17-.32-.55 0 0zm-.58-2.95c-.52.38.46.54 0 0zm-.51 2.56c.96.3-.3-.9 0 0zm-1.31 1.37c.65 2.36.26-3 0 0zm-1.88 18.54c-.53.42.54.41 0 0zm-.8-3.4c-.5.36.46.5 0 0zm-.18.66c.67.8.25-.6 0 0zm0-.83c-.46.5.52.34 0 0zm-.15 3.1c1.42 1.85 1.54-2.16 0 0zm0-.55c.25-.32-.59-.18 0 0zm-.32-1.21c.46-.11-.17-.25 0 0zm-.3-14.4c.54-.55-.54-.55 0 0zm-.48 13.89c.28 1.25.26-.64 0 0zm-.5-.5c-.2-.32-.17.3 0 0zm-.18-14.29c.71.22-.46-1.25 0 0zm-.45 17.53c.43.18-.22-.56 0 0zm-.2-2.09c.75.4.12-.5 0 0zm-.93-17.67c-.54.46.54.46 0 0zm-.18 17.17c-.26.34.36.16 0 0zm-.3.92c.44.18-.24-.64 0 0zm.3.92c-1.64-.26-.41.76 0 0zm-1.1-22.02c.55.1-.1-.55 0 0zm.39 22.74c-.72 1.99 2.37-.16 0 0zm-.57-.48c-.46.47.51.3 0 0zm0-21.07c-.2-.23-.1.29 0 0zm-.62-2.94c.27.2.15-.5 0 0zm-.86 5.47c.12 1.04 1.3-.7 0 0zm0-3.93c.56 1.5 1.42.43 0 0zm-.1 3.43c.56.22-.34-.96 0 0zm4.38 20.38c-1.74 1.15-4.47-.9-3.58-2.7 1.1-2.82 2.84 1.22 4.32-1.8 1.96-.14 4.3-2.58 5.34-5.42.61-2.28-.48-7.94-.04-7.1-.42-3.7-3.07.3-2.56.68-1.66-.73-3.54 1.08-3.99-.96-1.67 1.57-4.48-1.44-4.55-3.47-1.35-3.59 1.16-7.06 3.25-4.1.17 3.03.7 6.84 4.37 6.2.22-2.6 3.53-2.38 4.25-3.87-2.21-.37 1.17-4.54 2.15-.48.35 3.24.14 4.88-.87 6.18 3.35 2.09-3.11.6.97 2.44.46 3.39-1.7 4.63-1.17 7.65-2.09-1.52.67 2.2-1.55 1.66.27 2.08-2.93 3.17-2.7 5.22-2.32-.45-2.5-1.07-3.16.93.1.71-1.1-1.13-.48-1.06z" fill="#2c2c83"/><path d="M66.83 222.3c.7-.19-.31-.42 0 0zm-.6 1.08c.92.9.7-1.55 0 0zm-1.18-5.33l.1-.13zm-.93 4.88c-1.22.86.77 2.15 0 0zm-.08 2.06c-.88.76.16.63 0 0m-2.5-8c1.55.44.16-2.2 0 0zm-.45 7.6l-.03.3zm-1.4-.32l.1-.07zm0-.74c.72 1.66 1-1.1 0 0zm0-.9c.32 1.1.38-.77 0 0m-.48 1.34l.1-.16zm-.15 1.85c.7.33.14-.91 0 0zm-1.51-2.89c.75.27-.1-.83 0 0zm-2.11-.95c1.26.95.65-2.52 0 0zm-1.08 3.54l.09-.1zm-.77-3.21l-.13-.02.13.02m-.15.77c.14-.56-.13-.1 0 0zm-1.25 1.64c-.44 3.78.87.1 0 0m-1.34 1.22c-.82.25.26.88 0 0zm.33-2.23c-1.84 2.05-.52 2.26 0 0zm-1.43 2.05c-.21.93.66 0 0 0m-1.96-6.79l.01.1-.01-.1m4.01 7.45c-.85 1.56-4.98-1.37-4.2-4.62-3.25-.6 4.57-9.47 2.41-.7 1.45 4.08 6.03-8.16 7.21-.13 6.24 4.41 9.07-.9 3.89-4.45 1.92-3.73 2.23-.98 4.86.94 2.88 4.85-.16 6.25-1.9 9.78-1.32-1.38-1.22-4.12-4.16-1.24-.81 1.3-4.57-4.49-5.11-.63-1.24.96-2.65 2.91-3 1.05" fill="#fff"/><path d="M92.43 241.67l.07-.06zm-1.46.62c-.08 2.11 1.67-.56 0 0zm-.68 3.6v.17zm-.09-.11l-.02.2zm-.33-.93l-.07-.13zm-.2 1.76c.27-.53-.08-.15 0 0zm-.72-1.16c.37.33-.03-.18 0 0zm-.09 1.25c1.34.67.33-2.64 0 0zm0-1.97l-.02.2zm-.12 1.55l-.07.01zm-.09-1.34l-.02.22zm-.11 4.85l-.02.1zm-.21-1.67v.21zm0-2.43l.01.2zm-.5 3.6l-.1-.02zm0-1.97c.83-.88-.78-.2 0 0zm-.72 2.77l-.02.2zm-.21-1.73l.05-.07zm-1.13 2.77l-.03-.23zm-2.06.21c.56-.58-.63-.32 0 0zm-1.25-.54l.02.2zm-.92-4.4l-.04-.19zm-1.84.2l-.03.18zm2.05 5.36c-4.53-4.48-5.79-15.29.48-5.32 1.37 4.16 2.02 5.04 4.25 2.5.42-2.83 4.12-5.68 4.81-7.4 3.73-.97-3.47 11.13-5.6 12.72-1.58-.37-3.74.3-3.94-2.5z" fill="#2c2c83"/><path d="M112.75 175.92c.84.18-.1-.9 0 0zm-.98-9.8c-.4.4.38.3 0 0zm-.44-.15c-.16-.22-.16.2 0 0zm-.3 8.52c.92 1.1.82-1.13 0 0zm-.56 1.66c.42.1-.03-.4 0 0zm.12.42c-.49.38.48.3 0 0zm-1.46-.1c1.04-.42-.27-.8 0 0zm-.64-7.83c.45.1-.05-.46 0 0zm-.7 7.74c-.45.32.42.36 0 0zm-.3.24c-.15-.21-.18.2 0 0zm-1.66-1.9c1.23 3.13 5.8.1 5.78-1.6 3.35-5.22-2.52-5.63-4.46-2.46-.02 1.71-1.98 3.8-1.32 4.06zm11.07 5c-3.11.43-2.98-6.28-5.2-1.85 1.56.44-2.8 1.06-1.95 1.12-2.74 2.68-4.88-2.87-5.15-1.51-.95-.83-1.92-4.77-.54-5.48-.62-.8.32-1.55 1.4-3.1.3-.8 2.28-1.45 2.05-2.92 2.3.82 5.7-1.49 6.63 2.62 1.14 1.48 1.53 3.34.5 3.4 2 .03.83 3.45 2.16 4.7 1.62 1.44 4.3 4.7.26 3.26zM176.08 103.47c.33.02-.1-.4 0 0zm-.15.77c.21.02-.05-.24 0 0zm-.41 0c.3.28.17-.25 0 0zm-.12-.3c-.64.78.34.16 0 0zm-.27.2c.18.02-.1-.2 0 0zm-.42.54c-.35.19.18.22 0 0zm-.95-.53c.3-.14-.23-.22 0 0zm-.92.09c.3.97.85-.58 0 0m-.21-1.55c-.2.25.12.15 0 0zm0 2.41c.12-.16-.3-.09 0 0zm-.3-.06c.59-.28-.32-.38 0 0zm-.32-.24c-.18.15.12.23 0 0zm-.24-.23c-.11.18.1.14 0 0m-.12-.21c.12.35.4-.4 0 0m-.24-7.56c-.4.16-.14.64 0 0m-.5-.48c.2.03-.06-.24 0 0zm.02 7.8c-.19.08.14.13 0 0zm-.15-1.37c.25.05-.02-.2 0 0zm-.41-7.5c.29-.04-.2-.39 0 0zm-.24 2.02c.47-.1-.2-.95 0 0zm-.24.18c-.1.07.1.08 0 0zm-.06-1.7c.19.04-.03-.17 0 0zm-.15 2.57c.28.04-.04-.28 0 0zm-.17-1.16c.2-.06-.17-.4 0 0zm0-2.27c-.18 3.36.78-1.03 0 0m-.18 8.96c-.2.18.2.19 0 0zm-.1-7.7c.61.74.13-.4 0 0zm-.23.29c.3.04-.07-.33 0 0zm0 1.79c-.08 1.36.42-.13 0 0m-.24-.87c-.2.19.2.19 0 0zm-.15.69c.17.07-.07-.17 0 0zm0-3.28c-.1.15.11.1 0 0zm-.3 4.38c.21.02-.05-.24 0 0zm0-4.46c.18.07-.09-.25 0 0zm-.11 4.04c1.32.1-.77-.44 0 0m-.27-3.48c-.2.04.11.1 0 0zm-.06-.39c-.2.09.14.23 0 0zm-.09 2.06c-.2.18.2.18 0 0zm-.27-2.32c-.28-.05-.27.73 0 0m-.42.32c-.18.15.14.23 0 0zm-.77 5.78c.6-.11.2-.82 0 0zm-.27-.12c-.37.1-.1.28 0 0zm-.26-.39c.24.05-.03-.2 0 0zm-.1-5.45c-.2.19.21.19 0 0zm-.14 6.17c-.2.02.13.11 0 0zm-.27 3.27c.34.19-.02.25.03-.03zm-.27-3.51c-.2.18.2.18 0 0zm-.06 3.3c-.17.15.13.22 0 0zm0-3.45c-.17.15.13.22 0 0zm-.09.39c-.1.07.11.07 0 0zm-.3 1.51c.26-.16-.09-.33 0 0zm-.23 2.2c.24.1-.1-.24 0 0zm-.15-3.9c.3.04-.07-.33 0 0zm-.98 1.23c-.2-.13-.02.18 0 0zm-.57.2c-.04 1.08.69.33 0 0m-1.52.51c.17.12.1-.3 0 0zm-.38-.2c.14.43.14-.45 0 0zm12.32 2.46c-.73.8-1.55.3-1.79-.62-1.06.58-1.64-.55-1.53-.26-.7.44-1.17.62-1.42.08-1.23 1.19-2.64.58-3.8.12.46 1.3-.76.35-1.1.06.16 1.77-2.33-.92-2.12.23.7-1-2.15-1.8-.09-2.2.17-1.24.73 1.8 1.2-.76.3-.57.72.48 1.1-.52.8-1.25 1.16-.93 2.6-2.63.45-.38.9-1.38 2.11-1.73-.25-1.23 2.56-1.18.48-1.26a4.58 4.58 0 0 1-2.46-.39c-.47.51-1.13.02-2.11-.09-1.73-1 1.68-1.72 3.35-1.55 1.86.56 3.42-.97 5.17.14.33 1.48-1.59 4.52-2.32 4.18-.76 1.57-2.76 2.4-2.45 2.11.1-2.66-1.03 2.44-2 1.08-2.15 1.46.32 2.4 2.07 1.51 2.5.12 5.33.25 6.9.28 1.35.44 2.93 1.27 1.02 2.18-.25-1-1.8 1.57-2.81.04M139.98 122.56c-.74.29.33.03 0 0zm-.8-1.63c-.38.16.28.46 0 0zm-.36-.1c-.32.28.32.28 0 0zm-.12 1.59c.13-.2-.37-.08 0 0zm-.24-1.05c.47.58.64-.8 0 0zm-.44-9.49c-.32.32.32.3 0 0zm-.12-.12c-.33.35.33.35 0 0zm.06 9.08c-1.13.6.42-.04 0 0zm-.18-7.32c.16-.39-1 .02 0 0zm-.48-2.08c-.32.3.32.3 0 0zm-.12.44c-.2.33.21.3 0 0zm-.08 2.92c-.3.19.25.35 0 0zm-.4-1.67c.3 1.96.95.43 0 0zm-.08-.42c-.32.28.32.27 0 0zm-.12 1.85c.22.16.12-.4 0 0zm.12.68c-.17-.21-.13.22 0 0zm-.48-.32c.43.08-.05-.4 0 0zm.15-1.4c-.2-.22-.2.21 0 0zm-.15.44c-.28.46.38.16 0 0zm0 1.4c.53-.15-.4-.22 0 0zm-.36 7.06c-.28.49.38.2 0 0zm-.2-12.15c.53.14-.04-.44 0 0zm.2 3.13c-.75.18.56.45 0 0zm-.92-.18c.59.37 1.08-.6 0 0zm.03 2.98c.3-.5-.49-.09 0 0zm-.18-.96c-.13 1 .86-.17 0 0zm-.08 5.9c-.1 1 .96.37 0 0zm-.33 1.42c.44.19-.25-.64 0 0zm0-1.99c.75 1.19.87-.97 0 0zm-.24-5.42c.39.06-.08-.42 0 0zm-.03-5.35c-.04.82.64 0 0 0zm-.5 4.02c.24 2.03 1.4.33 0 0zm.08 1.66c.17-.22-.39-.12 0 0zm-.24-.8c.37.06-.06-.37 0 0zm-.35 5.92c.69-.06-.17-.3 0 0zm-.36-.12c-.3-.23-.25.23 0 0zm-.45-9.85c1 1.19.8-.25 0 0zm0 11.46c0-.19-.27.13 0 0zm0-5.45c0-.18-.27.13 0 0zm-.12 3.36c-.32.32.33.31 0 0zm-.32-2.91c.37-.18-.52-.11 0 0zm-.36-5.65c.38-.73-.23-1.63 0 0zm.09-1.8c-.74.16.24.38 0 0zm-.24 1.91c-.26.3.37.17 0 0zm0-1.28c-.27.33.37.2 0 0zm-.09 10.57c.07 1.33.6-1 0 0zm-.24.06c-.81.01.17.69 0 0zm-.56-10.63c.43 1.24.75-1.03 0 0zm-.24 10.66c.6.21-.08-.34 0 0zm0-9.05c-.32.32.32.3 0 0zm-.12-1.49c-.32.31.33.31 0 0zm-.12-.12c-.32.3.33.32 0 0zm-.12 8.34c.37.06-.06-.37 0 0zm0 2.76c-.32.36.33.35 0 0zm-.12.5c-.08-.17-.16.14 0 0zm-.32-1.54c.5.16-.01-.38 0 0zm.09-9.37c-.12-.21-.07.21 0 0zm-.1 10.77c-.19.05.16.32 0 0zm0-5.9c-.12-.2-.17.22 0 0zm-.11-4.16c.6.01-.3-.86 0 0zm0 9.85c-.32.28.32.27 0 0zm.12-.47c1.25.71-.68-1.26 0 0zm-.48-8.34c.32.32-.09-.42 0 0zm0-1.87c.45-.24.25-.13 0 0zm0 5.45c-.32.35.33.34 0 0zm-.24 1.4c-.25.39.3.23 0 0zm-.26-7.71c.41 1.2 1.05-.04 0 0zm-.07 1.7c-.29.2.26.33 0 0zm-.35-.37c.77.67.77-.45 0 0zm.09 5.69c-.12-.2-.07.2 0 0zm.33-.69c.14.5.29-1.43 1.6-1.29 1.85-.29 2.72-.86 4.35-1.26 1.26-1.65 3.86-1.6.62-3.49-1.82.77-3.37 1.17-4.55 2.09-1.81 2.57-1.98 1.43-2.38 3.93-.78.04.11.2.36.02zm-.78-3.5c-.22.34.22.35 0 0zm-.09-.45c-1.11.96.8.2 0 0zm-.5 2.8c-.12-.21-.08.2 0 0zm0-2c-.6.54.54.11 0 0zm-.1.6c-.29.2.26.34 0 0zm-1.03-1.05c-.3.2.25.36 0 0zm8 10.06c-1.16.97-2.73-.95-3.48-.8-.94-.05-2.87-1.33-3.93-3.36-1.33-1.27-1.04-6.21-.48-6.04 2.3-.35 1.83-1.63 2.22-2-.2-1.26 2.31.12 3-1.16-1.54-1.45 1.05.38 1.12.5 1.05.6.62-1.4 2.24-.44 1.53-.9-1.17-1.4 1.35-.25 1.1-.35 2.29 2.05.9.64-.81.34 0 1.86.63 1.22.37.1 2.78 1.56.8 1.28.1.9.67 2.06-.7 2.85-1.64.06-4.22 1-3.33 1.18 0-.44-1.37-.64-.49 1.09-1.4.04-.18-.03-2.65.44-2.88-.91.74 1.52 2.95 1.79 1.72.44 3.21.73 4.7.62 2.27-.79 2.51.8 2.41 2.47-.98-.86-.47.79-1.93.33-.97-.93-2.18.24-3.19-.5-.44-1.43-1.53 1.77-2.14.14zM174.85 211.87c.5.1-.06-.46 0 0zm-1.42 1.77c.22.55.3-.14 0 0zm-.1-1.91c-.48.32.41.5 0 0zm-.18 5.24c-.33.48.44.15 0 0zm-.1-5.7c.35.05-.08-.38 0 0zm-.18-1.87c-.5.4.5.4 0 0zm0-.45c-.5.36.5.35 0 0zm-.3 8.02c1.18.34-.1-.6 0 0zm-.18-6.28c.53.09-.1-.54 0 0zm-.14 2.57c.46-.15-.2-.26 0 0zm.14-1.22c-.6 1.12.47.67 0 0m-.14-.31c-.47.32.42.5 0 0zm-.18-.31c-.41.49.47.31 0 0zm-3.85 8.88c-.42.54.47.37 0 0zm-2.78-.59c2.22-1.06.71-.27 0 0zm0-11.66c.78.26-.47-1.28 0 0zm-.3-.94c.31.85.23-.61 0 0zm-.11-.35c.38-.15-.2-.23 0 0zm-.8 12.36c-1.3.5.1 2.07 0 0zm-1.53.6c.53-.29-.68-.5 0 0zm-.73-13.1c.78.25-.28-.83 0 0zm-.62 0c.8.02-.56-1.57 0 0zm-1.11 12.02c.39.16-.2-.48 0 0zm-2.75-8.13c1.5-.61.36-3.09 0 0zm-1.07.28c-.25.17.24.18 0 0zm7.43 9.65c-2.63.93-3.02-.72-4.97-1.98-.65-.64-2.1.02-2.74-.66-1.89-1.9.97-4.22-.2-6.49 1.5-3.05 1.99-3.83 4.82-5.2 1.81-2.08 5.38-.99 2.72 2.55-1 .05-3.86 2.19-3.7 3.83-2.51 5.17 7.18 6.54 9.48 4.44.12-3.92 3.78.1 2.33-3.38 1.39-4.19-5.4-3.4-5.52-6.23.26 3.84-2.98-1.54-.14-1.8.13 1.89 1.5.92 2.15.41 1.5.64 6.5 1.55 5.66 5.66.31-3.35 1.63-1.77 2.36.52-.9 2.16-.35 4.17-2.57 4.2.07 2.32-1.48 1.85-1.9 3.61-.83-1.3-2.14.96-3.8.8-1.11-.5-.28-.63-3 .54-.08-.45-.4-.98-.98-.82" fill="#fff"/><path d="M246.33 118.41c-14.24-5.28-8.08-23.9-2.3-33.72a51.16 51.16 0 0 1 25.69-21.51c7.2 19.33 1.12 46.01-18.8 54.96a9.85 9.85 0 0 1-4.6.27M265.06 197.78c-13.27-7.66-3.06-24.84 4.5-33.14a54.45 54.45 0 0 1 30.03-16.56c3.34 20.64-8.7 45.14-29.88 50.21-1.56.17-3.17.04-4.65-.51" fill="#e5007e"/><path d="M211.12 230.24c-2.78-2.55-3.95-7.04-3.61-11.03.35-4 1.98-7.56 3.87-10.77 9.26-15.6 25.8-24.35 42.32-22.34-1.84 20.81-14.48 40.9-31.35 45.68-3.71 1.05-8.05 1.37-11.23-1.54" fill="#81358a"/><path d="M257.2 151.13c-13.13-8.58.93-24.48 9.17-31.43a66 66 0 0 1 33.75-14.53c.44 21.76-16.62 43.07-38.1 46.65-1.63.09-3.29-.09-4.82-.69" fill="#ef8000"/><path d="M251.56 231.6c-9.3-14.9 16.33-25.27 28.18-27.07 9.1-2.49 19.21-.78 10.4 9.4-7.6 12-24.22 23.11-38.58 17.68" fill="#0068b2"/><path d="M262.6 95.04c.38.62.15-.65 0 0zm-.15 2.17c.56.04-.18-.68 0 0zm-.03-1.22c.2 1.25 1.22-.4 0 0zm-.3-1.04c.04 1.54.5.13 0 0zm-.33 2.5c.26.2.17-.42 0 0zm0 .39c-.28.41.38.13 0 0zm-.23-9.1c-.4.52.48.23 0 0zm-.63 1.54c.33.13-.13-.33 0 0zm0-1.85c.26.17.1-.54 0 0zm-.86 8.51c-.19-.21-.19.22 0 0zm.18 6.7c-1.04.34-.17.74 0 0zm-.42-15.2c-.29.2.26.34 0 0zm-.26 1.27c.37.7.34-.7 0 0zm0 7.5c-.36.39.4.23 0 0zm-.12-4.67c.36.06-.06-.37 0 0zm-.39-3.9c.45.04-.13-.54 0 0zm0-1.13c-.13.17.19.08 0 0zm-1 .74c.96 1.47-.24 1.02 0-.14v.09zm.11-1.16c-.36.27.14.5 0 0zm-1.3-.92c-.13.39.93.57 0 0zm.33 1.46c-1.05.68.37.84 0 0zm-.24-.57c-.49-.1-.47 1.24 0 0zm-.68.03c-.15.21.18.19 0 0zm-.21-.56c-.23.21.23.26 0 0zm-.39 19.58c.53 0-.31-.88 0 0zm.1-18.87c.2-.23-.37-.18 0 0zm-.1.78c.33-.67-.46-.04 0 0zm-.23 7.62c4-1.73.2 2.85 0 0zm-.48-9.08c.1 1.2 1.04-.47 0 0zm.18.8c-1.24.96.6.43 0 0zm-.2 7.3c-.5.23.38.52 0 0zm-.66-7.68c-.36.43.4.26 0 0zm.03-.72c-.74.7.05 1.19 0 0zm-.54 8.96c-.76.04.17.33 0 0zm-.53-9.76c.26 1.36.16-.87 0 0zm-.24 20.65c.05.94.4-.2 0 0zm0-19.64c-.59.02.12.25 0 0zm-.83 19.79c1.83-1.17-.8-1.02 0 0zm-.53-20.09c1.1 1.67 1.43-.32 0 0zm-.1 9.08c-.28.35.46.17 0 0zm-.14-7.74c.65.74.36-1.7 0 0zm-.56 1.58c0 .79.67.17 0 0zm-.72 16.25c-.22 1.38.9-.08 0 0zm-2.1 0c3.32-4.24 1 .55 0 0zm0-14.58c-.4.27.36.42 0 0zm4.8 15.5c-2.1 1.84-4.94-1.4-2.84-2.14 1.54-2.11 1.42 1.36 2.34.68 1.36-.05 1.39.6 2.3-.04.92.05 1.32-.05 2.6.58 2.2.84 2.02-4.12 3.05-2.62-1.21-2.7-.45-5.88-1.54-8.57 1.64.17-.44-4.3-1.56-5.6-2.58.48-4.75-1.46-5.2.57-1.73-.84-2.98 4.39 1.03 5.09 1.34.52 4.58-.87 3.45 1.3-.95-1.24-1.47-.51-1.01 1.05 0-.63-4.53-.12-4.72-1.7-1.3-.14-2.33-2.05-2-1.41-.74.74-2.96-3.1-.58-4.57.55-.67 1.87-2.24 2.6-3.51 1.1 1.04 1.7-.95 1.76.22.04-.11 1.59-.84 2.31.05.83-.3 1.16 1.13 2.3-.17.15.2.95 1.88 1.26.38 1.18 1.7 2.65.44 3.8 3.66.07 2.8.21 3.18 1 5.44.13 2.01-.71 3.5-.73 5.69 1.06 3.05-1.8 5.33-3.65 6.13-1.8 1.31-4.89 1.67-5.97-.51zM280.87 137.32c1.86-1.24.27-.08 0 0zm-.13-1.25c.44 1.14.54-.33 0 0zm-.77-.65c-.5.27.47.41 0 0zm-.17-.75c-.4.5.48.2 0 0zm-.54-.62c1.02-.42.1-.21 0 0zm.12-3.25c-.51.34.46.5 0 0zm-.6.15c.46.08-.07-.46 0 0zm0 1.13c1.92 1.54-1.26-1.5 0 0zm-.29 1.55c-.21.15.21.15 0 0zm-.3-4.58c-.43.37.43.39 0 0zm-2.81-.54c.3.64.53-.19 0 0zm-.57-.86c.47 1.21.13-.8 0 0zm-.15 1.81c.47-.1-.16-.24 0 0zm-.44-1c.72-.37-.4-.48 0 0zm-.15 1.48c-.43.35.43.34 0 0zm-1.48-.15c.73-.79-.51-1.65 0 0zm-2.52 2.95c.52.1-.07-.49 0 0zm-2.35-3.54c1.08.32-.06-.56 0 0zm-.44 1.99c1.44 4.21.4-4.5 0 0zm-.18 1.25c-.1 3.49 2.7-1.08 0 0zm-.24 3.99c.4.05-.08-.43 0 0zm-.32-11.67c-.21.16.2.15 0 0zm0 .57c-.14-.21-.17.2 0 0zm-.27 9.01c.22.17.13-.4 0 0zm-.33-1.6c.31.24.2-.53 0 0zm0-6.49c-.45.42.51.26 0 0zm-.15 0c1.56-.52-.68-1.12 0 0zm17.71 11.67c-1.8 1.03-5.22-1.8-4.47-1.45-1.65-.38-2.09-1-2.62-2.72.06-3.27-.75-5-2.6-3.1-1.2.43-2.72 1.79-1.79 2.92-2.37 1.02-3.14 5-5.34 3.59 1.61 1.67-2.08.79-1.3-3.02 1.27-.3-1.55-4.4 0-6.34-1.21-1.28.62-5.16.15-3.33-.23-2.67 1.1-.67 1.76-.1-.56 2.23 1.75 4.04 1.41 6.3.57 4.67 2.58-3.95 4.63-2.22 1.4.04.26-4.07 1.42-2.21.4-2.55.5-.33 2.55-.32 2.24.97 1.13 3.97 2.5 5.63-.05 3.17 2.52 4.1 3.7 6.37zM234.3 213.26c-.28.2.28.26 0 0zm-1.7-10.49c-.25.4.25.42 0 0zm-1.66 7.57c-.47.32.42.5 0 0zm-.31-6.63c.45.92.2-.91 0 0zm-.8 6.94c.35-.66-.46-.1 0 0zm-.38-8.23c.4.94 1.12-.05 0 0zm-1.14 14.55c.72.01-.39-1.1 0 0zm-.62 1.22c-.42.5.47.3 0 0zm0-2.78c-.42.5.47.3 0 0zm-.49-10.66c.18 1.96-.76.15.16-.33zm-.14 11.77c-.23.15.24.14 0 0zm-.9-12.8c-.46.3.42.48 0 0zm-.17 4.3c-.41.5.47.3 0 0zm-.3-3.23c1.29 2.83.91-1.74 0 0zm-.6-.94c.04 1.05.59-.39 0 0zm0 2.15c.19-.28-.54-.12 0 0zm-.93-.59c-.38.36.37.36 0 0zm-.76 12.5c1.03-.32-.43-.58 0 0zm0-.8c-.23.04.17.39 0 0zm-.76 0c-.23.04.17.39 0 0zm2.1 1.56c.44-1.37-2.16 1.4-2.42-.17-1.03 1.04-.51-4 1.47-3.86 2.07-.2 2.37 1.77 3.76.77 3.51.43 7.43-3.85 1.52-3.54-.4.37-.6-1.88-2.77-1.53-1.54 2.03-2.43.07-3.11-1.63-.16-2.5 1.12-5.58 3.74-6.08.95.04 1.8-.62 3.15-1.1 1 .22 3.66.93 4.24 3.74.48 6.08-1.57-.66-5 .49-3.45-.27-4.58 3.41-.32 2.9 2.74.37 5.73 4.04 5.4 3.66.96 2.95-4.7 5.77-3.32 5.73-.08 1.33-1.92-.44-2.63 1.25-1.81-.4-3.02-1.85-3.7-.63zM275.07 222.8c.25.8.44-.32 0 0zm-.2 1.02c.37.06-.06-.37 0 0zm-.65.45c.24-.3-.09-.74 0 0zm0-10.74c-.3.18.25.35 0 0zm-.21 9.81c-.3.24.25.39 0 0zm-.24 1.1c-.11-.2-.11.22 0 0zm-.09-1.1c.24-.47-.36-.02 0 0zm-.41-1.13c.25.11-.13-.32 0 0zm-.24.69c.41.17-.2-.49 0 0zm.33-1.28c-.69-.1-.17.46 0 0zm-.63-.83c.19.11.08-.37 0 0zm-.24.53c.6.17-.02-.47 0 0zm0-7.68c.72.3-.26-.66 0 0zm-.2 2.77c-.25.39.3.23 0 0zm-.1 2.83c.2.12.08-.37 0 0zm0 1.34c.54-.66-.6-1.69 0 0zm-.23-.98c-.1-.22-.11.2 0 0zm-.09-4.77c.25.1-.1-.24 0 0zm-.12 5.21c-.22.23.22.24 0 0zm-.35-1.55c.57 1.01.2-.8 0 0zm-.1 1.31c.02.67.28-.12 0 0zm.1-5.18c-.3.28.16.75 0 0zm-.21 4.32c.36.06-.06-.36 0 0zm.12-2.53c.08-.15-.34-.03 0 0zm-.33 1.76c.37.06-.06-.37 0 0zm-.53 4.34c-.32.27.32.27 0 0zm-.77-2.95c-.06.76.78.01 0 0zm-.18-2.5c.45.68 1.03-.54 0 0zm-.9.69c-.28.2.26.34 0 0zm-.11 1.93c.8 1.14 1.5-1.8 0 0zm-.53-2.38c.3.54.3-.53 0 0zm-2.2 6.58c.1.53.26-.16 0 0zm-.71-7.89c.35.41-.08-.38 0 0zm-.12 7.92c.4 2.27.32-1.66 0 0zm-.3.65c.57.17-.23-.85 0 0zm0-11.27c.52.2-.07-.35 0 0zm-.23 10.56c.21.54.21-.54 0 0zm-.21.42c-.32.23.32.22 0 0zm-.24.62c-.25.34.3.2 0 0zm-.3.45c-.32.23.33.23 0 0zm12.29.3c-.48-.5-.55-1.44-2.58-.84-.47-1.44-.6-.48-.78-1.81-.53.67-2.77-.86-2.34-.6-1.07-1.98-1.04-2.52-2.88-.12-1.65-.57-.06 3.08-2.07 2.71-1 .99-2.98 2.16-1.46-.82 1.58-1.9 2.97-4.6 2.7-5.6 1.81.53-.02-1.63.03-.7-2.08-.11-3.45-3.08-3.77-4.72-.89 2.9-.65-3.14.33-1.34.88-.14 2.37 1.91 3.53 2.16 1.89.22.9 1.55 2.85 1.38 2.13-4.22 2.11-.4 3.1-2.53 1.62-1.12 2.62 1.54.87 3-.59-.14-2.76 2.5-.86 3.55.12.92 2.98 2.69 3.86 3.9 1.79 2.8-.37 1.64.33 2.91-.36.03-.96.02-.86-.53zM279.7 172.28c-.4.57.47.27 0 0zm-.13 4.9c-.72.49.65.53 0 0zm-.18-7.49c.49.2-.17-.42 0 0zm.6 2.8c-2.92 3.32 1.94.44 0 0zm-.8-9.68c.54.54-.05-.5 0 0zm-.24 18.7c.56-.15-.2-.3 0 0zm-.12 1.06c1.15 1.1.07-1 0 0zm-.2-12.88c.34.29.24-.56 0 0zm-.3 19.34c1.64.08-.45-1.11 0 0zm-.3-16.13c-.46.22.33.64 0 0zm-.5 15.6c.7 1.14.22-.91 0 0zm0-2.44c.52.1-.07-.49 0 0zm0-1.82c.3.25.2-.52 0 0zm-.77-22.5c.55.22-.18-.42 0 0zm-.15 27.56c-.21.22.21.16 0 0zm-.15-21.72c-.43.35.43.33 0 0zm-.44 21.24c-.33-.04-.05.46 0 0zm1.8-26.36c-1.36 1.78-3.9-3.02-1.21-2.38 1.6-2.62 3.87-.8 3.23-.5 2.02 2.69 1.14 3.76-.98 3.86-.38-.3-.43-.98-1.04-.98zm-3.32 28.36c-.5.34.46.5 0 0zm-1.87-.45c.3.8.18-.62 0 0zm-2.73 1.22c-.23.18.3.15 0 0zm-.47-.62c-.02-.2-.35.14 0 0zm-.42-1.37c-.28.16.24.22 0 0zm-.47.33c-.23.2.29.1 0 0zm-.24-1.73c-.51 2.25 2.13-.2 0 0zm-1.1-.92c-.88.56 0 .55 0 0zm3.95 5.98c-1.5-.45-1.7-2.32-3.07-2.6-.2-4.29-.34-.07-2-2.54-2.54-3.23 1.12-3.84 2.46-.78 1.15 1.06 2.3 2.74 4.17 2.57 2.04 1.74 4.04-2.61 4.5-4.66 1.3-5.95-.77-12.23-.91-17.91-.1-.6 3.62-.6 2.09-.85 1-1.27 3.35 2.65 1.51 2.9-.22 1.53.44.99.7 2.72.82 1.85 1 3.64-.79 2.76-.85 1.63.88 2.2.57 4.16-1.16 1.96-.04 4-.48 5.6-.63 3.12-.79 4.62-2.69 6.35-1.97 2.36-2.68 2.06-3.23.57-1.02 2.41-1.28.04-2.24.04-2.51.1 1.91 1.58-.59 1.67z" fill="#fff"/></svg>