<svg xmlns="http://www.w3.org/2000/svg" width="498.67" height="628.03" viewBox="0 0 131.94 166.17"><path d="M86.56 163.59c-3.35 3.48-43.62 2.83-42.74 1.56 10.06-14.62 15.2-30.84 15.84-49.12.56-16.06-10.67-35.25-23.06-46.58-.85-.78.14-2.03 1.2-1.5 8.9 4.43 18.31 9.93 24.08 16.72.67.78 2.02.28 1.86-.69a130.34 130.34 0 0 0-7.11-27.23c-.4-1 1.04-1.72 1.77-.89 8.18 9.3 14.61 17.7 21.48 16.55 6.07-1 17.17-7.7 21.78-14.43.65-.94 1.9 2.3 1.1 3.07-22.13 21.46-25.71 35.9-26.48 51.45-.98 19.69 3.38 34.8 10.28 51.09" fill="#cd9c58"/><path d="M57.04 51.84c-1.55 1.02-3.85 1.04-5.74.39a13.17 13.17 0 0 1-4.76-3.18c-6.5-6.34-7.1-14.34-6.04-23.02 9.85 3.43 18.13 11.94 18.55 20.62.08 1.9-.25 4.02-2.01 5.2" fill="#008d36"/><path d="M65.19 51.55a4.77 4.77 0 0 1-2.8-3.6 8.88 8.88 0 0 1 .55-4.46c2.43-6.94 8.84-12.3 16.41-13.69 1.44 7.91-2 16.94-9 20.88-1.54.86-3.43 1.54-5.16.87" fill="#ef8000"/><path d="M100.67 68.66a4.59 4.59 0 0 1 3.88-1.85c1.45.04 2.78.64 3.98 1.35 5.88 3.51 9.48 10.31 9.21 17.41-7.55-.2-15.13-5.03-17.32-12.08-.48-1.56-.71-3.4.25-4.83" fill="#008d36"/><path d="M107.72 60.83c-1.06-1.4-1.18-3.44-.64-5.09a10.3 10.3 0 0 1 2.85-4.1 21.45 21.45 0 0 1 22-4.53c-2.86 8.6-10.71 15.62-19.09 15.68-1.84.01-3.9-.36-5.12-1.96" fill="#2c2c83"/><path d="M73.87 25.35a4.9 4.9 0 0 1-1.46-3.7c.03-1.36.5-2.57 1.06-3.66 2.75-5.3 8.1-8.33 13.7-7.73-.16 7.03-3.94 13.87-9.5 15.56-1.22.37-2.67.5-3.8-.47" fill="#008d36"/><path d="M96.21 57.03a4.09 4.09 0 0 1-2.7 2.43c-1.16.33-2.35.2-3.45-.05a14.76 14.76 0 0 1-10.94-11.25c6.06-1.75 13.1.1 16.3 5.04.7 1.1 1.26 2.47.8 3.83" fill="#009ee2"/><path d="M31.7 69.89c.02 1.65-1.1 3.31-2.55 4.32a11.54 11.54 0 0 1-4.8 1.75C16.21 77.27 8.1 74.2 3.56 68.12c7.53-5.26 18.2-6.7 25.1-2.42 1.53.95 3 2.3 3.03 4.19" fill="#e5007e"/><path d="M22.4 57c-1.16 1.27-3.3 1.8-5.22 1.64a13.58 13.58 0 0 1-5.28-1.79C4.15 52.6-.49 45.04.04 37.5c10.06.87 20.06 6.67 22.8 14.38.6 1.7.87 3.68-.45 5.13" fill="#81358a"/><path d="M37.1 65.28c-1.04.81-2.54.78-3.74.2a8.52 8.52 0 0 1-2.98-2.71 21.37 21.37 0 0 1-3.04-19.12c6.27 3.03 11.33 10.22 11.27 17.38-.02 1.58-.32 3.32-1.5 4.25" fill="#ef8000"/><path d="M62.78 32.58c-2.05.4-4.31-.53-5.82-1.95a12.31 12.31 0 0 1-2.99-5.13c-3-9-.57-18.97 6.24-25.5 7.82 7.46 11.44 19.36 7.27 28.2-.92 1.95-2.36 3.93-4.7 4.38" fill="#81358a"/><path d="M48.8 20.65a3.62 3.62 0 0 1-3.38 1.06A7 7 0 0 1 42.3 20c-4.42-3.84-6.6-10.21-5.56-16.3 6.18 1.22 11.85 6.43 12.83 12.82.21 1.4.2 3.02-.76 4.13" fill="#0068b2"/><path d="M117.13 41.85a3.64 3.64 0 0 1-2.59-2.8c-.26-1.27.02-2.6.45-3.87 2.11-6.18 7.85-11.38 14.68-13.32 1.4 6.62-1.6 14.68-7.88 18.73-1.38.89-3.1 1.66-4.66 1.26" fill="#008d36"/><path d="M103.9 54.93a3.86 3.86 0 0 1-4.17-1.16c-.98-1.13-1.42-2.69-1.7-4.26-1.27-7.7 1.66-16.81 7.52-23.28 5.07 5.86 6.49 16.08 2.37 24.35-.9 1.82-2.21 3.73-4.03 4.35" fill="#ef8000"/></svg>