<svg xmlns="http://www.w3.org/2000/svg" width="1028" height="1910" viewBox="0 0 272 505" version="1"><defs><clipPath id="a"><path d="M1149 2589h771v1433h-771z"/></clipPath></defs><g clip-path="url(#a)" transform="matrix(.35278 0 0 -.35278 -405 1418)"><path d="M1789 3559c-49-37-74-92-62-140 2-10 6-20 14-28a42 42 0 0 1 35-9c15 3 26 14 34 25 34 49 22 113-21 152m-10-59v2a129 129 0 0 0-1 3h-1l1 1 2-2v-2h2v1l1 1 1-1a25 25 0 0 0 2-4l-1-3v-3h-2l-1-1a9 9 0 0 1-1-3v-2h1v-2-1l-1-1h1v-1-1l-1-2h1l1-1 1-2-1-1v-2l1-1h2a22 22 0 0 0 3-1h1v1h4l1 1 1-1h1l1-1h2v1h1l1 1v-2l-1-1v-1h-1v-1l1-1v-1-1-1l-1-1h-1l-1 1h-1v-1-1l1-1v-1a7 7 0 0 1-2 0h-1l-1-1v-1l-1-1-2 1a5 5 0 0 1-4 0v1l1 1-1 1-1 1-1 1v3l1 2 1-1h1v1l-1 1-2 1a36 36 0 0 0 1-1l-1-1-1-2-1-1v-1l-1-1-1-1-1-2-1 1h-1l-1 1v1l-1-2v-1l1-1 1-1h2l-2-2-2-1v-1h2v-1l1-1v-2-3h1v-1-5l-1-1h-1l1-1v-1h1l1 1 2-3 3-2 1 1a19 19 0 0 0 3 0 45 45 0 0 1 6-1v-1l2 1a7 7 0 0 0 4 0v-2-1-2h-1-1l-1-1-1-1h-1l-1-1a9 9 0 0 0-2 0h-1v1l-2-1 1-1h-1-1-1a22 22 0 0 1-3 1h-1a63 63 0 0 0-1 2h-1l-1-1h-1-2l-2 1h-1v-1h-1-1v1h-1v1a62 62 0 0 0-2 4v1h-1l-2 1a185 185 0 0 0-1 11v8l1 1v8a22 22 0 0 0 0 4l1 1v30l1 2-1 1v1l1 1 2 1v-1l1-1 1 1v2h2l1-2v-1l-1-1 1-1v1-1a10 10 0 0 0 2 0m-4 3l-1-1h1v1m-1-1l-2-1-1-2 3 1v2m11-3l-2-1v-2l1 1 1 2m-4-1l-2-1h-2l-2-1v-1l2-2 1-1 1 1 1-1 1 1v1h-1l-1-1v2h1l1 1v2m-7 0l-2-1-2-1 1-1h1l2 1v2m0-5h-1v-1l1 1m6-2v-1 1m-5 0v-1h0v1m5-1l-1-1-2-1-1-2v-1 1a206 206 0 0 1 5 4h-1m-3-2h-2l1-1 1 1m3-4s-1 0 0 0v-1 1c1 0 0 0 0 0m-3 0v-1 1m-3-1v-1 1m2 0v-1h1l-1 1m4-1h-1l1-1v1m1-4a14 14 0 0 1-2 0l-2-1v-1l1-1v-1h-1l2-1h1l1 1 2 2-1 1-1 1m-8-5l1-1 1-1v2h-2m8-1l-1-1 1-1 1-1h1v2l-2 1m-3-3l-1-1 1-1h1v1l-1 1m21-1h-2l1-1 1 1m-7 0l-1-1h1v1m-3 0v-1l1-2v2l-1 1m5-1v-2h1v1l-1 1m-13 0l1-2v-1h1v1l-1 1-1 1m-3-1v-1h1l-1 1m18-2v-1 1m-7-1v-1h1l-1 1m-15-12h-1l1-1v1m-2-1l-1-1v-1-1l1-1 1 1v2l-1 1m2-1v-1zm3-1v-1-1h1v1l-1 1m-7 0v-1 1m5-4l-1-1 1 1m4-1v-1 1m-2 0l-2-1h2v1m-2-5h-1v-4h1v4m6-2l-1-1h1v1m13-2l-1-1h1v1m-8-1v-1l1 1h-1m-3-1l-1-1h1v1m-4-2l-1-1h2l-1 1m15-1l-1-1 1 1M1713 3377c-46-53-52-122-18-176 7-11 16-22 30-29 8-5 19-7 30-7 6 0 12 0 18 3 17 6 26 21 31 35 22 64-21 137-91 174m28-93v-4l1-2a105 105 0 0 0 1-5v-1l-4-3-1 1h-1l-2-1v-2h-1l-1-1v-1l-1-1h-2l-1-1-1-2-1-1h-1-1v-1-2-2-2l-2-2 1-3v-2h1l2-2v-2l2-2a100 100 0 0 0 8-3l7-1a202 202 0 0 1 10 0l1 1 1 1 2 2 1-1h1a15 15 0 0 0 0 4l1 2 2 1 1-2h1v2l-1 2h3l1-2a163 163 0 0 0 1-2 73 73 0 0 0 1 5v1l-1 1-1 1v2l1 2-1 2-1 3h-1l-2 2-2 1-1 1-3 1a45 45 0 0 0-7 1l-1 2v4l-1 1h-1v-1-1l1-1-1-1v-1h-1v1h-1v-1-1l-2 2v3a49 49 0 0 0-1 5l3 1 1 2 1-1-1-1v-2l1-1 1 1 1 2a48 48 0 0 1 1-2v-1h3v2l-1 1h2l1-1 1-2 1 1 1 1h2l1-2 1 2 2-2 1-2 2-1a20 20 0 0 0 6-3l1-2v-9h1l3 3-1 2-1 2v1h2v-2a7 7 0 0 0 1-2l1 1v1h2l1-4v-4-2-2l-1-1-1-2 1-1v-1-1h-2l-2-1-1-2 1-1h1l1-1h-1a25 25 0 0 0-2-1h-1l-2 1v-2-2-1-1l-1-1v1l-1 2h-1v-1-2l1-1-1-2h-1l-1-1-1-1-1 2v-3-1h-2v4h-1v-2a19 19 0 0 0-2-3l-1-1-2 1v1h-2l-1-1-1-1-1-1v1l-1 2v1l-2 1v-1a22 22 0 0 0 0-4v-2l-1 1v1l1 1a62 62 0 0 0-2 3l-2-1-2-2v-1l-1-2-1 1-1 1v1l-3 1a15 15 0 0 1-2 0v-1h-3l-1-1c0 1 0 2-2 2a14 14 0 0 1-4 1l-1-1v5h-1l-2 1a23 23 0 0 0-2 1l-1 1-1 2v-1-1-1l-1-1-1 1-2 1h1l-1 1-1 1v-1l-1-1v-1l-1 1h-1v2l-1 3-2 2v1l2 1 1 2v9l1 2v1h-1v2l1 2 1 3 2 3 2 3v-1h1l-1 3 6 1 1 3 2 1h2l2 2h5v2l-1-1v1h-1l1 1h5l1 1m-9-5h-1v-3h1zm2-1h-1v-2h1v2m11-2h-1 1m1-1h-1v-1h1v1m0-2v-2h1v1l-1 1m27-5h-1l1-1v1m-53 0l-1-1-1-1-2-2 1-2h1l1 3 1 3m53-2h-1l1-1v1m-1-4h-1 1zm-59-1h0m61-1h-1 1zm-4-1h-1l1-1v1m10-1zm-6 0v-1l1 1h-1m-4 0v-1l1 1h-1m1-1v-1l-1-1v-1l1 1 1 1-1 1m0-4h-1 1m4-2v-1 1m-3-11v-1h1v1h-1m2-1h-1l1-1v1m-47-5v-1h1l-1 1m24-1l-3-1c-2 0-2-1-2-3h1l3 1 1 3m-9-2l-2-1v-2l1 1 1 2m-6-1h-1l1-1 1 1h-1m20-3v-1 1M1485 3505a159 159 0 0 1 80-195c6-2 14-4 21-4 8 0 16 2 23 6 13 8 16 24 15 38-2 64-64 128-139 155m58-84l2 1 1 1 2 1 2 1h1l1-1 3-2 2-2 2-2 1-1v-2l1-1v-2h1v-1l1-1 1-1v-1a45 45 0 0 1 1-3v-2h1-2l-2 1v-1l1-2h4l-1-1v-1-1l1-4a2 2 0 0 1 1 0v-1-1l-1-1 1-1 1-1 1-1-1-2v-1l1-1h1l1-1v-2l1-1 1-1 2-1 3-1 2-2h-2v-1-2-1h-2-2-2-1v1l-1 1v1h-1-1a13 13 0 0 0-5 2l-1 1v1a6 6 0 0 1-3 4 187 187 0 0 1-2 3v2h-1v-1a6 6 0 0 0-1-2l-2-1-1-1-1-2a12 12 0 0 0 2 0v-1a2 2 0 0 0-1 0v-1l-1-1v-1l-1 1h-1l-1 1v-1h-1-1a49 49 0 0 1-4-1v-2l-6 1-1-1h-1l-5 2-2 4 1 2v1l-1 1h-1l-1-1v-1-1l-1 1-1 2v5l-1 1v1h-1v1a49 49 0 0 0 0 5l1 1v1l-1 1 1 1 1 1v-1h2l-1 1-2 1h-1v2h2v1h4l-3 2 1 3 2 1 1 1h1v2l2 1h3v2l1 1h1v1l-1 2v1h2v-1h4l1-1m7 2h0m2 0v-1h1l-1 1m-4-8l-2-1a50 50 0 0 1-6-3l-1-1v-1h-1v-1l-2-1v-1-2-1-1l-1-1v-1l-2-2-2-1-1-1h-1l1-1 1-1h1l1-1-1-1h-1l1-2 1-2a73 73 0 0 0 3-1h1a14 14 0 0 1 3 0l1 1h3l1 1 3 2 1 3h1l1 1h1-1l-1 1 1 1h1a48 48 0 0 1 3 13l-1 2-2 2h-2l-2 1m-8-1h1-1m11-20l-1-1v-1h2l-1 2m5-6v-1h1v1h-1m-8-1v-1 1m-5 0v-2l1 1v1h-1m-5-1l-1-1h1v1m-2-1h0m12 0v-1h1l-1 1M1582 3968c-15-60-2-127 32-171 7-9 16-17 26-21l10-2c7 0 15 3 20 9 9 10 11 26 11 40-3 66-47 125-99 145m37-79h-1a25 25 0 0 0-3 9v2a21 21 0 0 0 3 4l1 1 1-1a115 115 0 0 0 5 0v-1h1v-1l1 1h1l1-1v-1h1v1h1v-2h1v-1l-1-1 1-2 1-1h-1a16 16 0 0 0-1-4h-2-1l-2-1a44 44 0 0 0-2-1h-1-1-1l-1 1-1-1m-4-47a22 22 0 0 1-1 5v1a94 94 0 0 1 0 3 148 148 0 0 1-1 13 147 147 0 0 1 1 10l1 1v6l2 1v1-1h2a6 6 0 0 1 1 0l2-3h1v-1-1h3l1-1 1-1v-2l-2-1-2-1-1-1 1-1 1-1h1l1-1v-1l-1-1h-2l-1-1 1-1v-1l1-1v-1-1h-1-1v-2-1h2v2h1v-1l-1-1v-1l-1-1v-1h2v-3-2-2h4l2 1h2l2 2 1-1 1 1h4a19 19 0 0 1 0 2h1l1 1a6 6 0 0 1 0 1l1-1v-1l-1-1 1-2a10 10 0 0 1 0-2h-1l-1-1-1-1h3l1 1a65 65 0 0 1-2-4l-1-2-1-1h-1l-1 1h1v2l-1 1h-1l-1-1 1-1v-1l-2-1v-2l-1-1-2-1a8 8 0 0 0-2 0l-2 1-1 1-1 1-2-1h-1-1-1v1l-1 2v1h-2v-1l-2 2a5 5 0 0 1-3 1m9 36v0m21-24c1 0 0 0 0 0m-26 47v-1 1m10-2v-1 1m13-50h-1 1m-12-4h-1l1-1v1m6-3l-2-1-1-1 1-1 1-1v1a8 8 0 0 1 1 2v1m-7-3v-1 1m4-3M1920 3877c-49-19-88-59-102-107-4-12-6-24-3-35 3-12 12-23 24-27l10-2c10 0 21 5 30 11 17 11 30 25 41 42v118m-31-75v5-1l2-5 2 1v1h-1l-1 1h3l1-1v-1-1h-1l1-1v-1h1v0h1l1-1v-1-4-1h2v-1a24 24 0 0 0-4 1v-1h-2l-1 1v3l-1 1-2-1-1-1-1 1h-3v1l-1-1v-1l-1-1h-1-1l-2-1a71 71 0 0 1-4 0h-3v-1h-2l-1 1h-2-1l1-1v-2h1l-1-1v-1a16 16 0 0 0-2 0v-1h1l-1-2-1-2v-2-1l-1-2v-2l-3 2v-1-1-1-1-1h4l-1-1h1v-3h1v-1l1-1 1-1v-1h3v-1h6a67 67 0 0 0 5-1h2v-1l1 1 1 1 3 2h4l1 1h4l1-1h2v-1-1h1v-1h-1v-1l-1-1-1-1v1l1 1-1 2v-1l-1-1h-1a9 9 0 0 1-2-1h-1v-1-1h1-1l-1-1v-1l-1-1-1-1v2h-1l-1-1v-1h-1l-1-1h-1-4-1v1l-1 1a8 8 0 0 0-2 1v1l-1-1-1-1v1h-1l-1-1a32 32 0 0 1 0-2l-1 1v2l1 1-2 2v-1h-1a29 29 0 0 0-2 0l-1-1-1-1-1 1h-1-1l-1-1-1 1h-1l-1-1-1-1v2l1 1v1h-1-1v-1 2h-1l-1 1v3h-1-1v-1-1h-1v4h-1v1h-2v-1l1-1h1-3v1l-1 1v1l-1 1h1v1h-1v3h-1v1l1 1h2l1 1-1 1-1-1h-2v1l1 1 1 1 1 2v2l-1 1 1 2 1 2v2h1v1h1v-2l1 1a9 9 0 0 0 3 0v-1 1l-1 1h-1v2l1-1v1h1v-1l1-1h1v4h-2l-1 1v1l1 1 2 1h1v-1l1 1 1 1 1 2v-1-2-1a28 28 0 0 1 0-2l-1 1-1-1v-1h2v-1h1v3h2l1-1h1a21 21 0 0 0-2 2v0a15 15 0 0 1 1 0v4h3a585 585 0 0 0 6 2h1l-1-1v-1l1 1 1 1 1 1h2v-1l1-1h1v1h0v1h-1l1 1a4 4 0 0 0 1 0l2-3h1v2h2l1-1a18 18 0 0 1 0-2h1m-2 2v-1 1m-8-1l-1-1h1v1m5-1h-1v-1h-1a11 11 0 0 1 0-3l1 1h2l1 1a13 13 0 0 0-2 2m-8 0h-1l-1-1 1-2v2l2-1v1l-1 1m17-1h0m-7 0h1-1m-7 0h-1v-1l1 1m-7 0h-2 2m1-1l-1-1v-2-2l1 1 1 2-1 1v1m3-1l-1-1-1-2h1v1h1l1 1-1 1m-7-1h-1v-1l1 1m14-1h-1v-1l1-1v2m-26 0h-1 1m37 0l-1-1 1 1m-18 0v-1 1m2-2v-1 1m-3 0v-1 1m19-1v-1h1l-1 1m-18-1v-1 1m-16 0v-1h1-1v1m-3-4h1-1m-5 0v-1h2l-1 1h-1m6-1h-1v-1-1-1 1h1a15 15 0 0 0 0 2m-6-2v-1zm10 0h-1v-1h1v1m-3-2h-1l-1-1v-1h1v-1h1v-1h1v-1h1l1 1-1 2-2 2m-4-2v-1l1 1h-1m-1 0v-1 1m2-1h-1v-1h1zm-1-4h-1l-1-1h2v1m-5-2h-1v-1l1 1m-3 0l-1-1h1v1m5-2h-1 1m3-8h-1 1m42 0l-1-1h1v1m-4-2h-1v-1l-1-1h1v1l1 1m-35-1v-1 1m25-5h-1v-1h-1v-2h3v1a12 12 0 0 1-1 2m3-2M1920 3282l-8-12c-7-12-12-24-14-39-1-14 3-31 13-40l9-5v96M1920 3441c-8-14-14-28-18-43-2-11-4-22 0-33 3-9 9-17 18-22v98M1920 3696c-45-32-75-82-80-137-2-14-1-29 5-43 6-13 19-25 34-28h6c13 0 25 6 35 14v43a23 23 0 0 0-1-3l-1-1-1 1h-1v-1-1h-1-1v-1h-5-1l-1-2h-2v2l-2-1-3-1v-2l-1-1h-1-2l-1 2-2 3-1 4v2l1 3-1 2v6l1 3-1 1v1a22 22 0 0 0 0 5 62 62 0 0 1 0 4 76 76 0 0 1-1 3v1a40 40 0 0 1 2 4v3a130 130 0 0 1-2 19v12h2v3l-1 2v3l-1 3-1 3 2 2h1l3-1 1 1v3h1a9 9 0 0 0 2-3 22 22 0 0 0 3-6v-3-4l1-1v-2-1h-1l1-6-2 1v-1l1-1 1-2 1-3 1-1 2-1a13 13 0 0 1 4 0l1-2 1 1 1 1 1-1a6 6 0 0 1 2 0l2 1v99m-21-71h-1 1m2-11l-1-1h1v1m2-2v-1h1l-1 1m0-16h-1 1m-2 0v-1 1m14-1v-1 1m-11-5v-1 1m14-2h-1l-1-1 1-1 1 1v1m-4-1a21 21 0 0 1-4-1l-2-1-1-1-1-1a114 114 0 0 0-2-4v-1-2a24 24 0 0 1 1-3 94 94 0 0 1 0-7v-3l-1-2-1 1 1 1v1h-1v-1l-1-1 1-2v-1l-1-1v-2-2l1-1v-1l2-1-1-1-1-1h3v1l1 1v1h3l1 1v1h1v-2-1l1-1h1a5 5 0 0 1 1 0v2l-1 2 1 2a359 359 0 0 0 5 4v23h-1a11 11 0 0 0-2 2h-1l-1 1-1 1m6-1h-1l1-1v-1 2m-17-11v-1 1m13-20v-1 1m2-5v-1h1l-1 1m-4-4h-1 1m-10 0h-1l-2-1-1-2 1-2 1-1h1v3 1h1a29 29 0 0 1 3-1l-1 2-2 1m-5-4a8 8 0 0 1-2-1l1-1 1-1v1a9 9 0 0 0-1 1l1 1m-4-2l-1-1h1v1m3-2l-1-1 1-1v2M1461 3299c-12-55 15-116 67-156 11-8 23-15 37-19l14-1c10 0 20 2 26 8 12 9 12 24 9 37-12 60-79 113-153 131m50-56l2 1v2h1l1-1h4l1-1v-2l1 1h1v-1-1-1l-1-2v-1l-1-2a50 50 0 0 0-1-1v-1 1a71 71 0 0 0 4 0v-2l-1-2a62 62 0 0 1-1-4c-1 0 0 0 0 0v-1h1v-1h-1l-1-1 1-1 2-2 1-1 1-2v-1h-1a54 54 0 0 1-3-2v-1a44 44 0 0 0 2-2l-1-2-1-2 1-2a53 53 0 0 1 2-2h-1v-2a14 14 0 0 0-1-3h-1v-6l1 1a121 121 0 0 0 5 7l3 2 2 1 1 2a85 85 0 0 0 3 5l1 1v-1l1-1 3 3 1 1 1 1v1l1 1 3-1 3-2 1-3 1-3h-2-1v-1h2l1-1 1-1v-1l2-1-1-1a45 45 0 0 0-1-2v-1l2-1-1-3 1-1h1v-1a28 28 0 0 0-2 0l-1-1 1-1a142 142 0 0 1 5-3v-1l-2 1a15 15 0 0 1-2 0h-1l1-2a64 64 0 0 0 2-2l2 2a8 8 0 0 1 0-1h1l1-1 1-1 1-1h1v-7l-1-2-1-1-1-2h-2l-4 1-4 1-1 2v5l-1 2v-1a10 10 0 0 0-1-2h-1v1a49 49 0 0 0 0 6 4 4 0 0 1 0 1l-1-1v-1l-1-1h-1v2l-1 2v3l1 3-2 1-1 2-1 3-2-1v-1-2-1l-1-1a60 60 0 0 0-3-2l-1-1v5l-1-1v-1h-1v-1l1-1v-1h-1 2l-1-2-2-1-1 1v-1l-1-1v-1a34 34 0 0 0-1-8l-2-3-2-2-1-1-1-1-1 1 1 1 1 1h-2l-1-1h-1-2a10 10 0 0 1-1 2h-1l1-1v-2h-1l-1-1-1-1h-1v2l1 2-1 3v3l1 2v2l-1 1 1 5 1 4-1 1v2l-1 2a118 118 0 0 1 0 3v27a1217 1217 0 0 0-2 17h2v-1m32-53v-1 1m-26 54v-1 1m1-1h0m-3 0v-1 1m31-29v-1h-1 1v1m1-4h-1l1-1v1m-5 0l-1-1-1-1-1-1h2l1 2v1m-21-8v-1h1l-1 1m5-18l-1-1-1-2 1-1h-2v-1h-1l1-1 1-1h1l1 2v1l-1 1h1v1l1 1v1h-1m-4-1l-1-1h-1l-1-1v-1h2l1 2v1m41-3l-1-1h1v1m-2 0l-1-1v-2l1 1v2m-48-2l-1-1 1-1v2m43-3v-1l1 1h-1m-2-2h-1 1m-42-3l-1-1h1v1M1269 3291c-17 0-34-2-50-6a181 181 0 0 1 162-116l17 2c13 3 26 12 30 23 5 14-2 28-11 38-32 39-90 59-148 59m100-51l1 4v4h2l1 2a2 2 0 0 0 1 0h2v-1-1h1l1-1h-1v-3-2l1-1v2a47 47 0 0 0 0 3v1h1l1-1a15 15 0 0 1 2-4l1-1h1v1h1l1-1v-1l1-2v-2a41 41 0 0 0 1-3l1-1v0l1-2h1l-2-6v-1a8 8 0 0 0 2 0h1v-3l1-2-2-3-2-2h-1v1h-1v-1a41 41 0 0 1-1-2h-1-1v-1l-1-1v-1 1h-1-1v-1-2-2l-1-2h-1v2l1 2-1-1-1-1-1 1-1 2h1l-1 1-1-1h-1v1h1v1h2l-1 1-2 1-1 1h1v1l-2-1-2-3-1-1v-1h-1-1v1h-1l-1-1v-2-2l-1 2-1 1h-1l-1 1v2l-2-1h-1v2l-2 1h-1l-1-2v2a82 82 0 0 0-1 2l-1 1h-1l-1-1-2 2-1-2v-1l-1-1v-1l1-1-1-1-1-2a13 13 0 0 0-3-1v-1l-1-1v-1h-1v2h-1a3 3 0 0 1-1-2v-1l-1 1v3h-1v3l-2-2-1-2 1-1v-1h-1a21 21 0 0 0-2 0h-1v2l-1 1a8 8 0 0 0-4 3l-1 3a196 196 0 0 0-1 3v-1-2h-2v2l-1 2 1 2 1 2a12 12 0 0 1-1 3l-1-2-1-2v1a62 62 0 0 0 0 9 79 79 0 0 0 2 8 35 35 0 0 0 3 3l1 2 3-1 1-4h2a34 34 0 0 1 0-3v-1-1-2l-1-1v-4h-1v-2-2l1-1 5 1 4 3 2 5a256 256 0 0 0 4 8l2 1 2-1 2-2 1-3v-2h1l1-1v-1l1 1h1l-1-1v-1l1-2h1a6 6 0 0 1 2 0h2l1-2 2-1 2-1 2-1h1a3 3 0 0 1 0-1h1v1h2l1-1a42 42 0 0 1 1 0h3l2 1 2 1 1 2-1 3a23 23 0 0 1-6 10 40 40 0 0 0-6 4l-1 1v1l1-1m3 2l-1-3h2l1 2-2 1m12-6v-1zm-63-4h0m30-7l-1-2-1-2v-1h1l1 2 1 2-1 1m40-4h-1v-1h1zm-26-2h-1l1-1v-1a9 9 0 0 1 0 1v1m-8 0v-1h1l-1 1m-15-1h-1l1-1v1m47 0l-1-1v-1a9 9 0 0 1 2 0v1l-1 1m-9 0l-1-2v-3h1v5m-14-1l-1-1h-1l1-2 1-1 1 1a10 10 0 0 1 0 2l-1 1m-32-2l-1-1a31 31 0 0 1-3-4v-1h1l3 4v2m30-2h1-1m5-1v-1h1l-1 1m-32-1v-3l1-2v4l1 1h-1-1m43-1h-1v-2l1 1v1m-35-1v-1h1l-1 1m19 0l-1-1-1-1h1v1l1 1m-35-2v-1h1l-1 1m3 0v-1l-1-1h1v2M1181 3656c0-61 40-120 103-151a106 106 0 0 1 44-12c15 0 31 6 39 16 10 12 7 28 1 41-25 61-106 103-187 106m94-44l1 2v1l-1 1a1 1 0 0 0 1 0l2-1a386 386 0 0 0 10-10l-1-1v-1l2-1a4 4 0 0 1 1 0l1-1a40 40 0 0 1 2-4v-1l-1-1h1l2-1 1-2v-1l-1-1 1-1v-1l-1-1v-1-2-1l1 1 1-1h2v-2l1-2h1l-1-1h-1l1-1h1l1-7v-1l-1-2 2-4h1l1-1a10 10 0 0 0 2-2l-1-1h-1v-1-1l1-3 1-2h-1-1v-1l2-2 1-1a4 4 0 0 1 2 0h2l-1-2 3-10h-2l1-3h2l1-2v-1 1h-1l-2-1v-2-1-2h-1l-1 1-2 1v-2-1h-1l-1 1a26 26 0 0 0-1 2v5l-2 5a195 195 0 0 1-6 11l-2 5v1a43 43 0 0 0 0 4v1l-1 2-2 3a156 156 0 0 0-1 5v1l-2 3-2 3a75 75 0 0 1-2-3l-1 1v1h-1l1-2 1-3-1 1-1 1-1-1v-1-1l1-1a7 7 0 0 0-4-2l-1 1h-2l-1-2-2-1-1-1h-2l-2 2v-1l-1-1h-1-1a46 46 0 0 0-6 2l-2 1-1-1h-1l-1 2a5 5 0 0 0 0 2l-1-1v-2h-1l-1 2-2 1-3 1-2 5 1 2v2l-1 2a11 11 0 0 0-1 5 48 48 0 0 0 0 4v2h3v1a33 33 0 0 1 2 3v-2-1-1h1l1 1v2a6 6 0 0 1 1 0v2l-1 2-1 1 1 1 1 2a24 24 0 0 0 3 2l1 1 2-1h3v3h1l1-1 1 1a9 9 0 0 0 1 0h1v5l2 1v-1l-1-2 1-1 2 1 1 2 1 1 2 1v-3h1m-3-2h-1l1-1v1m0-4l-3-1a16 16 0 0 1-4-3 17 17 0 0 0-3-2l-1-1a19 19 0 0 1-2-1l-1-2-1-3-1-2-2-1-2-1h-1l-2-1-1-1v-1h1l1 1h1v-1-1-2a5 5 0 0 0 1-1v-1l1-2v-1h-1 1v-1l1-1 1-1v-1-1h-1v-2l2 2 1 1h2l2-2 1-1 1-2-1-1v-1l1-1v1a21 21 0 0 0 0 4h1v1l1-1h3v1l1-1a40 40 0 0 0 1-1v4c0 1 1 2 3 2a8 8 0 0 1 1 0l2 2v3l2 1v4l1 2 2 1v2l1 2-1 1v1l-1 3a16 16 0 0 1-1 4v1l-2 1a58 58 0 0 0-3 2h-2m13-2v-1h1l-1 1m-28-1v-1l1 1h-1m-3-2h-1l1-1v1m-1-7l-1-1 1-1v2m-8-9h-1l1-1 1 1h-1m3-3v-1-1-2h1l1 1v3h-2m49-1h-1 1m-10 0v-1l1 1h-1m0-2h-2v-2l1-1h1v2a11 11 0 0 1 0 1m10 0h-1l1-1v1m-21-4l-2-1 1-1 2-1-1 3m23-1v-1 1m-28-1l-1-1h1v1m-22 0h-1v-1-1l2-1-1 3m10-2l-1-1v-2l1-1h2v2l-2 2m41 0v-1 1m-26-2v-2l1 1-1 1m-2-4l-1-1h1v1m29-4l1-1v1h-1m1-1v-1h1l-1 1M1343 3449c2-52 32-103 77-131a70 70 0 0 1 34-12c9 0 20 4 25 12 6 11 3 24-1 36-20 52-79 91-135 95m83-53l1 1 1 1h1v-1h1v1h1v-1h1l1-1h2v-1-1h2l1-1v-1l1-1 1-1h1l-1-1v-1h2l1-1v-4h-1l-1 1-1 1v-1-2-1-1a31 31 0 0 0-3-2h-1l-1 1-1 1v1h-2l-1-1-1 1v3l1 1h-1l-1-1h-1l-2 1-2-1-1-3v-1h-1v1h-1-1-1l-1-1v-1h1v-1h-1v1h-1l-1-1-1-1 1-1h2l-1-2v-2-1-2l1-1h-1l1-3 1-2a11 11 0 0 0-1-2v-1h-1v-1l1-4v-4-2l-1-1h-1-1l1-1v-1l-1-2-1-1h-2l-2-1v-1l-1 1h-1v-1h-1l1 2 1 1h-1-1v1l-1 2v8l1 2a22 22 0 0 1 0 3l-1 1v4l-1 3v4h1v2a18 18 0 0 1-1 4l-1 2-1 1h-2-1l-1 2-1 1-1 1-1 2 2 2v3h-1v5l1-1-1-1v-1l1-1 1 1v-2h1v4h1v-1-1h3l2 2h1v-1l1-1h1l1 1 1-3 2-1h1l1-1 2 1 1 1h2l2 1 2 3h1a12 12 0 0 0 1 0m-25-3v-1 1m6-3l-1-1v-1l1 2m23-3h-1v-1h1v1m-12-2h-1l1-1v1m19-1h-1 1m-28-17h-1v-1h1zm-2-4v-1 1m5-1v-1 1m4-2l-1-1h1v1m0-10v-1l1 1h-1m-5-2h-1l1-1v1m-2-1h-1v-2h1v2M1149 3472c-1-60 40-118 103-148a108 108 0 0 1 44-12c15 0 31 5 39 15 10 12 7 28 1 41-25 60-107 102-187 104m82-44v-1-1h2l2-2 3-6a107 107 0 0 0 2-10v-9-1l-1-1 1-4 2-5 2-2a63 63 0 0 0 2-3l1-1 2 1 1 1 1 2h2v-1h4l1 1v3l2 1v-1h-1v-1h1v-1h1l1 1v1l-1 1v2l-1 1v1h1v-1h1l1 1 1 1-2 1v1h3v-1-1h1c0 2 1 3 3 4 1 2 2 2 4 2l4-1h1l-1 2-1 1h-2l-1 2h2v-1h5l-1 4 1 1a21 21 0 0 0 3 0h1l1-1h-1v-2a114 114 0 0 1-2-4l1-1v1l1 1v-1h1l1-1h1l1-1v-1l1-2-8 1-1-1a19 19 0 0 0 6-1l1-1-7 1 1-1h1l1-1v-1a35 35 0 0 0-2-1l-1-1h-2v-1-1h-1l-1-1-1-2-1-1v2h-1v-2l1-2-1-2-2-2a19 19 0 0 0-4-2l-3 2 2-4 6-2 5-2 5-1 1-1 1-1 1-1h1l-1-2v-1h-1l-3 3 1 1h-2l2-3 3-3-2-3a10 10 0 0 0-3-1l-1 1v2l-1 2a17 17 0 0 1 0-2h1l-1-1v1h-1v2l-1 1h-1l-3-1-1-3-1 1v1l-1 2h-1a139 139 0 0 1-3 4v-1a68 68 0 0 0-4-3v1l-1 1-1 2h-1v-1l-1-2-1 2-1 1-1-1h-1v1a14 14 0 0 1 0 2l-1 1h-1l-1-1h-1l-1 1-1-1v1l1 1a65 65 0 0 0-3 1v3h-2v-1-1-1h-5v-1l1-1 1-1v-2-2-1-2-1l-1-1h-2l-2 1a7 7 0 0 1-1-2l-1-1 1-1h1-1l-2 1h-2v3h1v1l-1 1h-1v2l-1 2v4a33 33 0 0 1-1 6v2l1 5 1 5-1 9-2 9 1 3 2 2v1h-1v1l-1-1v-1 5l1-1h1l1 1-1 2-1 1-1-1h-1-1l2 1-2 1-1 2h2l2 2 1 1 2 1m50-18v1h1l-1-1m10-1h-1l1 1v-1m0-4l1 1h1v-1h-2m-13 0h-2 2m9-2v2h3l2-1 2-1-1-3-2-1-1 1h2l-1 1v1a35 35 0 0 1-4 1m-3 0c-1 0-1 0 0 0v1h1l-1-1m-3-14h-1 1s1 0 0 0m-16-25h-1v1h1v-1h1-1m-35-6h1-1m-2 64h-1l1-1v1m7-1h-1l-1-1v-1h1l1 1v1m-6-10zm59-7l-1-1h1v1m-7-4h-1 1m-10 0v-1h-1l1-2v-1h1v1l1 2-2 1m6-2l-1-1v-1-1a13 13 0 0 1 1-2l1-1v5l-1 1m-42 0l-2-1-1-1v-1h1v-1l1 2 1 1v1m33-1v-4h-3l1-2h3l1 2v1h-1v1l1 1-1 1h-1m8-4v-1 1m-5-5l-1-1 1-1h1v2h-1m-4 0v-1h1l-1 1m-2-1l-1-1v-4h1l1 2 1 1a11 11 0 0 1-2 2m-7 0v-1h1l-1 1m10-2h-1l-1-2a14 14 0 0 1 1-3v-1l2 1 1 1v1h-2v1l1 1v1h-1m-16-3v-1h1l-1 1m1-1h-1l1-1v1m2 0v-1 1m2-3h-1v-1-1h1l1 1-1 1m3 0v-1 1m-18-2h-3v-2l2 1 1 1m18-1zm-2-1l-1-2 1 1v1m15-2l-1-1h1v1m-18 0v-1 1m20-2v-1 1m-36-1zm30-1v-2h1l-1 1v1m1-2v-1h1l-1 1m-2-1v-1l1 1h-1M1275 3797c-14-57 4-120 48-161 9-8 19-15 31-19l12-1c9 0 18 2 24 8 11 10 12 26 10 39-6 62-61 117-125 134m74-49v2h2l3-3 2-4 1-2 1-1v-2-1h-1l-1-1 1-2 1-3v-3h-1v1h-1l1 1v2l-1 1-1-1a21 21 0 0 1-1-2v-1l1-1h1v-3-1-1h1v-1h-1a6 6 0 0 0 0-3l-1-1v-2l-2 1v-1-2l1-1h1l1-1v-1a32 32 0 0 0 1-3v-1l1 1 1-1-2-2v-1h1v1l1 1v1-1-3a19 19 0 0 1 1-5h-1v-2a44 44 0 0 1 1-3v-1-1l1-2v-1l1-1 1-3a74 74 0 0 1 6-6l2-2 1 1h2v-1h1v-2h2v-1h-1v-1-1-2h-1v-1l-1-1v-1l-1 1h-1-1v-1a31 31 0 0 0-2 1 4 4 0 0 1-2 1 7 7 0 0 0-1 0h-2v3l-1-1-1 3h-1l-2 1v2h-1l-1-1v3h-1v-2l-1 1v2l-2-1v4l-2 1-1-1-1-1h-1-1l-1-1h-2v-1l-1-1h-1-1v-1-1h1l-1-1a22 22 0 0 0-5-2l-2-1v1l-1-1v-1h-1l-1 1v-2h-2v4h-1l-1-2v-2h-1l-1-1h-2-2v3l-2 1 1-3v-2-1l-2 2-1 2h-1l-1-1v-1h-1l-1 2v1h-1-1v-2-2h-1l-1 1-1 1a5 5 0 0 1 0-1l-3 1-1 3h1l1 1-1 2-1 2 1 1v1l-1 1-1-1h-1l-1 3-1 4v3l1 3 1 1h1v1h-1l1 1 1 1h1v3l1 1v2l1 2 2 1h2v2l1 1h2l1-1v1h1l2-1 1 1 1 1h3l1-2 1 1-1 1v2h5l2-1h1v1l1 1h4v1h3l2-1-1 2 1 2v1h1v3l-1 3v3l1 1-1 1v1l1 1a46 46 0 0 0 1 5v4l1 5 2 4 2-1m3-1h-1l1-1v1m0-16l-1-2v-1l1-1h1v4h-1m-6-13v-1l1 1h-1m1-4h-1l1-1v1m4 0v-1 1m-14-2v-1l1 1h-1m19-3l-1-1v-1h1v2m-25 0v-1zm8-1h-1v-1l1 1m-6-1h-1v-2l1 1v1m23-1v-1 1m-27 0l1-1-1 1m8-1v-1-1h-2-2v-1l-1 1-1 1v-1l-2-1h-9l-4-2-3-3v-1l-1-3-1-2v-1-2-1-1l1-2 2-1 1-3 3-1h2a33 33 0 0 0 3 0 21 21 0 0 1 6 0l3 1 3 2 1 1a26 26 0 0 0 4 2l4 3h1v-2h1v3h2l1-1 1 2-1 1h-1l1 1v1a11 11 0 0 1 0 2l-1 1v1l-1-1h-1l-1 2-1 1-2-1-1 2v1h2v2l-2-1-1-1v2l-2 1h-1v1m-29-3v-1l1 1h-1m50-5h-1 1zm-52-2h-1v-1h1zm37-10h1-1m-39 0h-1v-1h1zm52-2l-1-1 1-1v2m-9-1h-1l1-1v1m-8-6v-1 1m26-2v-2-1l1-1 1-1h1l1 1-1 2h-1l-1 1-1 1m-33 0h-1l1-1v1m32-1h-1l1-1v1m-57-2M1444 3703c-17-50-7-108 28-149 7-8 15-16 25-20 5-2 9-3 14-3 7 0 13 2 18 6 10 8 13 21 13 34 0 56-44 111-98 132m21-76l1 1 1 1a9 9 0 0 0 1 1h1l1-1v-1-1l-1-2 1-1h2a18 18 0 0 1 1-2h3v-1l1-1v-3l1-2 1-1v-1-1-1h-1v-1-2-3-2h-3v-2-1l1-1v-5h1v-1h1v-1l-1-1h2v1l1 1 2 1 1-1v-1h-1 3l1 2v1h2l1 1a8 8 0 0 1 2 1h1l1 1v1l1 1a50 50 0 0 1 3 2l1 2a167 167 0 0 0 1 4v1a82 82 0 0 0 0 4l1 2 1 2-1 1v5l1 1 1 2 1 2v1h2l1-1v-1h2a2 2 0 0 1 1 0l1 1h1v-1l-1-1v-4h-1l1-1 1-1v-1l1-1v6h1v-8h1a68 68 0 0 0 2-4l-1-1-1-1v-1-2h1v-1a3 3 0 0 0-1 0l-1-1-1-1v-4l-1-1h-1v1l1 1h-3v-2l1-1v-1h-1v-1h1v-1h-1v-1l1 1h1l1-2h8v1a41 41 0 0 1 5 0l1-1v-1l-1-1v-1-1h1v-1-1l-1-1h-1v2h-2l-1-1-1-1v-1-1l-1-1-1-1h-1l-1 1v-2l1-1-1-1h-1l-1-1h-1l-1 1-1 1v1h1l-1 1v1h1v-1l2-1-1 2-2 2-1-1-1-1v-1l1-1v-1l-2 1-3 1v-1l2-1-1-1h-1-1l-1 1v3h-3l-1 1-1 1v1l1 1h-1a10 10 0 0 0-2 0l-1 1-1 1v1h-1v1l-1 1-1-1v-4h1v-1h-1v-1h-1-1l-1 1-1-1v-2h-1l1-1v-1h-1v1l-2 1h-4-2-2a7 7 0 0 1-1 0v1h-1l-1 1h-1l-2 1v1l-1 1-1 1h1l1 2h-1v-1h-1v2h-1-2v1l-1 1v3l-1 5h1l1 1v2h-1l-1-1-1-1a3 3 0 0 0 0 2h1l-1 2-1 2 1 1v3l1 4 1 5v4l2 3a4 4 0 0 1 0-1v-1m14-3l-1 1v2l2-1v-2h-1m0-4l-2 2-1 2v1l1-2 2-1 1 1h1v-1l-1-1h-1v-1m-12 8v-1-1l1 1-1 1m2-1v-1 1m38-2v-1 1m0-3v-1 1m-33-2h0m37-1h-1l1-1v1m-3-4v-1 1m2-1h-1v-2l1 2m-43 0h-1v-1-1-1l1 1v2m-3-3h-1v-1-1h1v2m42-1v-1 1m-32 0h-1v-1l1 1m37-1h1-1m-4-1h-1v-1h1v1m-38 0h-4l1-1h2l1 1m6 0l-1-1v-1-1h2v1l-1 2m-11-1h-1v-1h1zm7-1h-1v-1-2l1-1 1 1 1-1 1 2h-1-1v2h-1m39-1h-1v-1-1h-1v-1h2v3m-41 0h-1v-2 1l1 1m-3-2l-1-1h1v1m6-3h-1v-1h2a7 7 0 0 1-1 1m26-1h-1v-1l-1-2v-2l-1-2v-1h1l1 2 1 2v4m-23 0h-1l-1-1h1l1 1m18-3h-1l1-1v1m-27 0h-1l-1-1v-1h1v1l1 1m35-1h-1v-1l1 1m8-2v-1 1m12-2h-1v-1h1v1m-23 0l-2-1-1-1h2l1 1v1m-13-1v-1h2l-1 1h-1m21-1v-1h-1v-1-1a24 24 0 0 1 1-2l1-1v5l-1 1m-7 0v-1h1l-1 1m20-1h-1l1-1v1m-34-1v-1 1m18 0v-1 1m-18 0v-1h1l-1 1m-3-2v-1h1l-1 1m3-1h-1 1m20 0l-1-1h1v1m2-1v-1 1M1602 3728c-39-54-45-125-15-181 6-11 14-22 25-30 7-4 16-7 25-7 5 0 11 1 16 4 15 6 22 22 26 36 19 67-18 141-77 178m34-98l1-2v-3l1 1v4h1v-1-1-1h1l1 1h3v-1-1-1h2v-1h-1-1l-1-1v3h-1v1l-1-1 1-2v-2h-1l1-2h1v1h-1v1h1l1-1v-1l1 1h2v-2a7 7 0 0 1 1 1l1-1v-1l1-1h1v-1h-1l-1 1h-1l2-3h-3v-1a8 8 0 0 1 1-1l1-1v-1-1l-1 1h-1v-2-1l-1-1h-1-1v-1l-1-1v1h-3l-1-1-1 1h-1v-1-1-1l-1-1-1-1v2h-1-1v-1 3h-1-1l-1-1v-1l1-1v-1-2h1a66 66 0 0 0-4-2l1 2v2h-1v-1-2l-1-1v1l-1 1-2-1h-1-2l-1 2v-3l-1 1-1 1v-1-1-1l1-1h1a343 343 0 0 1 11-3h1v-1l1-1h8l1-1h3v-1h1v1h3l1-1h1l2 2h4l-1-1 2-1h1l-1-1v-1-2-1h-1v-1h1v-2h-1v1h-2 1v-1-1h-2-4v1l-4-1v2l-1-1v-1h-2-1-1v2a12 12 0 0 0-1 0l-1-1h-1v1h-1-1l-1-1v-1-1h-1-1v2h-1v-1h-1-2-1a31 31 0 0 0-2 1h-2v2h-2v1l-2-1-1 1v2l-1-1v-1h-3l-1 1v2l-1 1h-1-1v1l-1 1-2 1-1 2a53 53 0 0 1-1 2l-1 1-2 3v3h-1a19 19 0 0 0 0 4v7a20 20 0 0 0 0 4l1 2 1 1v-1l-1-1a11 11 0 0 0 2 0h1v1l1 1v-1h1a6 6 0 0 1 2 0v3l-1 3 1-1h1l1 1h-2l1 2v1h1a7 7 0 0 0 2 0l1-1v-1h2l2 1v1l1 1 1-1h1v2h-1v2l1-1 1-1h1l1-2 1-1v1-1h4l-1 1h-1v1h1v1l1-1h2l1 2 1-1v-1h1v-1l1 1v3m-3-4v-1h1l-1 1m-13-1l-1-1v-1h2v2h-1m-8 0l1-1 1-1v2h-2m27 0h-1v-1h1zm-3-1h-2l-2-2-2-1-2-1h-1l-1 1h-1v-1l-1-1h-1v-1h-1a11 11 0 0 0-1 0l-1-1v-1l-1 1-3-6h-1l-1-1v-1l-1-1-1 2v-1-1-2-1h-1v-3h-1 2v-1h1v5h1l1-1 1 1h2v2h3l2 1 2 1v-2h3l1 4a26 26 0 0 0 3 0 7 7 0 0 0 2 0l1 1v2a13 13 0 0 1 3 0h2v3l1-1h1l-1 3-2 2-1 1-2 1m-13 0h-1l1-1v1m-5 0h-1l1-1v1m0 0v-1 1m9-1h-1a1094 1094 0 0 0 2-2h1v1h-1l-1 1m-4 0v-3 1l1 1v1h-1m-8 0h-1v-1h1v1m1-1v-1 1m-4-1h-1v-1h2l-1 1m4-1h-1v-1h1zm28 0v-1l1 1h-1m-21 0l-1-1h1v1m-11-1v-1 1m35 0l-1-1h1v1m0-1v-1 1m-3 0v-1 1m-25 0h-1l1-1v1m-10-1l-1-1v-1h1l1 1-1 1m5-1v-1 1m-5-1v-1l1 1h-1m29-1h-1-1v-1l1 1h2-1m4 0l1-2 1-2v2l-1 2h-1m-35 0v-1h1l-1 1m39-1h-1l1-1v1m-7 0h-1v-1h1v1m1 0v-1h1l-1 1m-33-1v-1 1m24-1v-1-1l1-1h1v2h-1v1h-1m9 0v-1h1l-1 1m2-2h-1 1m-11 0h-1v-1h1zm10-1h-1v-1h1zm3 0l-1-1h1v1m-11-1zm-26 0v-1 1m35-1h-1 1m-1 0h-1 1m-5 0h-1v-1l1-1v2m-5 0v-1 1m-16-2h0m21 0l-1-1h1v1m-22-2v-1 1m11-2h-1 1m-7-6h-1 1zm8-5h-1l1-1v1m-10-1zm20 0h-1l-1-1 1-1h1v2m-9 0v-1h1l-1 1m3-1h-1 1m-7 0l-1-1v-1l1-1v3m-8 0v-1l1-1h-1v-1l1 1 1 1-1 1h-1m35-1v-1 1m-3 0l-1-1 1 1m-26 0l-1-1h1v1m30 0v-1 1m-16-1v-1l1-1v1l-1 1m15 0h-1v-1h1v1m-33-1v-1l1 1h-1m-2 0v-1h1l-1 1m1-1h-1l1-1v1m1-1h-1 1m9 0v-1 1m23-1v-1 1m-15 0v-1 1m5-1v-1 1m15 0l-1-1h1v1M1485 3868c-24-47-21-105 7-147 5-9 12-17 22-22 5-3 10-4 16-4 5 0 11 1 15 4 11 6 15 19 17 31 7 55-28 112-77 138m20-47v5h3v1h1a8 8 0 0 0 1 0v-2l1-1a17 17 0 0 0 1-3h-1v-1-1-1-2a51 51 0 0 1 1-2l-1-1v-2h1v-1-1h-1v-1-1-1-1-3-1l-1-1v-9-1l-1-1 1-3v-4l1-3v-2-2-2-2-1-2l1-1-1-1 1-2 1-1 2-1 1-1h8v1a4 4 0 0 0 2 0v-1-1h2v2l3 1h3v-1a5 5 0 0 0-2-2h-1l1-1 1-1-1-1h-1l-2-2v-3 1h-1v-1h-2v-1h-2l-1-1v-1h-7l-1 1v-1h-1v-1h-1l-1 1h-2-1v2l-1 1a25 25 0 0 1-2 1l-1-1v-1l-2 1h-1l-1-1h-1l1 2v2l-1-1v-1l-1-1h-1l1 2v1h-1v-1h-1-1v1l1 1v1h1l1 1v4a6 6 0 0 0-1 1l-1 1v1l1 1 1-2h1v2l-1 1-2 1 1 1 1 1v-1h1v-1-1h1v3h-1v2a6 6 0 0 1-1 1h-1v-1-1-1l-2 1h-1v1a14 14 0 0 0 3 3l1 1v2h1v3h1v1a47 47 0 0 1-3-1v1l1 1h1l1 1h1v1l-2-1h-2l1 1h1v1l1 1-1 1-2 1h-2v4h-1v2h1v-2-1h1a14 14 0 0 1 1 1l-1 1 1 1v0h2v3l1-1v2h-4v2l1 1a28 28 0 0 1 0 2l1-1v-1l1 2-1 1h-2v1h3l1 1v2l-1 1v1l1 1v2l-1 1v4h1v1l-1 1c0 2 1 2 2 2h2l1-2m3 3h-1v-1h1v-1l1-1h1l-1 2-1 1m-1-1v-1 1m-6 0v-1h1l-1 1m6-2l-1-1h2l-1 1m4-2v-1 1m-8-17v-1l1 1h-1m-4 0l-1-1h1v1m8-9l-1-1h2v1h-1m0-3v-1h1v1h-1m3-13h-1 1m-10-1l-1-1h1v1m3-2v-1 1m4-3l-2-1h2v1m-2-8v-1zm-5-3v-1h1l-1 1m27-5v-1 1m-25-1l1-1v1h-1m23-1v-1l1 1h-1M1757 3765c-39-43-56-104-44-155 3-10 6-21 14-28 5-6 13-9 21-9l9 1c13 4 22 17 27 29 26 56 12 123-27 162m9-79h2-1 3l1-1h1v-2h-1v-1-1-3l-1-2v-1-1a180 180 0 0 0-5-5l-1 1v0h-1l1-1-1-1a23 23 0 0 0-1-2h-2v-1l-1-1v-1 2l-1-1v-1h-3v-2 3l-1 1-1-1h1v-1l-1-1-1-1v-1-1h-2l-2-3v1l-1 1-1-1h-1v-2-1h-1v-2h3l1-1v1l1-1 2 1h5a107 107 0 0 1 7 0h2a24 24 0 0 1 4-1l1 1h3v-1l1 1h3v-1l1 1h1l1-1 1-1h4l1-1 1-1h-1v-1h1v-1l-1-1-1-1-1-1h-1l1 1h-1l-1 1h-1l1-2h-1l-2-1h-4-1v1h-1v-1h-2l-1 1-1-1c1 0 0 0 0 0v2l-1-1v-1l-1 1v3l-1-1a6 6 0 0 0-1 1v1l-1-1-1-1a14 14 0 0 0-1 0h-1l1 1 1 1-1 1-1-1 1-1h-1l-1-1h-1v1l-1 1v-1-2h-1l-1 1h1v2-1h-1-1v-1h-1l-1-1-1-1h-1l-1 1-1 1v-1l-1-1-1 1-1 1v-1h-1v1l-1 1h-1v-1l1-1-1-1h-1v1l-1 1v-1-1l-1 1v1h-1v-1l-1-1v1h-1-1-1-1l-1 1v1l-1 1h-1v-1-1h-1l-1 1 1 1 1 1-1 1h-1v-1l-1 2-1 1 1 1v1h3v1h1v-1l-1-1h1v-1l1 1h2v5l1 1v-1-1-1h2v1h-1v1h1l1-1v4l1-1 1 2 2 1v-1-1l1 1v2l1 2 1 2h3l1 1h-1v1h1l1 1v-1 1l1 2 3 1v-1l1 1v1l1 1v1h1l1 1h2v1h-1-1-1l-1-1v1h-1-1v-1h-1v1l-1-1h-1v2h-2l-1 1v-1-1h-1-1v1h-1v-1l-1 1v1l-1-1-1-1h-1l-1 1v-1 2l-1 1-1 2v1h7l2 1h2-1 11l1-1v1h2l1 1h2m-10-5v-1h1l-1 1m-3 0v-1 1m8-1v-2h1v1l-1 1m-6 0h-1l1-1v1m-3 0v-1 1m12-1v-1 1m-2-2zm-2-2l1-1v1h-1m6 0v-1zm-7-1zm8-1v-1 1m-4 0v-2 2m-9-1h0m7 0v-1 1m-3-1v-1 1m-1-3h1-1m2 0l-1-1v-1h1l1 1a3 3 0 0 1-1 0v1m3 0h-1v-1h1zm-6-1l-1-1v-1l1 1v-1h1v1l-1 1m1-2h-1v-1h1zm-10-4zm3-1l-1-1h1v1m-2-1l-1-1 1 1m-6 0h-1 1zm2 0v-1h1l-1 1m-8-6v-1-1l1 1v1h-1m7 0v-1 1m-14 0v-1 1m2-1h-1 1m35-1h-1 1zm19-2h-1 1zm-3-2l-1-1v-1 1h1v1m-38 0v-1 1m32 0v-1 1m-30 0v-1h-1 1v1m35 0v-1 1m3-1zm-1 0h-1 1m-9 0h-1v-1h1v1m-5 0l-1-1h1v1m0-1v-1 1m10-1h1-1m-8 0v-1 1m-1 0h-1l1-1v1m2-1M1779 4022c-50-53-73-127-59-189 3-12 7-25 16-34a37 37 0 0 1 38-8c15 5 26 21 34 36 33 67 17 149-29 195m4-90l1 1a196 196 0 0 0-2 2l1 1a94 94 0 0 0 4 2v-1l1-1h2l2-2-2-2a16 16 0 0 1 0-6h-1l-1 1h-1l-1 1 1-1v-1l-1-1-1 1-1 1v1h1v1h-3l-2-1h-2-1l-2-1-3-1-1-5h-4l-1-1v-9h-2v-1l2-1v-1h1v-6l-2-2v-2-1-2l2-1v-3-3l2-2h3l1 1h5l1-1 1 1v-1h2v1l1-1 2-1a8 8 0 0 0 0 1 11 11 0 0 1 0-1h1l1-1v1h0v-1h1l3-2h-1l-2-1v-1-1-1h2v-2h-2a8 8 0 0 0-2 0h-2-1l-1 1 1 1h-1-1-1l-1-1v-1-1-2h-2l-1-1 1 2-2-1-1-1a6 6 0 0 1-3-1l-1-1-1 1-1 1-1-2a11 11 0 0 1 0-2v-1l1-2 1-2 1-2h-1v-1l1-3v-4a18 18 0 0 0 0-2h-1v-4l-1-1-1-1v-2l1-3a18 18 0 0 0 0-2v-1h2a18 18 0 0 0-1-6l-2-3-1-2v3h-1l-1-1v-1l-1-2v-1h-4v-1-1-1a76 76 0 0 0-3-5l-2 2v1a32 32 0 0 0 0 4l1 1 1 1v1a37 37 0 0 0 0 4v2l2 2v5l-1 4 1 1h1l-1 1h-2l1 1a32 32 0 0 1 2 4l1 2-1 1v1h-1v2l1 1-1 1-1 1-1 1 1 2 1 3-1 2-3 1h-1v-1h-6l-1-1-1-1-1 1h-1-1l-1-1v5l2-2h1v1a13 13 0 0 0-1 1l-1 1-1 1v1l1 1 2 2h1v2l1 1 2 1 1 1 1 1 2 1 1 1 1-1 1 1h-1l-1 1h-1v2-1h1l1-1a23 23 0 0 1-1 4v1l-1 1v6h1l1 1-1 1v7a23 23 0 0 0 0 7l1 3 1 1 1 1a109 109 0 0 0 2 2 78 78 0 0 1 3 7l1 2h2l3 2 2 1 2 1a111 111 0 0 1 3 1h3v1l1 1v-1l1-1h1l3-2m-3 0h-1 1m-14-10v-1l1 1h-1m-2-6l1-1-1 1m0-2h-1v-1-1l1 1v1m-3-4l-1-2h2l1 1-2 1m-1-3h-1v-1l1 1m3-3v-1 1m-3-4v-1l-1-1 1-1 1 1v2h-1m-2-3h-1 1m3 0v-1h1l-1 1m-8-1v-1h1l-1 1m10-1v-1l1 1h-1m-10-3v-1l1-1v1l-1 1m5-2v-1-1 2m9-2h-1l1-1v1m0-1h-1l1-1v1m-9-1v-1 1m23-4l-1-1h1v1m-26 0v-1h1l-1 1m-4-2l-1-1h1v1m13-1h-1v-1h1zm-17-1l1-4v-1l2 1 1 2v1h-1-1v1h-2m9 0h-1l-1-1-1-1 1-1v1h2v-4l1 1v1a13 13 0 0 1 1 3l-1 1h-1m4-3v-2a5 5 0 0 1 0-2h1v2l-1 2m-14 0l-1-2v-2-1l1-1v1a11 11 0 0 1 1 4v1h-1m23-1l1-2-1 2m-11-1v-1 1m4 0v-1h1l-1 1m-12-2l-1-1v-1l1 1v1m7-1h-1v-1l1-1v2m0-9v-1 1m10-2h-1v-1h1zm2-3v-1 1m0-2h-1l1-1v1m-9-11v-1 1m2-1l1-1v1l1-1 1 1h-3m-3-1v-1 1m0-7h-1v-1a19 19 0 0 1 2-3v-1 4l-1 1" fill="#c9c9df"/><path d="M1880 3189l-2-2c-23-37-62-84-95-91l-8-1c-38 0-92 47-136 91l-5 1c-3 0-7-3-5-7 22-46 37-94 48-144 0-3-3-6-6-6l-4 2a432 432 0 0 1-141 83c-5 0-8-5-4-9 72-57 111-145 113-231 2-98-39-194-97-278-3-4 0-8 4-8h1a1533 1533 0 0 0 317 3c5 0 7 5 5 8-66 87-83 178-83 284-1 84 72 191 103 287 2 5-2 18-5 18M1787 3938l-1-1a30 30 0 0 1-4-2l1-1 1-1-1-1-3 2h-1l-1 1v1l-1-1v-1h-2-1l-2-1a131 131 0 0 0-10-4l-1-2-1-2a117 117 0 0 0-3-6l-1-1-1-1-1-1a22 22 0 0 1-1-10 24 24 0 0 0 0-5v-2l1-1-1-1h-1v-6l1-1v-1a12 12 0 0 0 1-4l-1 1h-1v2-1-1-1h1l1-1h1l-1-1-1 1-1-1-2-1-1-1-1-1-2-1-1-1v-2h-1l-2-2-1-1v-1a18 18 0 0 0 3-3v-1h-1l-2 2v-5l1 1h2l1-1 1 1 1 1h6v1h1l3-1 1-2-1-3-1-2 1-1 1-1 1-1-1-1v-2h1v-1l1-1-1-2a24 24 0 0 0-2-4l-1-1h2l1-1h-1l-1-1 1-4v-3-2l-2-2v-2a21 21 0 0 1 0-4v-1l-1-1-1-1v-2-2-1l2-2a106 106 0 0 0 3 5v3h4v1l1 2v1l1 1h1v-1-1-1l1 2a20 20 0 0 1 3 9h-1-1v3l-1 3v2l1 1 1 1v4h1v6l-1 3v1h1l-1 2-1 2a60 60 0 0 1-1 3 14 14 0 0 0 0 2l1 2 1-1 1-1 1 1 2 1h1l1 1 2 1-1-2 1 1h2v4l1 1h3l-1-1 1-1h1a36 36 0 0 0 3 0h3v2h-2v3l2 1h1l-3 2h-1v0l-1 1h-1l-2 1-1 1v-1h-1-1v1l-1-1-1 1h-5l-1-1h-3l-2 2v6l-2 1v5l2 2v6h-1v1l-2 1v1h2v9l1 1h4l1 5 3 1 2 1h3l2 1h3v-1h-1v-1l1-1 1-1 1 1v1l-1 1 1-1h1l1-1h1a26 26 0 0 0 0 3v3l2 2-2 2h-1-1l-1 1v1m-8-6h1-1m-13-11v1h1l-1-1m-1-6l-1 1 1-1m-2-3v2h1v-1l-1-1m-3-4l1 2 2-1-1-1h-2m-1-2v1h1l-1-1m4-3v0m-3-6l-1 1 1 1v1h1v-1-1l-1-1m-2 0h-1 1m3-1v1l1-1h-1m-8-1v1l1-1h-1m10-1v1h1l-1-1m-9-4l-1 1v1l1-1v-1m4-2v2-2m9-1l-1 1h1v-1m0-1l-1 1h1v-1m-9-1v0m22-4l1 1v-1h-1m-25 0v1l1-1h-1m-4-2h-1l1 1v-1m12 0h1v-1h-1zm-15-6v1l-1 4h2v-1h2v-1l-1-2-2-1m6 2l-1 1 1 1 1 1h2l1-1v-1l-1-2v-1l-1-1v4h-2v-1m6-4a6 6 0 0 0 0 2v2l1-2v-2h-1m-14-2l-1 1v3l1 2h1v-1a10 10 0 0 0-1-4v-1m24 3l-1 2 1-2m-12 0v0m5 0h-1v1l1-1m-14-3v1l1 1v-1l-1-1m8-1l-1 1v1h1v-2m0-8v0m9-1h1v-1h-1zm3-4v0m0-2l-1 1h1v-1m-9-11v0m3-1l-1 1h3l-1-1-1 1v-1m-4-1v1-1m1-11v1l-1 1a19 19 0 0 0-1 3h1l1-1v-4m28 56h-1 1m-47-13M1231 3428l-2-1-1-1-2-2h-2l1-2 2-1-2-1h2l1 1 1-1 1-2-1-1h-1l-1 1v-5 1l1 1v-1h1v-1l-2-2-1-3 2-9 1-9-1-5-1-5v-1-1a249 249 0 0 0 1-6v-4l1-2v-2h1l1-1v-1h-1v-3h2l2-1h1-1l-1 1 1 1v1l1 1 2-1h2l1 1v1a16 16 0 0 1 0 3v4l-1 1-1 1v1h5v3h2v-3a18 18 0 0 1 3-1l-1-1v-1l1 1 1-1h1l1 1h1l1-1v-1-1-1h1l1 1 1-1 1-2 1 2v1h1a17 17 0 0 0 2-4l1 1a37 37 0 0 1 3 3l2-2 1-2h1l1-2v-1l1-1 1 3 3 1h1l1-1v-1-1h1v-1l1 1h-1v2l1-2v-2l1-1 3 1 2 3-3 3-2 3h2l-1-1 3-3h1v1l1 2h-1l-1 1-1 1-1 1-5 1a88 88 0 0 0-11 4l-2 4 3-2 1 1 3 1 2 2 1 2-1 2v2h1v-2l1 1 1 2 1 1h1v2h2l1 1h1l1 1v1l-1 1a71 71 0 0 0-2 1l7-1-1 1-2 1a17 17 0 0 1-4 0l1 1 8-1a92 92 0 0 0-3 4l-1 1h-1v1l-1-1v-1a7 7 0 0 1-1 1l1 2a111 111 0 0 0 1 5h-2a21 21 0 0 1-2 0l-1-1 1-4h-2a10 10 0 0 0-2 0h-1v1h-1-1l1-2h2l1-1 1-2h-1l-4 1c-2 0-3 0-4-2-2-1-3-2-3-4h-1v2h-3v-1a2 2 0 0 1 2-1l-1-1-1-1h-1v1h-1v-1l1-1v-1-1l1-1v-1l-1-1h-1v1h-1v1h1v1l-2-1v-2-1l-1-1h-4v1h1-3l-1-2-1-1-2-1-1 1-1 1-1 2-2 2-2 5-1 4 1 1v10l-1 3a108 108 0 0 1-4 13l-2 2h-1-1v2m-3-7l-1 1h1v-1m5-2v1l1 1h1v-1l-1-1h-1m-4-8zm52-11h-1 1m-10-4v1l-1 2h1v1l2-1-1-2v-1h-1m7-4l-1 1-1 1v3l1 1 1-1a2 2 0 0 0 0-1v-2-2m-45 2v1h-1v1a11 11 0 0 0 3 2v-1l-1-1-1-2m34-1h1v4h1l1-1-1-1v-1h1v-1l-1-2h-3l-1 2h2m9-1v0m-5-6l-1 1 1 1h1v-1-1h-1m-4 1v1l1-1h-1m-3-5v4l1 1 1-1 1-1-1-1-1-2h-1m-6 4v1l1-1h-1m9-7v1l-1 2v1l1 2h2v-1l-1-1v-1h2v-1l-1-1-2-1m-15 2v1l1-1h-1m1-1l-1 1h1v-1m2 0v0m1-4v2h1l1-1-1-1h-1m4 1v1-1m-21-3v2h3l-1-1-2-1m21 1zm-3-3l1 2v-1l-1-1m15-1l1 1v-1h-1m-17 0v1-1m20-2v1-1m-36 0zm30-3v1l1-1h-1m1-1v1l1-1h-1m-2-1v1h1l-1-1m13 47v-1l1 1h-1m10-1l-1-1h1v1m1-4l-1-1h2v1h-1m-15-1h-1 1a10 10 0 0 1 1 0h-1m12 0h-2v-1-1l1 1v-1h1l2-1v-1l1-1h-2l1-1 2 1 1 3a92 92 0 0 1-5 2m-3-1h-1-1v-1c-1 0-1 0 0 0l1 1h1m1-1h1a2 2 0 0 0-1 0m-6-14h-1 1c1 0 0 0 0 0m-16-24h-1v-1h2-1v1m-35-7h1-1M1514 3246h-1v-1-1l-2-1v1h-2v-2-8l2-7v-27-1-2l1-2v-1-1l1-1-1-4-1-5 1-1v-2l-1-2v-3l1-3-1-2v-2h1l1 1 1 1h1v2l-1 1h1l1-1v-1h1a14 14 0 0 1 1 0h1l1 1h2l-1-1-1-1 1-1 1 1 1 1 2 2 2 3 1 4v5l1 1v1l1-1 2 1 1 2h-2 1v1l-1 1v1h1v1l1 1v-5a24 24 0 0 1 4 3l1 1v4l2 1 1-3 1-2 2-1-1-3v-3l1-2a39 39 0 0 1 0-2h1a20 20 0 0 1 1 2l1 1v-1a50 50 0 0 0 0-6v-1h1l1 1v2l1-2a61 61 0 0 0 0-5l1-2 4-1 4-1h2l1 2 1 1 1 2v7h-1l-1 1-1 1-1 1h-1v1l-2-2h-1l-1 2-1 2h3a15 15 0 0 1 2-1v1l-1 1a35 35 0 0 1-4 2l-1 1 1 1h2v1h-1l-1 1 1 3-2 1v1l1 1v1l1 1-2 1v1l-1 1-1 1h-1-1v1h3l-1 3-1 3-3 2-3 1-1-1a8 8 0 0 1-1-2l-1-1-3-3-1 1v1l-1-1-1-2a86 86 0 0 1-3-5l-2-1-3-2-1-1a192 192 0 0 1-5-7v6h1v1l1 2v2h1l-1 1-1 1-1 2 1 2 1 2a19 19 0 0 0-2 2v1a51 51 0 0 1 4 2v1l-1 2-1 1a13 13 0 0 1-3 3l1 1h1v1h-1v1s-1 0 0 0v2l1 2 1 2v2h-1a39 39 0 0 1-3-1v1l1 1 1 2v1l1 2v3h-1l-1-1v2l-1 1h-4l-1 1m3-3v0m1 0h0m-3-1v1-1m30-29h1v0h-1m2-4l-1 1h1v-1m-8-2l1 1 1 1 1 1v-1l-1-2h-2m-17-6h-1v1l1-1m2-24l-1 1-1 1h1v1h2l-1 1 1 2 1 1h1v-1l-1-1v-1h-1l1-1v-1l-1-2h-1m-5 3v1l1 1h1l1 1v-1l-1-2h-2m43-1l1 1v-1h-1m-2-2v2l1 1v-2l-1-1m-47-1l-1 1 1 1v-1-1m43-2v1h1l-1-1m-2-1h-1 1m-42-4h-1l1 1v-1m31 21v-1 1M1428 3398a25 25 0 0 1-2-2h-1-1l-2-3-2-1h-1-1l-1-1-2-1-1 1h-1l-2 1-1 3-1-1h-1l-1 1v1h-1l-2-2h-3v2h-1v-2-1-1h-1v2l-1-1-1 1v1l1 1-1 1v-2a21 21 0 0 0 0-2v-1h1v-3l-2-2 1-2 1-1 1-1 1-2h3l1-1 1-2a16 16 0 0 0 1-4v-2h-1v-1-3l1-3v-1-2-1l1-1v-2-1l-1-2v-1-1-6l1-2v-1h2l-1-1-1-2h1v1h1l1-1v1l2 1h2l1 1 1 2v1l-1 1h2l1 1v6l-1 4v1h1v1a8 8 0 0 1 1 2l-1 2-1 3h1l-1 1v3a8 8 0 0 0 1 4h-1-1l-1 1 1 1 1 1h1v-1h1v1h-1v1l1 1h3v-1h1v1l1 3 2 1 2-1h1l1 1h1l-1-1v-1-2l1-1a14 14 0 0 0 3 1v-1l1-1 1-1h1a21 21 0 0 1 3 3v4l1-1 1-1h1v4l-1 1h-2v1l1 1h-1l-1 1-1 1v1l-1 1h-2v2a17 17 0 0 0-3 1h-1v1h-1v-1h-1v1h-1m-27-6v0m5-4v1l1 1-1-2m24-2h-1v1h1v-1m-12-2l-1 1h1v-1m19 0h-1 1m-29-17h1v-1h-1zm-1-5v1-1m5-1v0m3-2l1 1v-1h-1m1-10v1h1l-1-1m-5-2l-1 1h1v-1m-3-2v2h1v-1-1h-1M1647 3480c-2-1-4-7-8-5-1 3-5-1-4-3-2-1-3 1-4-1-5-2 3-8-2-8-3 3 0 8-2 11-2 4-5 0-6 2-1 3-3 2-3-1l-2-12c0-6-1-12 2-18 0-2 0-5-2-6 3-2-1-5 1-8s5 1 8-1c3 2 1 6 2 9 2 0 7 1 7 5-2 3 0 4 2 6-2 1 2 4 0 5 1 1 2 1 1 3 4 0 5 6 8 8 4 3 3-5 5-3 0-2-1-3 1-3 2-3 0-4 0-7-1-4 2-7 2-11l-1-13c-1-2 1-2 2-2 2-3 3 3 6 1 4 0 8 5 5 8-1 4 4 6 4 2 3-2 6 3 2 4 1 3 6-1 3 2 0 1 1 4 2 2 0-2 2-3 3 0 1 2-1 7 3 5 2 0 5 5 7 4 2-10 0-20 3-29 1-4 5-4 7-3 3-3 3-1 1 1-2 3-1 6 1 8-3 3-2 8-1 12 1 2-2 3 1 4-4 3 0 7 1 10 0 3 1 8-2 10-3-2-4 3-6 5-3 1-7-3-5-5-1-3-4 4-4 0-2-2-4-4-6-2-4-1-7-4-9-6-2-3-8-4-8-8 2-3-4-3-1 0v10c-2 2-1 3-1 5v5c-2 3-4 5-7 5l-6 3zm-10-10c-2 1 1 5 0 1v-1zm5 2c-2 0 1 2 0 0zm0-3c-2 1-1 4 0 1v-1zm-21-7v0zm13 0c-2 2-2 7 1 4 0-3 2-2-1-4zm41 0c4 1 2-6 0-1v1zm-3-3c-1 1 2 1 0 0zm26-2c-1 2 1 3 2 1 1-1-2-1-2-1zm-15-1c-2 1 2 1 0 0zm2 0h1zm-12-3c-1 1 1 1 0 0zm-15 0c0 1 1 1 0 0zm-28-1c-1 0 1 2 0 0zm45-1c-2 1 1 1 0 0zm-14-6c-2 0-5 1-3 3 2 1 2-2 3-3zm37-3c-1 3 1 4 0 0zm-77-5c4 2 1-7-1-2l1 2zm-3-5c0 2 2 1 0 0zm80-8c-1 1 1 1 0 0zM1820 3367c-2-3-4-6-3-10 0-5 0-11 2-16 0-2 3-1 2-4 3-1 4-4 7-3 1-2 5-3 5 1 2-1-1-4 2-4 2-3 3 1 5 1 2 1 1-2 3-1 2 0 3-2 5 0 1-1 2-2 2 1 0 1-2 2 1 2 2-1 1 2 1 3 1 2 1-2 2 1s4-1 3-3c1-2 0-1-1-2 0-2 3 0 3-3v-7c-2-2 0-7-1-10-1-4-1-8-3-11 0-4-7-3-6-7-4 1-4-5-6-6-1 3-2-4-4-1-5 4-5-3-6-5-2-1-2 6-5 2-1-3-2 5-3 1-4-1-1-6-4-7 1-2 5-4 4-7 2-3 6 0 7-1 1 4 5 0 4-2 2-3 1 1 1 2 2-2 2 0 2 2-1 2 2 2 2-1 0-4 1 5 4 2 1-2 5-4 3 0 3 2 4 6 5 8 2-1 3 2 4 3 2 2 2 3 1 5 1 3 4-2 4 2 2 3-5 3-1 6 1 1 3-4 3 0-3 1-2 7 0 7 2-2 1 2 1 3l3 6c2 2-2-1-1 2 0 4 4 9-2 10-2 1-4 0-1 2 0 2 1 3 2 0 3-3 4 5 0 4-3 1 0 2 2 2s-1 3-1 4c-1 2-4-1-2 2 2 1 4 1 4 4 0 2 1 5-1 7 0 3-1 7-4 9-2 0-5 6-6 1 0-3-2-8 1-9 1 4 2-2-1-2-2-2-2 1-3 2-1-1-1-4-4-4-1-3-4-6-8-5 4-2 0-6-2-3-3 0-7 0-9 3-2 5-2 10-2 16-1 2-2 7-4 5-1 2-4 2-6 2v1zm3-4c1 2 1 0 0 0zm0-8c-3 0-4 5-1 2l1-2zm3 3c2 0 0-2 0 0zm34-3c-2 1 2 2 0 0zm5-1c-5 2 3 1 0 0zm-40-1c-1 0 1 0 0 0zm33-6c0 3 3-1 0 0zm-38-1c-1 2 1 0 0 0zm42-1c0 2 3 1 0 0zm-31 0c-3 2 2 2 0 0zm22-5v5c3 1 0-2 2-2 1-1 0-3-2-3zm-32 3c-4 1 4 1 0 0zm44-1c0 1 1 1 0 0zm-29-4c0 4 2 0 0 0zm4-3c-1 2 2 2 0 0zm22-6c0 2 3-1 0 0zm2-9c-1 2 2 2 0 0zm2-9c-1 1 1-1 0 0zm-23-24c-1 3 3-2 0 0zm-6-1c-2 1 1 1 0 0zm7-2c-2 0 0 3 0 0zm-5-1c-2 2 1 4 0 0zm-9 0c-1 2 1 1 0 0zm11 0c0 1 2 1 0 0zm-7 0c1 1 2-1 0 0zm-5-2c-1 2 1 0 0 0zm14-2c-2 1 0 1 0 0zm3-4c-4-1-4 5 0 4 2-1-1-1 0-4zm-19 2c0 2 5 0 1 0h-1zm-2-1c-1 1 2 1 0 0zm10-1c-1 2 1-1 0 0zm-6-2c0 4 4 0 1-1s-6 0-3 3c1 1 2-1 2-2zm18 1c-3 1 2 1 0 0zm-3 13c-1 0 0-1 0 0zM1481 3154c1-2-1-4-2-4-1-1-6 0-3-1 0-1-2-2 0-3-1-1-3-3-1-4-1-2-5-1-7-4-1-1-2-3-1-5l-3-1c1-4-4-3-4-6-1-2 2-3 0-4-1-2-3-1-4 0-2 0-2-4 0-4 1-1-2-1-2-3-2 0-2 3-3 4l-1 3-3 6c-2 0-1 1 0 2l-4 6-5 10c-2 1-4 4-6 4-2-1-6-3-5-6l1-4c2 1 2 0 3-1 2-1 1-2 1-3-1-3 3-4 3-6 1-3 2-5 4-6l3-7 3-8 5-5c0 1 3-1 3 1h3l2-1c-2 2 0 2 1 3 2-1 3 1 5 2 0 3 2 4 4 6l4 8 4 7c1 2 2 4 1 6 0 1 2 0 2 2l4 7c1 2 2 5 1 7-1 1-3 0-3 2zm1-4c0 1 2 0 0 0zm-3-6c-2 1-3 5 0 4 2 0 0-3 0-4zm-6-5c-1 0 0 0 0 0zm-3-1c-2 1 1 1 0 0zm-1-1c-1 1 1 2 0 0zm1-1c-1 1 1 1 0 0zm0-5c-1 1 1 6 2 4 0-1 0-4-2-4zm-2 4c-1 1 1 1 0 0zm6-1c-1 3 2-1 0 0zm-31-1c-1 1 0 1 0 0zm26 0c-1 1 1 1 0 0zm4 0s-1-2 0 0zm-36-1c-2 0 0 1 0 0zm29-2v0zm2-4c-1 1 1 1 0 0zm-5 0c-1 1 0 0 0 0zm3-4c-1 1 1 1 0 0zm2-2c0 1 1 1 0 0zm-5-1c-1 1 1 0 0 0zm-16-3c-2 2 1 1 0 0zm11 0c-1 1 1 1 0 0zm-7-1c-2 1 2 2 0 0zm24 20zM1550 3425l-2-1-2-1-1-1-2-1-1 1h-4v1h-1a3 3 0 0 1-1-1l1-2v-1h-1l-1-1v-1-1h-2-1l-2-1v-1-1h1-2l-1-1-2-1-1-3 3-2h-4v-1h-1-1v-1-1h1l2-1 1-1h-1-1v1l-1-1-1-1 1-1v-1l-1-1v-1a45 45 0 0 0 0-5h1a47 47 0 0 1 1-3v-2-2l1-2 1-1v2l1 1h1l1-1v-1l-1-2 2-4a12 12 0 0 1 6-2l1 1 6-1v2h2l2 1h1a8 8 0 0 1 1 1l1-1a7 7 0 0 1 1 0l1-1v1l1 1a1 1 0 0 0 0 1h1v1h-2l1 2 1 1 2 1 1 1v2h1v-1-1l1-2a187 187 0 0 0 3-2l1-3v-1l1-1a15 15 0 0 1 5-2 7 7 0 0 1 2 0v-1l1-1v-1h1a31 31 0 0 1 4 0h2v4h2l-2 2a34 34 0 0 1-5 2l-1 1-1 1a16 16 0 0 1 0 2l-1 1h-1l-1 1v1l1 2-1 1-1 1-1 1 1 1v2h-1l-1 4v2l1 1h-4l-1 2v1l2-1h1v2a25 25 0 0 0-1 4l-1 1-1 1v1h-1v2a12 12 0 0 1-1 3l-1 1-2 2-2 2a100 100 0 0 1-4 3h-1m1-2h-1 1m1-1v1l1-1h-1m-14-14v1h1v1l1 1h1a86 86 0 0 0 7 4l2-1h2l2-2 1-2a42 42 0 0 0-3-13h-1l-1-1 1-1h1-1l-1-1h-1l-1-3-3-2-1-1h-2-1l-1-1h-6l-1 1-1 2-1 2h1l1 1-1 1h-1l-1 1-1 1h1l1 1 2 1 2 2v1l1 1v5l2 1m3 6h-1 1m11-22h-1-1v1l1 1 1-2m5-5h-1v1h1v-1m-9-1v1-1m-5-1v2h1v-1l-1-1m-5 0h-1l1 1v-1m-1 0h-1 1m11-1v0M1767 3686h-3l-1-1h-1-1v-1l-1 1h-1-1-1-2-1-1-1a26 26 0 0 0-3 0h-1l-2-1h-1-6v-1a46 46 0 0 0 2-3v-2 1l1-1h1l1 1 1 1v-1l1-1v1h1v-1h2v2l1-1h2v-1-1h1l1 1v-1h1v1h2v-1l1 1h3v-1h-1-1l-1-1h-1v-1l-1-1v-1l-1-1v1l-3-1-1-2v-1 1l-1-1h-1v-1h1l-1-1h-3l-1-2-1-2v-1-1l-1-1v2l-2-1-1-2-1 1v-1-3l-1 1h-1v-1h1v-1h-2v3l-1-1v-1-1-1-2h-2l-1-1v1h-1l1 1v2-1h-1v-1h-1-1-1v-1l-1-1 1-1 1-2v1h1l1-1-1-1-1-1 1-1h1v2h1l1-1v-1l1-1h4v-1l1 1v1h1v-1l1-1v2l1-1v-1h1l1 1-1 1v1h1l1-1v-1h1v1l1-1 1-1 1 1v1l1-1 1-1h1l1 1 1 1a3 3 0 0 1 1 0v1h2v-1h-1l1-1h1v3l1-1v-1h1l1 1h1l-1 1 1 1 1-1-1-1-1-1h1c-1 0 0 0 0 0h1l1 1 1 1v-1a5 5 0 0 1 1-1l1 1v-1-2l1-1v1l1 1v-1-1l1 1 1-1h2v1h1v-1h5l2 1h1l-1 2h1l1-1h1l-1-1h1l1 1a11 11 0 0 1 2 2v1h-1v1h1l-1 1-1 1h-1-1-1-1a488 488 0 0 1-4 1v1h-1-1-1l-1-1v1h-1-2l-1-1h-2l-2 1h-2l-1 1a90 90 0 0 1-6-1h-4-1l-2-1-1 1v-1l-1 1h-1-2v2h1v3h1l1 1 1-1v-1l2 3h2v2l1 1 1 1v1h-1l1 1 1-1v-2-1 2h3v1l1 1v-2 1l1 1v1h2l1 1a23 23 0 0 1 1 2l-1 1h1v0l1-1v1h1a49 49 0 0 0 4 4v2l1 2v3a10 10 0 0 1 0 2h1v2h-1l-1 1h-3 1-1m-11-6v1l1-1h-1m-3 0v0m9-2h-1v2l1-1v-1m-7 1l-1 1h1v-1m-3 0v0m12-1v1-1m-2-1zm-1-3l-1 1h1v-1m5 1v-1zm-7-1zm8-2v0m-4-1v0m-9 1h0m7-1v0m-3-1v0m-1-2h1-1m1-2v1l1 1v-1h1l-1-1h-1m3 2h1v-1h-1zm-6-3v1l1 1 1-1v-1h-1v1l-1-1m1 0h1v-1h-1zm-9-4zm2-2l1 1v-1h-1m-2-1l1 1-1-1m-6 1h1-1zm3-1v1l1-1h-1m-8-7v2h1v-1l-1-1m7 1v0m-14 0v1-1m1 0h1-1m35-1h1-1zm19-2h1-1zm-3-4v1l1 1v-1h-1v-1m-37 1v0m32 0v1-1m-31 0h1v0h-1m36 0v0m3 0zm-1 0h-1 1m-10-1v1h1v-1h-1m-4 0h-1l1 1v-1m0-1v0m10 0h1-1m-8-1v0m-1 0l-1 1h1v-1m-20 42h-1 1m19-43s1 0 0 0m0 0" fill="#c9c9df"/><path d="M1573 3308c-21 4-43 21-62 47-26 34-39 76-35 114 1 9 4 20 7 29 2 8 0 8 16 1 49-21 92-59 112-100 8-17 12-32 13-48 1-29-12-44-39-44l-12 1zm-31 67h-3l2-1 1 1zm-18 13v-2-1 3zm15-1h-2l1-1 1 1zm-5 11v1l-2-2 2 1zm-8 4h-2v1c-1-1 0-2 1-2l1 1zm0 3l2 1h-2l-4-2h1l3 1zm11 2v1l-2-2 1-1 1 2zm-11 1l-1 2 1-3v1zm35 6v-2 2zm-30 0l-1 1v-1h1zm6 6l-1-1c-1-1 0-1 0 0l1 1zm2 2h3l-3 1c-3 0-4 0-3-1 0-1 0-1 0 0h3zm7 1c1 1 1 1 0 0l-1-2 1 2zm9-2l-1 2h-2l1-1h1l1-1zm-4 4h-2l1-1 1 1z" fill="#c9c9df"/></g><path d="M211 302c-7 0-12-4-17-10a49 49 0 0 1-9-34c1-11 6-21 13-30l1-1v1c9 4 16 10 21 17a52 52 0 0 1 13 34c0 6-2 11-4 15-3 5-8 8-13 8h-5zm2-21zm-6 0h-1 1zm3 0h-1 1zm4 0zm-6 0h-1 1zm8 0zm-10 0v-1 1zm8 0v-1 1zm-5 0h-1 1zm3-1h-1 1zm-8-1v0zm1 1zm8 0zm5 0zm-7 0s0-1 0 0zm-2 0zm-2-1v0zm6 0v0zm-4 0h-1 1zm10 0zm0 0zm-10 0zm0 0zm2 0zm9 0v-1 1zm-16-1zm16 0zm-20 0zm21 0c0-1 0-1 0 0zm-9-1zm-3 0s1 0 0 0zm-10 0zm10 0zm-9 0zm14 0zm7-1v0zm0 0h-1 1zm-1 0zm-5 0zm6 0zm-23 0zm0-1zm18 0h-1 1zm6 0zm1 0zm-25 0zm24-1v0zm-3 0h-1 1zm3 0zm-5-1v0zm1 0zm1 0zm2-1zm-2 0h-1 1zm-16 0zm0-1zm16 0zm-16-1zm21 0zm-3 0h-1 1zm-2 0zm2 0zm2 0zm-20-1s0 1 0 0zm20 0v0zm-2-2v0zm1 2h-1 1zm-2 0zm-16 0zm13-1zm-16 0h-1 1zm19 0h-1 1zm-14-1zm-5 0h-1 1zm14 0zm0 0zm5 0zm0 0zm-6 0zm-14 0v-1 1zm14 0zm-8-1c0 1 0 1 0 0zm14 0zm0 0zm-9 0zm1-1c0-1 0-1 0 0 0 0 0 1 0 0zm-4 0c1 0 1 0 0 0zm-7 0zm6 0s1 0 0 0zm2 0zm2 0v-1 1zm-2-1zm1 0zm0 0s0-1 0 0zm0-1v0zm7 1c0-1 0-1 0 0zm-7-1v0zm-7 0s0 1 0 0zm11 0h-1 1zm-4 0zm-4 0l-1-1v1h1zm1 0h-1 1zm7 0zm-2 0zm-1 0c0-1 0-1 0 0zm-1-1zm3 0zm1 0h-1 1zm-9 0zm6 0zm-4-1v0zm2 0v0zm-2 0zm1 0zm1 0zM150 317l-8-2c-5-2-12-8-17-13-9-9-14-20-15-31a48 48 0 0 1 0-16l2 1c17 4 33 14 43 26 5 6 8 13 9 19v10l-4 4-6 2h-4zM80 301l-9-2c-11-2-22-8-30-15a57 57 0 0 1-16-24l2-1c17-3 36-1 51 7l14 10 6 8c2 5 1 10-4 14-3 2-6 3-11 3h-3zm-15-12c-1 0 0 0 0 0zm3 0c-1 0-1 0 0 0zm13 0zm-15 0zm10 0v-1 1zm5-1v0zm-5 0zm0 0zm-11 0h-1 1zm1 0zm-3 0h-1 1zm1 0zm16 0v-1 1zm-5 0zm1-1c1 0 1 0 0 0 0 1 0 0 0 0zm-1 0zm-9-1v0zm8 1zm2 0zm6 0zm0 0s1 0 0 0zm0 0zm-4 0zm3 0c1 0 1 0 0 0zm-1 0zm-6-1v0zm-7 0zm11 0zm0 0zm5 0zm-13 0zm9 0zm0-1v0zm-3 0zm9 0h-1 1s0 1 0 0zm-3-1v0zm3 1zm-24 0zm10 0zm5 0h-1 1zm8 0zm-7 0c0-1 0-1 0 0zm8-1zm-17 0zm18-1v0zm-13 0v0zm-9 0zm14 0zm-2 0zm-15 0zm-1 0c0-1 0 0 0 0zm7-1h-1v1-1h1zm-6 0zm21 0zm-22 0c0-1 0 0 0 0zm12 0c0-1 0 0 0 0zm13 0zm-10 0h-1 1zm-2-1s0 1 0 0zm-13 0zm0-1zm13 0zm-1 0zm-12 0zm1-1zm3-1zm19-1v0zm-22 0zm9 0zm8-1c-1 0-1 0 0 0zm5-1v0zm-21 0c0 1 0 1 0 0zm21 1l-1-1 1 1zm-2-1zm-3 0zm2 0c0-1 0 0 0 0zm-2 0c0-1 0-1 0 0zm3-1s0 1 0 0zm-3 0zm0-1v0zm2-1zM224 192zM216 226l-8-4c-2-2-3-5-4-9v-17a56 56 0 0 1 22-33l1 2a44 44 0 0 1 13 34 38 38 0 0 1-10 22c-3 3-6 4-9 5h-5zm12-16zm1 0zm-8 0zm1-1h-1l1 1v-1zm8 0zm-7-1s0 1 0 0zm6 0zm0-1v0zm-10 0zm9 0zm-3 0zm2 0zm-1 0zm-1 0c1 0 1 0 0 0zm-2 0zm-1-1zm0-1v0zm0-1v0zm-4 1zm4-1c0 1 0 1 0 0zm-4 0c0-1 0 0 0 0zm5-1zm-3 0zm2-1v0zm-2 0v0zm2 1zm-2-1zm2 0zm-2 0zm-2-1v0zm2 0v0zm2 0s0 1 0 0zm0-1h-1 1zm-3-1zm8 0zm-9-1v0zm10 0zm-5 0zm2 0zm-2-1zm3 0zm3 0zm0 0zm-1 0zm-10 0c0-1 0 0 0 0zm6-1v0zm-6 0zm8 0zm1 0zm1 0zm-3-1v0zm4 0zm-6 0zm2 0h-1c1 0 1 0 0 0h1zm4 0c0-1 0-1 0 0zm-4-1zm0 0h-1 1zm-1 0zm3 0zm2 0c-1 0-1 0 0 0zm-5-1v0zm-1 0l-1 1 1-1zm0 0zm-1-1v0zm1 0zm0-1h-1 1zm-2-1zm0 0h-1 1zm2 0zm0 0h-1 1zm-2-1zm1 0h-1 1zm0-1h0v0zm1 0v0zm-2 0zm2 0s-1 0 0 0zm0-1h-1 1zm0 0zm0-1zm-2 0zm1-1zm1 0zm-3 0zm5 0zm-6-1zm2 0zm0 0zm0-1v0zm2 0v0zm0 0zm-2 0zm1 0zm-1-1l-1 1 1-1zm3 1zm-2-1zM259 188c-4 0-7-1-10-4s-5-7-5-13a60 60 0 0 1 14-42 73 73 0 0 1 14-14 1504 1504 0 0 1 0 54v14l-1 1c-4 3-8 5-12 4zm5-16zm1 0h-1 1zm-2-1v0zm1 0zm3 0zm1-1zm-5 0zm6 0zm-4 0h-1 1zm0 0zm1 0zm5 0zm0-1zm-6 0zm2 0zm-5 0zm4 0zm4-1zm-4-1h1zm0-1v0zm3 0zm-2 0zm-5-1v0zm6 1zm-2-1zm3 0zm1 0zm-4-1zm4 0zm1-1v0zm-9 0zm4-1v0zm-4 0v0zm5 0h-1 1zm-5 0c0-1 0-1 0 0zm5-2v0zm-5 1zm0-1v0zm0 0zm5-2h-1 1zm-1-1v0zm-3-2h-1 1zm-1-1s0 1 0 0zm0 0zm8 0h-1 1zm1-1v0zm-9 0zm0 0zm5-1l-1 1 1-1zm-1 0zm-4 0c0-1 0-1 0 0zm0-1zm3 0v-1 1zm1-1zm5 0zm0 0zm-9 0zm7 0zm-7-1zm0-2v0zm4 0zm-4-1zm4 0zm0-1v0zm0 0zm-4 0zm3-1zm-3 0zm4-1s0 1 0 0zm-4 0zm4-2v0zm0 0zm-4-1zm2-1zm-1 0zm1 0zm1 0v-1h-1l1 1zM246 111a12 12 0 0 1-7-3l-3-4-1-4v-5c0-4 2-10 4-14a60 60 0 0 1 33-30v42l-1 1c-3 5-7 9-11 12s-8 5-11 5h-3zm12-17c0 1 0 1 0 0zm0 0v0zm1 0zm-3 0zm6 0zm-1 0zm-8 0zm-1-1v0zm-2 0zm13 0v-1l-1 1h1zm-13 0c0-1 0-1 0 0zm12-1zm3 0zm-1 0h-1 1zm-14 0zm9 0zm6 0h-1 1zm-17 0v-1 1zm16 0c0-1 0-1 0 0zm-7 0zm8 0v-1 1zm-10-1zm-8 0c0-1 0 0 0 0zm0 0zm17-1h-1 1zm-17 0zm6 0h-1 1zm-7 0zm0-1s0 1 0 0zm6 0v0zm0 0zm-1-1zm-3 0zm4-3zm-3 0zm2 0zm-4 0zm3-1v0zm0 0zm-2-1zm2 0zm1 0s1 0 0 0zm2 0zm-1 0zm-2 0zm-3-1v0zm2 1h-1 1zm-1-1zm1 0zm-2-1v0zm3 1h-1 1zm5 0c0-1 0-1 0 0zm8-1zm-15 0zm5 0zm10 0zm-6 0zm5 0c1 0 1 0 0 0zm-4 0h-1 1zm-1-1v0zm-1 0zm5 0zm1 0h-1 1zm-7 0c0-1 0-1 0 0zm4 0c0-1 0 0 0 0zm5 0c0-1 0 0 0 0zm-12-1zm4 0zm-5 0zm3 0zm-5 0zm6 0zm-5 0zm7 0zm-7 0zm6 0v-1c0 1 0 1 0 0v1zm7 0zm-8-1h-1 1zm3 0zm-7 0zm8 0zm4-1v0zm-9 0v0zm2 1zm1-1v0zm-1 0zm5 0v-1 1c0 1 0 1 0 0zm-1 0h-1v-1 1h1zm2 0zm-2 0zm1 0zm2 0h-1 1zm-3 0zm-2-1v0zM215 82h-3c-6-2-9-8-11-17V42a81 81 0 0 1 21-42l1 1 1 1c6 6 10 14 12 23a62 62 0 0 1-8 51l-3 3-6 3h-4zM176 87h-2c-3-1-7-4-11-9-5-7-9-16-11-26a77 77 0 0 1 1-33l6 3c13 7 24 22 27 38 2 6 2 13 1 17-1 7-5 10-10 10h-1zm-5-21zm-4 0v-1 1zm2 0v-1 1zm0-1zm5 0zm-7 0zm5 0h-1 1zm-6-1v0zm5 1v-1 1zm1-1zm-5 0zm-1 0c-1 0-1 0 0 0zm7 0zm-2 0zm3-1zm0 0zm-10-1zm7-1c1 0 1 0 0 0 0 1 0 1 0 0zm-7 0zm4 0zm4 0zm3 0zm-11 0zm0-2v0zm4 1zm0 0zm0-1zm0-1v0zm-1 0c0-1 0-1 0 0zm0-2zm-3-1c0-1 0 0 0 0zm0-1c0-1 0 0 0 0zm4 0h-1 1zm0-1h-1 1zm-4 0c0-1 0 0 0 0zm5-1v-1 1zm-2-1zm1 0c0-1 0-1 0 0zm-1 0v-1 1zm-1-2zm-1 0zm0 0zm1-2s1 0 0 0zm4-1zm0-2zm0-1zm-4 0zm2-1zm0 0zM133 115c-5 0-9-4-13-10a50 50 0 0 1-7-32 54 54 0 0 1 6-18l4 2a49 49 0 0 1 15 15c6 10 9 20 8 30-1 6-3 11-7 12l-5 1h-1zm-4-18zm-1 0c0-1 0-1 0 0zm4-1zm-4 0c-1 0 0 0 0 0zm-4-1v0zm10 0h-1 1zm0-1v0zm-1 1zm-9 0zm1 0zm-2-1zm10 0zm2-1zm-11 0v-1 1zm11-1v0zm1 0s-1 0 0 0zm-10-1zm2 0zm7 0zm-12-1v0zm1-1h-1a264 264 0 0 1 1 0zm4 0zm-2 0zm-3 0zm5 0zm-6-1s0 1 0 0zm2 0s0 1 0 0zm4 0zm-3 0zm3-1s0 1 0 0zm0-1v0zm-4 0zm0-3zm-1-1c-1 0 0 0 0 0zm4 0zm-1-1h1-1zm-4-1c0 1 0 1 0 0zm2 0zm0-1h-1 1zm1-1zm3-1v0zm-5 0v0zm0 0zm0 0zm0-1zm0 0zm1 0h-1 1zm4 0zm0-1v0zm0 0zm0-1v0zm0-2v0zm-4 0zm4 0zm0-1zm-1 0zm1 0zm-2-1s0 1 0 0zm-2 0v0zm0 0zm2 0zm1 0zm-2 0c-1 0 0 0 0 0zm3 0h-1 1zm-2-1zM171 180l-7-2c-4-2-7-6-10-12a57 57 0 0 1-6-33 65 65 0 0 1 12-29l3 2a65 65 0 0 1 20 24c6 11 7 24 4 35l-5 12c-3 2-5 3-8 3h-3zm0-23zm6-1v0zm-3 1zm3 0zm0-1h-1 1zm-9 0zm4 0zm1 0zm5 0zm-4 0h-1a262 262 0 0 1 1 0zm-3 0zm1 0zm8 0h-1 1zm-14 0v-1 1zm1-1v0zm-2 0zm14 0zm1 0h-1 1zm-14 0zm-1 0zm7 0zm-7 0v-1 1zm0-1h-1 1zm12 0zm-10-1v0zm0 1h-1 1zm10 0zm-5 0h-1 1zm-9 0zm14-1a8 8 0 0 1 0 1v-1zm-2 0c0 1 0 1 0 0zm-6 0zm6 0zm-5 0h-1 1zm-5 0zm9 0zm3 0h-1 1zm-2 0zm1 0zm3 0h-1 1zm-8 0zm2 0zm-8-2zm0-1zm-1 0zm3 0zm2 0zm-4 0zm3 0zm0-1zm1 0zm1-1v0zm2 1c0-1 0-1 0 0zm0-1v0zm-8 0zm7 0zm-11 0zm3 0c-1 0 0 0 0 0zm8 0zm1 0zm-2 0zm-10-1v0zm12 0zm3 0h-1 1zm-3 0h-1 1zm-2 0zm3 0zm1 0zm1 0zm-15-1v0zm14 0h-1 1zm2 0zm-8 0zm1 0c-1 0 0 0 0 0zm2 0c-1 0-1 0 0 0zm-8 0zm8-1v0zm-11 0v0zm14 1zm2 0zm-13-1c0 1 0 1 0 0zm13 0zm-3 0zm-11 0h-1 1zm8 0zm6 0zm-3 0v-1s0 1 0 0v1zm-13-1zm15 0zm-13 0zm12 0zm2 0zm-14 0c-1 0-1 0 0 0zm10 0zm1 0c-1 0-1 0 0 0zm-13 0v-1 1zm4-1s0 1 0 0zm9 0zm-7 0zm-4 0zm12 0zm-8 0v-1 1zm1-1v0zm9 1v-1h-1 1l-1 1h1zm-3 0v-1 1zm-8-1h-1 1zm3 0zm8 0c1 0 1 0 0 0zm0 0zm-13 0zm0 0zm4-1v0zm2 1zm5 0v-1 1zm-11 0c0-1 0-1 0 0zm6-1zm4 0zm-4 0c-1 0-1 0 0 0zm-6 0zm1 0zm2 0zm-3 0zm6 0h-1 1zm-6 0zm4 0v-1 1zm8 0v-1l-1 1h1zm-9-1v0zm-1 0h-1 1zm10 0zm-7 0zm1 0zm2 0zm4 0zm-6 0h-1 1zm1 0zm-6 0h-1 1zm2 0zm5 0zm-7 0zm3 0zm6-1h-1l1 1v-1zm1 1c0-1 0 0 0 0zm-1-1zm-1 0zm0-1zM127 173c-4 0-8-3-12-7s-8-10-10-16a55 55 0 0 1-1-36v-2l1 1 3 1c8 4 15 10 21 18 4 5 7 11 8 17 2 6 2 12 1 16l-3 5-6 3h-2zm1-16c1 0 1 0 0 0zm0 0zm-3-1zm2 0zm0 0c0-1 0-1 0 0zm-1-1zm-1 0zm-6 0zm-3 0zm0 0zm1 0zm6 0v-1 1zm4 0c0-1 0-1 0 0zm-9-1v0zm2 0zm-7 0zm6 0zm7-1v0zm-1 1v-1 1zm-6 0zm13 0s1 0 0 0zm-19-1v0zm6 0v1c-1 0-1 0 0 0v-1zm4 0v0zm10 0s0 1 0 0zm-14 0c-1 0-1 0 0 0zm7 0zm-2 0zm-2 0zm5 0zm-14-1zm-1 0zm11 0zm9 0c1 0 1 0 0 0zm-11 0zm-3 0zm0 0h-1 1zm1-1s0 1 0 0zm-2 0zm14 0c-1 0 0 0 0 0zm-14 0zm-1-1l-1-1v1l1 1v-1zm6 1zm-11 0c0-1 0 0 0 0zm0 0zm11-1zm-10 0zm9 0h-1 1zm2 0zm4 0h-1 1zm0 0zm-16 0c0-1 0-1 0 0zm0 0v-1 1zm3-1zm8 0h-1 1zm1 0zm-8 0zm12 0zm-5 0l1-1-1 1zm-7-1v0zm8 0zm-11 0zm2 0zm2 0h-1 1zm-5-1v0zm4 0h-1v1l1-1zm12 0zm-14 0c-1 0-1 0 0 0zm-2 0zm5 0zm-1 0zm-4 0c0-1 0-1 0 0zm18 0zm-15 0h-1 1zm9-1s0 1 0 0zm-11 0zm-2 0zm16 0zm-14 0h0c-1 0-1 0 0 0zm4 0c0-1 0 0 0 0zm-6-1v0zm1 0s0 1 0 0zm15 0v0zm-12 0s0 1 0 0zm-3 0zm12 0zm6 0zm-19 0zm2 0zm0-1s0 1 0 0zm4 0zm11 0v0zm-17 0zm2 0zm4-2v0zm13-1v0zm-1 1zm0 0h-1 1zm0 0zm-13 0zm1 0c1 0 0 0 0 0zm-1 0zm1-1zm10 0zm-9 0zm-6 0c0-1 0 0 0 0zm5-1h-1l1 1v-1zm12 0v0zm-17 0zm15 0zm-10 0zm-4-1c0 1 0 1 0 0zm1 0zm15 0c-1 0-1 0 0 0zm-16 0zm13 0zm-12-1zM75 143c-5 0-10-3-16-9a59 59 0 0 1-14-55l3 2c8 2 15 6 21 11 10 9 17 19 19 31v12c-1 4-4 7-9 8h-4zm3-17v-1 1zm1-1zm-2 0zm-17 0zm20 0zm-23 0zm4-1zm-5 0h-1 1zm7 0h-1 1zm-7 0zm24 0c0-1 0 0 0 0zm-24 0zm3 0zm6 0zm-2 0c0-1 0-1 0 0zm-5 0v-1 1zm18-1zm-12 0zm-9 0zm22 0h-1 1zm-2 0zm-12 0zm10-1zm1 0zm4 0zm1 0zm-7-1zm5 0zm-15 0h-1 1zm1 0zm9-1v0zm-3 1zm1-1zm1 0zm-1 0zm3 0zm-1 0l-1-1 1 1zm-19-1zm16-1s0 1 0 0zm-12 0c0-1 0 0 0 0zm-4-1zm18 0zm3-1zm-3 0zm-14 0h0zm-3 0zm1 0c0-1 0-1 0 0zm16-1h-1l1 1v-1zm-17 0c0 1 0 1 0 0zm4 0zm12 0h-1 1zm4 0h-1 1zm-19-1zm3 0h0zm10-1v0zm6 0s0 1 0 0zm-18 0zm5 0zm0 0zm1 0zm1 0zm11-1v0zm-10 1h-1 1zm1 0v-1h-1l1 1zm1 0zm-1 0s0-1 0 0c0 0 1 0 0 0zm8-1zm-9 0v-1l-1 1h1zm10-1v0zm-1 0zm-6 0zm-10 0h1-1zm3 0h-1 1zm0 0v-1 1zm-2-1zm2 0zm1 0zm1-1v0zm11 0v0zm-5 0zm-2 0zm1 0zm3-1v-1 1zm-2-1v1-1zm1 0zm-1-3v0zm5 0zm-1 0zm0 0h-1 1zm-4 0zm5 0zm1-1s0 1 0 0zm-3 0zm1 0zm-4 0zm3 0h0zm1 0zm-3-4zm3-2zm-2-1zm1 0zM61 186c-5 0-9-1-14-4a71 71 0 0 1-21-16 56 56 0 0 1-14-35l-1-2h1l7 1c14 1 28 6 39 14 8 6 15 13 18 20 2 3 3 5 3 8v5c-1 3-3 6-7 7a20 20 0 0 1-11 2zm-5-10v-1 1zm2-2zm-3 0zm0-1zm4 0c-1 0 0 0 0 0zm-1-2v0zm-2-4s-1 0 0 0zm0-1h-1 1zm-4-1zm3-1zm-3 0zm3-1v0zm-3 0zm2 0zm1-1s0 1 0 0zm-13 0zm2 0h-1 1zm0-1v0zm-1 0v0zm2 0zm-6 0zm1-1c0 1 0 1 0 0zm4 0zm4 0c-1 0-1 0 0 0zm-9 0zm-4 0v-1 1zm4-1zm4 0h-1 1zm-8 0zm5 0zm8 0zm0 0zm-5 0zm2 0zm-8-1v0zm6 0v0zm0 0zm-5 0h-1 1zm15 0zm-15 0zm5 0zm6 0v-1 1zm-15-1zm10 0zm10 0zm-5 0zm-2 0zm-12 0zm17-1c0 1 0 1 0 0zm-16 0zm9 0zm4 0zm-14-1v0zm0 0zm17 0h-1 1zm-7-1v0zm6 0v0zm-18 0zm3 0zm-2 0zm1 0c1-1 1-1 0 0zm-2-1zm14 0h-1 1zm5-1h-1 1zm-5 0zm-9 0h-1 1zm14 0zm-16 0h-1 1zm-2 0zm0 0zm1-1zm1 0zm-1-1v0zm16 1zm-5-1zm0-1s0 1 0 0zm-10-1h0zm5 0zm-3 0zm11 0zm-10-1zm0 0zm-1 0zm3-1zm7 0l-1-1 1 1zm-7 0zm0-1zm2 0h-1 1zm4 0zm0 0l-1-1v1h1zm-1-1zm0 0h-1 1zm-1 0v-1 1zm0-1s0 1 0 0zM50 250c-5 0-11-2-17-5-17-10-29-25-32-41l-1-9v-1l9 1c21 3 40 12 51 25 4 5 7 11 8 16l-1 7c-2 4-6 7-12 7h-5zm-20-16zm16 0s1 0 0 0zm0-1c0 1 0 1 0 0zm-3 0s0 1 0 0zm-11 0zm14 0zm0 0zm-15 0c-1 0 0 0 0 0zm1 0zm12-1v0zm3 0zm-5 0zm-13 0h-1 1zm11 0zm3 0zm-15 0c0-1 0 0 0 0zm15-1v0zm-2 0h-1 1zm6 0zm-4 0h-1 1zm-11 0c0-1 0 0 0 0zm5 0zm1 0zm10 0zm-2 0zm-9 0zm10 0h-1 1zm-3-1c1 0 1 0 0 0zm-9 0zm9 0v-1 1zm-6-1h-1 1zm-10 0zm5 0c0-1 0 0 0 0zm6-1zm-6 0h-1s1 0 0 0h1zm-5 0zm6 0h-1 1zm4 0zm3 0zm-13-1zm11 0zm2-1v0zm2 0h0zm0 0zm-1 0zm-14 0zm7 0h-1 1zm-1 0zm1-1v0zm7 0zm-4 0zm3 0c1 0 1 0 0 0zm-5 0v-1 1zm6 0zm2-1c0 1 0 1 0 0zm0 0s1 0 0 0v0zm0 0zm-3 0zm-8 0v-1 1zm10 0zm-1 0c-1 0-1 0 0 0zm3 0v-1 1zm-6-1v0zm8 0h-1 1zm-1 0zm-7-1v0zm-11 0zm12 0zm1 0zm-13-1zm2 0h-1 1zm10 0zm9 0h-1 1zm-2 0s1 0 0 0zm-19 0zm4 0zm11 0zm0 0zm-13-1v0zm13 1zm-13-1s0 1 0 0zm17 0zm-2 0zm4 0zm0 0h-1 1zm-1 0zm-5 0zm4 0zm0 0zm-5 0zm1 0zm3-1zm-3 0zm5 0s1 0 0 0zm-1-1v0zm1 0h-1 1zm-4 0zm5 0zm-22 0zm21 0zm1 0zm-3 0zm-1 0v-1 1zm1 0zm-19-1s0 1 0 0zm24 0v0zm0 0c-1 0-1 0 0 0zm-5 0zm4-1zm-23 0zm20 0zm0 0c0-1 0-1 0 0zm-19-1zm-1-1v-1 1c0 1 0 1 0 0zm0-2zm0 0zm1 0zm1-2zM106 252c-3 0-7-1-12-5a58 58 0 0 1-25-44l-1-1h1a61 61 0 0 1 40 21c4 6 8 12 8 18v4l-2 5-7 2h-2zm-15-12zm1-1h-1 1zm2-1v0zm-3 0v0zm0-1v0zm1 1zm3-1c0-1 0 0 0 0zm-4-3v0zm4 0v0zm-4 0zm3 0c0-1 0 0 0 0zm-3-1v0zm4 0s-1 0 0 0zm0 0zm-4 0zm0-1zm-1-2c0-1 0 0 0 0zm5 0zm0 0c0-1 0 0 0 0zm0-1h-1 1zm-4-1h-1 1zm4 0zm-1 0zm8-1zm-7-1zm1 0zm-7 0zm14 0zm-4-1v0zm4 0zm-6 0zm2 0c-1 0 0 0 0 0zm-1 0zm4 0zm-1-1c0 1 0 1 0 0zm2 0v-1 1zm-15-1zm3 0zm1-1zm3 0zm-8-1v0zm5 0v0zm10 1c-1 0-1 0 0 0zm-12-1zm-2 0zm1 0h-1 1zm2 0zm-2 0zm9 0c-1 0-1 0 0 0zm2 0zm-2-1s1 0 0 0zM210 158c-4 0-7-3-9-7-3-7-4-19-2-29a66 66 0 0 1 16-31l4 5c3 3 6 10 7 14 3 10 4 21 1 30-3 10-8 16-13 18h-4zm10-24c-1 0-1 0 0 0zm-12-1c0 1 0 1 0 0zm17 0v-1 1l-1 1 1-1zm-15 0c-1 0-1 0 0 0s1 0 0 0zm5 0c-1 0-1 0 0 0zm3 0c-1 0-1 0 0 0zm6 0h-1 1zm-8 0h-1c0-1 0-1 0 0h1zm0 0v-1 1zm9-2v0zm-3 0c-1 0-1 0 0 0zm-17-1h-1v1l1-1zm2 0c0 1 0 1 0 0zm4 1h-1 1zm9 0c0-1 0-1 0 0-1 0 0 0 0 0zm-4-1h-1 1zm-8-1h-1 1zm2-2h-1 1zm3 0c0 1 0 1 0 0zm1-1h-1l1 1v-1zm1 0c1 0 1 0 0 0v0zm-1 0v-1 1zm2-1h-1 1zm2-2v1h-1 1v-1zm-2-1v-1 1c-1 0 0 0 0 0zm-2-1h-1v1l1-1zm-4 0c-1 0 0 0 0 0zm10-1v-1l-1 2 1-1z" fill="#c9c9df"/></svg>