<svg xmlns="http://www.w3.org/2000/svg" viewBox="0 0 247.9 314.9" height="1190.3" width="936.8"><path fill="#0068b2" d="M134 180.3c-3.7.3-7.5-1.6-10-4.3-2.4-2.7-3.7-6-4.5-9.2a39.9 39.9 0 0114.4-41.9c12.7 14 17.4 34.7 8.9 48.9-1.9 3.1-4.7 6.2-8.9 6.5"/><path fill="#e20613" d="M105.1 150.6c-2.7 1.7-6.9 1.7-10.2.5a24 24 0 01-8.4-5.6C75 134.4 71 118.9 76 105.7c17.5 6.2 32.1 21.1 32.7 36 .1 3.3-.5 7-3.7 9"/><path fill="#e5007e" d="M118.6 42.8a6.3 6.3 0 01-7 1.6c-2.2-.9-4-2.8-5.7-4.9A48 48 0 0198.6 0c12 4.5 22 18.2 22.4 33.4.1 3.3-.3 7.1-2.4 9.4"/><path fill="#ef8000" d="M162.4 56.9a8.7 8.7 0 01-5.5-6.2c-.7-2.7-.2-5.5.5-8.2a39.6 39.6 0 0129-26.4c3.4 14.2-2 30.9-14.6 38.7-2.7 1.7-6.1 3.1-9.4 2"/><path fill="#e5007e" d="M197 89.8c-3.2-.5-5.7-3-6.8-5.7-1-2.8-.8-5.7-.4-8.5 2.3-13.8 13-26 27.1-31.1a37.6 37.6 0 01-10.3 42c-2.7 2-6.1 4-9.7 3.4m21.5 61c-3-1-4.9-3.9-5.4-6.7-.5-2.9.3-5.8 1.3-8.5a44 44 0 0133.1-26.1 39 39 0 01-18.8 39.6c-3 1.7-6.8 3-10.2 1.7"/><path fill="#81358a" d="M176.7 179.4a11 11 0 01-4.7-8.4c-.3-3.2.7-6.3 1.8-9a38.1 38.1 0 0133.5-23.5c1.3 17-6.8 34.6-20.7 40.7-3 1.3-6.8 2.1-10 .2"/><path fill="#ffec00" d="M159 112a10 10 0 01-6.7-6.2c-1-2.8-1-5.9-.5-8.8a40.3 40.3 0 0127.4-31c5.6 15 2 33.4-10.3 43-2.7 2-6.2 3.9-9.8 3"/><path d="M104.3 192.3c-2.3 1.9-6 2.2-9.2 1.5-3.2-.8-6-2.5-8.5-4.3-12-9-18-23-15.3-35.5 16.8 4 32.2 16.2 35 29.8.6 3 .6 6.4-2 8.5" fill="#009ee2"/><path fill="#81358a" d="M60.2 175.3c-1 2.6-4 4.6-7.2 5.3-3.1.7-6.4.4-9.5-.2-15-3-27.5-13.2-31.8-25.9 16.5-3.7 36.2.8 45.7 12.1 2.1 2.5 3.9 5.6 2.8 8.7"/><path fill="#ffec00" d="M49.6 105.4c-2 2.5-5.8 3.7-9.3 3.6-3.6-.1-6.8-1.3-9.8-2.8C16 99.2 6.8 85.6 7 71.6c18.4.6 37.1 10.3 42.9 24.3 1.2 3 2 6.7-.3 9.5m23.8 39.3c-1.3 2-4 3-6.4 2.8-2.5-.2-4.9-1.3-7-2.6A37.3 37.3 0 0142.2 115c13 1 26.5 9.8 31 21.7 1 2.6 1.7 5.7.2 8"/><path fill="#ef8000" d="M42.6 146.8c-2 2.4-5.8 3.6-9.3 3.5-3.5-.1-6.8-1.3-9.7-2.7-14.5-7-23.7-20.3-23.6-34 18.3.6 37 10.2 42.8 23.9 1.3 3 2 6.6-.2 9.3"/><path fill="#81358a" d="M55.3 79c-2.2 2-5.5 2.4-8.3 1.7-2.9-.8-5.2-2.5-7.3-4.4a37.9 37.9 0 01-11-36.9c14.6 4 27.6 16.5 29 30.7.3 3.2 0 6.7-2.4 9"/><path fill="#e5007e" d="M86.7 99c-2 1.5-5 1.6-7.3.7-2.4-1-4.2-2.8-5.9-4.7a35.5 35.5 0 01-6.1-34c12.2 4.8 22.2 17.3 22.1 30.2 0 2.9-.5 6-2.8 7.8"/><path fill="#008d36" d="M112 107.5a8.5 8.5 0 01-7.8-.8 15 15 0 01-4.9-5.9 35.9 35.9 0 012.9-36.2c11.5 7.5 18.6 22.3 15 35.5-.7 3-2.2 6-5.1 7.4"/><path fill="#009ee2" d="M90.5 62a7.6 7.6 0 01-7.3 0c-2.2-1.2-3.8-3.1-5.1-5.1-6.4-9.9-7-23.1-1.5-34C88 29 96.1 42.2 94.3 54.8c-.4 2.7-1.3 5.8-3.8 7.3"/><path fill="#81358a" d="M138 112a7.4 7.4 0 01-7.3-2 13.3 13.3 0 01-3-6.6 39.6 39.6 0 0111.6-35.3c9 9.3 11.9 25 5.3 37.4-1.5 2.8-3.6 5.6-6.7 6.5"/><path fill="#ffec00" d="M138.2 60a8.5 8.5 0 01-8.6-2c-2.1-2-3.2-4.9-3.8-7.8a50.7 50.7 0 0113.6-44 40.2 40.2 0 016.7 45.5c-1.7 3.5-4.2 7-7.9 8.3"/><path fill="#ef8000" d="M199 124.8a7.5 7.5 0 01-5.3-6.3c-.3-2.7.6-5.5 1.9-8.2 6-13 20.1-23.4 36-26.8a40.7 40.7 0 01-21.7 39.1c-3.3 1.7-7.4 3.2-10.9 2.2"/><path fill="#0068b2" d="M207 179.7a6 6 0 01-2.4-6.2 13 13 0 013.7-5.9 44 44 0 0135.3-11.5 34.4 34.4 0 01-27.7 24.7c-3 .5-6.5.6-9-1.1"/><path fill="#bc8027" d="M143.2 247.4c0 24.2 3.9 45.1 18.8 65 .6.9-.1 2-1.2 1.8-23-2.5-48.8-2-71.7.7-1.1.2-1.9-.9-1.3-1.7 13.3-19.2 22.6-41.1 22-63.6-.3-19.8-9.2-40-25.5-53-1.1-1 0-2.5 1.4-2a97.8 97.8 0 0131.4 19c.8.8 2.5.1 2.2-1a158 158 0 00-10.8-33c-.5-1.2 1.2-2.2 2.2-1.2 10.9 10.8 24.3 22.3 32.8 20.5 7.5-1.7 16.3-12.3 21.6-21 .7-1.1 2 2.4 1.6 3.8-7.1 22-23.6 46.5-23.5 65.7"/><path fill="#008d36" d="M161.2 152c-2.7-.7-4.7-3-5.5-5.6-.7-2.5-.5-5 .1-7.6a36 36 0 0125.3-25.8c4 13-.1 28.8-11.2 36.6-2.5 1.8-5.6 3.2-8.7 2.4"/><path fill="#fff" d="M173.8 137.5c.3 0-.1.2 0 0zm-2.3 3c-1.5.2.5 1.6 0 0zm-.6 1.3c-.2-.1 0 .3 0 0zm-.7-2c.2-.3-.4 0 0 0zm-.1 1.4c-.2 0 .1.3 0 0zm0-14.3c-.2-.2-.1.3 0 0zm-1.4 4.7c.4.4-.3.2 0 0zm-1.1-5.2c-.2.3.2.1 0 0zm.3 2.7c-2.1 0-1.2-5.2 1.2-3.2 1.2.2 1.4.4 1.7 1.8 0 1.2-2 1.7-3 1.4zm2.3 13c-2-.8-4.2-1.1-4-4.6.3-1.8-.4-6 1.2-6.5.7.8 2 1 2.2 2-1.7.9.2 1.6-.7 2.7-.3 1.6.2.7.2 2.2-.3 2.4 2 1 3.6.9 0 .4.8-1.5 1.1-.7-.4 1.7-.7 2 .1 2-1.3 2.6-1.4-1-2 1.6-.2.8-1.3.6-1.7.5zM93 133.9c.7.2 0-.8 0 0zm-.8-8.4c-.4.4.3.3 0 0zm-.4-.1c-.2-.2-.2.2 0 0zm-.3 7.3c.7 1 .7-1 0 0zm-.5 1.4c.4.1 0-.3 0 0zm.1.4c-.4.3.5.3 0 0zm-1.2 0c.8-.5-.2-.7 0 0zm-.6-6.8c.4 0 0-.4 0 0zm-.6 6.6c-.4.3.4.4 0 0zm-.2.2c-.1-.1-.2.2 0 0zm-1.4-1.6c1 2.4 4 .6 4.9-.8 1.4-2.1.3-6.8-2.9-3.5-1.5.6-.4 3-2.5 3.3 0 .6 1.7.6.5 1zm9.5 4.3c-2.7.4-2.6-5.4-4.5-1.6 1.3.4-1 1-1.7 1-1.9 1.3-4.1-.4-4.3-1.8-.4 1.6-1.6-2.6-1-3.3.5-1.5.5-.6.1-1.7 1.7 0 0-1.8 1.6-2.2 1.2-.3 1.4-1.4 1.8-2.2 2 .7 4.8-1.2 5.6 2.3.6.9 1.8 3 .3 2.6 1.4 0 1 1.8 1.2 2.8.8 1.4 1.3 3 3.2 3.7-.3 1-1.7 1.9-2.3.4zm96.6 30.3c-.6.2.3 0 0 0zm-.6-1.5c-.4.2.2.4 0 0zm-.3 0c-.3.2.2.2 0 0zm-.2 1.3c.2-.1-.3 0 0 0zm-.1-.9c.4.5.4-.6 0 0zm-.4-8.1c-.3.2.2.2 0 0zm-.1-.1c-.3.3.2.3 0 0zm0 7.8c-.6 0 0 .3 0 0zm-.1-6.3c0-.4-.8 0 0 0zm-.4-1.8c-.3.3.2.3 0 0zm-.1.4c-.2.3.1.2 0 0zm-.1 2.5c-.3.1.2.3 0 0zm-.4-1.5c.2 1.5.9.4 0 0zm0-.3c-.3.2.2.2 0 0zm-.1 1.6c.1.1 0-.4 0 0zm0 .6c0-.2 0 .1 0 0zm-.3-.3c.3 0-.1-.4 0 0zm0-1.2c0-.2 0 .2 0 0zm0 .4c-.3.4.3.1 0 0zm0 1.2c.4-.2-.4-.2 0 0zm-.3 6c-.3.4.3.2 0 0zm-.2-10.4c.4.1 0-.4 0 0zm.1 2.7c-.6.1.5.3 0 0zm-.8-.2c.5.3 1-.5 0 0zm0 2.6c.3-.4-.3 0 0 0zm0-.8c-.1 1.1.6-.4 0 0zm-.2 5c0 .9.9.3 0 0zm-.2 1.2c.3.2-.2-.5 0 0zm0-1.7c.6 1 .7-.8 0 0zm-.2-4.6c.3 0-.1-.4 0 0zm0-4.6c-.1.7.5 0 0 0zm-.5 3.4c.2 2 1.2.1 0 0zm0 1.5c.2-.2-.3-.1 0 0zm-.1-.7c.3 0 0-.3 0 0zm-.3 5c.6 0-.2-.2 0 0zm-.3 0c-.3-.2-.2.2 0 0zm-.4-8.5c1.5 1.3.4-.4 0 0zm0 9.8c-.1-.2-.1.3 0 0zm0-4.6c-.1-.2-.1.2 0 0zm-.1 2.8c-.3.3.3.3 0 0zm-.3-2.4c.3-.2-.4-.1 0 0zm-.3-4.9c.3-.9-.1-1.1 0 0zm0-1.5c-.6.1.3.3 0 0zm-.1 1.6c-.3.3.3.1 0 0zm0-1.1c-.3.4.3.1 0 0zm-.1 9c.1 1.2.4-.8 0 0zm-.2.1c-.7 0 .1.6 0 0zm-.5-9.1c.5 1.4.7-1.2 0 0zm-.2 9.1c.5.2 0-.2 0 0zm0-7.7c-.3.3.3.2 0 0zm-.1-1.3c-.3.3.3.3 0 0zm-.1-.1c-.3.3.3.3 0 0zm-.1 7.2c.3 0 0-.4 0 0zm0 2.3c-.3.3.3.3 0 0zm-.1.5c0-.2-.2 0 0 0zm-.3-1.4c.4.2 0-.3 0 0zm0-8c0-.2 0 .2 0 0zm0 9.2c-.2 0 .1.3 0 0zm0-5c-.1-.2-.1.2 0 0zm-.1-3.6c.5 0-.2-.7 0 0zm0 8.4c-.3.3.3.3 0 0zm.1-.4c1 .7-.6-1.2 0 0zm-.4-7.1c.3.3 0-.4 0 0zm0-1.6c.4-.2.2-.1 0 0zm0 4.7c-.3.3.3.3 0 0zm-.2 1.2c-.2.3.2.2 0 0zm-.2-6.7c.3 1 .9 0 0 0zm0 1.5c-.3.2.1.3 0 0zm-.4-.3c.6.5.7-.4 0 0zm0 4.9c0-.2 0 .2 0 0zm.4-.6c.2.6 0-1.4 1.3-1 .9-1.2 2.5.3 3-1.3 1.1.2 2.2-1 2.4-1.5 1.4 0-2-2.5-3-.5-.8-.5-1.3.8-1.9 1-.7 1.7-2.2 1-1.8 2.4-.3.2-1 1.4 0 .9zm-.7-3c-.2.3.2.3 0 0zm0-.4c-1 .8.6.2 0 0zm-.5 2.4c-.1-.2-.1.2 0 0zm0-1.7c-.5.4.5 0 0 0zm0 .5c-.3.2.1.3 0 0zm-1-1c-.2.3.2.4 0 0zm6.9 8.7c-.5.6-2-.1-2.4-.5-.6-.3-2-.2-2.5-1.4-1.7-1-2.4-3.4-2.3-5.4 0-2.3.6-1.4 2-1.8-.3-.9.4-2.6 1.1-1.5 1.6-.5 1.5-.8 1.6-1.3.5.6 2 1.6 1.6.7.5-.7 1.6.2 1.8-.3 0-1.5.5 1.5.7-.5.2 1 1.9.4 1.5 1.3-.8-.8-1.2.1-.6.8.4-.6 1.2.5 2 .9-.9.1-1 .6-.3 1.5-.6.7-1.4 1.8-2.8 1.4-.3.8-1.2 1.2-1.4.2-.6.5 0 2.8-1 1 .4 1.5-2.2.1-2.1.6-.9.9 3 1.4 4 1.9 1.5 0 2 .6 3 .3 1 .3 3-.8 2.2 1.4.4.7-.3.5-.3.7-1 .7-2.2 0-2.6 0-.8.7-1.3-.4-2-.1-.7-.4-.4 1.4-1.2.1zm-89.3 13.2c0 .8.6-.3 0 0zm-.4.7c-.3.3.3.3 0 0zm-1.8-5c.3.2-.1-.2 0 0zm-.2-2.2c0 .6.3-.2 0 0zm-.2 6c-.5.2.3.3 0 0zm-.2 1c.2.2.1-.4 0 0zm0-5.6c.7-.2-.2-.7 0 0zm.2 2c-.4 1.8.4-1 0 0zm-.3-2.5c-.2.3.3.2 0 0zm-.3-1.5c.2 0 .1-.4 0 0zm0-.9c.3.8 0-.4 0 0zm0 10c-.3.2.3.2 0 0zm0-6.1c-.6.2.2.5 0 0zm-.2-.5c-.3.3.3.3 0 0zm-.2 5.5c.4 2.6.9-1.4 0 0zm-.1.8c-.8.3.3.6 0 0zm-.5-.4c.5-.1-.3-.7 0 0zm-.6-2c.6-.2-.3-.3 0 0zm-.2 1.3c-.2.1.2.1 0 0zm-.1-.8c.2.4.2-.2 0 0zm-.1.3c-1.6 0-.4 1 0 0zm-1-.2c2-.9.4-3.2 0 0zm-.4-1.2c-.3.2.2.5 0 0zm-.1 1c-.3.3.3.2 0 0zm-1.6 1.3c-.2.4.3.2 0 0zm0-.1c-.4.1.2.4 0 0zm0-.7c-.6.7.9.2 0 0zm-.4 1.4c.3.5.3-.3 0 0zm-.3.1c.3 0-.2-.4 0 0zm-1.1-10.1c1.6.2-.3 1.4 0 0zm-.4.4c1.8.4.7 2.1 0 0zm-.2 7.8c-.2 0 .1 0 0 0zm-.2-3.4c.3 1.2.4-1.1 0 0zm-.1-3.4c.3.4.3 0 0 0zm-.2 2.6c.6 0-.1-.4 0 0zm.3 2.5c-1.3.4.7.3 0 0zm-.8 0c.8.5.4-.7 0 0zm-.3-1.5c.7 2 1-.9 0 0zm-.2-5.2c-.3.3.3.3 0 0zm-.3 5.7c.6-.4-.2-.6 0 0zm-.2-5.6c.4.3.1-.6 0 0zm-.1 3c-.9 1.4.8.3 0 0zm-.3 2.8c.2.1 0-.3 0 0zm0-1.3c1.2.5 1.2-.5 0 0zm-.2 3.1c.4.3.3-1 0 0zm0-.8c0-.1-.2.1 0 0zm-.4-1.9c.7.2 0-.6 0 0zm0-1c.5.8.3-.6 0 0zm11.3 7.3c-.2-1.7 1.4.6 0-1.2-.6 1.4-1 .6-1.8 1.3-.4-1.3-1.5-1.4-2.5-2.6-.7-1-.6 1.2-.4 1.2-1.7-.7-.5 1.7-1.9.6-1.4 0-2.9-.2-3.7-1.5 1-.6-.8-.5-1-1.3.2-1.8.1-2.3-.3-2.6-1-1.2.9-5.7.8-5.3 1.7-1.8.5 1.4 2.3 1.2 1.3 1.2.8 2.6.9 4-1 .8-.5 2.4-.1 3.3.5-.6 1.4.5 2-.7 1.7-.5 3.4-2.1 3-4.2.7-1-.1-4.6 1.7-3.5 1.8-.5.4.7 1.1 1.6.6 1.3.3-2.7.6.4.7 1.8.4 2.6-.2 4-.2 1.6-1-.8-1 1-.2.6.4 1.1 1.3 1 1 .2 3.3-.7 2.5 1 .6 1.3-1.4-.3-1.6 1.7-.6-.5-.7 2.1-1.7.6zM141 158h.2v-.2h-.2zm-1.3 1.6v.2h.2v-.1l-.2-.1zm-.1-1.8l-.1.2v.1l.2-.1-.1-.2m-.2 5v.2l.1-.1v-.1m-.2-5.4h.1v-.1zm-.1-1.8l-.2.2.2.1v-.1-.2m0-.4c-.1 0-.2 0-.2.2h.2v-.2m-.3 7.6h.4l-.1-.2H138.9zm-.2-6h.2v-.1h-.2zm-.1 2.5l.1-.2h-.1zm.1-1.2v.2l-.1.3v.2l.2-.2v-.3l-.1-.2m-.1-.3c-.1 0-.2 0-.2.2l.2.1v-.1-.2m-.2-.3V157.8l.1-.1v-.2m-3.7 8.4l-.1.2v.1l.2-.1-.1-.2m-2.6-.6v.1l.1.1h.1c.3 0 .5 0 .7-.3.2-.2.3-.5.3-.7a2 2 0 00-.8.1c-.3.2-.4.4-.4.7zm0-11h.2v-.2l-.2-.2zm-.3-.8v.1l.2.2v-.4h-.2zm-.1-.3v-.2zm-.8 11.6c-.2 0-.3 0-.3.2l-.1.6v.1c.2 0 .3 0 .4-.3v-.6m-1.4.5h.1l-.1-.2h-.1zm-.7-12.3h.3v-.2h-.2zm-.6 0h.1v-.6zm-1 11.3h.1l-.1-.1zm-2.6-7.6h.1l.5-.7.1-.7-.2.1-.3.4-.5.5c0 .3.1.4.3.4m-1 .3s0 .1 0 0m7 9h-.3-.2v.2H129.2l-.1.3c0-.3-.2-.5-.5-.6a3.7 3.7 0 00-1.2-.1l-.2.1v-1l-.2-.1-.2-.1-.3-.2a6 6 0 01-.6-.3.3.3 0 01-.2-.4l-.3-.4-.1.2v.6l-.1.1h-.5l-.3-.3c0-.2.1-.2.2-.3l-.2-.1-.3-.2-.2.1v.2l-.1.2-.2.1h-.2a.4.4 0 01-.2-.3l.1-.2v-.2c0-.3 0-.5-.2-.7l-.6-.6v-.1c.2 0 .4-.1.5-.3l.2-.6v-1.7l.1-.6.2-.6v-.1l-.2-.2-.1-.3.2-.8.3-.6.1-.1c.3-.2.5-.4.6-.7l.3-.8.2.2H125.3l-.4-.7 1.5-.4.2-.7.5-.2.7-.2c.2 0 .4-.1.5-.3h1.3v-.5h-.2-.1l-.1-.1.1-.1h1.4l.2-.3v.8l.2.6a26.4 26.4 0 01.2 1.3v.2l-1 .9c-.2 0-.2 0-.2-.2l-.3-.1c-.2 0-.4 0-.4.2v.5l-.4.1-.2.2-.1.3-.3.3h-.4l-.2.4-.2.4c0 .1-.1.2-.3.2h-.3a1 1 0 00-.2.2l-.1.2v.4l.2.5-.2.6-.4.5v.8l.3.4.3.2.2.3.2.7c.1.3.2.5.4.5a25.8 25.8 0 012.2.7 52.4 52.4 0 004.3.2c.2 0 .3 0 .4-.2l.3-.3.3-.6.3.4h.3a3.8 3.8 0 01.1-1c0-.2.2-.4.3-.5 0-.2.2-.2.4-.2 0 .1 0 .2.2.3h.3v-.5l-.1-.5c.3 0 .5 0 .6.2l.2.3a30.9 30.9 0 01.4.6 17.8 17.8 0 01.2-1.2v-.3l-.3-.2c0-.1 0-.2-.2-.3v-.2l.1-.5.2-.5c0-.2 0-.4-.2-.6l-.4-.6-.3-.1-.4-.4-.5-.4-.4-.3h-.6a11.6 11.6 0 01-1.8-.4c-.3-.1-.4-.3-.4-.4v-1.2l-.1-.1-.2-.2h-.1v.1l-.1.2v.4l.2.2-.1.2-.2.3h-.1v-.2l-.2-.1v.2l-.2.3c-.2 0-.3-.2-.4-.5l-.1-.8a12.5 12.5 0 01-.1-1.4l.6-.1.4-.6.1.2v.4l-.1.4v.2l.3.2.3-.4.2-.4a13 13 0 00.2.5v.4H134.4v-.6c0-.1-.2-.2-.5-.2h.3l.1-.1H134.6l.2.3c.1.3.2.4.4.4l.2-.2.1-.3h.1c.2 0 .3 0 .4.2l.3.4.4-.5c.2.2.3.3.3.5l.4.4.6.2a5.3 5.3 0 011.6 1c.2.1.3.3.3.6v2.3l1-.8-.4-.5-.2-.5v-.1-.2l.2-.1.2.1.2.3a1.8 1.8 0 01.1.6h.1l.2-.1v-.3h.5l.2 1 .2 1v.7l-.2.3c0 .2 0 .3-.2.4l-.3.5c0 .1.1.2.3.2l.1.2c0 .1 0 .2-.2.2l-.4.1a1 1 0 00-.4.2c-.2.1-.2.3-.2.6v.2h.4l.1.2v.1a6.5 6.5 0 01-.8.2h-.2-.4V163.3l-.2.3v.2l-.1-.4-.3-.3h-.3v.2l.1.4.2.4-.1.3-.3.2-.3.2-.2.3-.3-.6v1h-.5v-.8h-.3v.3a5.2 5.2 0 01-.6 1l-.3.1-.4-.1a2 2 0 01-.1-.5l-.5.1-.2.3-.2.2-.2.3c-.2 0-.3 0-.3-.2v-.5l-.2-.5c-.1-.1-.2-.2-.5-.2v.3a5.5 5.5 0 01.1 1c0 .3 0 .4-.2.5v-.3-.3a14.7 14.7 0 01-.3-1l-.5.4-.5.5-.2.4-.3.3-.2-.1-.1-.3-.2-.3-.6-.2"/></svg>